<svg id="Layer_1" xmlns="http://www.w3.org/2000/svg" viewBox="0 0 4680 3120"><defs><clipPath id="clippath-8"><path class="cls-50" d="M3034.2 2283.87c-44.39 69.52-86.64 56.6-86.64 56.6l-5.49-4.67c.26-.15.39-.24.39-.24s14.33-25.85 25.24-46.68c8.66-16.49-12.25-176.69-21.03-284.9-2.3-28.41-3.78-53.24-3.65-70.94.31-49.82 14.62-67.9 26.45-74.34 8.4-4.56 15.53-3.26 15.53-3.26l46.74 97-15.96 14.03c19.87 69.24 9.51 160.25 4.06 226.49-5.47 66.25 7.14 80.91 7.14 80.91a67.91 67.91 0 0 1 7.23 10.01Z"/></clipPath><clipPath id="clippath-18"><rect class="cls-13" x="907.28" y="1955.48" width="335.62" height="100.74" rx="18.12" ry="18.12"/></clipPath><clipPath id="clippath"><path class="cls-9" d="M1761.29 1587.26s-11.01 146.54-25.08 215.9c-14.07 69.36-15.19 129.76-67.77 218.14s-136.47 193.53-136.47 193.53-53.69-10.07-50.34-53.69c0 0 99.56-149.9 110.75-284.14 11.19-134.24 17.9-275.19 17.9-275.19l151.02-14.54Z"/></clipPath><clipPath id="clippath-1"><path class="cls-9" d="m1827.85 1568.62 8.95 4.1s31.14 176.75 40.08 251.32c8.95 74.58-8.2 235.29-19.39 301.29-11.19 66-19.02 108.51-19.02 108.51s-48.85 10.17-78.41-17.31c0 0 21.36-254.52 1.23-328.35-20.14-73.83-25.08-106.27-25.08-106.27l6.06-213.29h85.58Z"/></clipPath><clipPath id="clippath-2"><path class="cls-50" d="M1913.42 1234.64s35.32 26.59 44.98 18.15c10.45-9.12 73.05-119.34 73.05-119.34s4.85-26.91 14.15-42.14c8.55-14.01 27.51-36.41 44.54-17.14 5.05 5.71 21.27 39.39 8.68 51.14-14.24 13.29-8.59 5.82-31.95 20.93-9.55 6.18-63.89 169.72-110.68 174.65-20.22 2.13-72.25-37.23-72.25-37.23l29.48-49.02Z"/></clipPath><clipPath id="clippath-3"><path class="cls-38" d="M1810.23 942.92s35.8-20.69 34.4-57.05c-1.4-36.36-18.18-63.48-53.14-60.69s-34.82-16.5-54.81-22.53c-19.76-5.97-60.97 4.54-62.65 33.62-1.68 29.08-40.27 12.96-52.58 31.69-12.3 18.74-16.22 43.81-7.83 62.27s-4.66 25.73-4.1 46.98c.56 21.25 27.87 48.47 54.72 43.72 26.85-4.75 17.62 25.45 56.49 20.42 38.87-5.03 89.49-98.44 89.49-98.44Z"/></clipPath><clipPath id="clippath-4"><path class="cls-50" d="M1815.54 921.95s17.62 93.41-2.52 130.6-68.52 9.79-84.74-26.57c0 0-20.14 6.43-27.13-23.49-6.99-29.92 22.37-24.05 24.89-15.38 0 0-12.3-29.92 1.96-35.8 14.26-5.87 85.58-6.43 87.53-29.36Z"/></clipPath><clipPath id="clippath-5"><path class="cls-13" d="M3141.71 1337.01s-52.55-33.91-55.91-76.68c-3.36-42.77 29.94-67.21 50.72-66.91 0 0 22.91-70.88 94.71-54.08 71.8 16.8 95.93 97.77 98.99 127.09 3.06 29.33 43.69 109.37 17.72 131.37s-79.43 48.88-79.43 48.88-101.74 20.77-122.51 5.5c0 0 28.11-30.25 19.86-69.96-8.25-39.72-24.14-45.22-24.14-45.22Z"/></clipPath><clipPath id="clippath-6"><path class="cls-38" d="m3249.35 1407.15 11.44 2.86s17.78-3.83 44.34 39.26c26.57 43.09 62.94 147.31 47.41 288.72 0 0-64.17 35.97-137.32 0 0 0-3-59.12-28.06-106.81-25.07-47.68-15.26-104.49-11.17-114.3 4.09-9.81 42.1-100.13 42.1-100.13l31.27-9.6Z"/></clipPath><clipPath id="clippath-7"><path class="cls-50" d="M3141.23 1242.95s-20.77 119.46 23.52 139.93c44.3 20.47 76.68-43.08 76.68-48.58 0 0 22.95-2.1 19.29-26.62-3.67-24.52-22.68-15.12-22.68-15.12s-70-7.91-96.81-49.61Z"/></clipPath><clipPath id="clippath-17"><path class="cls-13" d="M1060.99 2045.83v209.43h33.11v-200.04c-11.6-8.23-23.83-9.83-33.11-9.39Z"/></clipPath><clipPath id="clippath-9"><path class="cls-8" d="m3350.85 1729.22 1.69 8.77s7.15 40.59 18.09 77.58c13.07 44.17-7.42 113.07-64.31 125.44-56.89 12.37-276.33 12.01-276.33 12.01s-69.77-65.06-72.57-118.28c0 0 135.76-39.48 247.91-50.91l12.47-58.19 133.04 3.58Z"/></clipPath><clipPath id="clippath-10"><path class="cls-13" d="M3228.68 2024.84v209.43h-33.11v-200.04c11.6-8.23 23.83-9.83 33.11-9.39Z"/></clipPath><clipPath id="clippath-11"><rect class="cls-13" x="3046.77" y="1934.48" width="335.62" height="100.74" rx="18.12" ry="18.12"/></clipPath><clipPath id="clippath-12"><path class="cls-9" d="M1145.73 1812.03s153.49 3.99 209.1 16.39c66.7 14.88 64.77 73.22 49.2 120.92-15.56 47.7-174.12 354.63-174.12 354.63s-33.3 17.95-75.71-22.34c0 0 122.17-286.26 112.63-306.4-9.54-20.14-226.14 5.92-259.54-33.81-5.91-7.04 13.63-35.06 13.63-35.06l124.8-94.35Z"/></clipPath><clipPath id="clippath-13"><path class="cls-8" d="m1015.51 1364.68-8.48.88s-28.27 5.48-44.52 46.11c-16.25 40.64-37.1 128.27-38.87 169.96-1.77 41.7-10.95 195.14 16.87 272.26 27.83 77.12 54.59 95.43 75 95.43 0 0 131.71 3.95 145.23-136.78 0 0-39.22-5.12-48.76-38.69s-17.61-100.16-18.02-134.23c-.68-56.76 11.51-140.82-11.81-226.69-2.21-13.02-13.8-21.41-13.8-21.41l-52.83-26.86Z"/></clipPath><clipPath id="clippath-14"><path class="cls-50" d="m1021.65 1301.61 2.35 16.08s-3.89 31.1-16.96 47.88c0 0 2.12 13.69 22.79 23.76 20.95 10.21 38.52 2.21 38.52 2.21s-3.53-23.67 6.18-52.83c9.72-29.15 9.89-30.21 9.89-30.21l-37.28-43.11-25.49 36.22Z"/></clipPath><clipPath id="clippath-15"><path class="cls-9" d="m1118.34 1187.65 6.67-9.36s36.08-16.08 44.21-55.31c8.13-39.22-4.24-53-4.24-53s-32.16 29.33-75.27 27.21c-43.11-2.12-95.41-17.67-138.16 40.64-42.76 58.3 4.95 118.37 15.9 133.22 10.95 14.84 56.54 46.64 56.54 46.64l34.63-51.94 59.72-78.09Z"/></clipPath><clipPath id="clippath-16"><path class="cls-50" d="M1124.17 1174.93s18.02 68.9 13.25 110.78-53.71 57.42-92.1-7.6c0 0-23.32-.35-23.67-33.57 0-13.43 9.54-18.73 21.91-14.13 0 0 2.83-16.61 17.31-17.31 14.49-.71 12.82-17.67 20.72-21.91 7.9-4.24 32.51 1.41 42.58-16.25Z"/></clipPath><linearGradient id="linear-gradient" x1="1550.09" y1="1348.29" x2="3228.68" y2="1348.29" gradientUnits="userSpaceOnUse"><stop offset="0" stop-color="#b0d8ff"/><stop offset=".02" stop-color="#b2d9ff"/><stop offset=".15" stop-color="#c4e1ff"/><stop offset=".3" stop-color="#d0e6ff"/><stop offset=".51" stop-color="#d7eaff"/><stop offset="1" stop-color="#daebff"/></linearGradient><style>.cls-2{fill:#fe8e00}.cls-5{fill:#b0d8ff}.cls-6{fill:#0ace68}.cls-7{fill:#053fa5}.cls-8{fill:#ffab00}.cls-9{fill:#1e2889}.cls-10{fill:#d1e3ff}.cls-12{fill:#006dfe}.cls-13{fill:#0542bf}.cls-15{fill:#f5fcff}.cls-16{fill:#e3eeff}.cls-27{fill:#393d3c;opacity:.35}.cls-37{fill:#0e2354}.cls-38{fill:#054aa9}.cls-40{fill:transparent}.cls-41{fill:#ea756c}.cls-44{fill:#0a0d26}.cls-46{fill:#daebff}.cls-47{fill:#0054fc}.cls-50{fill:#ffaca6}.cls-51{fill:#141f72}.cls-53{fill:#2b3568}.cls-55{fill:#273263}.cls-56{fill:#fea587}.cls-57{fill:#ebf5ff}.cls-58{fill:#153077}</style></defs><path class="cls-40" d="M0 0h4680v3120H0z"/><path class="cls-46" d="M3308.99 1008.88h737.29v18.23h-737.29z"/><path class="cls-46" d="M3398.43 1023.94h13.35v87.73h-13.35zM3939.31 1023.94h13.35v87.73h-13.35z"/><path class="cls-5" d="M3395.81 886.89h42.55v127.75h-42.55zM3444.96 886.89h42.55v127.75h-42.55zM3494.11 886.89h42.55v127.75h-42.55zM3543.27 886.89h42.55v127.75h-42.55zM3592.42 886.89h42.55v127.75h-42.55zM3641.57 886.89h42.55v127.75h-42.55zM3727.92 751.17h286.77v262.1h-286.77z"/><path class="cls-46" d="M3752.56 773.69h237.5v217.07h-237.5z"/><circle class="cls-57" cx="3870.57" cy="882.8" r="59.19"/><ellipse class="cls-46" cx="1179.37" cy="2426.7" rx="305.5" ry="76.36"/><ellipse class="cls-46" cx="1676.76" cy="2333.94" rx="263.74" ry="65.92"/><ellipse class="cls-46" cx="2903.81" cy="2341.42" rx="182.64" ry="63.33"/><ellipse class="cls-46" cx="3217.76" cy="2393.82" rx="182.64" ry="63.33"/><path style="fill:#d3e2f9" d="M744.67 2220.07h2725.17v21.68H744.67z"/><path class="cls-57" d="M3481.03 1479.02h603.52v804.88h-603.52z"/><path class="cls-10" d="M3512.47 1511.62h539.72v187.59h-539.72zM3512.47 1732.07h539.72v187.6h-539.72zM3512.47 1959.16h539.72v187.6h-539.72z"/><path class="cls-15" d="M3801.5 1551.9c0 10.99-8.37 19.89-18.71 19.89s-18.71-8.9-18.71-19.89 8.38-19.89 18.71-19.89 18.71 8.9 18.71 19.89ZM3801.5 1771.53c0 10.99-8.37 19.89-18.71 19.89s-18.71-8.9-18.71-19.89 8.38-19.89 18.71-19.89 18.71 8.91 18.71 19.89ZM3801.5 1996.95c0 10.99-8.37 19.89-18.71 19.89s-18.71-8.91-18.71-19.89 8.38-19.89 18.71-19.89 18.71 8.91 18.71 19.89Z"/><path class="cls-10" d="M3348.58 1479.02h144.69v804.88h-144.69z"/><path class="cls-5" d="M3186.29 612.03H1614.42c-35.53 0-64.33 28.79-64.33 64.31v1140.81c0 35.52 28.8 64.31 64.33 64.31h1571.87c35.53 0 64.33-28.79 64.33-64.31V676.34c0-35.52-28.8-64.31-64.33-64.31Z"/><path class="cls-12" d="M3165.18 640.3H1613.6c-35.07 0-63.5 28.43-63.5 63.5v99.03h1678.59V703.8c0-35.07-28.43-63.5-63.5-63.5Z"/><path d="M1550.09 802.83v1027.42c0 35.07 28.43 63.5 63.5 63.5h1551.58c35.07 0 63.5-28.43 63.5-63.5V802.83H1550.08Z" style="fill:url(#linear-gradient)"/><rect class="cls-40" x="1671.11" y="913.08" width="589.98" height="37.42" rx="15.31" ry="15.31"/><rect class="cls-40" x="1671.11" y="994.29" width="589.98" height="37.42" rx="15.31" ry="15.31"/><rect class="cls-40" x="1671.11" y="1075.51" width="589.98" height="37.42" rx="15.31" ry="15.31"/><rect class="cls-40" x="1671.11" y="1156.73" width="589.98" height="37.42" rx="15.31" ry="15.31"/><rect class="cls-40" x="1671.11" y="1237.95" width="589.98" height="37.42" rx="15.31" ry="15.31"/><path class="cls-40" d="M2257.51 1371.35h848.28c9.3 0 16.84 7.55 16.84 16.84v342.93c0 9.3-7.55 16.85-16.85 16.85h-848.27c-9.3 0-16.85-7.55-16.85-16.85v-342.93c0-9.29 7.55-16.84 16.84-16.84Z"/><path class="cls-46" d="M3098.98 1572.99v143.14c0 6.37-5.18 11.55-11.6 11.55h-814.7c-6.41 0-11.6-5.18-11.6-11.55v-314.42c75.24 0 112.71 28.13 134.68 65.08 1.44 2.36 2.78 4.77 4 7.24 37.16 70.32 25.97 166.7 107.69 166.7 3.03 0 5.9-.36 8.62-1.08 1.74-.36 3.44-.93 5.03-1.64 54.97-23.15 46.4-187.45 144.18-186.27 20.89.26 36.49 8.27 48.81 21.05 1.18 1.29 2.36 2.56 3.49 3.95 43.78 51.38 44.4 165.88 111.63 186.67 24.23 7.49 45.64-2.67 66.78-19.45 1.33-1.09 2.72-2.16 4.05-3.34 44.71-37.11 89.16-100.55 158.13-85 2 .46 4.01.98 6.06 1.55 10.93 3.17 22.48 8.3 34.75 15.81Z"/><path d="M3099.03 1544.09c-14.63.21-25.82 5.14-34.8 13.1-16.63 14.72-25.56 39.87-34.29 64.46-13.08 36.8-26.58 74.78-66.06 74.78-2.1 0-4.31-.11-6.57-.31-25.72-2.52-44.65-23.45-61.33-52.14-10.37-17.76-19.86-38.55-29.51-59.84-27.31-59.9-55.59-121.85-107.63-123.29-.61 0-1.18-.05-1.74-.05-15.76 0-28.64 6-39.52 15.96-22.02 20.07-36.03 56.25-49.73 91.66-20.28 52.4-41.22 106.61-88.49 107.68-33.98.72-49.42-12.12-63.28-36.44-5.34-9.44-10.47-20.63-16.32-33.41-10.68-23.4-24.02-52.51-46.09-86.38-14.83-22.69-33.67-37.11-53.89-45.83-54.5-23.76-118.66-6.36-138.68.16v-5.39c21.45-6.78 81.4-22.12 134.68-2 23.25 8.78 45.22 24.33 62.15 50.3 22.33 34.14 35.72 63.44 46.51 87 6.05 13.24 11.24 24.59 16.68 33.93 13.04 22.53 27.36 33.66 58.15 32.95 43.83-1.02 63.23-51.22 83.82-104.39 13.96-36.08 28.18-72.94 51.02-93.78 12.11-11.03 26.63-17.61 44.86-17.09 55.33 1.49 84.22 64.93 112.2 126.32 9.54 20.83 18.78 41.21 28.89 58.61 16.02 27.82 33.98 47.99 57.79 50.35 40.65 4.01 53.58-32.44 67.29-71.09 8.51-24.07 17.24-48.6 33.05-64.26 10.06-10.06 23.05-16.42 40.76-16.68l.1 5.13Z" style="fill:#00b77b"/><path class="cls-6" d="M2117.59 1515.36c-22.46-99.51-111.34-173.85-217.64-173.85v223.18l217.64-49.33Z"/><path class="cls-40" d="M1899.94 1564.7v-223.18c-123.26 0-223.18 99.92-223.18 223.18 0 123.62 99.55 223.18 223.17 223.18 123.26 0 223.19-99.92 223.19-223.18 0-16.96-1.95-33.46-5.54-49.33l-217.64 49.33Z"/><circle class="cls-46" cx="1899.94" cy="1568.44" r="170.59"/><path class="cls-40" d="M2327.4 884.18h773.06c10.93 0 19.81 8.88 19.81 19.81v372.58c0 10.93-8.87 19.8-19.8 19.8H2327.4c-10.93 0-19.8-8.87-19.8-19.8V903.98c0-10.93 8.87-19.8 19.8-19.8Z"/><path class="cls-6" d="M3079.32 939.8c-8.43 0-15.26 8.24-15.26 18.38 0 3.35.8 6.44 2.09 9.14l-124.21 168.95c-1.78-.86-3.72-1.37-5.76-1.37-2.23 0-4.33.6-6.23 1.64l-133.69-158.23c.88-2.31 1.39-4.86 1.39-7.57 0-10.15-6.84-18.37-15.26-18.37s-15.25 8.23-15.25 18.37c0 2.81.55 5.43 1.48 7.81l-171.95 223.52c-2.47-2.1-5.47-3.35-8.73-3.35-2.7 0-5.18.91-7.38 2.38l-94.08-147.56c1.8-3.01 2.89-6.69 2.89-10.69 0-10.14-6.83-18.37-15.26-18.37s-15.25 8.24-15.25 18.37c0 3.29.77 6.32 2.02 9l-105.4 164.55c-1.67-.75-3.44-1.21-5.32-1.21-8.43 0-15.26 8.23-15.26 18.37s6.83 18.38 15.26 18.38 15.26-8.22 15.26-18.38c0-3.64-.91-7.02-2.43-9.87l105.03-164c1.87.99 3.92 1.54 6.09 1.54 1.59 0 3.1-.37 4.54-.92l95.3 149.47c-.82 2.25-1.27 4.72-1.27 7.31 0 10.15 6.84 18.37 15.26 18.37s15.26-8.22 15.26-18.37c0-1.91-.31-3.71-.77-5.45l172.88-224.71c2.13 1.36 4.51 2.2 7.08 2.2s5.12-.9 7.29-2.34l133.2 157.65a20.986 20.986 0 0 0-1.95 8.84c0 10.15 6.82 18.37 15.25 18.37s15.25-8.23 15.25-18.37c0-3.44-.84-6.64-2.21-9.39l124.1-168.8c1.85.95 3.87 1.47 6 1.47 8.41 0 15.25-8.22 15.25-18.37s-6.84-18.38-15.25-18.38Z"/><path class="cls-58" d="M1571.3 2326.34s-9.28 19.45-21.21 28.77c-59.52-30.74-112.58-75.45-132.35-92.97 1.63-4.67 4.55-9.65 8.47-15.01 7.33-10.01 27.92-39.18 42.02-59.22 4.19 10.86 16.14 29.4 50.3 42.99-13.69 25.5 20.09 55.2 38.97 69.97 19.35 15.15 13.8 25.46 13.8 25.46Z"/><path class="cls-56" d="M1537.33 2201.75s-1.11 1.29-17.67 27.21c-.41.64-.79 1.29-1.13 1.95-34.15-13.59-46.1-32.13-50.3-42.99 8.15-11.6 14.15-20.12 14.15-20.12l54.95 33.95Z"/><path class="cls-37" d="M1550.09 2355.11c-2.91 2.27-6 3.94-9.13 4.57-15.95 3.22-103.21-62-116.13-73.1-8.55-7.32-10.26-15.3-7.08-24.44 19.77 17.52 72.83 62.23 132.35 92.97Z"/><path class="cls-58" d="M1926.58 2312.87s1 21.57-5.14 35.45c-67.13.98-135.17-13.43-160.92-19.56-.77-4.89-.54-10.68.39-17.27 1.74-12.31 6.15-47.82 9.13-72.2 8.84 7.62 28.17 18.34 64.77 14.2-.04 29.01 43.86 39.28 67.52 43.4 24.26 4.23 24.24 15.97 24.24 15.97Z"/><path class="cls-56" d="M1837.64 2218.83s-.37 1.66-2.75 32.4c-.05.76-.09 1.52-.08 2.26-36.61 4.14-55.93-6.59-64.77-14.2 1.72-14.1 2.99-24.46 2.99-24.46l64.61 4.01Z"/><path class="cls-37" d="M1921.44 2348.31c-1.5 3.38-3.44 6.32-5.91 8.36-12.57 10.39-120.52-5.98-137.19-9.68-11.02-2.42-16.3-8.67-17.82-18.25 25.75 6.13 93.79 20.55 160.92 19.56Z"/><path class="cls-9" d="M1761.29 1587.26s-11.01 146.54-25.08 215.9c-14.07 69.36-15.19 129.76-67.77 218.14s-136.47 193.53-136.47 193.53-53.69-10.07-50.34-53.69c0 0 99.56-149.9 110.75-284.14 11.19-134.24 17.9-275.19 17.9-275.19l151.02-14.54Z"/><path class="cls-51" d="M1664.44 1582.78s-5.59 320.49-27.97 374.47c-22.37 53.98-133.69 245.29-133.69 245.29l-58.54-45.79 137.42-561.66 82.78-12.31Z" style="clip-path:url(#clippath)"/><path class="cls-9" d="m1827.85 1568.62 8.95 4.1s31.14 176.75 40.08 251.32c8.95 74.58-8.2 235.29-19.39 301.29-11.19 66-19.02 108.51-19.02 108.51s-48.85 10.17-78.41-17.31c0 0 21.36-254.52 1.23-328.35-20.14-73.83-25.08-106.27-25.08-106.27l6.06-213.29h85.58Z"/><path class="cls-51" d="M1856.24 1619.39s-66.36 177.62-79.93 369.51c-13.57 191.9-22.37 31.83-22.37 31.83l-45.31-266.24 1.12-171.72s104.59-26.28 106.83-26.84 29.64-4.47 28.53 0c-1.12 4.47 11.14 63.45 11.14 63.45Z" style="clip-path:url(#clippath-1)"/><path class="cls-50" d="M1913.42 1234.64s35.32 26.59 44.98 18.15c10.45-9.12 73.05-119.34 73.05-119.34s4.85-26.91 14.15-42.14c8.55-14.01 27.51-36.41 44.54-17.14 5.05 5.71 21.27 39.39 8.68 51.14-14.24 13.29-8.59 5.82-31.95 20.93-9.55 6.18-63.89 169.72-110.68 174.65-20.22 2.13-72.25-37.23-72.25-37.23l29.48-49.02Z"/><path class="cls-41" d="M1911.72 1314.03s37.19-9.51 36.08-73.55c-1.12-64.04-44.19-16.22-44.19-16.22l-28.81 53.97 36.92 35.8Z" style="clip-path:url(#clippath-2)"/><path class="cls-9" transform="rotate(34.65 2145.197 986.4)" d="M2139.25 819.31h11.65v333.95h-11.65z"/><path class="cls-47" d="M1627.19 1344.05c32.44-42.49 27.7-104.64 24.53-127.7 2.2 33.05-18.24 102.44-18.24 102.44s-.6 2.15-1.62 6.13c-1.12 4.34-2.75 10.87-4.67 19.13ZM1651.72 1216.35c-.23-3.45-.71-6.51-1.48-9.05 0 0 .69 3.32 1.48 9.05ZM1822.17 1197.41c15.66 38.59 10.71 71.59 10.71 71.59l6.91 4.44c1-7.91 1.91-16.95 2.24-25.41.84-21.81-19.86-50.62-19.86-50.62Z"/><path class="cls-12" d="M1914.54 1218.11s-47.11-43.74-64.02-68.42c-20.69-30.2-82.24-36.45-82.24-36.45l-58.45.28-10.16-1.58s-83.25 5.27-107.86 65.12c-24.61 59.85-34.67 117.13-34.67 117.13s1.63 1.85 4.63 4.59c8.6 7.85 28.45 22.99 53.42 22.89 5.84-.02 11.97-.88 18.29-2.86 0 0 20.44-69.39 18.24-102.44-.79-5.73-1.48-9.05-1.48-9.05.77 2.54 1.25 5.6 1.48 9.05 3.17 23.06 7.91 85.21-24.53 127.7-5.65 24.25-13.83 63.52-19.08 106.95-3.3 27.34-5.44 56.32-5.04 84.22.33 23.5 2.46 46.24 7.2 66.59 0 0 5.61 4.46 17.29 8.89 10.28 3.9 25.26 7.77 45.27 8.54 36.9 1.44 90.88-7.65 163.97-46.52 0 0-19.02-77.19-10.63-174.51 8.39-97.32 6.71-129.2 6.71-129.2s4.95-33-10.71-71.59c0 0 20.69 28.81 19.86 50.62-.33 8.46-1.24 17.5-2.24 25.41l40.08 25.76s41.39-40.83 34.68-81.1Z"/><path class="cls-41" d="M1601.27 1365.87c4.56-14.87 9.88-31.65 13.9-44.22-24.97.1-44.82-15.04-53.42-22.89-2.7 7.65-5.88 16.93-9.07 26.8 16.1 5.68 39.39 17.54 48.59 40.31Z"/><path class="cls-50" d="M1651.69 1550.45s-26.06-54.37-43.59-99.46c-10.03-25.79-21.67-34.68-19.65-42.49 1.64-6.33 9.19-30.81 12.82-42.63-9.2-22.77-32.48-34.63-48.59-40.31-8.79 27.17-22.04 72.64-20.95 86.92 1.48 19.21 46.72 79.55 71.32 122.74 10.68 18.76 18.31 31.67 18.31 31.67s4.6 21.21 6.18 43.81c.43 6.13.63 12.36.46 18.29-.79 27.83 34.43 23.67 42.05 3.19 1.48-3.96 2.38-8.3 2.75-12.93 1.56-19.32-6.2-43.87-21.13-68.79Z"/><path class="cls-41" d="M1763.39 1086.62c-.91-9.19-1.21-20.02.13-31.28l-28.81-37.47-36.08 14.54s7.91 22.11 6.75 48.99c12.07-2.35 34.1-4.26 57.99 5.22Z"/><path class="cls-38" d="M1810.23 942.92s35.8-20.69 34.4-57.05c-1.4-36.36-18.18-63.48-53.14-60.69s-34.82-16.5-54.81-22.53c-19.76-5.97-60.97 4.54-62.65 33.62-1.68 29.08-40.27 12.96-52.58 31.69-12.3 18.74-16.22 43.81-7.83 62.27s-4.66 25.73-4.1 46.98c.56 21.25 27.87 48.47 54.72 43.72 26.85-4.75 17.62 25.45 56.49 20.42 38.87-5.03 89.49-98.44 89.49-98.44Z"/><g style="clip-path:url(#clippath-3)"><path d="M1720.37 1046.21s0-4.1-11.19-12.68-18.64-23.01-18.64-37.42 6.34-14.04 15.29-27.83c8.95-13.8-1.08-25.36 21.09-30.58 22.17-5.22 80.34-11.19 86.3-28.34 5.97-17.15 15.29 21.25 15.29 21.25l-68.98 60.41-39.15 55.19Z" style="fill:#084684"/></g><path class="cls-50" d="M1815.54 921.95s17.62 93.41-2.52 130.6-68.52 9.79-84.74-26.57c0 0-20.14 6.43-27.13-23.49-6.99-29.92 22.37-24.05 24.89-15.38 0 0-12.3-29.92 1.96-35.8 14.26-5.87 85.58-6.43 87.53-29.36Z"/><path class="cls-41" d="M1720.18 1039.31s-26.85-36.92-7.83-39.9c19.02-2.98 22.36-4.29 21.62-12.68s-7.08-20.69 7.09-22 76.44-13.8 82.97-24.24c6.53-10.44-3.54-24.8-3.54-24.8l-26.1 14.54-74.76 14.54-12.31 25.92-13.98 20.32 11.93 39.71 14.92 8.58Z" style="clip-path:url(#clippath-4)"/><path class="cls-50" d="M1705.39 1081.4c-.42 9.82-2.05 20.27-5.73 30.53 0 0 22.19 32.91 68.61 1.31 0 0-3.34-10.91-4.89-26.61-23.9-9.48-45.92-7.57-57.99-5.22Z"/><path class="cls-41" d="M3212.02 1670.44s-163.08-32.87-173.97-43.59-46.63-42.94-82.6-29.8c-35.97 13.14-36.47 33.02 6.05 42.1 42.53 9.08 34.71 22.03 68.95 19.33 0 0 91.17 52.42 187.31 70.87l-5.74-58.91Z"/><path class="cls-13" d="M3141.71 1337.01s-52.55-33.91-55.91-76.68c-3.36-42.77 29.94-67.21 50.72-66.91 0 0 22.91-70.88 94.71-54.08 71.8 16.8 95.93 97.77 98.99 127.09 3.06 29.33 43.69 109.37 17.72 131.37s-79.43 48.88-79.43 48.88-101.74 20.77-122.51 5.5c0 0 28.11-30.25 19.86-69.96-8.25-39.72-24.14-45.22-24.14-45.22Z"/><path class="cls-9" d="M3111.07 1331.14s3.21-92.11 28.41-100.82c0 0 45.83 49.49 111.82 47.2 14.15-2.02 32.88 11.27 14.15 66.13-18.73 54.85 48.63 91.98 48.63 91.98l-104.49 54.08-78.36-27.95-20.16-130.61Z" style="clip-path:url(#clippath-5)"/><path class="cls-10" transform="rotate(180 1043.67 1111.645)" d="M662.06 656.33h763.22v910.63H662.06z"/><path class="cls-16" transform="rotate(180 1018.055 1111.645)" d="M627.14 656.33h781.82v910.63H627.14z"/><path class="cls-10" transform="rotate(180 1043.67 1599.405)" d="M662.06 1566.96h763.22v64.89H662.06z"/><path class="cls-16" transform="rotate(180 959.88 1599.405)" d="M568.97 1566.96h781.82v64.89H568.97z"/><path class="cls-15" transform="rotate(90 1018.055 1111.645)" d="M611.63 769.62h812.86v684.05H611.63z"/><path class="cls-40" d="M1276.1 1518.08 989.18 705.22H853.73l286.92 812.86h135.45z"/><path d="M1337.45 1242.29c1.93 0 3.49-1.56 3.49-3.49V737.02c0-1.93-1.56-3.49-3.49-3.49s-3.49 1.56-3.49 3.49v501.78c0 1.93 1.56 3.49 3.49 3.49Z" style="fill:#e2eeff"/><path class="cls-40" d="M1111.56 1518.08 824.64 705.22h-52.81l286.92 812.86h52.81z"/><path class="cls-10" transform="rotate(90 679.13 1111.65)" d="M272.7 1108.54h812.86v6.21H272.7z"/><path class="cls-10" d="M615.58 767.76h763.22l4.5-43.54H620.08l-4.5 43.54z"/><path class="cls-10" d="M615.58 799.63h763.22l4.5-43.54H620.08l-4.5 43.54z"/><path class="cls-10" d="M615.58 837.87h763.22l4.5-43.54H620.08l-4.5 43.54z"/><path class="cls-10" d="M615.58 880.43h763.22l4.5-43.54H620.08l-4.5 43.54zM615.58 931.42h763.22l4.5-43.54H620.08l-4.5 43.54zM615.58 988.79h763.22l4.5-43.54H620.08l-4.5 43.54z"/><path class="cls-46" d="M2249.49 1954.05h195.82v86.58h-195.82z"/><path class="cls-57" d="M2328.67 2040.63h195.82v86.58h-195.82z"/><path class="cls-38" d="m3249.35 1407.15 11.44 2.86s17.78-3.83 44.34 39.26c26.57 43.09 62.94 147.31 47.41 288.72 0 0-64.17 35.97-137.32 0 0 0-3-59.12-28.06-106.81-25.07-47.68-15.26-104.49-11.17-114.3 4.09-9.81 42.1-100.13 42.1-100.13l31.27-9.6Z"/><g style="clip-path:url(#clippath-6)"><path d="m3162.62 1651.56 113.22-132.33s47.5 198.27-12.39 246.76l-66.61-20.35-34.23-94.09Z" style="fill:#06438c"/><path d="m3344.71 1756.26-6.62-11.98s16.41-76.76-4.84-156.4-39.97-118.88-81.84-175l26.25-14.73 50.13 41.97 46.32 147.76s2.18 96.89 2.18 100.45-16.35 62.95-16.35 62.95l-15.25 4.98Z" style="fill:#115fbc"/></g><path class="cls-50" d="M3283.43 1458.33c-13.79-8.96-32.22-5.05-41.18 8.74l-118.09 181.71c-19.64 2.73-163.45 22.49-176.34 16.46-13.84-6.48-58.26-24.98-87.81-.62-29.56 24.36-23.41 43.27 19.71 37.69 43.13-5.58 40.06 9.23 71.45-4.7 0 0 93.71 17.31 186.22 6.39 11.48 2.12 23.62-2.66 30.38-13.05l124.4-191.42c8.96-13.79 5.05-32.22-8.74-41.18Z"/><path class="cls-41" d="M3217.77 1396.23c-.61-12.86-2.6-28.64-8.26-38.03l33.45-43.27 6.19 12.56s2.61 18.95 5.99 38.69c-9.83 2.82-24.84 10.3-37.37 30.05Z"/><path class="cls-50" d="M3255.14 1366.19c3.34 19.52 8.04 40.86 11.12 44.39 0 0-19.63 18.88-48.5 6.51 0 0 .57-9.24.01-20.85 12.53-19.75 27.54-27.22 37.37-30.05ZM3141.23 1242.95s-20.77 119.46 23.52 139.93c44.3 20.47 76.68-43.08 76.68-48.58 0 0 22.95-2.1 19.29-26.62-3.67-24.52-22.68-15.12-22.68-15.12s-70-7.91-96.81-49.61Z"/><path class="cls-41" d="M3261.12 1331.94s-8.01-23.14-26.57-19.93c-18.56 3.21-77.22-12.6-103.57-50.87l1.22-27.73 76.23 29.79 59.58 24.98 2.52 36.43-9.4 7.33Z" style="clip-path:url(#clippath-7)"/><path class="cls-50" d="M3034.2 2283.87c-44.39 69.52-86.64 56.6-86.64 56.6l-5.49-4.67c.26-.15.39-.24.39-.24s14.33-25.85 25.24-46.68c8.66-16.49-12.25-176.69-21.03-284.9-2.3-28.41-3.78-53.24-3.65-70.94.31-49.82 14.62-67.9 26.45-74.34 8.4-4.56 15.53-3.26 15.53-3.26l46.74 97-15.96 14.03c19.87 69.24 9.51 160.25 4.06 226.49-5.47 66.25 7.14 80.91 7.14 80.91a67.91 67.91 0 0 1 7.23 10.01Z"/><path class="cls-41" d="M2969.1 2248.49s11.25-187.87 27.68-226.57c16.43-38.69 19.71-51.94 37.42-48.76l14.53-28.77s-29.68-67.69-29.15-69.28-40.98-19.85-40.98-19.85l-36.52 50.06v96.47l-5.18 85.34 32.21 161.37Z" style="clip-path:url(#clippath-8)"/><path class="cls-9" d="M3034.2 2283.88c-44.39 69.5-86.65 56.59-86.65 56.59l-5.48-4.68c-3.97 2.29-36.42 21.55-40.1 41.09-3.92 20.82 75.84 21.16 90.96.58l21.45-37.83 5.72 41.59 10.71-.24 8.21-51.44s9.17-21.78-4.81-45.67ZM2810.66 2269.97l-.36-.65c-4.6 1.18-39.1 10.48-47.5 27.42-9.01 18.16 64.36 39.17 83.62 24.13l29.57-29.27-5.53 39.78 9.92 2.56 20.91-45.25s12.96-16.26 8.14-40.2c-64.36 47.66-98.77 21.48-98.77 21.48Z"/><path class="cls-50" d="m2975.88 1841.87-1.34-3.87s-36.19-17.72-58.79 60.59c-22.62 78.29-54.12 317.8-69.59 334.14-15.46 16.34-35.35 36.46-35.35 36.46s-.2.04-.53.12l.36.67s34.41 26.17 98.76-21.49c-.89-4.48-2.41-9.23-4.78-14.2 0 0-7.78-16.78 14.42-76.38 17.7-47.49 46.86-112.64 56.53-173.06l11.13-49.85 3.59-22.04-14.42-71.09Z"/><path class="cls-8" d="m3350.85 1729.22 1.69 8.77s7.15 40.59 18.09 77.58c13.07 44.17-7.42 113.07-64.31 125.44-56.89 12.37-276.33 12.01-276.33 12.01s-69.77-65.06-72.57-118.28c0 0 135.76-39.48 247.91-50.91l12.47-58.19 133.04 3.58Z"/><path class="cls-2" d="M3286.72 1725.64s17.37 118.73-65.65 139.4c-83.02 20.67-259.53 46.11-259.53 46.11s-23.85-76.33-24.65-86.66c-.8-10.34 99.38-55.65 109.72-56.45 10.34-.8 138.34-5.04 138.34-10.07s7.16-50.37 7.16-50.37l94.61 18.04Z" style="clip-path:url(#clippath-9)"/><path class="cls-13" d="M3228.68 2024.84v209.43h-33.11v-200.04c11.6-8.23 23.83-9.83 33.11-9.39Z"/><path class="cls-27" d="M3236.37 2042.57s-28.53 4.69-44.9 33.11c-16.37 28.42-29.88-3.33-26.73-16.33 3.15-13 1.5-26.3 9.91-36.28s24.47-24.19 46.4-18.75c21.92 5.44 24.78 2.42 23.57 14.66s-3.3 25.4-3.3 25.4" style="clip-path:url(#clippath-10)"/><ellipse class="cls-55" cx="3332.72" cy="2381.93" rx="25.6" ry="26.46"/><path class="cls-55" d="M3184.94 2405.7c0 14.61 11.46 26.45 25.6 26.45s25.61-11.84 25.61-26.45-11.47-26.46-25.61-26.46-25.6 11.84-25.6 26.46ZM3064.07 2381.93c0 14.61 11.46 26.46 25.6 26.46s25.6-11.84 25.6-26.46-11.46-26.45-25.6-26.45-25.6 11.84-25.6 26.45Z"/><path class="cls-9" d="M3234.75 2233.8s-22.34-8.52-46.07 0l-.65 29.92-116.25 89.67v21.3h34.32l.46-16.38 89.01-65.04-.55 81.42 4.41 19.13h23.17l4.27-18.94.97-79.34 88.55 62.11.37 15.91 31.82.19v-22.54l-114.02-87.11v-17.94l.18-12.36Z"/><path class="cls-55" d="M3460.52 1743.32v87.1s5.32 56.19-19.95 84.45c-22.94 25.65-75.46 44.73-84.95 48.03-.97.34-1.49.51-1.49.51l-12.3-27.26c-3.44-.72 33.81-10.03 70.48-41.89 12.14-10.54 13.63-38.9 13.96-61.17s0-92.42 0-92.42l34.71-2.66-.47 5.32Z"/><rect class="cls-13" x="3046.77" y="1934.48" width="335.62" height="100.74" rx="18.12" ry="18.12"/><path class="cls-7" d="M3038.13 1982.17h385.86l-22.7-68.9-352.56 13.78-10.6 55.12z" style="clip-path:url(#clippath-11)"/><rect class="cls-13" x="3395.02" y="1491.31" width="104.39" height="254.66" rx="17.45" ry="17.45" transform="rotate(180 3447.215 1618.645)"/><path class="cls-13" d="M1436.27 1570.04h247.64c2.39 0 4.32 1.94 4.32 4.32v14.2c0 2.39-1.94 4.32-4.32 4.32h-247.64c-2.39 0-4.32-1.94-4.32-4.32v-14.2c0-2.39 1.94-4.32 4.32-4.32Z" transform="rotate(-74.19 1560.164 1581.477)"/><path class="cls-13" d="M1254.33 1701.33h260.12a3.15 3.15 0 0 1 3.15 3.15v18.87a3.15 3.15 0 0 1-3.15 3.15h-260.12a3.15 3.15 0 0 1-3.15-3.15v-18.87a3.15 3.15 0 0 1 3.15-3.15Z"/><path class="cls-53" d="m2700.46 1706.7 13.66-3.87c2.3-.65 3.63-3.04 2.98-5.34l-67.46-238.27a4.322 4.322 0 0 0-5.34-2.98l-13.66 3.87c-2.3.65-3.63 3.04-2.98 5.34l67.46 238.27c.65 2.3 3.04 3.63 5.34 2.98Z"/><path class="cls-53" d="M2718.04 1701.33h260.12a3.15 3.15 0 0 1 3.15 3.15v18.87a3.15 3.15 0 0 1-3.15 3.15h-260.12a3.15 3.15 0 0 1-3.15-3.15v-18.87a3.15 3.15 0 0 1 3.15-3.15Z" transform="rotate(180 2848.095 1713.915)"/><path class="cls-44" d="M1318.43 2295.86s.5 22.53-1.39 40.44c-1.89 17.91-15.5 30.9-11 48.33s55.56 23.14 91.53 31.17c35.97 8.03 68.97 3.5 67.09-24.32-1.88-27.81-62.07-23.08-81.78-59.44-19.71-36.35-12.18-41.19-12.18-41.19l-52.27 5Z"/><path d="M1376.14 1853.9s18.31 9.53 18.33 40.54c.02 31.01-9.17 410.25-9.17 410.25s-35.33 28.62-79.06-3.98l-10.34-210.69 80.23-236.13Z" style="fill:#191e56"/><path class="cls-9" d="M1145.73 1812.03s153.49 3.99 209.1 16.39c66.7 14.88 64.77 73.22 49.2 120.92-15.56 47.7-174.12 354.63-174.12 354.63s-33.3 17.95-75.71-22.34c0 0 122.17-286.26 112.63-306.4-9.54-20.14-226.14 5.92-259.54-33.81-5.91-7.04 13.63-35.06 13.63-35.06l124.8-94.35Z"/><g style="clip-path:url(#clippath-12)"><path d="M1063.05 1966.8s54.65-.8 116.33-53.27c61.67-52.47 172.18-76.25 211.14 35.82l22.5 56.49s22.02-114.57 22.02-116.96-13.72-69.43-18.78-76.86c-5.07-7.42-280.95-25.44-280.95-25.44l-91.43 67.31-37.68 94.13 56.86 18.76Z" style="fill:#172375"/></g><path class="cls-41" d="M1483.56 1658c-30.83-25.41-77.16-6.11-91.6.65-11.21 5.25-117.38-8.21-164.23-14.48l-125.97-193.83c-9.71-14.95-29.7-19.19-44.65-9.47l-2 1.3c-14.95 9.71-19.19 29.7-9.47 44.65l128.43 197.62c2.29 3.52 5.15 6.44 8.38 8.73l-2.35 5.25c100.98 15.21 208.36-6.01 208.36-6.01 32.74 14.54 29.55-.92 74.53 4.91s51.39-13.9 20.56-39.31Z"/><path d="M1069.97 1604.34s-38.2-65.46-53.84-102.58c-15.64-37.13-24.8-82.52-5.39-99.09 19.4-16.56 52.34-15.4 70.03 8.85 17.69 24.25 83.16 128.89 83.16 128.89s-23.41 77.29-93.96 63.93Z" style="fill:#fc8300"/><path class="cls-8" d="m1015.51 1364.68-8.48.88s-28.27 5.48-44.52 46.11c-16.25 40.64-37.1 128.27-38.87 169.96-1.77 41.7-10.95 195.14 16.87 272.26 27.83 77.12 54.59 95.43 75 95.43 0 0 131.71 3.95 145.23-136.78 0 0-39.22-5.12-48.76-38.69s-17.61-100.16-18.02-134.23c-.68-56.76 11.51-140.82-11.81-226.69-2.21-13.02-13.8-21.41-13.8-21.41l-52.83-26.86Z"/><g style="clip-path:url(#clippath-13)"><path d="m993.25 1462.21-12.22 2.17s2.68 66.13 15.93 122.88 21.73 107.07 25.44 182.37c3.71 75.3 91.7 159.54 91.7 159.54l81.63-134.1s-60.42-108.69-61.48-118.22c-1.06-9.52-54.3-155.28-54.3-155.28l-86.69-59.36Z" style="fill:#ff9e22"/></g><path class="cls-50" d="M1464.76 1684.5c-30.83-25.41-77.16-6.11-91.6.65-12.48 5.85-142.59-11.49-177.61-16.29l-124.8-192.02c-9.71-14.95-29.7-19.19-44.65-9.47l-2 1.3c-14.95 9.71-19.19 29.7-9.47 44.65l128.43 197.62a32.108 32.108 0 0 0 18.45 13.51l-.21.47c100.98 15.21 208.36-6.01 208.36-6.01 32.74 14.54 29.55-.92 74.53 4.91 44.98 5.83 51.39-13.9 20.56-39.31Z"/><path class="cls-2" d="M1051.17 1630.84s-38.2-65.46-53.84-102.58c-15.64-37.13-24.8-82.52-5.39-99.09 19.4-16.56 52.34-15.4 70.03 8.85 17.69 24.25 83.16 128.89 83.16 128.89s-23.41 77.29-93.96 63.93Z"/><path class="cls-50" d="m1021.65 1301.61 2.35 16.08s-3.89 31.1-16.96 47.88c0 0 2.12 13.69 22.79 23.76 20.95 10.21 38.52 2.21 38.52 2.21s-3.53-23.67 6.18-52.83c9.72-29.15 9.89-30.21 9.89-30.21l-37.28-43.11-25.49 36.22Z"/><path class="cls-41" d="M997.85 1325.46s57.95 9.19 74.91 50.88l21.91-60.07 6.36-34.98-64.66-12.01s-13.19 15.45-18.37 27.92c-5.18 12.46-20.14 28.27-20.14 28.27Z" style="clip-path:url(#clippath-14)"/><path class="cls-9" d="m1118.34 1187.65 6.67-9.36s36.08-16.08 44.21-55.31c8.13-39.22-4.24-53-4.24-53s-32.16 29.33-75.27 27.21c-43.11-2.12-95.41-17.67-138.16 40.64-42.76 58.3 4.95 118.37 15.9 133.22 10.95 14.84 56.54 46.64 56.54 46.64l34.63-51.94 59.72-78.09Z"/><g style="clip-path:url(#clippath-15)"><path d="M954.56 1265.39s33.68 10.25 45.2-27.92c11.52-38.16 44.91-55.12 93.67-71.02 48.76-15.9 80.04-34.83 90.11-54.52l-15.9 81.9-59.89 82.33-73.82 61.48-60.28-23.32-19.08-48.94Z" style="fill:#172272"/></g><path class="cls-50" d="M1124.17 1174.93s18.02 68.9 13.25 110.78-53.71 57.42-92.1-7.6c0 0-23.32-.35-23.67-33.57 0-13.43 9.54-18.73 21.91-14.13 0 0 2.83-16.61 17.31-17.31 14.49-.71 12.82-17.67 20.72-21.91 7.9-4.24 32.51 1.41 42.58-16.25Z"/><path class="cls-41" d="M1018.16 1265.39s7.42-14.9 27.56-16.9c20.14-2 92.19-51.3 92.19-51.3l-10.56-32.86-81.63 16.96-41.34 43.46 13.78 40.64Z" style="clip-path:url(#clippath-16)"/><path class="cls-13" d="M1060.99 2045.83v209.43h33.11v-200.04c-11.6-8.23-23.83-9.83-33.11-9.39Z"/><path class="cls-27" d="M1053.3 2063.57s28.53 4.69 44.9 33.11c16.37 28.42 29.88-3.33 26.73-16.33-3.15-13-1.5-26.3-9.91-36.28s-24.47-24.19-46.4-18.75c-21.92 5.44-24.78 2.42-23.57 14.66 1.2 12.24 3.3 25.4 3.3 25.4" style="clip-path:url(#clippath-17)"/><ellipse class="cls-55" cx="956.94" cy="2402.93" rx="25.6" ry="26.46"/><path class="cls-55" d="M1104.72 2426.7c0 14.61-11.46 26.45-25.6 26.45s-25.61-11.84-25.61-26.45 11.47-26.46 25.61-26.46 25.6 11.84 25.6 26.46ZM1225.6 2402.93c0 14.61-11.46 26.46-25.6 26.46s-25.6-11.84-25.6-26.46 11.46-26.45 25.6-26.45 25.6 11.84 25.6 26.45Z"/><path class="cls-9" d="M1054.92 2254.8s22.34-8.52 46.07 0l.65 29.92 116.25 89.67v21.3h-34.32l-.46-16.38-89.01-65.04.55 81.42-4.41 19.13h-23.17l-4.27-18.94-.97-79.34-88.55 62.11-.37 15.91-31.82.19v-22.54l114.02-87.11v-17.94l-.18-12.36Z"/><path class="cls-55" d="M829.15 1764.31v87.1s-5.32 56.19 19.95 84.44c22.94 25.65 75.46 44.73 84.95 48.03.96.34 1.49.51 1.49.51l12.3-27.26c3.44-.72-33.81-10.03-70.48-41.89-12.14-10.54-13.63-38.9-13.96-61.17-.33-22.27 0-92.42 0-92.42l-34.71-2.66.47 5.32Z"/><rect class="cls-13" x="907.28" y="1955.48" width="335.62" height="100.74" rx="18.12" ry="18.12"/><path class="cls-7" d="M894.64 1999.4h356.54l-8.28-58.83-360.42 3.97 12.16 54.86z" style="clip-path:url(#clippath-18)"/><rect class="cls-13" x="790.25" y="1512.31" width="104.39" height="254.66" rx="17.45" ry="17.45"/><path d="M1154.21 2281.64c1.79 1.7 3.56 3.29 5.32 4.79 10.35-12.2 19.84-25.66 19.84-25.66l45.01 27.05s-5.64-.37-10.85 20.04c10.29-.61 16.38-3.89 16.38-3.89s158.56-306.93 174.12-354.63c15.56-47.7 17.49-106.05-49.2-120.92-55.61-12.41-209.1-16.39-209.1-16.39l-124.8 94.35s-19.54 28.02-13.63 35.06c33.39 39.73 250 13.67 259.54 33.81" style="fill:none"/><path class="cls-44" d="M1213.53 2307.87c-12.75.75-31.96-2.61-54.01-21.43-1.76 2.07-3.54 4.11-5.31 6.04-12.17 13.28-30.83 15.64-37.57 32.32-6.74 16.69 30.92 51.63 55.07 79.47 24.15 27.84 53.39 43.81 68.41 20.32 15.02-23.48-36.2-55.46-30.44-96.4 1.18-8.4 2.5-15.05 3.84-20.32Z"/><path class="cls-7" d="M1160.74 1729.35h2060.78v24.63H1160.74z"/><path class="cls-13" d="M1160.74 1753.97h2060.78v32.62H1160.74z"/><path class="cls-55" d="M1279.47 1786.59h25.67v676.33h-25.67zM3072.73 1786.59h25.67v676.33h-25.67z"/><path class="cls-5" d="m3156.33 621.51-3.67 10.4-752.24-312.29-752.25 312.29-3.66-10.4 747.15-310.17 8.76-3.63 8.75 3.63 747.16 310.17z"/></svg>