<svg id="Layer_1" xmlns="http://www.w3.org/2000/svg" viewBox="0 0 4680 3120"><defs><clipPath id="clippath"><path class="cls-30" d="m1402.69 1019.18 4.97-10.27s44.72-24.18 39.08-88.11c0 0-64.59 14.13-104.34 3.26-39.75-10.88-94.4 4.69-103.01 38.48 0 0-40.58 7.95-46.54 49.68-5.96 41.73 18.38 110.3 48.69 142.1 30.31 31.8 64.59 30.8 84.46 25.84 19.87-4.97 20.7-15.57 20.7-15.57l24.18-21.86 31.8-123.55Z"/></clipPath><clipPath id="clippath-1"><path class="cls-36" d="M1407.66 1008.91s18.88 63.26 13.25 109.31c-5.63 46.04-21.2 86.78-58.96 59.62-13.58-11.59-15.24-13.25-15.24-13.25s11.26-18.88 9.27-42.4c0 0-21.2-7.62-16.56-26.83 4.64-19.21 17.89-24.51 26.5-17.56 0 0-2.98-33.45 3.31-43.39 6.29-9.94 38.42-25.5 38.42-25.5Z"/></clipPath><clipPath id="clippath-2"><path class="cls-40" d="m1542.1 1797.62 25.2 7.45s150.51 1.47 197.97 4.5c67.13 4.28 179.08-2.7 164.61 112.49-9.38 74.67-83.11 384.79-83.11 384.79s-33.94 20.23-91.4-5.94c0 0 32.03-248.42 31.5-295.86-.53-47.44-83.69-39.8-194.37-27.2-101.68 11.58-261.22 13.07-311.64-33.97l261.24-146.25Z"/></clipPath><clipPath id="clippath-3"><path class="cls-12" d="M1285.9 1261.21h-12.68s-75.81 5.94-86.6 69.06c-10.79 63.13-8.8 235.96-8 265.46.8 29.5 1.52 189.2 32.46 260.42 30.93 71.22 68.34 94.41 155.39 97.56 87.05 3.15 173.37-.44 203.59-111.23 30.21-110.79-32.7-124.61-32.7-124.61s-24.85-104.88-21.98-150.2c0 0 37.45 86.58 80.61 101.68 43.16 15.11 95.96-33.93 95.96-33.93s8.7-80.19-29.39-94.58c0 0-28.83 3.46-40.77-1.67-11.22-4.82-29.17-48.12-56.28-133.91-27.11-85.79-48.87-113.12-83.94-126.07-35.07-12.95-86.33-17.98-86.33-17.98h-109.35Z"/></clipPath><clipPath id="clippath-4"><path class="cls-17" d="M1526.81 1986.85s6.3-29.7 5.4-117.88c-.9-88.19-28.8-90.89-92.69-89.99-63.89.9-217.77 25.2-251.97-21.6-34.2-46.79-62.99-191.67-71.09-242.07-8.1-50.39-26.1-194.37-34.2-262.77-8.1-68.39-14.4-185.38-113.39-151.18-98.99 34.2 6.3 553.43 18.9 613.72 12.6 60.29 48.59 276.69 159.28 280.53 110.69 3.84 379.75-8.76 379.75-8.76Z"/></clipPath><linearGradient id="linear-gradient" x1="1402.56" y1="1126.71" x2="3070.01" y2="1126.71" gradientUnits="userSpaceOnUse"><stop offset="0" stop-color="#b0d8ff"/><stop offset=".02" stop-color="#b2d9ff"/><stop offset=".15" stop-color="#c4e1ff"/><stop offset=".3" stop-color="#d0e6ff"/><stop offset=".51" stop-color="#d7eaff"/><stop offset="1" stop-color="#daebff"/></linearGradient><style>.cls-4{fill:none}.cls-5{fill:#fe8e00}.cls-6{fill:#191e56}.cls-7{fill:#7bbdff}.cls-8,.cls-9{fill:#b0d8ff}.cls-12{fill:#ffab00}.cls-13{fill:#1e2889}.cls-15{fill:#006dfe}.cls-16{fill:#4385f5}.cls-17{fill:#0542bf}.cls-4{stroke-linecap:round;stroke-linejoin:round}.cls-20{fill:#172272}.cls-4{stroke:#7bbaff;stroke-width:6px}.cls-21,.cls-9{fill-rule:evenodd}.cls-26{fill:#054aa9}.cls-27{fill:transparent}.cls-28{fill:#ea756c}.cls-29{fill:#00d967}.cls-30{fill:#0f2e6d}.cls-32{fill:#293272}.cls-21,.cls-34{fill:#daebff}.cls-36{fill:#ffaca6}.cls-39{fill:#ebf5ff}.cls-40{fill:#153077}.cls-41{fill:#2838ad}</style></defs><path class="cls-27" d="M0 0h4680v3120H0z"/><circle class="cls-7" cx="933.23" cy="887.37" r="223.83"/><circle class="cls-34" cx="933.23" cy="887.37" r="205.14" transform="rotate(-45 933.232 887.373)"/><path class="cls-26" d="M933.23 893.79c-1.55 0-3.1-.56-4.32-1.67L817.59 790.88c-2.62-2.39-2.82-6.45-.43-9.07a6.43 6.43 0 0 1 9.07-.43l107.08 97.39 82.37-71.99c2.67-2.33 6.73-2.06 9.06.61a6.425 6.425 0 0 1-.61 9.06l-86.68 75.75a6.399 6.399 0 0 1-4.22 1.59ZM926.23 1044.34h13.44v35.29h-13.44zM926.23 695.11h13.44v35.29h-13.44z"/><path class="cls-26" transform="rotate(90 758.34 887.37)" d="M751.62 869.73h13.44v35.29h-13.44z"/><path class="cls-26" transform="rotate(90 1107.57 887.37)" d="M1100.85 869.73h13.44v35.29h-13.44z"/><path style="stroke-linecap:round;stroke-linejoin:round;stroke-width:2px;stroke:#de4d30;fill:none" d="m933.23 891.43 54.34 163.41"/><circle class="cls-7" cx="933.23" cy="887.37" r="23.67" transform="rotate(-45 933.232 887.373)"/><circle class="cls-12" cx="933.23" cy="887.37" r="13.94" transform="rotate(-22.5 933.235 887.36)"/><path class="cls-34" d="M722.04 1859.25h164.42v72.7H722.04z"/><path class="cls-39" d="M788.53 1931.95h164.42v72.7H788.53z"/><ellipse class="cls-39" cx="1345.04" cy="2417.4" rx="260.97" ry="53.59"/><ellipse class="cls-39" cx="3194.17" cy="2367.74" rx="442.23" ry="53.59"/><ellipse class="cls-39" cx="1805.62" cy="2374.69" rx="219.72" ry="67.49"/><path style="fill:#d3e2f9" d="M702.22 2236.78h3190.37v18.2H702.22z"/><path class="cls-8" d="M3203.48 546.46h621.12v894.1h-621.12z"/><path class="cls-39" d="M3214.65 557.09h602.12v870.76h-602.12z"/><path class="cls-34" d="M3816.77 991.28h-297V557.09h-13.47v434.19h-291.65v16.18h291.65v420.39h13.47v-420.39h297v-16.18z"/><path style="fill:none" d="M3366.51 775.93h298.1V1210h-298.1z"/><path class="cls-34" d="M3671.35 775.93h145.42v-8.09h-145.42V557.09h-6.74v210.75h-298.1V557.09h-6.74v210.75h-145.12v8.09h145.12v434.06h-145.12v8.09h145.12v209.77h6.74v-209.77h298.1v209.77h6.74v-209.77h145.42v-8.09h-145.42V775.93Zm-6.74 434.06h-298.1V775.93h298.1v434.06Z"/><path class="cls-34" d="M3511.68 557.09s-66.92 328.42-297.03 383.9c0 0 49.8 265.45 49.8 486.86h-49.8V557.09h297.03ZM3519.94 557.09s66.92 328.42 297.03 383.9c0 0-49.8 265.45-49.8 486.86h49.8V557.09h-297.03Z"/><path class="cls-21" d="M2800.35 2092.24c-3.17-6.99-5.87-13.91-9.47-20.33-1.24-2.21-4.91-4.63-7.15-4.36-4.73.57-11.46-2.61-13.58 5.13-1.35 4.94-3.05 9.84-3.87 14.87-.94 5.78-3.75 7.83-9.41 6.76-3.48-.65-7.04-.83-11.08-1.27-.6-7.78-.73-15.23-2-22.48-.41-2.36-3.45-5.34-5.88-6.05-4.35-1.27-9.41-5.8-13.64.6-2.97 4.49-6.31 8.75-9.04 13.38-2.28 3.86-4.66 4.56-8.78 2.64-14.57-6.82-11.56-3.74-8.95-17.76.28-1.51.87-2.96 1.23-4.45 1.95-7.99-3.62-16.48-11.7-17.28-1.68-.17-3.7 1.27-5.29 2.37-2.73 1.89-5.24 4.12-7.86 6.17-2.62 2.04-5.27 4.04-8.73 6.68-3.73-3.31-7.81-6.36-11.05-10.13-1.12-1.31-.84-4.71-.01-6.63 1.52-3.49 3.95-6.57 5.96-9.85 5.6-9.11 4.94-13.63-3.44-20.36-1.31-1.05-3.7-1.19-5.54-1.03-1.99.18-3.9 1.19-5.85 1.84q-16.26 5.47-23.99-11.41c5.37-4.23 10.72-8.88 16.53-12.87 4.47-3.07 3.26-6.42 1.55-9.99-1.91-3.99-.94-10.23-8.31-10.08-6.86.15-13.74-.35-20.98-.58-1.16-6.27-2.21-11.98-3.39-18.32 6.03-2.1 11.42-4.82 17.1-5.78 9.69-1.64 6.99-8.69 7.78-14.69.88-6.65-3.68-7.45-8.09-8.95-5.28-1.8-10.48-3.84-15.03-5.52-.5-1.21-.7-1.45-.68-1.68q1.43-16.8 18.01-17.53c9.82-.43 14.12-4.32 14.82-14.14.13-1.87-1.21-4.37-2.67-5.72-4.68-4.35-9.75-8.29-14.58-12.32-.02-.69-.21-1.27-.02-1.69 8.58-18.83 5.27-16.21 22.92-10.53 5.86 1.89 9.72 1.92 13.66-3.68 3.82-5.44 6.99-9.69 1.31-15.91-3.38-3.7-5.51-8.53-8.04-12.58.46-1.04.56-1.59.88-1.91 11.58-11.72 12.05-12.29 25.01-1.64 7.09 5.83 11.12 1.61 16.71-1.34 5.93-3.13 5-7.35 3.72-12.28-1.28-4.95-2.25-9.98-3.51-15.65 5.59-2.57 11.08-5.1 16.95-7.79 3.79 5.59 7.58 10.72 10.86 16.16 2.32 3.84 5.27 4.77 9.02 2.97 4.53-2.17 12.09.38 12.53-8.35.32-6.36 1.33-12.68 2.1-19.63 5.99-.62 11.79-1.22 18.38-1.9 1.65 5.87 3.66 11.64 4.81 17.57 1.01 5.19 3.41 7.53 8.76 7.34 5.55-.19 12.21 2.79 14.13-5.91.05-.25.21-.47.31-.7q7.2-15.76 25.19-11c-.32 6.28-.34 12.83-1.08 19.3-.99 8.65 6.78 7.55 10.96 10.36 3.48 2.33 6.74 2.84 10.01-1.19 3.85-4.75 8.45-8.87 13.27-13.82 4.19 2.5 8.51 4.67 12.29 7.55 1.25.95 1.99 3.98 1.48 5.59a67.64 67.64 0 0 1-5.55 12.67c-2.75 4.84-1.4 7.74 2.17 11.9 6.13 7.15 11.71 8.49 19.34 2.79 3.63-2.71 8.01-4.41 11.69-6.39.82.37 1.11.41 1.28.58q11.79 12.19.51 24.77c-7.18 8.01-7.15 14.29.66 21.98 1.29 1.27 4.14 1.56 6.17 1.34 6.61-.72 13.16-1.88 20.26-2.96 1.98 5.73 3.88 11.24 6.03 17.47-5.71 3.15-11.61 6.63-17.72 9.69-3.69 1.84-5.13 3.76-4.35 8.31 2.19 12.79 1.89 12.83 14.75 15.35 4.48.88 8.95 1.83 13.92 2.86-.03 5.98-.06 11.54-.09 17.86-7.2 1.38-14.14 3.03-21.18 3.96-8.6 1.14-5.58 8.4-7.42 13.07-1.7 4.31-.26 7.19 3.97 9.3 5.94 2.96 11.63 6.42 17.06 9.46.26 1.11.55 1.63.46 2.07-3.34 15.68-3.32 15.51-18.83 13.5-6.07-.79-12.2-4.09-17.16 4.53-4.25 7.37-4.9 12.14 1.85 17.4 1.6 1.24 2.84 2.95 4.19 4.49 7.23 8.26 7.03 8.12.63 16.73-3.11 4.19-5.94 5.87-10.68 2.55-2.71-1.89-6.21-2.71-8.78-4.74-6.33-4.99-11.21-4.49-17.16 1.36-4.48 4.4-5.76 7.81-2.62 13.14 1.41 2.4 2.11 5.22 3.16 7.84 4.53 11.32 4.27 12.28-7.16 17.53-1.75.8-4.99.34-6.55-.85-3.22-2.45-5.77-5.78-8.59-8.76-7.14-7.54-14.34-8.25-22.05-1.75-1.21 1.02-1.67 3.55-1.62 5.35.17 5.38.35 10.82 1.31 16.09.95 5.17-.77 7.61-5.76 8.5-3.73.67-7.4 1.75-11.73 2.81Zm-115.31-200.64c-21.58 46.38-.92 103.24 45.28 124.6 47.44 21.94 104.58.67 126.65-47.16 21.32-46.17-.11-103.18-46.91-124.79-46.98-21.7-102.71-.59-125.02 47.35Z"/><path class="cls-21" d="M2737.5 2004.33c-41.59-18.56-59.42-65.71-40.75-107.74 18.36-41.33 66.38-59.64 107.75-41.09 40.36 18.1 59.37 67.3 41.53 107.46-18.39 41.38-67 59.91-108.53 41.38Zm66.5-59.1c8.45-19.16-.08-41.36-19.06-49.61-18.65-8.11-40.87.96-49.33 20.12-8.19 18.55.6 40.4 19.57 48.69 18.91 8.26 40.44-.21 48.82-19.2ZM2215.85 1828.97c1.06.69 1.27 1.38 1.07 2.59-1.27 7.51-2.52 15.04-3.62 22.58-.21 1.4-.8 1.85-1.99 2.2-11.13 3.25-22.26 6.55-33.38 9.84-.93.27-1.85.55-2.97.88 1.99 19.17 3.96 38.26 5.96 57.49 7.44.6 14.73 1.19 22.03 1.78 5.29.43 10.58.9 15.88 1.25 1.32.09 1.87.58 2.34 1.83 2.58 7.02 5.24 14.02 8.02 20.96.57 1.42.41 2.21-.62 3.28-8.19 8.52-16.29 17.12-24.48 25.64-1.18 1.22-1.43 2-.32 3.51 10.6 14.49 21.11 29.05 31.64 43.59.3.42.62.83 1.04 1.4 2.04-.96 4.06-1.89 6.07-2.85 9.33-4.43 18.68-8.82 27.97-13.34 1.48-.72 2.29-.42 3.47.57 5.62 4.69 11.38 9.22 17.02 13.89.65.54 1.35 1.74 1.19 2.44-2.76 11.9-5.64 23.77-8.51 35.65l53.31 23.84c1.84-2.67 3.62-5.25 5.4-7.82 5.06-7.32 10.16-14.62 15.16-21.98.83-1.22 1.62-1.36 2.97-1.13 7.29 1.26 14.59 2.47 21.92 3.51 1.63.23 2.24.84 2.66 2.31 3.27 11.29 6.62 22.55 9.95 33.82.21.71.45 1.41.72 2.25 19.09-1.98 38.12-3.95 57.36-5.95.1-.82.22-1.61.28-2.4.95-11.7 1.93-23.4 2.81-35.11.12-1.54.56-2.27 2.12-2.83 6.9-2.48 13.74-5.12 20.55-7.84 1.45-.58 2.3-.55 3.47.57 8.56 8.25 17.21 16.41 25.82 24.61.83.8 1.43 1.52 2.78.53 14.98-10.94 30.02-21.81 45.04-32.7.11-.08.18-.22.39-.49-1.2-2.55-2.43-5.18-3.68-7.8-4.14-8.72-8.25-17.46-12.47-26.15-.66-1.36-.5-2.15.47-3.31 4.75-5.68 9.39-11.44 13.98-17.24.88-1.11 1.6-1.4 2.99-1.06 11.7 2.87 23.42 5.65 35.13 8.45.58.14 1.17.21 1.76.32l23.47-52.48c-7.85-5.47-15.7-10.95-23.55-16.42-2.58-1.8-5.12-3.64-7.76-5.35-1.06-.68-1.29-1.37-1.09-2.58 1.28-7.51 2.52-15.03 3.63-22.57.2-1.38.75-1.86 1.96-2.21 11.13-3.25 22.25-6.55 33.37-9.83.93-.27 1.86-.55 3.01-.89-1.98-19.13-3.96-38.21-5.96-57.48-5.15-.42-10.2-.84-15.24-1.25-7.53-.61-15.05-1.25-22.58-1.8-1.27-.09-1.91-.42-2.4-1.75-2.62-7.16-5.35-14.29-8.19-21.37-.55-1.36-.11-2.01.71-2.88 8.16-8.54 16.27-17.13 24.46-25.64 1.23-1.28 1.52-2.08.34-3.69-10.48-14.29-20.84-28.67-31.24-43.02-.43-.59-.88-1.18-1.4-1.89-6.09 2.89-12.1 5.73-18.1 8.58-5.41 2.57-10.83 5.1-16.2 7.74-1.2.59-1.91.39-2.93-.45-5.74-4.77-11.55-9.48-17.41-14.11-1.12-.88-1.37-1.63-1.04-3 2.86-11.69 5.65-23.41 8.45-35.12.14-.58.21-1.17.32-1.76l-52.48-23.47c-5.9 8.46-11.8 16.92-17.7 25.39-1.33 1.9-2.72 3.76-3.93 5.73-.74 1.21-1.53 1.47-2.93 1.23-7.28-1.27-14.58-2.49-21.9-3.53-1.7-.24-2.35-.85-2.81-2.43-3.31-11.5-6.73-22.98-10.12-34.46-.13-.43-.28-.85-.49-1.49l-57.44 5.96c-.35 4.25-.7 8.41-1.04 12.56-.68 8.42-1.41 16.84-2 25.26-.1 1.47-.69 1.98-1.98 2.46-6.95 2.56-13.88 5.16-20.74 7.94-1.53.62-2.35.37-3.45-.69-8.47-8.13-17.01-16.17-25.47-24.31-1.28-1.24-2.09-1.51-3.7-.33-14.35 10.52-28.79 20.93-43.2 31.38-.53.39-1.05.79-1.69 1.27 2.89 6.09 5.73 12.09 8.58 18.1 2.53 5.34 5.02 10.71 7.65 16 .69 1.38.44 2.16-.51 3.3-4.73 5.68-9.38 11.44-13.96 17.24-.88 1.12-1.62 1.37-3 1.03-11.69-2.87-23.41-5.65-35.12-8.45-.58-.14-1.17-.21-1.76-.32l-23.47 52.48c7.85 5.48 15.7 10.95 23.56 16.43 2.58 1.8 5.12 3.65 7.76 5.35Zm239.02-75.95c66.05 29.55 95.61 107.23 65.97 173.35-29.5 65.81-107.14 95.4-173.03 65.94-66.09-29.55-95.72-107.19-66.13-173.3 29.51-65.93 107.17-95.53 173.18-65.99Z"/><path class="cls-9" d="M2791.01 2090.18c-3.17-6.99-5.87-13.91-9.47-20.33-1.24-2.21-4.91-4.63-7.15-4.36-4.73.57-11.46-2.61-13.58 5.13-1.35 4.94-3.05 9.84-3.87 14.87-.94 5.78-3.75 7.83-9.41 6.76-3.48-.65-7.04-.83-11.08-1.27-.6-7.78-.73-15.23-2-22.48-.41-2.36-3.45-5.35-5.88-6.05-4.35-1.27-9.41-5.8-13.64.6-2.97 4.49-6.31 8.75-9.04 13.38-2.28 3.86-4.66 4.56-8.78 2.64-14.57-6.82-11.56-3.74-8.95-17.76.28-1.51.87-2.96 1.23-4.45 1.95-7.99-3.62-16.48-11.7-17.28-1.68-.17-3.7 1.27-5.29 2.37-2.73 1.89-5.24 4.12-7.86 6.17-2.62 2.04-5.27 4.04-8.73 6.68-3.73-3.31-7.81-6.36-11.05-10.13-1.12-1.31-.84-4.71-.01-6.63 1.52-3.49 3.95-6.57 5.96-9.85 5.6-9.11 4.94-13.63-3.44-20.36-1.31-1.05-3.7-1.19-5.54-1.03-1.99.18-3.9 1.19-5.85 1.84q-16.26 5.47-23.99-11.41c5.37-4.23 10.72-8.88 16.53-12.87 4.47-3.07 3.26-6.42 1.55-9.99-1.91-3.99-.94-10.23-8.31-10.08-6.86.15-13.74-.35-20.98-.58-1.16-6.27-2.21-11.98-3.39-18.32 6.03-2.1 11.42-4.82 17.1-5.78 9.7-1.64 6.99-8.69 7.78-14.69.88-6.65-3.68-7.45-8.09-8.95-5.28-1.8-10.48-3.84-15.03-5.52-.5-1.21-.7-1.45-.68-1.68q1.43-16.8 18.01-17.53c9.82-.43 14.12-4.32 14.82-14.14.13-1.87-1.21-4.37-2.67-5.72-4.69-4.35-9.75-8.29-14.58-12.32-.02-.69-.21-1.27-.02-1.69 8.58-18.83 5.27-16.21 22.92-10.53 5.86 1.89 9.72 1.92 13.66-3.68 3.82-5.44 6.99-9.69 1.31-15.91-3.38-3.7-5.51-8.53-8.04-12.58.46-1.04.56-1.59.88-1.91 11.58-11.72 12.05-12.29 25.01-1.64 7.09 5.83 11.12 1.61 16.71-1.34 5.93-3.13 5-7.35 3.72-12.28-1.28-4.95-2.25-9.98-3.51-15.65 5.59-2.57 11.08-5.1 16.95-7.79 3.79 5.59 7.58 10.72 10.86 16.16 2.32 3.84 5.27 4.77 9.02 2.97 4.53-2.17 12.09.38 12.53-8.35.32-6.36 1.33-12.68 2.1-19.63 5.99-.62 11.79-1.22 18.38-1.9 1.65 5.87 3.66 11.64 4.81 17.57 1.01 5.19 3.41 7.53 8.76 7.34 5.55-.19 12.21 2.79 14.13-5.91.05-.25.21-.47.31-.7q7.2-15.76 25.19-11c-.32 6.28-.34 12.83-1.08 19.3-.99 8.65 6.78 7.55 10.96 10.36 3.48 2.33 6.74 2.84 10.01-1.19 3.85-4.75 8.45-8.87 13.27-13.82 4.19 2.5 8.51 4.67 12.29 7.55 1.25.95 1.99 3.98 1.48 5.59a67.64 67.64 0 0 1-5.55 12.67c-2.75 4.84-1.4 7.74 2.17 11.9 6.13 7.15 11.71 8.49 19.34 2.79 3.63-2.71 8.01-4.41 11.69-6.39.82.37 1.11.41 1.28.58q11.79 12.19.51 24.77c-7.18 8.01-7.15 14.29.66 21.98 1.29 1.27 4.14 1.56 6.17 1.34 6.61-.72 13.16-1.88 20.26-2.96 1.98 5.73 3.88 11.24 6.03 17.47-5.71 3.15-11.61 6.63-17.72 9.69-3.69 1.84-5.13 3.76-4.35 8.31 2.19 12.79 1.89 12.83 14.75 15.35 4.48.88 8.95 1.83 13.92 2.86-.03 5.98-.06 11.54-.09 17.86-7.2 1.38-14.14 3.03-21.18 3.96-8.6 1.14-5.58 8.4-7.42 13.07-1.7 4.31-.26 7.19 3.97 9.3 5.94 2.96 11.63 6.42 17.06 9.46.26 1.11.55 1.63.46 2.07-3.34 15.68-3.32 15.51-18.83 13.5-6.07-.79-12.2-4.09-17.16 4.53-4.25 7.37-4.9 12.14 1.85 17.4 1.6 1.24 2.84 2.95 4.19 4.49 7.23 8.26 7.03 8.12.63 16.73-3.11 4.19-5.94 5.87-10.68 2.55-2.71-1.89-6.21-2.71-8.78-4.74-6.33-4.99-11.21-4.49-17.16 1.36-4.48 4.4-5.76 7.81-2.62 13.14 1.41 2.4 2.11 5.22 3.16 7.84 4.53 11.32 4.27 12.28-7.16 17.53-1.75.8-4.99.34-6.55-.85-3.22-2.45-5.77-5.78-8.59-8.76-7.14-7.54-14.34-8.25-22.05-1.75-1.21 1.02-1.67 3.55-1.62 5.35.17 5.38.35 10.82 1.31 16.09.95 5.17-.77 7.61-5.76 8.5-3.73.67-7.4 1.75-11.73 2.81Zm-115.31-200.65c-21.58 46.38-.92 103.24 45.28 124.6 47.44 21.94 104.58.67 126.65-47.16 21.32-46.17-.11-103.18-46.91-124.79-46.98-21.7-102.71-.59-125.02 47.35Z"/><path class="cls-9" d="M2728.16 2002.27c-41.59-18.56-59.42-65.71-40.75-107.74 18.36-41.33 66.38-59.64 107.75-41.09 40.36 18.1 59.37 67.3 41.53 107.46-18.39 41.38-67 59.91-108.53 41.38Zm66.5-59.1c8.45-19.16-.08-41.36-19.06-49.61-18.65-8.11-40.87.96-49.33 20.12-8.19 18.55.6 40.4 19.57 48.69 18.91 8.26 40.44-.21 48.82-19.2ZM2206.51 1826.91c1.06.69 1.27 1.38 1.07 2.59-1.27 7.51-2.52 15.04-3.62 22.58-.21 1.4-.8 1.85-1.99 2.2-11.13 3.25-22.26 6.55-33.38 9.84-.93.27-1.85.55-2.97.88 1.99 19.17 3.96 38.26 5.96 57.49 7.44.6 14.73 1.19 22.03 1.78 5.29.43 10.58.9 15.88 1.25 1.32.09 1.87.58 2.34 1.83 2.58 7.02 5.24 14.02 8.02 20.96.57 1.42.41 2.21-.62 3.28-8.19 8.52-16.29 17.12-24.48 25.64-1.18 1.22-1.43 2-.32 3.51 10.6 14.49 21.11 29.05 31.64 43.59.3.42.62.83 1.04 1.4 2.04-.96 4.06-1.89 6.07-2.85 9.33-4.43 18.68-8.82 27.97-13.34 1.48-.72 2.29-.42 3.47.57 5.62 4.69 11.38 9.22 17.02 13.89.65.54 1.35 1.74 1.19 2.44-2.76 11.9-5.64 23.77-8.51 35.65l53.31 23.84c1.84-2.67 3.62-5.25 5.4-7.82 5.06-7.32 10.16-14.62 15.16-21.98.83-1.22 1.62-1.36 2.97-1.13 7.29 1.26 14.59 2.47 21.92 3.51 1.63.23 2.24.84 2.66 2.31 3.27 11.29 6.62 22.55 9.95 33.82.21.71.45 1.41.72 2.25 19.09-1.98 38.12-3.95 57.36-5.95.1-.82.22-1.61.28-2.4.95-11.7 1.93-23.4 2.81-35.11.12-1.54.56-2.27 2.12-2.83 6.9-2.48 13.74-5.12 20.55-7.84 1.45-.58 2.3-.55 3.47.57 8.56 8.25 17.21 16.41 25.82 24.61.83.8 1.43 1.52 2.78.53 14.98-10.94 30.02-21.81 45.04-32.7.11-.08.18-.22.39-.49-1.2-2.55-2.43-5.18-3.68-7.8-4.14-8.72-8.25-17.46-12.47-26.15-.66-1.36-.5-2.15.47-3.31 4.75-5.68 9.39-11.44 13.98-17.24.88-1.11 1.6-1.4 2.99-1.06 11.7 2.87 23.42 5.65 35.13 8.45.58.14 1.17.22 1.76.32l23.47-52.48c-7.85-5.47-15.7-10.95-23.55-16.42-2.58-1.8-5.12-3.64-7.76-5.35-1.06-.68-1.29-1.37-1.09-2.58 1.28-7.51 2.52-15.03 3.63-22.57.2-1.38.75-1.86 1.96-2.21 11.13-3.25 22.25-6.55 33.37-9.83.93-.27 1.86-.55 3.01-.89-1.98-19.13-3.96-38.21-5.96-57.48-5.15-.42-10.2-.84-15.24-1.25-7.53-.61-15.05-1.25-22.58-1.8-1.27-.09-1.91-.42-2.4-1.75-2.62-7.16-5.35-14.29-8.19-21.37-.55-1.36-.11-2.01.71-2.88 8.16-8.54 16.27-17.13 24.46-25.64 1.23-1.28 1.52-2.08.34-3.69-10.48-14.29-20.84-28.67-31.24-43.02-.43-.59-.88-1.18-1.4-1.89-6.09 2.89-12.1 5.73-18.1 8.58-5.41 2.57-10.83 5.1-16.2 7.74-1.2.59-1.91.39-2.93-.45-5.74-4.77-11.55-9.48-17.41-14.11-1.12-.88-1.37-1.63-1.04-3 2.86-11.69 5.65-23.41 8.45-35.12.14-.58.21-1.17.32-1.76l-52.48-23.47c-5.9 8.46-11.8 16.92-17.7 25.39-1.33 1.9-2.72 3.76-3.93 5.73-.74 1.21-1.53 1.47-2.93 1.23-7.28-1.27-14.58-2.49-21.9-3.53-1.7-.24-2.35-.85-2.81-2.43-3.31-11.5-6.73-22.98-10.12-34.46-.13-.43-.28-.85-.49-1.49l-57.44 5.96c-.35 4.25-.7 8.41-1.04 12.56-.68 8.42-1.41 16.84-2 25.26-.1 1.47-.69 1.98-1.98 2.46-6.95 2.56-13.88 5.16-20.74 7.94-1.53.62-2.35.37-3.45-.69-8.47-8.13-17.01-16.17-25.47-24.31-1.28-1.24-2.09-1.51-3.7-.33-14.35 10.52-28.79 20.93-43.2 31.38-.53.39-1.05.79-1.69 1.27 2.89 6.09 5.73 12.09 8.58 18.1 2.53 5.34 5.02 10.71 7.65 16 .69 1.38.44 2.16-.51 3.3-4.73 5.68-9.38 11.44-13.96 17.24-.88 1.12-1.62 1.37-3 1.03-11.69-2.87-23.41-5.65-35.12-8.45-.58-.14-1.17-.21-1.76-.32l-23.47 52.48c7.85 5.48 15.7 10.95 23.56 16.43 2.58 1.8 5.12 3.65 7.76 5.35Zm239.02-75.95c66.05 29.55 95.61 107.23 65.97 173.35-29.5 65.81-107.14 95.4-173.03 65.94-66.09-29.55-95.72-107.19-66.13-173.3 29.51-65.93 107.17-95.53 173.18-65.99Z"/><rect class="cls-15" x="1346.31" y="473.52" width="1779.97" height="1306.38" rx="93.59" ry="93.59"/><rect x="1402.56" y="527.97" width="1667.45" height="1197.49" rx="86.72" ry="86.72" style="fill:url(#linear-gradient)"/><rect class="cls-39" x="2512.3" y="1365.93" width="507.8" height="259.82" rx="43.58" ry="43.58"/><path class="cls-39" d="M1472.02 654.36h226.84c18.27 0 33.11 14.84 33.11 33.11v193.6c0 18.27-14.84 33.11-33.11 33.11h-226.84c-18.27 0-33.11-14.84-33.11-33.11v-193.6c0-18.27 14.84-33.11 33.11-33.11Z"/><rect class="cls-27" x="1438.91" y="967.84" width="293.06" height="259.82" rx="33.11" ry="33.11"/><path class="cls-39" d="M1472.02 1281.32h226.84c18.27 0 33.11 14.84 33.11 33.11v193.6c0 18.27-14.84 33.11-33.11 33.11h-226.84c-18.27 0-33.11-14.84-33.11-33.11v-193.6c0-18.27 14.84-33.11 33.11-33.11Z"/><path class="cls-27" d="M1821.11 1353.1h63.2v237.4h-63.2zM1932.1 1383.93h63.2v206.57h-63.2zM2043.09 1445.59h63.2v144.9h-63.2zM2154.08 1399.35h63.2v191.15h-63.2zM2265.07 1445.59h63.2v144.9h-63.2zM2376.06 1399.35h63.2v191.15h-63.2zM1797.98 1610.54h665.94v9.25h-665.94zM1766.82 581.68h12.85v974.99h-12.85z"/><path d="M2110.08 925.75h628.73c62.19 0 106.36-62.32 83.85-120.3-9.29-23.94-23.72-44.63-61.93-54.62-31.47-11.11-82.64 17.92-82.95 35.98 0 0 41.37-143.1-93.39-211.18-134.77-68.08-238.97 23.62-244.52 68.08 0 0-100.48-36.17-150.5 22.94-47.63 56.3-35.67 120.16-35.67 120.16s-65.3-33.34-101.42 5.56c-.75.81-1.49 1.62-2.21 2.44-44.87 50.8-7.75 130.93 60.03 130.93Z" style="fill:#7bbaff"/><path class="cls-4" d="M2013.73 834.46s0-60.24 60.63-73.97M2807.03 751.31s62.07 39.48 32.24 128.01"/><path class="cls-16" d="M2139.87 1016.61c-9.19 0-16.64 7.45-16.64 16.64s7.45 16.64 16.64 16.64 16.64-7.45 16.64-16.64-7.45-16.64-16.64-16.64Zm0 26.05c-5.2 0-9.41-4.21-9.41-9.41s4.21-9.41 9.41-9.41 9.41 4.21 9.41 9.41-4.21 9.41-9.41 9.41Z"/><path class="cls-16" d="M2178.09 934.05v94.74h-23.95v9.93h23.95c5.48 0 9.93-4.45 9.93-9.93v-94.74h-9.93ZM2715.63 993.51c0 9.19 7.45 16.64 16.64 16.64s16.64-7.45 16.64-16.64-7.45-16.64-16.64-16.64-16.64 7.45-16.64 16.64Zm7.24 0c0-5.2 4.21-9.41 9.41-9.41s9.41 4.21 9.41 9.41-4.21 9.41-9.41 9.41-9.41-4.21-9.41-9.41Z"/><path class="cls-16" d="M2694.05 934.05v54.99H2718v9.93h-23.95c-5.48 0-9.93-4.45-9.93-9.93v-54.99h9.93ZM2276.71 934.05h9.93v109.58h-9.93z"/><path class="cls-16" d="M2281.84 1040.45c-9.19 0-16.64 7.45-16.64 16.64s7.45 16.64 16.64 16.64 16.64-7.45 16.64-16.64-7.45-16.64-16.64-16.64Zm0 26.05c-5.2 0-9.41-4.21-9.41-9.41s4.21-9.41 9.41-9.41 9.41 4.21 9.41 9.41-4.21 9.41-9.41 9.41ZM2483.17 934.05h9.93v109.58h-9.93z"/><path class="cls-16" d="M2488.3 1040.45c-9.19 0-16.64 7.45-16.64 16.64s7.45 16.64 16.64 16.64 16.64-7.45 16.64-16.64-7.45-16.64-16.64-16.64Zm0 26.05c-5.2 0-9.41-4.21-9.41-9.41s4.21-9.41 9.41-9.41 9.41 4.21 9.41 9.41-4.21 9.41-9.41 9.41ZM2381.46 934.05h9.93v213.61h-9.93z"/><path class="cls-16" d="M2386.58 1144.48c-9.19 0-16.64 7.45-16.64 16.64s7.45 16.64 16.64 16.64 16.64-7.45 16.64-16.64-7.45-16.64-16.64-16.64Zm0 26.05c-5.2 0-9.41-4.21-9.41-9.41s4.21-9.41 9.41-9.41 9.41 4.21 9.41 9.41-4.21 9.41-9.41 9.41ZM2582.48 933.62h9.93v80.35h-9.93z"/><path class="cls-16" d="M2587.61 1010.78c-9.19 0-16.64 7.45-16.64 16.64s7.45 16.64 16.64 16.64 16.64-7.45 16.64-16.64-7.45-16.64-16.64-16.64Zm0 26.06c-5.2 0-9.41-4.21-9.41-9.41s4.21-9.41 9.41-9.41 9.41 4.21 9.41 9.41-4.21 9.41-9.41 9.41Z"/><path class="cls-27" d="M2285.9 672.96h95.64v153.86h-95.64z"/><path class="cls-27" d="M2248.55 826.81h170.11l-84.22 84.23-85.89-84.23z"/><path class="cls-12" d="M2472.88 667.49h95.64v153.86h-95.64zM2605.88 667.49h-170.12l84.23-84.22 85.89 84.22z"/><path class="cls-41" d="M1930.83 1716.88h42.14V2345h-42.14zM906.07 1716.88h42.14V2345h-42.14z"/><path style="fill:#2c357c" d="M837.5 1680.89h1209.44v25.2H837.5z"/><path class="cls-6" d="M837.5 1706.08h1209.44v25.2H837.5z"/><path class="cls-17" d="M1249.19 1647.14h491.34v33.75h-491.34z"/><path class="cls-36" d="M1656.89 1551.47s84.59-15.6 115.78-15c31.2.6 97.79 15.6 112.19 52.79s-61.74 36.6-106.46 0l-102.91 44.39-18.6-82.19Z"/><path class="cls-17" d="M1629.39 2261.6s-27.19 101.57-12.12 114.37c15.06 12.8 27.22 10.74 93.38 10.74 71.54 0 126.28 2.84 130.04-34.06 3.77-36.9-2.12-75.81-62.37-69.74-61.81 6.23-52.38 1.09-66.17-21.31h-82.76Z"/><path class="cls-6" d="M1545.7 1762.78s116.98-23.4 170.08-18c53.09 5.4 39.59 191.67 39.59 191.67l-36.9 326.66s-21.6 34.2-98.09 5.4c0 0 1.5-305.06-21-327.56l-53.69-61.19v-116.98Z"/><path class="cls-28" d="M1293.9 1172.79s15.53 60.15 4.24 85.57h76.25s-11.74-75.02-6.5-94.6l-27.11-24.29-46.88 33.32Z"/><path class="cls-30" d="m1402.69 1019.18 4.97-10.27s44.72-24.18 39.08-88.11c0 0-64.59 14.13-104.34 3.26-39.75-10.88-94.4 4.69-103.01 38.48 0 0-40.58 7.95-46.54 49.68-5.96 41.73 18.38 110.3 48.69 142.1 30.31 31.8 64.59 30.8 84.46 25.84 19.87-4.97 20.7-15.57 20.7-15.57l24.18-21.86 31.8-123.55Z"/><g style="clip-path:url(#clippath)"><path d="M1227.27 1147.95s80.58 19.58 83.21-29.37c2.64-48.95-7.15-93.95 19.96-109.67 27.11-15.72 82.46-11.57 122.37-54.88l-64.39 145.72-54.29 89.61-92.94 4.89-13.93-46.31Z" style="fill:#0b2551"/></g><path class="cls-36" d="M1407.66 1008.91s18.88 63.26 13.25 109.31c-5.63 46.04-21.2 86.78-58.96 59.62-13.58-11.59-15.24-13.25-15.24-13.25s11.26-18.88 9.27-42.4c0 0-21.2-7.62-16.56-26.83 4.64-19.21 17.89-24.51 26.5-17.56 0 0-2.98-33.45 3.31-43.39 6.29-9.94 38.42-25.5 38.42-25.5Z"/><path class="cls-28" d="m1353.41 1137.88 2.17-.58s9.83-5.35 6.58-22.44c-3.25-17.09 14.54-18.36 16.52-31.91 1.98-13.56-7.06-34.03 4.38-43.91s28.38-16.8 30.92-22.59l-3.39-16.8-65.77 29.7-25.23 56.86 12.73 43.68 21.09 8Z" style="clip-path:url(#clippath-1)"/><path class="cls-5" d="M1280.86 1226.41h114.38v34.8h-114.38z"/><path class="cls-15" d="M1760.78 2301.19s-27.19 101.57-12.12 114.37c15.06 12.8 27.22 10.74 93.38 10.74 71.54 0 126.28 2.84 130.04-34.06s-2.12-75.81-62.37-69.74c-61.81 6.23-52.38 1.09-66.17-21.31h-82.76Z"/><path class="cls-40" d="m1542.1 1797.62 25.2 7.45s150.51 1.47 197.97 4.5c67.13 4.28 179.08-2.7 164.61 112.49-9.38 74.67-83.11 384.79-83.11 384.79s-33.94 20.23-91.4-5.94c0 0 32.03-248.42 31.5-295.86-.53-47.44-83.69-39.8-194.37-27.2-101.68 11.58-261.22 13.07-311.64-33.97l261.24-146.25Z"/><g style="clip-path:url(#clippath-2)"><path d="m1526.95 1876.61-18.15 54.76s203.52-47.46 280.33-39.55c76.81 7.91 97.71 317.79 97.71 317.79l57.23-363.54s-183.75-90.37-186.01-90.37-197.08 33.17-197.08 33.17l-20.52 94.87" style="fill:#0e2760"/></g><path class="cls-12" d="M1285.9 1261.21h-12.68s-75.81 5.94-86.6 69.06c-10.79 63.13-8.8 235.96-8 265.46.8 29.5 1.52 189.2 32.46 260.42 30.93 71.22 68.34 94.41 155.39 97.56 87.05 3.15 173.37-.44 203.59-111.23 30.21-110.79-32.7-124.61-32.7-124.61s-24.85-104.88-21.98-150.2c0 0 37.45 86.58 80.61 101.68 43.16 15.11 95.96-33.93 95.96-33.93s8.7-80.19-29.39-94.58c0 0-28.83 3.46-40.77-1.67-11.22-4.82-29.17-48.12-56.28-133.91-27.11-85.79-48.87-113.12-83.94-126.07-35.07-12.95-86.33-17.98-86.33-17.98h-109.35Z"/><path class="cls-5" d="m1520.42 1597.17-5.04-29.5s-43.16-61.14-29.49-220.49c0 0-51.08 223.91 7.19 354.57 58.27 130.66 105.03 128.5 105.03 128.5l-1.44-116.54-76.26-116.54Z" style="clip-path:url(#clippath-3)"/><path class="cls-17" d="M1526.81 1986.85s6.3-29.7 5.4-117.88c-.9-88.19-28.8-90.89-92.69-89.99-63.89.9-217.77 25.2-251.97-21.6-34.2-46.79-62.99-191.67-71.09-242.07-8.1-50.39-26.1-194.37-34.2-262.77-8.1-68.39-14.4-185.38-113.39-151.18-98.99 34.2 6.3 553.43 18.9 613.72 12.6 60.29 48.59 276.69 159.28 280.53 110.69 3.84 379.75-8.76 379.75-8.76Z"/><g style="clip-path:url(#clippath-4)"><path d="M906.07 1069.17s48.86-58.61 82.61 4.56 25.65 312.59 64.79 485.07c39.14 172.48 107.99 380.43 221.37 437.53 113.39 57.1 0 0 0 0L979.23 2012s-62.09-413.36-64.79-421.51c-2.7-8.15-52.64-362.84-52.64-362.84l44.27-158.48Z" style="fill:#0e58dd"/></g><path d="M3568.83 2268.35s32.12 63.96 89.28 87.73c57.15 23.76 137.28-6.18 182.21-41.48s88.53-85.51 92.87-122.95c4.34-37.43-71.01-22.67-71.01-22.67s33.3-45.49 47.15-77.98c13.85-32.49-2.38-66.39-47.91-46.21l-45.53 20.18s34.92-70.71 34.29-114.87c-.63-44.16-26.66-110.4-75.73-63.62-49.07 46.77-54.1 144.86-54.1 144.86s-10.92-41.8-26.46-72.38c-15.54-30.58-47.82-26.61-62.7 16-14.89 42.62-20.59 103.63-20.59 103.63s-14.22-47.07-37.45-39.59c-23.23 7.48-36.77 62.64-32.87 116.79 3.9 54.15 28.55 112.57 28.55 112.57Z" style="fill:#00b77b"/><path class="cls-29" d="M3579 2153.84s1.7-232.95 180.16-315.92c0 0 81.67 195.65-42.34 363.39-124.01 167.75-98.62 128.76-98.62 128.76l-39.2-176.23Z"/><path style="stroke:#fff;stroke-linecap:round;stroke-linejoin:round;stroke-width:2px;fill:none" d="m3715.1 1946.9-101.52 345.94"/><rect class="cls-8" x="2825.17" y="1548.7" width="838.84" height="136.78" rx="9.63" ry="9.63"/><ellipse class="cls-15" cx="2909.19" cy="1617.09" rx="17.77" ry="18.3"/><ellipse class="cls-15" cx="2983.74" cy="1617.09" rx="17.77" ry="18.3"/><ellipse class="cls-15" cx="3058.29" cy="1617.09" rx="17.77" ry="18.3"/><rect class="cls-15" x="3446.58" y="1582.05" width="20.48" height="69.79" rx="1.73" ry="1.73"/><rect class="cls-15" x="3480.31" y="1582.05" width="20.48" height="69.79" rx="1.73" ry="1.73"/><rect class="cls-15" x="3514.04" y="1582.05" width="20.48" height="69.79" rx="1.73" ry="1.73"/><rect class="cls-15" x="3547.77" y="1582.05" width="20.48" height="69.79" rx="1.73" ry="1.73"/><path class="cls-17" d="M2858.14 1685.49h771.54v24.66h-771.54z"/><rect class="cls-8" x="2825.17" y="1710.14" width="838.84" height="136.78" rx="9.63" ry="9.63"/><ellipse class="cls-15" cx="2909.19" cy="1778.53" rx="17.77" ry="18.3"/><ellipse class="cls-15" cx="2983.74" cy="1778.53" rx="17.77" ry="18.3"/><ellipse class="cls-15" cx="3058.29" cy="1778.53" rx="17.77" ry="18.3"/><rect class="cls-15" x="3446.58" y="1743.49" width="20.48" height="69.79" rx="1.73" ry="1.73"/><rect class="cls-15" x="3480.31" y="1743.49" width="20.48" height="69.79" rx="1.73" ry="1.73"/><rect class="cls-15" x="3514.04" y="1743.49" width="20.48" height="69.79" rx="1.73" ry="1.73"/><rect class="cls-15" x="3547.77" y="1743.49" width="20.48" height="69.79" rx="1.73" ry="1.73"/><path class="cls-17" d="M2858.14 1846.92h771.54v24.66h-771.54z"/><rect class="cls-8" x="2825.17" y="1871.58" width="838.84" height="136.78" rx="9.63" ry="9.63"/><ellipse class="cls-15" cx="2909.19" cy="1939.97" rx="17.77" ry="18.3"/><ellipse class="cls-15" cx="2983.74" cy="1939.97" rx="17.77" ry="18.3"/><ellipse class="cls-15" cx="3058.29" cy="1939.97" rx="17.77" ry="18.3"/><rect class="cls-15" x="3446.58" y="1904.92" width="20.48" height="69.79" rx="1.73" ry="1.73"/><rect class="cls-15" x="3480.31" y="1904.92" width="20.48" height="69.79" rx="1.73" ry="1.73"/><rect class="cls-15" x="3514.04" y="1904.92" width="20.48" height="69.79" rx="1.73" ry="1.73"/><rect class="cls-15" x="3547.77" y="1904.92" width="20.48" height="69.79" rx="1.73" ry="1.73"/><path class="cls-17" d="M2858.14 2008.36h771.54v24.66h-771.54z"/><rect class="cls-8" x="2825.17" y="2033.02" width="838.84" height="136.78" rx="9.63" ry="9.63"/><ellipse class="cls-15" cx="2909.19" cy="2101.41" rx="17.77" ry="18.3"/><ellipse class="cls-15" cx="2983.74" cy="2101.41" rx="17.77" ry="18.3"/><ellipse class="cls-15" cx="3058.29" cy="2101.41" rx="17.77" ry="18.3"/><rect class="cls-15" x="3446.58" y="2066.36" width="20.48" height="69.79" rx="1.73" ry="1.73"/><rect class="cls-15" x="3480.31" y="2066.36" width="20.48" height="69.79" rx="1.73" ry="1.73"/><rect class="cls-15" x="3514.04" y="2066.36" width="20.48" height="69.79" rx="1.73" ry="1.73"/><rect class="cls-15" x="3547.77" y="2066.36" width="20.48" height="69.79" rx="1.73" ry="1.73"/><path class="cls-17" d="M2858.14 2169.8h771.54v24.66h-771.54z"/><rect class="cls-8" x="2825.17" y="2194.46" width="838.84" height="136.78" rx="9.63" ry="9.63"/><ellipse class="cls-15" cx="2909.19" cy="2262.85" rx="17.77" ry="18.3"/><ellipse class="cls-15" cx="2983.74" cy="2262.85" rx="17.77" ry="18.3"/><ellipse class="cls-15" cx="3058.29" cy="2262.85" rx="17.77" ry="18.3"/><rect class="cls-15" x="3446.58" y="2227.8" width="20.48" height="69.79" rx="1.73" ry="1.73"/><rect class="cls-15" x="3480.31" y="2227.8" width="20.48" height="69.79" rx="1.73" ry="1.73"/><rect class="cls-15" x="3514.04" y="2227.8" width="20.48" height="69.79" rx="1.73" ry="1.73"/><rect class="cls-15" x="3547.77" y="2227.8" width="20.48" height="69.79" rx="1.73" ry="1.73"/><path class="cls-17" d="M2858.14 2331.24h771.54v24.66h-771.54z"/><path class="cls-15" d="M1780.12 1681.49s1.8-40.04 50.84-41.39c49.04-1.35 51.18 41.39 51.18 41.39h-102.02Z"/><path class="cls-29" d="M2208.24 1184.15h-363.33c-5.22 0-9.45-4.23-9.45-9.45 0-5.22 4.23-9.45 9.45-9.45h363.33c5.22 0 9.45 4.23 9.45 9.45 0 5.22-4.23 9.45-9.45 9.45Z"/><path class="cls-39" d="M2387.54 1219.55h-542.63c-5.22 0-9.45-4.23-9.45-9.45 0-5.22 4.23-9.45 9.45-9.45h542.63c5.22 0 9.45 4.23 9.45 9.45 0 5.22-4.23 9.45-9.45 9.45ZM2387.54 1254.94h-542.63c-5.22 0-9.45-4.23-9.45-9.45 0-5.22 4.23-9.45 9.45-9.45h542.63c5.22 0 9.45 4.23 9.45 9.45 0 5.22-4.23 9.45-9.45 9.45ZM2387.54 1290.34h-542.63c-5.22 0-9.45-4.23-9.45-9.45 0-5.22 4.23-9.45 9.45-9.45h542.63c5.22 0 9.45 4.23 9.45 9.45 0 5.22-4.23 9.45-9.45 9.45Z"/><rect class="cls-39" x="1835.47" y="1306.84" width="561.53" height="18.9" rx="9.45" ry="9.45"/><path class="cls-39" d="M3008.86 1184.15h-542.63c-5.22 0-9.45-4.23-9.45-9.45 0-5.22 4.23-9.45 9.45-9.45h542.63c5.22 0 9.45 4.23 9.45 9.45 0 5.22-4.23 9.45-9.45 9.45Z"/><path class="cls-29" d="M3008.86 1219.55h-542.63c-5.22 0-9.45-4.23-9.45-9.45 0-5.22 4.23-9.45 9.45-9.45h542.63c5.22 0 9.45 4.23 9.45 9.45 0 5.22-4.23 9.45-9.45 9.45ZM3008.86 1254.94h-542.63c-5.22 0-9.45-4.23-9.45-9.45 0-5.22 4.23-9.45 9.45-9.45h542.63c5.22 0 9.45 4.23 9.45 9.45 0 5.22-4.23 9.45-9.45 9.45Z"/><path class="cls-39" d="M3008.86 1290.34h-542.63c-5.22 0-9.45-4.23-9.45-9.45 0-5.22 4.23-9.45 9.45-9.45h542.63c5.22 0 9.45 4.23 9.45 9.45 0 5.22-4.23 9.45-9.45 9.45Z"/><rect class="cls-39" x="2456.78" y="1306.84" width="561.53" height="18.9" rx="9.45" ry="9.45"/><path class="cls-17" d="M1309.77 2077.69v216.01h44.54v-185.06c-15.46-18.06-31.95-26.77-44.54-30.95Z"/><path d="M1354.31 2108.64v-84.9h-44.54v53.95c12.59 4.18 29.08 12.88 44.54 30.95Z" style="fill:#053da0"/><path class="cls-20" d="M1159.07 2286.63h341.78v20.57h-341.78z"/><path class="cls-13" d="M1159.07 2307.2h341.78v30.78h-341.78z"/><path class="cls-32" d="M1133.72 2347.2c-5.27 6.65-8.43 15.05-8.43 24.2 0 21.54 17.46 38.99 38.99 38.99 8.48 0 16.32-2.72 22.72-7.31-6.67-43.1-33.78-53.88-53.29-55.88Z"/><path class="cls-6" d="M1203.29 2371.4c0-21.54-17.46-38.99-38.99-38.99-12.39 0-23.42 5.79-30.57 14.8 19.51 2 46.61 12.78 53.29 55.88 9.85-7.08 16.27-18.63 16.27-31.68Z"/><path class="cls-32" d="M1470.28 2347.2c-5.27 6.65-8.43 15.05-8.43 24.2 0 21.54 17.46 38.99 38.99 38.99 8.48 0 16.32-2.72 22.72-7.31-6.67-43.1-33.78-53.88-53.29-55.88Z"/><path class="cls-6" d="M1539.84 2371.4c0-21.54-17.46-38.99-38.99-38.99-12.39 0-23.42 5.79-30.57 14.8 19.51 2 46.61 12.78 53.29 55.88 9.85-7.08 16.27-18.63 16.27-31.68Z"/><path class="cls-20" d="M1094.86 1982.66h475.41v17.98h-475.41z"/><path class="cls-13" d="M1094.86 2000.64h475.41v33.37h-475.41z"/><path class="cls-34" d="M3727.35 1612.79h164.42v72.7h-164.42z"/><path class="cls-39" d="M3793.84 1685.49h164.42v72.7h-164.42z"/></svg>