<svg id="Layer_1" xmlns="http://www.w3.org/2000/svg" viewBox="0 0 4680 3120"><defs><clipPath id="clippath-6"><path class="cls-46" d="M3469.18 1053.85s-10.83 5.67-13.5 9.62c-11.01 16.31-30.98 52-13.74 157 17.24 105 37.58 126 32.91 198s-12.67 147-12.67 147 86.58 73.71 217.58-11.29c0 0-27.96-204.36-38.96-277.36s-46.46-224.85-124.29-224.35l-47.33 1.38Z"/></clipPath><clipPath id="clippath-13"><path class="cls-48" d="M3490.02 1262.98s-10.84 41.5-33.84 50c-23 8.5-124.75-46.27-124.75-46.27s-37.5-87-78.5-76 2 66 45 97.5 93.25 80.77 189.75 85.77c21 0 50-55.5 63-95.5l-60.66-15.5Z"/></clipPath><clipPath id="clippath"><path class="cls-16" d="m2057.33 1593.35 10.55 11.87 34.29 596.04s-62.88 67.37-155.91 0c0 0 20.85-173.57 12.83-298.51-8.02-124.94 18.18-309.4 18.18-309.4h80.07Z"/></clipPath><clipPath id="clippath-1"><path class="cls-41" d="m2060.67 1381.09 10.16 222.42s-20.85 14.97-58.28 3.21l48.12-225.63Z"/></clipPath><clipPath id="clippath-2"><path class="cls-16" d="M1864.52 1663.18s-78.73 371.2-158.06 461.02c0 0 31.34 80.2 150.04 65.76 0 0 95.76-219.75 87.98-436.28l-79.96-90.5Z"/></clipPath><clipPath id="clippath-3"><path class="cls-10" d="M2002.93 1164.55s66.69 9.84 83.8 34.97 53.08 104.58 74.46 105.11c21.39.53 31.01-10.16 31.01-10.16l31.01-14.97 24.06 54s-76.46 57.21-108 51.86c-31.54-5.35-64.16-51.86-64.16-51.86s-61.49 277.49-55.87 384.96c5.61 107.47-50.53 256.36-50.53 256.36s-159.86 44.12-261.45-109.87c0 0 83.41-141.34 109.07-218.87s71.05-133.08 80.73-171.97c9.68-38.89 8.55-91.96 8.55-91.96l5.35-139.55 91.96-78.06Z"/></clipPath><clipPath id="clippath-4"><path class="cls-11" d="M3466.66 1557.48s-8.83 225.5 0 339.5 25.33 277.5 25.33 277.5h78.66s-6.66-252 15.84-345 45-248.5 39-272h-158.83Z"/></clipPath><clipPath id="clippath-5"><path class="cls-11" d="M3541.6 1569.27s20.63 193.41 44.67 271.82c24.05 78.41 128.59 316.78 128.59 316.78s48.09-2.09 78.41-34.5c0 0-84.68-221.64-92-293.78-7.32-72.14.46-238.57-35.84-290.74l-123.84 30.42Z"/></clipPath><clipPath id="clippath-12"><path class="cls-48" d="M3407.66 904.08s-9.89 134.26 33.27 134.56c43.16.3 59.04-53.64 59.04-53.64s25.47 2.1 21.58-28.77c-3.9-30.87-26.37-11.09-26.37-11.09s-17.98-9.29-26.37-28.77-32.97.3-61.14-12.29Z"/></clipPath><clipPath id="clippath-7"><path class="cls-48" d="M2085.82 1034.47s7.65 107.11-21.6 114.31c-29.25 7.2-57.61-22.05-57.61-22.05l3.6-73.81 75.61-18.45Z"/></clipPath><clipPath id="clippath-8"><path class="cls-48" d="M2228.55 1280.04s69.51-39.56 95.7-60.95c26.2-21.39 54.64-49.02 59.88-42.24 4.87 6.3-28.34 38.5-28.34 38.5s25.13 8.02 16.04 32.61-27.8 21.39-59.35 32.08-65.23 45.45-65.23 45.45l-18.71-45.45Z"/></clipPath><clipPath id="clippath-9"><path class="cls-11" d="M2057.73 973.41s25.66-2.41 38.09 21.25c12.43 23.66 4.81 57.74-7.62 61.75-12.43 4.01-48.52 10.43-50.53 38.5-2.01 28.07-3.61 30.07-23.66 43.31-20.05 13.23 8.02 45.31-19.25 79.8-27.27 34.49-83.01 62.56-72.58 127.52 10.43 64.96-9.79 76.6-25.16 90.69-30.99 28.42-111.98 63.29-136.04-59.42 0 0 2.75-53.73 27.04-79.4 24.29-25.66 29.1-24.06 31.51-68.17s26.47-36.09 43.31-66.57c16.84-30.48 23.66-42.1 34.49-121.5 10.83-79.4 79-93.43 103.06-91.03 24.06 2.41 44.91 8.82 57.34 23.26Z"/></clipPath><clipPath id="clippath-10"><path class="cls-3" d="M3407.3 922.96s-30.27.3-36.26-37.46c-5.99-37.76 23.34-41.64 35.96-47.95s14.68-20.98 38.06-23.98 31.47 10.49 51.55 11.09 42.86-4.8 53.34 20.68c10.49 25.47 24.51 31.22 26.37 65.44 2.7 49.64-22.18 36.15-29.67 66.72-7.49 30.57-26.67 36.26-44.95 26.67-18.28-9.59-94.4-81.22-94.4-81.22Z"/></clipPath><clipPath id="clippath-11"><path class="cls-48" d="M3456.93 997.73s15.5 35 8.5 66c0 0 23.85 17.06 56.52-11.27 0 0-16.68-24.06-15.35-66.06l-32.67-12-17 23.33Z"/></clipPath><linearGradient id="linear-gradient" x1="2355.53" y1="251.87" x2="2367.53" y2="1658.88" gradientUnits="userSpaceOnUse"><stop offset="0" stop-color="#b0d8ff"/><stop offset=".02" stop-color="#b2d9ff"/><stop offset=".15" stop-color="#c4e1ff"/><stop offset=".3" stop-color="#d0e6ff"/><stop offset=".51" stop-color="#d7eaff"/><stop offset="1" stop-color="#daebff"/></linearGradient><style>.cls-1{fill:#e57700}.cls-2{fill:#fe8e00}.cls-3{fill:#191e56}.cls-4{fill:#7bbdff}.cls-6{fill:#b0d8ff}.cls-10{fill:#ffab00}.cls-11{fill:#1e2889}.cls-12{fill:#6d6a6b}.cls-13{fill:#d1e3ff}.cls-15{fill:#006dfe}.cls-16{fill:#0542bf}.cls-17{fill:#00b77b}.cls-18{fill:#073c9b}.cls-23{fill:#e3eeff}.cls-39{fill:#d16d00}.cls-40{fill:#054aa9}.cls-41{fill:transparent}.cls-42{fill:#ea756c}.cls-45{fill:#daebff}.cls-46{fill:#66afff}.cls-47{fill:#181c77}.cls-48{fill:#ffaca6}.cls-50{fill:#894700}.cls-51{fill:#ebf5ff}</style></defs><path class="cls-41" d="M0 0h4680v3120H0z"/><path style="fill:#d3e2f9" d="M731.48 2046.96h3284.77v18.74H731.48z"/><path class="cls-17" d="M1007.72 2144.86s-30.31 60.35-84.24 82.78c-53.93 22.42-129.53-5.83-171.93-39.14-42.39-33.31-83.54-80.69-87.63-116.01-4.09-35.32 67.01-21.39 67.01-21.39s-31.42-42.92-44.49-73.58c-13.07-30.66 2.24-62.65 45.21-43.6l42.96 19.04s-32.95-66.72-32.35-108.39c.59-41.67 25.15-104.17 71.46-60.03 46.3 44.14 51.04 136.69 51.04 136.69s10.3-39.45 24.96-68.3c14.66-28.85 45.12-25.11 59.16 15.1 14.05 40.21 19.43 97.78 19.43 97.78s13.42-44.42 35.34-37.36c21.91 7.06 34.69 59.11 31.01 110.2-3.68 51.1-26.94 106.21-26.94 106.21Z"/><path d="M998.13 2036.81s-1.61-219.8-169.99-298.1c0 0-77.06 184.61 39.95 342.89 117.01 158.28 93.05 121.49 93.05 121.49l36.99-166.28Z" style="fill:#00d967"/><path style="stroke:#fff;fill:none;stroke-linecap:round;stroke-linejoin:round;stroke-width:2px" d="m869.71 1841.54 95.79 326.42"/><ellipse class="cls-51" cx="1909.72" cy="2295.05" rx="208.14" ry="42.74"/><ellipse class="cls-51" cx="3628.27" cy="2273.94" rx="230.41" ry="42.74"/><ellipse class="cls-51" cx="3064.44" cy="2252.31" rx="414.04" ry="42.74"/><ellipse class="cls-51" cx="1288.88" cy="2273.23" rx="345.14" ry="31.75"/><rect class="cls-6" x="1523.23" y="452.45" width="1706" height="1232.23" rx="88.98" ry="88.98"/><rect class="cls-15" x="1523.23" y="476.08" width="1678.94" height="1232.23" rx="88.28" ry="88.28"/><rect x="1576.29" y="527.43" width="1572.81" height="1129.53" rx="81.8" ry="81.8" style="fill:url(#linear-gradient)"/><rect class="cls-6" x="1741.05" y="1317.87" width="311.96" height="311.96" rx="33.31" ry="33.31"/><rect class="cls-6" x="2217.88" y="1317.87" width="311.96" height="311.96" rx="33.31" ry="33.31"/><rect class="cls-6" x="2694.71" y="1317.87" width="311.96" height="311.96" rx="33.31" ry="33.31"/><rect class="cls-41" x="1706.46" y="962.85" width="399.74" height="29.33" rx="14.66" ry="14.66"/><path class="cls-41" d="M2091.53 1055.84h-370.41c-8.1 0-14.66-6.56-14.66-14.66 0-8.1 6.56-14.66 14.66-14.66h370.41c8.1 0 14.66 6.56 14.66 14.66 0 8.1-6.56 14.66-14.66 14.66ZM2091.53 1119.49h-370.41c-8.1 0-14.66-6.56-14.66-14.66 0-8.1 6.56-14.66 14.66-14.66h370.41c8.1 0 14.66 6.56 14.66 14.66 0 8.1-6.56 14.66-14.66 14.66Z"/><rect class="cls-41" x="1706.46" y="1153.83" width="399.74" height="29.33" rx="14.66" ry="14.66"/><path class="cls-41" d="M2091.53 1246.81h-370.41c-8.1 0-14.66-6.56-14.66-14.66 0-8.1 6.56-14.66 14.66-14.66h370.41c8.1 0 14.66 6.56 14.66 14.66 0 8.1-6.56 14.66-14.66 14.66Z"/><rect class="cls-41" x="2189.89" y="962.85" width="399.74" height="29.33" rx="14.66" ry="14.66"/><path class="cls-41" d="M2574.96 1055.84h-370.41c-8.1 0-14.66-6.56-14.66-14.66 0-8.1 6.56-14.66 14.66-14.66h370.41c8.1 0 14.66 6.56 14.66 14.66 0 8.1-6.56 14.66-14.66 14.66ZM2574.96 1119.49h-370.41c-8.1 0-14.66-6.56-14.66-14.66 0-8.1 6.56-14.66 14.66-14.66h370.41c8.1 0 14.66 6.56 14.66 14.66 0 8.1-6.56 14.66-14.66 14.66Z"/><rect class="cls-41" x="2189.89" y="1153.83" width="399.74" height="29.33" rx="14.66" ry="14.66"/><path class="cls-41" d="M2574.96 1246.81h-370.41c-8.1 0-14.66-6.56-14.66-14.66 0-8.1 6.56-14.66 14.66-14.66h370.41c8.1 0 14.66 6.56 14.66 14.66 0 8.1-6.56 14.66-14.66 14.66Z"/><path class="cls-11" d="M2704.94 1646.28h30.48v603.1h-30.48zM3397.86 1646.28h30.48v603.1h-30.48z"/><path class="cls-16" d="M2650.4 1612.6h824.45v47.9H2650.4z"/><path class="cls-6" d="M1828.63 1424.93s-7.49 70.98 80.2 46.18l5.35-49.93-85.55 3.74Z"/><path class="cls-11" d="M2076.71 1205.19h87.68l-62.23 265.93-110.19.13 84.74-266.06z"/><path class="cls-3" d="M1762.79 2140.48s-11.93 13.15-22.72 22.37-25.61 9.27-32.49 21.67c-6.87 12.4 19.22 43.35 35.44 67.44 16.21 24.09 37.54 39.39 51.55 22.47 14-16.92-22.98-46.85-14.54-78.32 8.44-31.47 15.37-30.16 15.37-30.16l-32.6-25.48ZM1987.74 2216.19s.39 17.75-1.09 31.87c-1.49 14.12-12.21 24.35-8.67 38.08 3.54 13.73 43.78 18.23 72.12 24.56 28.34 6.33 54.34 2.76 52.86-19.16-1.48-21.92-48.91-18.19-64.44-46.83-15.53-28.64-9.6-32.46-9.6-32.46l-41.19 3.94Z"/><path class="cls-16" d="m2057.33 1593.35 10.55 11.87 34.29 596.04s-62.88 67.37-155.91 0c0 0 20.85-173.57 12.83-298.51-8.02-124.94 18.18-309.4 18.18-309.4h80.07Z"/><path class="cls-18" d="M1931.92 2082.98s41.25-8.25 69-79.5 41.24-72.48 45.75 9.51c4.51 81.99 16.71 192.43-8.14 231.71l63.64-13.5s48.01-81.98 46.51-123.74-25.5-124.39-28.5-195.18 1.5-104.49-7.5-172.39c-9-67.9-9.28-81.57-25.95-117.4-16.66-35.84 19.21-58.79-17.69-58.27-36.9.51-74.69-.96-84.53 8.41-9.84 9.36-45.28 63.93-45.28 63.93s2.6 123.93 7.02 194.43-4.58 166.5-9.08 192-5.25 60-5.25 60Z" style="clip-path:url(#clippath)"/><path class="cls-41" d="m2060.67 1381.09 10.16 222.42s-20.85 14.97-58.28 3.21l48.12-225.63Z"/><path class="cls-45" d="M2036.17 1620.23s21.49-134.71 22.75-143.86c1.25-9.14 3.5-10.64 8.01-27.89 4.5-17.25 16.5-61.5 4.5-76.5s-25.47-46.54-33.75-5.99-14.25 49.49-19.5 101.24c-5.25 51.75-4.49 62.29-5.62 89.27-1.13 26.98-7.12 47.71 0 56.1 7.12 8.38 23.62 7.63 23.62 7.63Z" style="clip-path:url(#clippath-1)"/><path class="cls-16" d="M1864.52 1663.18s-78.73 371.2-158.06 461.02c0 0 31.34 80.2 150.04 65.76 0 0 95.76-219.75 87.98-436.28l-79.96-90.5Z"/><path class="cls-18" d="M1752.11 1989.98s129.56 6.17 129.56 194.33l32.5-66.47 39.47-140.02s-1.48-65.84 6.02-94.34 25.67-67.5 24.84-105c-.84-37.5-8.34-135.22-26.34-141.93s-129.7 26.64-129.7 26.64l-48.8 213.11-27.56 113.69Z" style="clip-path:url(#clippath-2)"/><path class="cls-10" d="M2002.93 1164.55s66.69 9.84 83.8 34.97 53.08 104.58 74.46 105.11c21.39.53 31.01-10.16 31.01-10.16l31.01-14.97 24.06 54s-76.46 57.21-108 51.86c-31.54-5.35-64.16-51.86-64.16-51.86s-61.49 277.49-55.87 384.96c5.61 107.47-50.53 256.36-50.53 256.36s-159.86 44.12-261.45-109.87c0 0 83.41-141.34 109.07-218.87s71.05-133.08 80.73-171.97c9.68-38.89 8.55-91.96 8.55-91.96l5.35-139.55 91.96-78.06Z"/><g style="clip-path:url(#clippath-3)"><path class="cls-2" d="M1890.67 1454.48c2.25-.75 49.5-6.65 51-69.7s4.67-90.8 42.84-115.55c38.16-24.75 54.61-83.03 114.66-62.49s-2.25-45.51-2.25-45.51l-123.75-15.45-55.5 59.41-82.5 124.04 23.25 102 32.25 23.25ZM2075.84 1346.14c0-1-.73-12.64-.73-12.64s30.07 35.97 55.07 36.97 62.33-11.33 67.33-26.67 4-31 4-31l20.2 31.33s-4.2 27.67-6.2 27.67-12 6.56-22.33 9.28c-10.33 2.72-25.33 10.39-33 12.39-7.67 2-36.67 4.67-42.33 2.67s-9.67-3.67-13.67-6.33c-4-2.67-8-1.67-10.33-7s-11.67-28.33-13-31.67c-1.33-3.33-5-5-5-5Z"/><path class="cls-2" d="M1770.67 1947.83s104.01-22.35 143.5-119.85 19.18-184.28 63.09-288.64c43.91-104.36 95.66-244.61 90.41-277.61 0 0 15 35.25 8.25 81s-29.26 235.5-29.26 235.5l-12.74 248.25-48.75 159-113.85 11.25-100.65-48.9Z"/></g><path class="cls-13" transform="rotate(180 1096.14 989.33)" d="M766.23 595.7h659.83v787.26H766.23z"/><path class="cls-23" transform="rotate(180 1073.995 989.33)" d="M736.04 595.7h675.91v787.26H736.04z"/><path class="cls-13" transform="rotate(180 1096.14 1411.01)" d="M766.23 1382.96h659.83v56.1H766.23z"/><path class="cls-23" transform="rotate(180 1023.7 1411.01)" d="M685.75 1382.96h675.91v56.1H685.75z"/><path transform="rotate(90 1073.99 989.33)" style="fill:#f5fcff" d="M722.62 693.64h702.74v591.38H722.62z"/><path class="cls-41" d="m1297.08 1340.7-248.05-702.74h-117.1l248.05 702.74h117.1z"/><path d="M1350.12 1102.28c1.67 0 3.02-1.35 3.02-3.02v-433.8c0-1.67-1.35-3.02-3.02-3.02s-3.02 1.35-3.02 3.02v433.8c0 1.67 1.35 3.02 3.02 3.02Z" style="fill:#e2eeff"/><path class="cls-41" d="M1154.83 1340.7 906.78 637.96h-45.65l248.05 702.74h45.65z"/><path class="cls-13" transform="rotate(90 780.985 989.335)" d="M429.62 986.65h702.74v5.37H429.62z"/><path class="cls-13" d="M726.04 692.03h659.83l3.89-37.64H729.93l-3.89 37.64z"/><path class="cls-13" d="M726.04 719.58h659.83l3.89-37.64H729.93l-3.89 37.64z"/><path class="cls-13" d="M726.04 752.65h659.83l3.89-37.65H729.93l-3.89 37.65z"/><path class="cls-13" d="M726.04 789.44h659.83l3.89-37.65H729.93l-3.89 37.65zM726.04 833.52h659.83l3.89-37.64H729.93l-3.89 37.64zM726.04 883.11h659.83l3.89-37.64H729.93l-3.89 37.64z"/><circle class="cls-4" cx="3686.96" cy="876.88" r="200.34"/><circle class="cls-45" cx="3686.96" cy="876.88" r="183.61" transform="rotate(-45 3686.953 876.874)"/><path class="cls-40" d="M3686.96 882.63c-1.39 0-2.77-.5-3.87-1.49l-99.64-90.61a5.743 5.743 0 0 1-.38-8.12 5.743 5.743 0 0 1 8.12-.38l95.85 87.17 73.73-64.43a5.747 5.747 0 0 1 8.11.55 5.747 5.747 0 0 1-.55 8.11l-77.58 67.8a5.705 5.705 0 0 1-3.78 1.42ZM3680.69 1017.38h12.03v31.58h-12.03zM3680.69 704.8h12.03v31.58h-12.03z"/><path class="cls-40" transform="rotate(90 3530.42 876.88)" d="M3524.4 861.09h12.03v31.58h-12.03z"/><path class="cls-40" transform="rotate(90 3842.995 876.885)" d="M3836.98 861.09h12.03v31.58h-12.03z"/><path style="fill:none;stroke-linecap:round;stroke-linejoin:round;stroke-width:2px;stroke:#de4d30" d="m3686.96 880.52 48.63 146.26"/><circle class="cls-4" cx="3686.96" cy="876.88" r="21.18"/><circle class="cls-10" cx="3686.96" cy="876.88" r="12.48"/><rect class="cls-6" x="937.87" y="1503.17" width="703.16" height="130.49" rx="8.61" ry="8.61"/><ellipse class="cls-15" cx="1008.3" cy="1568.41" rx="14.89" ry="17.46"/><ellipse class="cls-15" cx="1070.79" cy="1568.41" rx="14.89" ry="17.46"/><ellipse class="cls-15" cx="1133.29" cy="1568.41" rx="14.89" ry="17.46"/><rect class="cls-15" x="1458.77" y="1534.98" width="17.17" height="66.58" rx="1.55" ry="1.55"/><rect class="cls-15" x="1487.04" y="1534.98" width="17.17" height="66.58" rx="1.55" ry="1.55"/><rect class="cls-15" x="1515.32" y="1534.98" width="17.17" height="66.58" rx="1.55" ry="1.55"/><rect class="cls-15" x="1543.59" y="1534.98" width="17.17" height="66.58" rx="1.55" ry="1.55"/><path class="cls-16" d="M965.52 1633.66h646.74v23.52H965.52z"/><rect class="cls-6" x="937.87" y="1657.18" width="703.16" height="130.49" rx="8.61" ry="8.61"/><ellipse class="cls-15" cx="1008.3" cy="1722.42" rx="14.89" ry="17.46"/><ellipse class="cls-15" cx="1070.79" cy="1722.42" rx="14.89" ry="17.46"/><ellipse class="cls-15" cx="1133.29" cy="1722.42" rx="14.89" ry="17.46"/><rect class="cls-15" x="1458.77" y="1688.99" width="17.17" height="66.58" rx="1.55" ry="1.55"/><rect class="cls-15" x="1487.04" y="1688.99" width="17.17" height="66.58" rx="1.55" ry="1.55"/><rect class="cls-15" x="1515.32" y="1688.99" width="17.17" height="66.58" rx="1.55" ry="1.55"/><rect class="cls-15" x="1543.59" y="1688.99" width="17.17" height="66.58" rx="1.55" ry="1.55"/><path class="cls-16" d="M965.52 1787.67h646.74v23.52H965.52z"/><rect class="cls-6" x="937.87" y="1811.19" width="703.16" height="130.49" rx="8.61" ry="8.61"/><ellipse class="cls-15" cx="1008.3" cy="1876.44" rx="14.89" ry="17.46"/><ellipse class="cls-15" cx="1070.79" cy="1876.44" rx="14.89" ry="17.46"/><ellipse class="cls-15" cx="1133.29" cy="1876.44" rx="14.89" ry="17.46"/><rect class="cls-15" x="1458.77" y="1843" width="17.17" height="66.58" rx="1.55" ry="1.55"/><rect class="cls-15" x="1487.04" y="1843" width="17.17" height="66.58" rx="1.55" ry="1.55"/><rect class="cls-15" x="1515.32" y="1843" width="17.17" height="66.58" rx="1.55" ry="1.55"/><rect class="cls-15" x="1543.59" y="1843" width="17.17" height="66.58" rx="1.55" ry="1.55"/><path class="cls-16" d="M965.52 1941.68h646.74v23.52H965.52z"/><rect class="cls-6" x="937.87" y="1965.21" width="703.16" height="130.49" rx="8.61" ry="8.61"/><ellipse class="cls-15" cx="1008.3" cy="2030.45" rx="14.89" ry="17.46"/><ellipse class="cls-15" cx="1070.79" cy="2030.45" rx="14.89" ry="17.46"/><ellipse class="cls-15" cx="1133.29" cy="2030.45" rx="14.89" ry="17.46"/><rect class="cls-15" x="1458.77" y="1997.01" width="17.17" height="66.58" rx="1.55" ry="1.55"/><rect class="cls-15" x="1487.04" y="1997.01" width="17.17" height="66.58" rx="1.55" ry="1.55"/><rect class="cls-15" x="1515.32" y="1997.01" width="17.17" height="66.58" rx="1.55" ry="1.55"/><rect class="cls-15" x="1543.59" y="1997.01" width="17.17" height="66.58" rx="1.55" ry="1.55"/><path class="cls-16" d="M965.52 2095.69h646.74v23.52H965.52z"/><rect class="cls-6" x="937.87" y="2119.22" width="703.16" height="130.49" rx="8.61" ry="8.61"/><ellipse class="cls-15" cx="1008.3" cy="2184.46" rx="14.89" ry="17.46"/><ellipse class="cls-15" cx="1070.79" cy="2184.46" rx="14.89" ry="17.46"/><ellipse class="cls-15" cx="1133.29" cy="2184.46" rx="14.89" ry="17.46"/><rect class="cls-15" x="1458.77" y="2151.03" width="17.17" height="66.58" rx="1.55" ry="1.55"/><rect class="cls-15" x="1487.04" y="2151.03" width="17.17" height="66.58" rx="1.55" ry="1.55"/><rect class="cls-15" x="1515.32" y="2151.03" width="17.17" height="66.58" rx="1.55" ry="1.55"/><rect class="cls-15" x="1543.59" y="2151.03" width="17.17" height="66.58" rx="1.55" ry="1.55"/><path class="cls-16" d="M965.52 2249.71h646.74v23.52H965.52z"/><path class="cls-42" d="M3471.68 1327.73s-87.75 183-105.75 198-58.5 13.5-72.75 38.25 23.25 51.75 55.5 34.5 60.75-57.75 60.75-57.75l80.25-126v-75.75l-18-11.25Z"/><path class="cls-16" d="M3772.5 2117.84s15.18 16.74 28.92 28.48 32.61 11.79 41.36 27.58-24.47 55.18-45.11 85.85c-20.64 30.67-47.79 50.14-65.62 28.6-17.83-21.54 29.25-59.64 18.51-99.7-10.74-40.06-19.56-38.39-19.56-38.39l41.5-32.43ZM3558.96 2163.6s-.48 21.61 1.33 38.8c1.81 17.19 14.87 29.65 10.56 46.36-4.32 16.72-53.3 22.2-87.81 29.91-34.51 7.7-66.17 3.36-64.37-23.33 1.8-26.69 59.55-22.14 78.46-57.02 18.91-34.88 11.68-39.52 11.68-39.52l50.15 4.8Z"/><path class="cls-11" d="M3466.66 1557.48s-8.83 225.5 0 339.5 25.33 277.5 25.33 277.5h78.66s-6.66-252 15.84-345 45-248.5 39-272h-158.83Z"/><path class="cls-47" d="M3521.18 1547.68s15 329.34 71 446.57c0 0 28-206.77 29-209.77s36-158.34 36-158.34l-46-87.29-90 8.83Z" style="clip-path:url(#clippath-4)"/><path class="cls-11" d="M3541.6 1569.27s20.63 193.41 44.67 271.82c24.05 78.41 128.59 316.78 128.59 316.78s48.09-2.09 78.41-34.5c0 0-84.68-221.64-92-293.78-7.32-72.14.46-238.57-35.84-290.74l-123.84 30.42Z"/><path class="cls-47" d="M3614.18 1531s18 243.48 43 306.48c25 63 115.32 280.36 115.32 280.36l40.68-18.36-49-133s-23-326.31-26-336.65c-3-10.35-49-98.83-49-98.83h-75Z" style="clip-path:url(#clippath-5)"/><path class="cls-47" d="M3481.18 2133.95h98l-8.53 40.53s-36.35 11-78.66 0l-10.81-40.53ZM3692.75 2125.5l94.17-37.16 6.35 35.04s-25.98 40.22-78.41 34.5l-22.11-32.38Z"/><path class="cls-46" d="M3469.18 1053.85s-10.83 5.67-13.5 9.62c-11.01 16.31-30.98 52-13.74 157 17.24 105 37.58 126 32.91 198s-12.67 147-12.67 147 86.58 73.71 217.58-11.29c0 0-27.96-204.36-38.96-277.36s-46.46-224.85-124.29-224.35l-47.33 1.38Z"/><g style="clip-path:url(#clippath-6)"><path d="M3454.56 1362.93s37.4 4.33 57.63-35.2c20.23-39.53 70.9-168.38 59.52-211.07 15.96 44.32 14.29 132.79 7.12 169.05-7.16 36.26-48.66 122.76-110.66 119.26l-13.61-42.05Z" style="fill:#39a1ff"/></g><path class="cls-12" d="M2750.34 1501.51h15.25v109.98h-15.25zM2975.32 1501.51h15.25v109.98h-15.25z"/><path style="fill:#3f0717" d="M2730.18 1499.89h282.18v20.18h-282.18z"/><path class="cls-50" d="M3148.18 1503.17h86.91v23.35h-86.91z"/><path class="cls-10" d="M3283.79 1516.74s52.23-13.65 52.23-70.86c0-98.99-36.63-98.99-36.63-98.99h-73.41v-51.43h73.41s76.28 9.97 76.28 150.84c0 109.23-91.88 117.9-91.88 117.9h-176.63v-47.47h176.63Z"/><path class="cls-2" d="m3233.13 1367.55 67.41-147.38-46.91-21.06-67.4 147.38 46.9 21.06z"/><path class="cls-2" transform="rotate(-65.83 3195.491 1388.276)" d="M3175.53 1375.34h40.25v25.82h-40.25z"/><path class="cls-50" transform="rotate(-65.82 3277.113 1209.631)" d="M3262.84 1183.93h28.5v51.41h-28.5z"/><path class="cls-1" d="m3209.65 1387.94 23.48-20.39-46.9-21.06.37 31.09 23.05 10.36z"/><path class="cls-39" d="M3107.16 1505.19v-12.48c0-6.89 5.59-12.47 12.48-12.47h144.53c6.9 0 12.48 5.59 12.48 12.47v12.48h-169.49Z"/><path d="M3054.57 1612.74v-15.29c0-8.45 6.85-15.29 15.29-15.29h285.4c8.44 0 15.28 6.84 15.28 15.29v15.29h-315.97Z" style="fill:#6b3500"/><path class="cls-1" d="M3172.6 1597.45h58.17c10.48 0 14.76-6.05 9.52-13.44l-10.05-14.18c-5.22-7.4-13.8-19.49-19.03-26.87l-10.05-14.18c-5.24-7.4-13.8-7.4-19.04 0l-10.04 14.18c-5.24 7.38-13.8 19.48-19.03 26.87l-10.05 14.18c-5.24 7.39-.95 13.44 9.51 13.44h20.09Z"/><path class="cls-50" d="M3183.29 1539.34c0 4.61 3.75 8.35 8.35 8.35s8.34-3.74 8.34-8.35-3.73-8.34-8.34-8.34-8.35 3.74-8.35 8.34ZM3216.43 1584.85c0 4.61 3.73 8.34 8.35 8.34s8.33-3.73 8.33-8.34-3.73-8.35-8.33-8.35-8.35 3.73-8.35 8.35ZM3150.63 1584.85c0 4.61 3.73 8.34 8.35 8.34s8.34-3.73 8.34-8.34-3.74-8.35-8.34-8.35-8.35 3.73-8.35 8.35Z"/><path class="cls-39" d="M3265.75 1299c0 12.25 9.93 22.17 22.18 22.17s22.17-9.93 22.17-22.17-9.92-22.18-22.17-22.18-22.18 9.93-22.18 22.18Z"/><path class="cls-50" d="M3274.63 1299c0 7.33 5.96 13.29 13.29 13.29s13.29-5.95 13.29-13.29-5.95-13.29-13.29-13.29-13.29 5.95-13.29 13.29Z"/><path class="cls-2" d="M2778.17 1448.48h35v121h-35zM2827.17 1448.48h35v121h-35zM2876.17 1448.48h35v121h-35zM2925.18 1448.48h35v121h-35z"/><path class="cls-15" d="M1791.94 626.61c0-18.12 4.98-30.81 14.77-36.87 15.38-9.5 40.1-1.07 69.62 23.74 28.43 23.9 58.49 60.36 84.65 102.68 26.16 42.32 45.34 85.51 54 121.62 9 37.5 5.48 63.38-9.89 72.88-15.38 9.5-40.1 1.07-69.62-23.74-28.43-23.9-58.49-60.36-84.65-102.68-26.16-42.32-45.34-85.51-54-121.62-3.27-13.61-4.88-25.69-4.88-36.02Zm220.13 247.37c0-9.68-1.55-21.26-4.7-34.37-8.48-35.33-27.32-77.71-53.05-119.34-25.73-41.63-55.22-77.43-83.03-100.8-26.33-22.14-48.37-30.55-60.47-23.07-12.09 7.47-14.42 30.95-6.39 64.4 8.48 35.33 27.32 77.71 53.05 119.34 25.73 41.63 55.22 77.43 83.03 100.8 26.33 22.14 48.37 30.55 60.47 23.07 7.35-4.54 11.1-15.01 11.1-30.03Z"/><path class="cls-15" d="M1717.26 750.21c0-18.08 20.17-34.67 56.8-46.74 35.28-11.62 82.1-18.02 131.85-18.02s96.57 6.4 131.85 18.02c36.63 12.06 56.8 28.66 56.8 46.74s-20.17 34.67-56.8 46.74c-35.28 11.62-82.1 18.02-131.85 18.02s-96.57-6.4-131.85-18.02c-36.63-12.06-56.8-28.66-56.8-46.74Zm369.46 0c0-14.22-18.74-28.54-51.42-39.3-34.51-11.36-80.46-17.62-129.4-17.62s-94.89 6.26-129.4 17.62c-32.68 10.76-51.42 25.09-51.42 39.3s18.74 28.54 51.42 39.3c34.51 11.36 80.46 17.62 129.4 17.62s94.89-6.26 129.4-17.62c32.68-10.76 51.42-25.09 51.42-39.3Z"/><path class="cls-15" d="M1791.69 873.77c0-10.37 1.64-22.51 4.96-36.21 8.74-36.1 28.01-79.25 54.25-121.51 26.24-42.26 56.38-78.67 84.86-102.51 29.57-24.75 54.31-33.13 69.67-23.59 15.36 9.54 18.81 35.43 9.74 72.9-8.74 36.1-28.01 79.25-54.25 121.51-26.24 42.26-56.38 78.67-84.86 102.51-29.57 24.75-54.31 33.13-69.67 23.59-9.74-6.05-14.7-18.69-14.7-36.7Zm211.67-280.5-2.06 3.32c-12.08-7.5-34.13.86-60.51 22.95-27.86 23.32-57.42 59.06-83.24 100.63-25.82 41.57-44.74 83.92-53.29 119.23-8.1 33.44-5.81 56.92 6.26 64.41 12.08 7.5 34.13-.86 60.51-22.95 27.86-23.32 57.42-59.06 83.24-100.63 25.82-41.57 44.74-83.92 53.29-119.23 8.1-33.44 5.81-56.91-6.26-64.41l2.06-3.32Z"/><circle class="cls-17" cx="1905.9" cy="750.21" r="21.76" transform="rotate(-45 1905.906 750.208)"/><path class="cls-41" d="M2279.86 577.51h712.67c7.81 0 14.15 6.34 14.15 14.15v288.11c0 7.81-6.34 14.15-14.15 14.15h-712.66c-7.81 0-14.15-6.34-14.15-14.15V591.66c0-7.81 6.34-14.15 14.15-14.15Z"/><path class="cls-45" d="M2986.8 746.92v120.26c0 5.35-4.35 9.7-9.74 9.7h-684.45c-5.39 0-9.74-4.35-9.74-9.7V603.02c63.22 0 94.69 23.63 113.15 54.68 1.21 1.98 2.33 4.01 3.36 6.08 31.22 59.08 21.82 140.05 90.47 140.05 2.54 0 4.96-.3 7.24-.91 1.47-.3 2.89-.78 4.23-1.38 46.18-19.45 38.98-157.48 121.13-156.49 17.55.22 30.66 6.95 41.01 17.68.99 1.08 1.98 2.15 2.93 3.32 36.78 43.17 37.3 139.36 93.78 156.82 20.36 6.3 38.34-2.24 56.1-16.34 1.12-.91 2.28-1.81 3.4-2.8 37.56-31.18 74.9-84.47 132.85-71.41 1.68.39 3.37.82 5.09 1.3 9.19 2.67 18.89 6.98 29.19 13.28Z"/><path class="cls-17" d="M2986.85 722.64c-12.29.18-21.69 4.32-29.24 11-13.97 12.37-21.47 33.5-28.8 54.16-10.99 30.92-22.33 62.83-55.5 62.83-1.76 0-3.62-.09-5.52-.26-21.61-2.11-37.51-19.7-51.53-43.81-8.71-14.92-16.69-32.39-24.79-50.28-22.94-50.32-46.7-102.37-90.43-103.58-.52 0-.99-.04-1.46-.04-13.24 0-24.06 5.04-33.2 13.41-18.5 16.86-30.27 47.25-41.78 77.01-17.03 44.03-34.63 89.56-74.34 90.47-28.55.61-41.52-10.18-53.17-30.62-4.49-7.93-8.8-17.33-13.72-28.07-8.97-19.66-20.18-44.11-38.72-72.57-12.46-19.06-28.29-31.17-45.28-38.51-45.79-19.96-99.69-5.35-116.51.13v-4.53c18.02-5.69 68.39-18.59 113.15-1.68 19.53 7.37 37.99 20.44 52.22 42.26 18.76 28.68 30.01 53.3 39.07 73.09 5.09 11.12 9.44 20.66 14.01 28.51 10.96 18.92 22.99 28.28 48.85 27.68 36.83-.86 53.12-43.03 70.42-87.7 11.72-30.31 23.67-61.28 42.86-78.78 10.18-9.27 22.38-14.79 37.69-14.36 46.49 1.25 70.76 54.55 94.26 106.12 8.02 17.5 15.78 34.62 24.27 49.24 13.46 23.37 28.55 40.32 48.55 42.3 34.15 3.36 45.02-27.25 56.54-59.72 7.15-20.22 14.48-40.83 27.76-53.99 8.45-8.45 19.36-13.79 34.24-14.01l.08 4.31Z"/><path d="M3022.87 1073.89c-17.61-78-87.27-136.26-170.59-136.26v174.93l170.59-38.67Z" style="fill:#0ace68"/><path class="cls-41" d="M2852.28 1112.56V937.63c-96.61 0-174.93 78.32-174.93 174.93s78.32 174.93 174.93 174.93 174.93-78.32 174.93-174.93c0-13.29-1.53-26.22-4.34-38.67l-170.59 38.67Z"/><circle class="cls-45" cx="2852.28" cy="1115.5" r="133.7"/><path class="cls-42" d="M2028.71 1124.48s-10.22 25.91-3.61 44.96c0 0-14.3 10.46-40.59 0v-42.46l33.2-9.5 11 7Z"/><path class="cls-48" d="M2085.82 1034.47s7.65 107.11-21.6 114.31c-29.25 7.2-57.61-22.05-57.61-22.05l3.6-73.81 75.61-18.45Z"/><path class="cls-42" d="M1997.17 1138.48s41.33-7 45.33-24 3.67-30.67 23-34.33c19.33-3.67 29.33-9.33 29.33-9.33l-4.33-26.67-69.33 1-10 36-14 57.33Z" style="clip-path:url(#clippath-7)"/><path class="cls-48" d="M2228.55 1280.04s69.51-39.56 95.7-60.95c26.2-21.39 54.64-49.02 59.88-42.24 4.87 6.3-28.34 38.5-28.34 38.5s25.13 8.02 16.04 32.61-27.8 21.39-59.35 32.08-65.23 45.45-65.23 45.45l-18.71-45.45Z"/><path class="cls-42" d="M2236.92 1269.48s6.25 23.25 22.75 22.5 44.68-14.75 60.97-14.5 64.79-26.01 35.16-62.13c-29.63-36.12 0 0 0 0l24.87 5.88 1.75 45s-33.25 23-36.5 24.25-38.25 12.25-53 17.5-30.34 16.47-38 21c-7.66 4.53-4.25 10.75-17.75 2.25s-23-18.75-23-18.75l-.5-31.25 23.25-11.75Z" style="clip-path:url(#clippath-8)"/><path class="cls-11" d="M2057.73 973.41s25.66-2.41 38.09 21.25c12.43 23.66 4.81 57.74-7.62 61.75-12.43 4.01-48.52 10.43-50.53 38.5-2.01 28.07-3.61 30.07-23.66 43.31-20.05 13.23 8.02 45.31-19.25 79.8-27.27 34.49-83.01 62.56-72.58 127.52 10.43 64.96-9.79 76.6-25.16 90.69-30.99 28.42-111.98 63.29-136.04-59.42 0 0 2.75-53.73 27.04-79.4 24.29-25.66 29.1-24.06 31.51-68.17s26.47-36.09 43.31-66.57c16.84-30.48 23.66-42.1 34.49-121.5 10.83-79.4 79-93.43 103.06-91.03 24.06 2.41 44.91 8.82 57.34 23.26Z"/><g style="clip-path:url(#clippath-9)"><path d="M1787.92 1448.48s54.75-17.24 67.5-82.49c12.75-65.26 29.05-100.88 64.64-131.09 35.59-30.21 21.61-79.67 37.36-105.92s11.35-78.34 63-84.75 84.42-36.66 78.96-54.33l17.79 51.28-18 63.66s-41.57 40.35-52.28 70.5-45.04 119.4-62.38 153.15c-17.34 33.75-33.09 104.25-33.84 114s-31.04 24.28-57.75 28.78-99.75 9.76-104.25 5.12-.75-27.89-.75-27.89Z" style="fill:#172272"/></g><path class="cls-2" d="M2185.44 1293.24s33 47.28 29.39 72.75l41.78-25.66s11.5-32.92-32.61-65.6l-38.57 18.52Z"/><path class="cls-3" d="M3407.3 922.96s-30.27.3-36.26-37.46c-5.99-37.76 23.34-41.64 35.96-47.95s14.68-20.98 38.06-23.98 31.47 10.49 51.55 11.09 42.86-4.8 53.34 20.68c10.49 25.47 24.51 31.22 26.37 65.44 2.7 49.64-22.18 36.15-29.67 66.72-7.49 30.57-26.67 36.26-44.95 26.67-18.28-9.59-94.4-81.22-94.4-81.22Z"/><g style="clip-path:url(#clippath-10)"><path d="M3358.43 871.12s11.51 12.92 48.25 6.02c36.75-6.91 57.75-5.41 80.25 16.09s48.5 69 83.5 58.5l-17.5 44.5-23 25.38h-26l-69-9.88-60-82-17.5-28 1-30.61Z" style="fill:#11163d"/></g><path class="cls-48" d="M3456.93 997.73s15.5 35 8.5 66c0 0 23.85 17.06 56.52-11.27 0 0-16.68-24.06-15.35-66.06l-32.67-12-17 23.33Z"/><path class="cls-42" d="M3462.59 1036.06s38-15.33 57.67.33l-7.28-43.33-3.06-17.49-40.67-13.84-22.79 9.64 10.46 26.36 5.67 38.33Z" style="clip-path:url(#clippath-11)"/><path class="cls-48" d="M3407.66 904.08s-9.89 134.26 33.27 134.56c43.16.3 59.04-53.64 59.04-53.64s25.47 2.1 21.58-28.77c-3.9-30.87-26.37-11.09-26.37-11.09s-17.98-9.29-26.37-28.77-32.97.3-61.14-12.29Z"/><path class="cls-42" d="M3397.64 923.23s4 4 28 2.5 29.25 12 48.5 26.25 33.5 19.75 51.25 6.25l-11-31-24.75-7.5-30.25-21.41-59.75-1.09-2 26Z" style="clip-path:url(#clippath-12)"/><path class="cls-48" d="M3490.02 1262.98s-10.84 41.5-33.84 50c-23 8.5-124.75-46.27-124.75-46.27s-37.5-87-78.5-76 2 66 45 97.5 93.25 80.77 189.75 85.77c21 0 50-55.5 63-95.5l-60.66-15.5Z"/><path class="cls-42" d="M3315.18 1304.14s56 35.33 108.67 44.33 69.33 12 80.67-17.67c11.33-29.67 17.67-43.67 7-51.67l39.17-3.67 6.5 26s-15.67 39-23.33 50.33c-7.67 11.33-33.67 26.67-42.67 28-9 1.33-28 4.33-48.67 2s-72.67-10-72.67-10l-54.67-67.67Z" style="clip-path:url(#clippath-13)"/><path class="cls-15" d="M3477.18 1262.98s2.5-29.5 8-69.5 7-76 35-89.5 53 2.5 57.5 28.5-5.5 148.5-5.5 148.5-62.5 25-95-18Z"/><path class="cls-45" d="M3768.43 1337.05h169.29v74.85h-169.29z"/><path class="cls-51" d="M3836.88 1411.9h169.29v74.85h-169.29z"/><path class="cls-45" d="M2336.46 1791.13h169.29v74.85h-169.29z"/><path class="cls-51" d="M2404.91 1865.98h169.29v74.85h-169.29z"/></svg>