<svg id="Layer_1" xmlns="http://www.w3.org/2000/svg" xmlns:xlink="http://www.w3.org/1999/xlink" viewBox="0 0 4680 3120"><defs><clipPath id="clippath-3"><path class="cls-39" d="M2602.68 976.71s2.47 86.44-11.11 109.91c-13.58 23.46-33.96 15.44-42.6-10.5v-84.59l53.72-14.82Z"/></clipPath><clipPath id="clippath"><path class="cls-28" d="M1124.39 928.77s-57.96-9.03-62.22-72.76c0 0 27.1 7.78 56.96 3.26 29.86-4.52 115.25-66.07 168.11 34.63 52.86 100.7-62.22 145.19-62.22 145.19l-33.45-23.75-67.16-86.56Z"/></clipPath><clipPath id="clippath-1"><path class="cls-7" d="m1246.83 1082.83 5.66-5.57s22.95-6.48 45.28 37.18c22.33 43.66 72.76 170.87 46.67 291.3-26.09 120.44-74.91 170.49-74.91 170.49s-149.54 0-149.54-141.39c0 0 81.23-31.11 75.06-135.49-6.17-104.38-13.64-111.16 11.67-205.96l40.11-10.58Z"/></clipPath><clipPath id="clippath-2"><path class="cls-39" d="M1118.37 924.51s-14.05 155.06 32.62 153.05c46.67-2.01 53.44-53.19 53.44-53.19s16.56-4.77 13.05-28.1c-3.51-23.33-20.07-15.56-21.83-12.8 0 0-30.86-74.52-77.28-58.96Z"/></clipPath><clipPath id="clippath-4"><path class="cls-12" d="M2550.81 1786.19v182.77s-30.87 135.84-75.33 233.4-53.1 104.97-53.1 104.97-58.04 4.94-87.68-37.05c0 0 91.38-232.16 92.62-318.6 1.23-86.44-19.76-219.81 0-288.97 2.06-12.76 8.64-23.87 8.64-23.87l88.91 9.06 25.93 138.31Z"/></clipPath><clipPath id="clippath-5"><path class="cls-12" d="m2638.08 1647.88 16.47 5.75s17.29 149.85 23.46 259.76c6.17 109.91-8.64 404.44-8.64 404.44s-51.87 34.58-97.56 0c0 0 6.17-183.39-8.64-264.07-14.82-80.68-102.91-364.74-98.79-400.12l173.71-5.75Z"/></clipPath><clipPath id="clippath-6"><path class="cls-8" d="M2563.16 1158.05s73.97 28.34 81.38 66.62c7.41 38.28 10.01 428.96 10.01 428.96s-51.87 40.36-135.84 31.3c-83.97-9.06-88.91-40.34-88.91-40.34s-.82-262.62 4.12-283.2c0 0-42.81 0-65.04-39.11 0 0 46.82-111.35 63.8-142.01 21.2-38.28 73.92-27.83 73.92-27.83s17.36 32.36 56.57 5.62Z"/></clipPath><clipPath id="clippath-7"><path class="cls-39" d="M2673.05 1356.48s6.58 54.91 18.75 71.36c12.18 16.45 111.3-61.13 111.3-61.13s-1.95-66.25 39.46-92.55c41.4-26.3 11.2 77.45-5.85 105.21 0 0-62.84 87.19-122.75 113.01-59.91 25.82-67.08-2.92-76.89-18.02-9.81-15.1-26.86-103.27-26.86-103.27l62.84-14.61Z"/></clipPath><linearGradient id="linear-gradient-2" x1="2960.95" y1="1265.34" x2="3897.36" y2="1265.34" xlink:href="#linear-gradient"/><linearGradient id="linear-gradient" x1="1435.23" y1="1298.65" x2="3278.16" y2="1298.65" gradientUnits="userSpaceOnUse"><stop offset="0" stop-color="#b0d8ff"/><stop offset=".02" stop-color="#b2d9ff"/><stop offset=".15" stop-color="#c4e1ff"/><stop offset=".3" stop-color="#d0e6ff"/><stop offset=".51" stop-color="#d7eaff"/><stop offset="1" stop-color="#daebff"/></linearGradient><style>.cls-3{fill:#7bbdff}.cls-7{fill:#ffab00}.cls-8{fill:#1e2889}.cls-10{fill:#d1e3ff}.cls-12{fill:#006dfe}.cls-13{fill:#00b77b}.cls-16{fill:#202d70}.cls-18{fill:#2636b2}.cls-20{fill:#e3eeff}.cls-28{fill:#0e2354}.cls-29{fill:#054aa9}.cls-30{fill:transparent}.cls-31{fill:#ea756c}.cls-32{fill:#00d967}.cls-33{fill:#80c3ff}.cls-35{fill:#d3e2f9}.cls-36{fill:#daebff}.cls-38{fill:#2263d6}.cls-39{fill:#ffaca6}.cls-42{fill:#153077}</style></defs><path class="cls-30" d="M0 0h4680v3120H0z"/><ellipse class="cls-35" cx="2546.45" cy="2448.93" rx="237.63" ry="84.27"/><ellipse class="cls-35" cx="1262.44" cy="2345.46" rx="466.47" ry="51.17"/><path class="cls-35" d="M732.21 2210.24h3260.03v20.43H732.21z"/><path class="cls-38" d="M3278.16 623.16c0-52.33-42.43-94.76-94.76-94.76H1529.98c-52.33 0-94.76 42.43-94.76 94.76v49.87h1842.94v-49.87Z"/><path d="M1435.23 673.04v1156.47c0 52.33 42.42 94.76 94.76 94.76h1653.42c52.33 0 94.76-42.43 94.76-94.76V673.04H1435.23Z" style="fill:url(#linear-gradient)"/><path class="cls-30" d="M1569.51 1408.16h86.91v326.42h-86.91zM1722.12 1450.55h86.91v284.03h-86.91zM1874.74 1535.34h86.91v199.25h-86.91zM2027.35 1471.75h86.91v262.84h-86.91zM2179.97 1535.34h86.91v199.25h-86.91zM2332.58 1471.75h86.91v262.84h-86.91zM1537.71 1762.14h915.68v12.72h-915.68zM2270.51 771.72h914.8c10.03 0 18.16 8.14 18.16 18.16v369.83c0 10.03-8.14 18.16-18.16 18.16h-914.79c-10.03 0-18.17-8.14-18.17-18.17V789.87c0-10.02 8.14-18.16 18.16-18.16Z"/><path class="cls-36" d="M3177.96 989.17v154.37c0 6.87-5.59 12.46-12.51 12.46h-878.58c-6.92 0-12.51-5.59-12.51-12.46V804.46c81.14 0 121.55 30.34 145.24 70.19 1.55 2.55 2.99 5.14 4.32 7.81 40.08 75.83 28.01 179.78 116.13 179.78 3.26 0 6.36-.38 9.3-1.16 1.88-.38 3.71-1 5.42-1.77 59.28-24.97 50.04-202.14 155.48-200.87 22.53.28 39.35 8.91 52.64 22.7 1.27 1.39 2.54 2.76 3.76 4.26 47.21 55.41 47.88 178.89 120.38 201.3 26.13 8.08 49.22-2.88 72.02-20.97 1.44-1.17 2.93-2.33 4.37-3.6 48.21-40.02 96.15-108.43 170.53-91.66 2.16.5 4.32 1.05 6.53 1.67 11.79 3.42 24.25 8.95 37.47 17.05Z"/><path class="cls-13" d="M3178.02 958c-15.77.23-27.84 5.54-37.53 14.12-17.93 15.88-27.56 43-36.97 69.51-14.11 39.69-28.67 80.65-71.24 80.65-2.27 0-4.65-.11-7.08-.33-27.74-2.71-48.15-25.29-66.14-56.23-11.18-19.16-21.42-41.58-31.83-64.54-29.45-64.6-59.95-131.4-116.07-132.95-.66 0-1.27-.05-1.88-.05-16.99 0-30.89 6.47-42.62 17.21-23.74 21.64-38.86 60.66-53.63 98.85-21.87 56.51-44.45 114.97-95.43 116.13-36.64.78-53.3-13.07-68.24-39.3-5.76-10.19-11.29-22.25-17.61-36.03-11.51-25.24-25.9-56.62-49.7-93.15-16-24.46-36.31-40.02-58.12-49.43-58.78-25.62-127.97-6.86-149.55.17v-5.82c23.13-7.31 87.79-23.86 145.24-2.16 25.08 9.47 48.76 26.23 67.03 54.24 24.08 36.81 38.52 68.41 50.15 93.82 6.53 14.28 12.12 26.51 17.99 36.59 14.06 24.29 29.51 36.3 62.71 35.53 47.27-1.11 68.19-55.24 90.39-112.58 15.05-38.91 30.38-78.66 55.02-101.13 13.06-11.9 28.72-18.99 48.38-18.43 59.67 1.61 90.83 70.02 121 136.22 10.29 22.47 20.25 44.44 31.16 63.21 17.27 30 36.65 51.75 62.32 54.3 43.84 4.32 57.79-34.98 72.57-76.66 9.18-25.96 18.59-52.41 35.64-69.3 10.85-10.84 24.85-17.71 43.95-17.99l.11 5.53Z"/><path class="cls-30" d="M2100.08 821.37h-557.4c-12.19 0-22.07-9.88-22.07-22.07s9.88-22.07 22.07-22.07h557.4c12.19 0 22.07 9.88 22.07 22.07s-9.88 22.07-22.07 22.07ZM2100.08 917.16h-557.4c-12.19 0-22.07-9.88-22.07-22.07s9.88-22.07 22.07-22.07h557.4c12.19 0 22.07 9.88 22.07 22.07s-9.88 22.07-22.07 22.07Z"/><rect class="cls-30" x="1520.61" y="968.83" width="601.53" height="44.13" rx="22.07" ry="22.07"/><rect class="cls-30" x="1520.61" y="1064.62" width="601.53" height="44.13" rx="22.07" ry="22.07"/><rect class="cls-30" x="1520.61" y="1160.42" width="601.53" height="44.13" rx="22.07" ry="22.07"/><path d="M3065.4 1534.03c-22.6-100.12-112.02-174.91-218.97-174.91v224.54l218.97-49.64Z" style="fill:#0ace68"/><path class="cls-30" d="M2846.43 1583.67v-224.54c-124.01 0-224.54 100.53-224.54 224.54s100.53 224.54 224.54 224.54 224.54-100.53 224.54-224.54c0-17.07-1.97-33.66-5.57-49.64l-218.97 49.64Z"/><circle class="cls-36" cx="2846.43" cy="1587.44" r="171.63" transform="rotate(-45 2846.43 1587.44)"/><circle class="cls-30" cx="2900.46" cy="600.72" r="24.7" transform="rotate(-76.72 2900.364 600.766)"/><circle class="cls-30" cx="3018.37" cy="600.72" r="24.7" transform="rotate(-45 3018.376 600.718)"/><circle class="cls-30" cx="3136.28" cy="600.72" r="24.7" transform="rotate(-76.72 3136.177 600.77)"/><path class="cls-13" d="M1018.81 2226.6s-38.91 77.47-108.13 106.25-166.27-7.48-220.69-50.24c-54.42-42.76-107.23-103.57-112.48-148.91s86.01-27.46 86.01-27.46-40.33-55.1-57.11-94.45 2.88-80.41 58.03-55.97l55.15 24.44s-42.29-85.65-41.53-139.13c.76-53.49 32.28-133.71 91.72-77.06 59.44 56.65 65.52 175.46 65.52 175.46s13.22-50.63 32.05-87.67c18.82-37.04 57.91-32.23 75.94 19.38 18.03 51.62 24.94 125.51 24.94 125.51s17.23-57.02 45.36-47.95c28.13 9.06 44.53 75.87 39.81 141.46-4.72 65.59-34.58 136.34-34.58 136.34Z"/><path class="cls-32" d="M1006.49 2087.91s-2.06-282.15-218.2-382.64c0 0-98.92 236.96 51.28 440.14 150.2 203.18 119.45 155.95 119.45 155.95l47.48-213.45Z"/><path style="stroke:#fff;fill:none;stroke-linecap:round;stroke-linejoin:round;stroke-width:2px" d="m841.65 1837.26 122.97 419.01"/><path class="cls-10" d="M3362.04 669.63h702.99v898.94h-702.99z"/><path class="cls-20" d="M3377.07 669.63h720.13v898.94h-720.13z"/><path class="cls-10" d="M3362.04 1568.57h702.99v64.05h-702.99z"/><path class="cls-20" d="M3430.65 1568.57h720.13v64.05h-720.13z"/><path transform="rotate(90 3737.125 1119.105)" style="fill:#f5fcff" d="M3335.92 804.07h802.43v630.07h-802.43z"/><path class="cls-30" d="m3499.45 1520.32 264.28-802.43h124.75l-264.28 802.43h-124.75z"/><path d="M3442.94 1248.07c-1.78 0-3.22-1.54-3.22-3.45V749.28c0-1.9 1.44-3.45 3.22-3.45s3.22 1.54 3.22 3.45v495.34c0 1.9-1.44 3.45-3.22 3.45Z" style="fill:#e2eeff"/><path class="cls-30" d="m3651 1520.32 264.28-802.43h48.64l-264.28 802.43H3651z"/><path class="cls-10" transform="rotate(90 4049.305 1119.105)" d="M3648.09 1116.25h802.43v5.72h-802.43z"/><path class="cls-10" d="M4107.84 779.63h-702.99l-4.14-42.98h702.99l4.14 42.98z"/><path class="cls-10" d="M4107.84 811.09h-702.99l-4.14-42.98h702.99l4.14 42.98z"/><path class="cls-10" d="M4107.84 848.84h-702.99l-4.14-42.98h702.99l4.14 42.98z"/><path class="cls-10" d="M4107.84 890.85h-702.99l-4.14-42.98h702.99l4.14 42.98zM4107.84 941.19h-702.99l-4.14-42.98h702.99l4.14 42.98zM4107.84 997.82h-702.99l-4.14-42.98h702.99l4.14 42.98z"/><rect class="cls-33" x="886.51" y="1604.14" width="842.4" height="156.33" rx="10.31" ry="10.31"/><ellipse class="cls-30" cx="970.89" cy="1682.3" rx="17.84" ry="20.91"/><ellipse class="cls-30" cx="1045.76" cy="1682.3" rx="17.84" ry="20.91"/><ellipse class="cls-12" cx="1120.62" cy="1682.3" rx="17.84" ry="20.91"/><rect class="cls-36" x="1510.03" y="1642.78" width="20.56" height="79.76" rx="1.85" ry="1.85"/><rect class="cls-36" x="1543.9" y="1642.78" width="20.56" height="79.76" rx="1.85" ry="1.85"/><rect class="cls-36" x="1577.77" y="1642.78" width="20.56" height="79.76" rx="1.85" ry="1.85"/><rect class="cls-36" x="1611.65" y="1642.78" width="20.56" height="79.76" rx="1.85" ry="1.85"/><path class="cls-18" d="M919.63 1760.47h774.81v28.18H919.63z"/><rect class="cls-33" x="886.51" y="1788.65" width="842.4" height="156.33" rx="10.31" ry="10.31"/><ellipse class="cls-30" cx="970.89" cy="1866.82" rx="17.84" ry="20.91"/><ellipse class="cls-12" cx="1045.76" cy="1866.82" rx="17.84" ry="20.91"/><ellipse class="cls-12" cx="1120.62" cy="1866.82" rx="17.84" ry="20.91"/><rect class="cls-36" x="1510.56" y="1826.76" width="20.56" height="79.76" rx="1.85" ry="1.85"/><rect class="cls-36" x="1544.43" y="1826.76" width="20.56" height="79.76" rx="1.85" ry="1.85"/><rect class="cls-36" x="1578.3" y="1826.76" width="20.56" height="79.76" rx="1.85" ry="1.85"/><rect class="cls-36" x="1611.65" y="1827.29" width="20.56" height="79.76" rx="1.85" ry="1.85"/><path class="cls-18" d="M919.63 1944.98h774.81v28.18H919.63z"/><rect class="cls-33" x="886.51" y="1973.16" width="842.4" height="156.33" rx="10.31" ry="10.31"/><ellipse class="cls-30" cx="970.89" cy="2051.33" rx="17.84" ry="20.91"/><ellipse class="cls-30" cx="1045.76" cy="2051.33" rx="17.84" ry="20.91"/><ellipse class="cls-12" cx="1120.62" cy="2051.33" rx="17.84" ry="20.91"/><rect class="cls-36" x="1510.56" y="2011.27" width="20.56" height="79.76" rx="1.85" ry="1.85"/><rect class="cls-36" x="1544.43" y="2011.27" width="20.56" height="79.76" rx="1.85" ry="1.85"/><rect class="cls-36" x="1578.3" y="2011.27" width="20.56" height="79.76" rx="1.85" ry="1.85"/><rect class="cls-36" x="1612.17" y="2011.27" width="20.56" height="79.76" rx="1.85" ry="1.85"/><path class="cls-18" d="M919.63 2129.49h774.81v28.18H919.63z"/><rect class="cls-33" x="886.51" y="2157.67" width="842.4" height="156.33" rx="10.31" ry="10.31"/><ellipse class="cls-30" cx="970.89" cy="2235.84" rx="17.84" ry="20.91"/><ellipse class="cls-30" cx="1045.76" cy="2235.84" rx="17.84" ry="20.91"/><ellipse class="cls-12" cx="1120.62" cy="2235.84" rx="17.84" ry="20.91"/><rect class="cls-36" x="1510.56" y="2195.78" width="20.56" height="79.76" rx="1.85" ry="1.85"/><rect class="cls-36" x="1544.43" y="2195.78" width="20.56" height="79.76" rx="1.85" ry="1.85"/><rect class="cls-36" x="1578.3" y="2195.78" width="20.56" height="79.76" rx="1.85" ry="1.85"/><rect class="cls-36" x="1612.17" y="2195.78" width="20.56" height="79.76" rx="1.85" ry="1.85"/><path class="cls-18" d="M919.63 2314h774.81v28.18H919.63z"/><path class="cls-36" d="M3623.02 1828.19h217.3v96.08h-217.3z"/><path style="fill:#ebf5ff" d="M3710.89 1924.27h217.3v96.08h-217.3z"/><circle class="cls-3" cx="988.73" cy="852.57" r="266.93"/><circle class="cls-36" cx="988.73" cy="852.57" r="244.64" transform="rotate(-45 988.733 852.563)"/><path class="cls-29" d="M988.73 860.22c-1.85 0-3.69-.67-5.15-1.99L850.83 737.5c-3.13-2.84-3.36-7.69-.51-10.81 2.85-3.13 7.69-3.36 10.81-.51l127.7 116.14 98.23-85.85c3.18-2.78 8.02-2.46 10.8.73 2.78 3.18 2.46 8.02-.73 10.8l-103.37 90.34a7.637 7.637 0 0 1-5.04 1.89ZM980.39 1039.76h16.03v42.08h-16.03zM980.39 623.29h16.03v42.08h-16.03z"/><path class="cls-29" transform="rotate(90 780.165 852.565)" d="M772.15 831.53h16.03v42.08h-16.03z"/><path class="cls-29" transform="rotate(90 1196.635 852.565)" d="M1188.62 831.53h16.03v42.08h-16.03z"/><path style="fill:none;stroke-linecap:round;stroke-linejoin:round;stroke-width:2px;stroke:#de4d30" d="m988.73 857.41 64.8 194.88"/><circle class="cls-3" cx="988.73" cy="852.57" r="28.22" transform="rotate(-45 988.733 852.563)"/><circle class="cls-7" cx="988.73" cy="852.57" r="16.62" transform="rotate(-80.78 988.78 852.567)"/><path class="cls-31" d="M1159.85 1382.14c-16.45-5.34-25.46-23-20.11-39.45l65.38-201.38c5.34-16.45 23-25.46 39.45-20.11 16.45 5.34 25.46 23 20.11 39.45l-65.38 201.38c-5.34 16.45-23 25.46-39.45 20.11Z"/><path class="cls-31" d="M1155.69 1324.66s-168.83 46.76-183 41.64c-14.17-5.12-59.47-19.28-86.3 7.3-26.83 26.59-19.1 44.61 22.76 35.24 41.85-9.37 40.18 5.46 69.75-11.06 0 0 106.13 7.58 199.89-15.47l-23.1-57.65ZM1199.86 1014.47l34.71 11.06s-.93 9.86 2.16 22.34c-8.96 2.61-22.53 10.35-31.77 32.87-2.22-10-7.23-24.21-18.59-36.2l13.49-30.07Z"/><path class="cls-28" d="M1124.39 928.77s-57.96-9.03-62.22-72.76c0 0 27.1 7.78 56.96 3.26 29.86-4.52 115.25-66.07 168.11 34.63 52.86 100.7-62.22 145.19-62.22 145.19l-33.45-23.75-67.16-86.56Z"/><g style="clip-path:url(#clippath)"><path d="M1106.43 928.4s-12.55-32.62 23.33-29.61c35.88 3.01 60.72 33.62 72.51 56.7 11.79 23.08 47.42 59.21 77.28 50.93l-30.11 36.38-92.58 4.79-40.33-87.11-10.1-32.1Z" style="fill:#07183a"/></g><path d="m887.76 1444.64-17.03-4.19s-10.7 23.55-9.03 61.86 21.08 69.25 21.08 69.25 24.25-31.61 24.76-52.36c.5-20.74-19.78-74.56-19.78-74.56Z" style="fill:#062f51"/><path class="cls-31" d="M636.1 1713.61c8.23-4.45 15.61-13.14 24.55-21.62 48.68-46.17 109.06-205.58 138.17-226.15 29.11-20.57 89.82-16.06 89.82-16.06l25.09 52.19s-64.85 60.25-115.92 125.45c-53.53 68.34-110.9 126.6-110.9 126.6-13.3-1.62-37.6-6.72-50.81-40.41Z"/><path class="cls-42" d="M515.29 1730.79c8.53-17.06 22.58-18.57 44.16-14.55 17.17 3.19 44.63 14.7 76.65-2.63 13.21 33.7 37.51 38.79 50.81 40.41l-33.63 59.07c-5.99 11.86-21.09 18.06-32.72 11.64-26.43-14.59-62.33-32.58-84.71-42.75-33.12-15.05-29.11-34.12-20.57-51.18Z"/><path d="m1154.77 1463.23-34.79-27.77-249.24 4.99s46.17 30.74 12.05 131.11c0 0 91.77 26.16 157.29 28.84 65.52 2.68 196.68-3.04 223.42-41.48l-108.73-95.68Z" style="fill:#06437f"/><path class="cls-42" d="m928.03 1460.95-9.12-3.1s-11.95 18.78-11.7 51.4 8.61 68.58 23.75 79.7l32.45-56.87-17.81-57.46-17.56-13.67Z"/><path class="cls-39" d="M726.83 1804.93c.69-.42 1.37-.81 2.06-1.25 25.43-16.06 45.5-194.03 56.2-246.22 10.71-52.19 44.16-79.62 86.98-85.64 42.82-6.02 82.3-4.68 82.3-4.68v116.42s-80.96-16.06-83.64 4.01c-7.36 48.84-92.18 239.53-92.18 239.53l-2.45 7.79c-13.72-1.31-33.05-7.59-49.28-29.96Z"/><path class="cls-42" d="M604.45 1841.82c10.71-27.43 27.43-28.77 51.52-23.42 23.43 5.21 46.24 1.52 70.87-13.47 16.23 22.37 35.55 28.65 49.28 29.96l-21.24 67.48c-3.14 9.99-14.06 15.24-23.83 11.46-20.4-7.9-53.02-19.87-69.72-22.5-25.43-4.01-67.58-22.08-56.87-49.51Z"/><path class="cls-29" d="m1160.79 1480.56-34.79-27.77-207.09 5.05s46.17 30.74 12.05 131.11c0 0 93.05 19.4 158.57 22.08 65.52 2.68 153.24 3.65 179.98-34.79l-108.73-95.68Z"/><path class="cls-7" d="m1246.83 1082.83 5.66-5.57s22.95-6.48 45.28 37.18c22.33 43.66 72.76 170.87 46.67 291.3-26.09 120.44-74.91 170.49-74.91 170.49s-149.54 0-149.54-141.39c0 0 81.23-31.11 75.06-135.49-6.17-104.38-13.64-111.16 11.67-205.96l40.11-10.58Z"/><g style="clip-path:url(#clippath-1)"><path d="m1156.11 1262.1 52.21-7.55 64.57-86.41s28.26 146.48-20.34 245.51c-48.6 99.02-132.57 109.75-132.57 109.75l-25.77-117.03 61.89-144.27Z" style="fill:#fe8e00"/></g><path class="cls-39" d="M1167.09 1397.68c-16.45-5.34-25.46-23-20.11-39.45l65.38-201.38c5.34-16.45 23-25.46 39.45-20.11 16.45 5.34 25.46 23 20.11 39.45l-65.38 201.38c-5.34 16.45-23 25.46-39.45 20.11Z"/><path class="cls-39" d="M1170.6 1338.19s-168.82 46.76-183 41.64c-14.17-5.12-59.47-19.28-86.3 7.3-26.83 26.59-19.1 44.61 22.76 35.24 41.85-9.37 40.18 5.46 69.75-11.06 0 0 98.17 9.63 191.94-13.42l-15.15-59.7Z"/><rect class="cls-28" x="869.05" y="1429.07" width="237.39" height="25.43" rx="7.72" ry="7.72" transform="rotate(180 987.745 1441.785)"/><path class="cls-28" d="m872.42 1423.29-98.35-200.96c-1.66-3.39-5.75-4.79-9.13-3.13l-2.75 1.35c-3.39 1.66-4.79 5.75-3.13 9.13l98.35 200.96c1.66 3.39 5.75 4.79 9.13 3.13l2.75-1.35c3.39-1.66 4.79-5.75 3.13-9.13Z"/><path class="cls-39" d="M1236.73 1047.87c2.31 9.33 6.86 20.13 15.75 29.4 0 0 1.99 17.91-16.8 21.89-18.79 3.98-28.97-5.75-28.97-5.75s-.09-5.14-1.75-12.67c9.24-22.52 22.81-30.25 31.77-32.87ZM1118.37 924.51s-14.05 155.06 32.62 153.05c46.67-2.01 53.44-53.19 53.44-53.19s16.56-4.77 13.05-28.1c-3.51-23.33-20.07-15.56-21.83-12.8 0 0-30.86-74.52-77.28-58.96Z"/><path class="cls-31" d="M1216.33 1023.91s4.35-21.91-14.89-19.91c-19.24 2.01-20.91-18.57-36.13-37.13-15.22-18.57-26.93-37.47-51.52-27.6l-.5-23.25 57.37 4.52 50.01 59.05.5 36.3-4.85 8.03Z" style="clip-path:url(#clippath-2)"/><path class="cls-8" d="M2458.2 2415.86s-7.64 20.37-18.82 30.79c-62.56-25.73-119.84-66.09-141.25-81.98 1.23-4.84 3.73-10.11 7.21-15.84 6.5-10.71 24.67-41.85 37.11-63.24 5.16 10.56 18.81 28.16 54.35 38.86-11.55 26.85 25.03 53.78 45.3 66.99 20.79 13.55 16.11 24.41 16.11 24.41Z"/><path class="cls-31" d="M2413.16 2293.48s-1 1.4-15.4 28.91c-.35.68-.69 1.37-.97 2.06-35.54-10.7-49.18-28.3-54.35-38.86 7.19-12.38 12.48-21.47 12.48-21.47l58.24 29.36Z"/><path class="cls-28" d="M2439.38 2446.64c-2.73 2.54-5.69 4.49-8.79 5.4-15.77 4.63-109.24-53.37-123.21-63.41-9.24-6.62-11.65-14.5-9.26-23.97 21.41 15.9 78.7 56.25 141.25 81.98Z"/><path class="cls-8" d="M2750.84 2411.1s2.16 21.65-3.27 35.94c-67.49 4.58-136.71-6.28-162.95-11.06-1.03-4.88-1.12-10.72-.53-17.39 1.09-12.48 3.62-48.45 5.32-73.13 9.3 7.19 29.32 16.94 65.93 10.82 1.52 29.19 46.23 37.17 70.26 40.05 24.64 2.96 25.24 14.77 25.24 14.77Z"/><path class="cls-39" d="M2656.32 2321.26s-.28 1.69-1.03 32.74c-.01.77 0 1.53.04 2.27-36.61 6.12-56.63-3.63-65.93-10.82l1.7-24.77 65.22.58Z"/><path class="cls-28" d="M2747.57 2447.04c-1.33 3.49-3.12 6.54-5.5 8.73-12.09 11.13-121.58.44-138.55-2.39-11.22-1.85-16.87-7.85-18.9-17.41 26.24 4.79 95.46 15.65 162.95 11.06Z"/><path class="cls-7" d="m2858.1 1184.03-142.43-54.34-71.25 260.25 129.7 60 83.98-265.91z"/><path class="cls-39" d="M2602.68 976.71s2.47 86.44-11.11 109.91c-13.58 23.46-33.96 15.44-42.6-10.5v-84.59l53.72-14.82Z"/><path class="cls-31" d="M2606.49 985.11s-31.21 22.7-42.43 40.56c-8.38 13.34-4.62 69.57-4.62 69.57l-20.69-9.69s-.66-38.88 0-58.83c.66-19.95 14.44-47.52 14.44-47.52s19.04-20.73 28.88-23.82c9.85-3.09 17.06 0 17.06 0l7.36 29.72Z" style="clip-path:url(#clippath-3)"/><path class="cls-31" d="M2559.69 1086s-7.74 41.63 3.47 72.05c0 0-9.07 16.54-28.02 17.61s-28.55-13.88-28.55-13.88 5.07-19.75 0-52.04l53.1-23.75ZM2421.22 1349.04s-34.99 37.05-20.17 60.51 30.46 52.69 30.46 52.69l-2.88 64.63s-79.86-86.44-85.21-115.26c-5.35-28.81 13.17-64.63 30.87-91.79l46.93 29.23Z"/><path class="cls-12" d="M2550.81 1786.19v182.77s-30.87 135.84-75.33 233.4-53.1 104.97-53.1 104.97-58.04 4.94-87.68-37.05c0 0 91.38-232.16 92.62-318.6 1.23-86.44-19.76-219.81 0-288.97 2.06-12.76 8.64-23.87 8.64-23.87l88.91 9.06 25.93 138.31Z"/><g style="clip-path:url(#clippath-4)"><path d="M2409.05 1669.78s54.08 139.59 60.26 228.03c6.17 88.43 13.69 229.69-14.76 362.2l117.33-269.47v-232.69l-46.99-109.96-102.5-19.31-13.33 41.21Z" style="fill:#0041f9"/></g><path class="cls-12" d="m2638.08 1647.88 16.47 5.75s17.29 149.85 23.46 259.76c6.17 109.91-8.64 404.44-8.64 404.44s-51.87 34.58-97.56 0c0 0 6.17-183.39-8.64-264.07-14.82-80.68-102.91-364.74-98.79-400.12l173.71-5.75Z"/><g style="clip-path:url(#clippath-5)"><path d="M2561.93 1657.4s-11.11 47.79 14.82 153.74c25.93 105.95 38.28 184.65 39.52 271.63 1.23 86.98-14.82 277.78-14.82 277.78l-39.52-6.45-130.44-671.01 53.88-97.38 76.56 71.69Z" style="fill:#0054fc"/></g><path class="cls-8" d="M2563.16 1158.05s73.97 28.34 81.38 66.62c7.41 38.28 10.01 428.96 10.01 428.96s-51.87 40.36-135.84 31.3c-83.97-9.06-88.91-40.34-88.91-40.34s-.82-262.62 4.12-283.2c0 0-42.81 0-65.04-39.11 0 0 46.82-111.35 63.8-142.01 21.2-38.28 73.92-27.83 73.92-27.83s17.36 32.36 56.57 5.62Z"/><g style="clip-path:url(#clippath-6)"><path class="cls-16" d="M2602.94 1222.37s-21.12-11.94-25.65 8.23c-4.53 20.17-32.24 172.9 18.29 235.87 50.52 62.96 65.27 42.4 78.24 7 12.97-35.4-36.18-230.93-70.88-251.1ZM2517.88 1151.13s-23.87-4.48-27.17 65.01c-3.29 69.5 4.12 487.14 11.53 498.13 7.41 10.99-89.07-40.87-89.07-40.87s-147.21-380.35-139.8-391.05 228.87-155.6 228.87-155.6l15.64 24.38Z"/></g><path class="cls-39" d="M2673.05 1356.48s6.58 54.91 18.75 71.36c12.18 16.45 111.3-61.13 111.3-61.13s-1.95-66.25 39.46-92.55c41.4-26.3 11.2 77.45-5.85 105.21 0 0-62.84 87.19-122.75 113.01-59.91 25.82-67.08-2.92-76.89-18.02-9.81-15.1-26.86-103.27-26.86-103.27l62.84-14.61Z"/><path class="cls-31" d="M2679.51 1380.7s-45.14 3.84-39.23 32.12c5.91 28.29 2.62 68.53 48.25 68.64 45.63.11 77.62-24.21 77.62-24.21l-41.19 51.37h-62.04l-41.71-18.92s-27.22-66.83-27.22-71 8.85-55.38 8.85-55.38l67.56-15.06 10.68 22.94-1.58 9.5Z" style="clip-path:url(#clippath-7)"/><path class="cls-8" d="M2676.19 1353.51s-12.49-104.07-28.39-136.71c-15.9-32.64-54.01-30-65.55 0s-9.68 160.62-9.68 160.62 63.46 31.48 103.62-23.91Z"/><path class="cls-28" d="M2600.52 980.77s14.8-13.33 18.04-38.33c3.24-25 8.27-69.46-28.2-75.34-36.47-5.88-39.31 11.32-55.49 13.68-16.18 2.35-97.84-1.18-122.16 71.37-16.84 50.26 19.68 99.7 49.09 129.7 29.41 30 31.76 30.88 31.76 30.88s20.97 6.96 47.06-3.24l14.01-21.22s4.96-6.28-.48-22.01c-5.44-15.73-6.57-30.39.29-39.41 6.86-9.02 14.61-25.1 15-38.04 0 0 13.72 5.49 31.08-8.04Z"/><rect x="2946.83" y="895.18" width="950.53" height="662.31" rx="57.75" ry="57.75" style="fill:#88c9ff"/><path class="cls-38" d="M3897.36 951.94c0-31.35-25.41-56.76-56.76-56.76h-822.89c-31.35 0-56.76 25.41-56.76 56.76v34.15h936.41v-34.15Z"/><path d="M2960.95 986.09v501.74c0 31.35 25.41 56.76 56.76 56.76h822.89c31.35 0 56.76-25.41 56.76-56.76V986.09h-936.41Z" style="fill:url(#linear-gradient-2)"/><circle class="cls-30" cx="3618.37" cy="940.63" r="19.05" transform="rotate(-22.5 3618.367 940.626)"/><circle class="cls-30" cx="3708.96" cy="940.63" r="19.05" transform="rotate(-76.72 3708.832 940.691)"/><circle class="cls-30" cx="3799.55" cy="940.63" r="19.05" transform="rotate(-45 3799.545 940.637)"/><path class="cls-12" d="M3326.35 1056.04h-177.89c-3.62 0-6.55-3.45-6.55-7.71s2.93-7.71 6.55-7.71h177.89c3.62 0 6.55 3.45 6.55 7.71s-2.93 7.71-6.55 7.71Z"/><path class="cls-32" d="M3297.02 1125.08h-177.89c-3.62 0-6.55-3.45-6.55-7.71s2.93-7.71 6.55-7.71h177.89c3.62 0 6.55 3.45 6.55 7.71s-2.93 7.71-6.55 7.71Z"/><path class="cls-12" d="M3674.25 1125.08h-305.48c-3.62 0-6.55-3.45-6.55-7.71s2.93-7.71 6.55-7.71h305.48c3.62 0 6.55 3.45 6.55 7.71s-2.93 7.71-6.55 7.71ZM3480.16 1056.04h-89.9c-3.62 0-6.55-3.45-6.55-7.71s2.93-7.71 6.55-7.71h89.9c3.62 0 6.55 3.45 6.55 7.71s-2.93 7.71-6.55 7.71ZM3637.98 1056.04h-89.9c-3.62 0-6.55-3.45-6.55-7.71s2.93-7.71 6.55-7.71h89.9c3.62 0 6.55 3.45 6.55 7.71s-2.93 7.71-6.55 7.71ZM3238.15 1194.12h-116.86c-3.62 0-6.55-3.45-6.55-7.71s2.93-7.71 6.55-7.71h116.86c3.62 0 6.55 3.45 6.55 7.71s-2.93 7.71-6.55 7.71Z"/><path class="cls-32" d="M3480.5 1194.12h-177.89c-3.62 0-6.55-3.45-6.55-7.71s2.93-7.71 6.55-7.71h177.89c3.62 0 6.55 3.45 6.55 7.71s-2.93 7.71-6.55 7.71Z"/><path class="cls-12" d="M3610.22 1194.12h-66.44c-3.62 0-6.55-3.45-6.55-7.71s2.93-7.71 6.55-7.71h66.44c3.62 0 6.55 3.45 6.55 7.71s-2.93 7.71-6.55 7.71ZM3348.18 1263.17h-104.23c-3.62 0-6.55-3.45-6.55-7.71s2.93-7.71 6.55-7.71h104.23c3.62 0 6.55 3.45 6.55 7.71s-2.93 7.71-6.55 7.71ZM3597.48 1263.17h-177.89c-3.62 0-6.55-3.45-6.55-7.71s2.93-7.71 6.55-7.71h177.89c3.62 0 6.55 3.45 6.55 7.71s-2.93 7.71-6.55 7.71ZM3540.46 1332.21h-333.34c-3.62 0-6.55-3.45-6.55-7.71s2.93-7.71 6.55-7.71h333.34c3.62 0 6.55 3.45 6.55 7.71s-2.93 7.71-6.55 7.71ZM3789.76 1332.21h-201.35c-3.62 0-6.55-3.45-6.55-7.71s2.93-7.71 6.55-7.71h201.35c3.62 0 6.55 3.45 6.55 7.71s-2.93 7.71-6.55 7.71ZM3297.02 1401.26h-177.89c-3.62 0-6.55-3.45-6.55-7.71s2.93-7.71 6.55-7.71h177.89c3.62 0 6.55 3.45 6.55 7.71s-2.93 7.71-6.55 7.71Z"/><path class="cls-32" d="M3512.29 1401.26H3334.4c-3.62 0-6.55-3.45-6.55-7.71s2.93-7.71 6.55-7.71h177.89c3.62 0 6.55 3.45 6.55 7.71s-2.93 7.71-6.55 7.71Z"/><path class="cls-12" d="M3529.42 1470.3h-270.19c-3.62 0-6.55-3.45-6.55-7.71s2.93-7.71 6.55-7.71h270.19c3.62 0 6.55 3.45 6.55 7.71s-2.93 7.71-6.55 7.71ZM3025.63 1040.63h13.09v15.41h-13.09zM3025.63 1109.67h13.09v15.41h-13.09zM3025.63 1178.71h13.09v15.41h-13.09zM3025.63 1247.76h13.09v15.41h-13.09zM3025.63 1316.8h13.09v15.41h-13.09zM3025.63 1385.85h13.09v15.41h-13.09zM3025.63 1454.89h13.09v15.41h-13.09zM3720.98 1501.73l-47.71-23.85c-1.48-.74-2.44-2.44-2.44-4.33v-5.13c0-1.89.96-3.6 2.44-4.33l47.71-23.85c2.64-1.32 5.56.96 5.56 4.33v1.83c0 1.91-.98 3.63-2.48 4.35l-32.76 15.88c-3.3 1.6-3.3 7.11 0 8.71l32.76 15.88c1.5.73 2.48 2.45 2.48 4.35v1.83c0 3.37-2.93 5.65-5.56 4.33ZM3764.24 1426.76l-22.04 89.69c-.49 2.01-2.06 3.4-3.84 3.4-2.66 0-4.58-3.01-3.84-6.02l22.04-89.69c.49-2.01 2.06-3.4 3.84-3.4 2.66 0 4.58 3.01 3.84 6.02ZM3825.49 1477.87l-47.71 23.85c-2.64 1.32-5.56-.96-5.56-4.33v-1.83c0-1.91.98-3.63 2.48-4.35l32.76-15.88c3.3-1.6 3.3-7.11 0-8.71l-32.76-15.88c-1.5-.73-2.48-2.45-2.48-4.35v-1.83c0-3.37 2.93-5.65 5.56-4.33l47.71 23.85c1.48.74 2.44 2.44 2.44 4.33v5.13c0 1.89-.96 3.6-2.44 4.33Z"/></svg>