<svg xmlns="http://www.w3.org/2000/svg" xmlns:xlink="http://www.w3.org/1999/xlink" viewBox="0 0 4680 3120"><defs><clipPath id="clippath-2"><path class="cls-9" d="m2029.1 1332.48-6.06-.47s-62.43 1.86-82 26.09-33.08 137.91-33.08 137.91l38.67 291.19s23.3 41 141.63 41 164.93-48.45 164.93-48.45l-10.96-136.35s19.81-30.91 23.07-63.98-29.35-209.66-64.76-235.28c-35.41-25.62-113.68-14.51-113.68-14.51l-57.77 2.86Z"/></clipPath><clipPath id="clippath-7"><path class="cls-38" d="M1953.15 1141.77s-16.15 135.42 33.55 143.19c49.7 7.76 82.62-49.08 82.62-49.08s24.85-3.11 22.36-29.51c-2.48-26.4-22.05-16.46-22.05-16.46s-22.05-9.63-21.74-32.92c0 0-26.71 6.21-38.83-18.33 0 0-20.19 13.98-40.69-7.45 0 0-5.28 12.73-15.22 10.56Z"/></clipPath><clipPath id="clippath-6"><path class="cls-10" d="M1955.64 1156.99s-59.3-2.1-26.06-121.68c0 0 30.41 22.91 84.46 26.02 54.04 3.11 114.3 1.86 121.76 98.15 3.11 62.12-55.29 115.54-55.29 115.54l-52.82-33.55-72.04-84.48Z"/></clipPath><clipPath id="clippath-5"><path class="cls-38" d="M2021.25 1269.59s10.17 21.43 1.79 62.43c0 0 6.52 20.03 29.35 19.57 22.83-.47 34.48-21.96 34.48-21.96s-10.87-17.48-6.37-54.6l.31-13.82-28.89-19.57-30.67 27.95Z"/></clipPath><clipPath id="clippath"><path class="cls-3" d="M2093.83 2008.4v133.65h44.05v-120.29c-15.43-11.71-31.71-13.98-44.05-13.37Z"/></clipPath><clipPath id="clippath-1"><path class="cls-12" d="M2196.05 1351.59s50.32-17.85 125.17 0c74.86 17.85 119.58 92.4 122.07 152.65s-24.54 430.65-123.62 524.3c-99.08 93.65-349.11 47.52-400.21 27.95s-88.84-96.44-88.84-96.44l256.13-182.17 13.63-390.89 95.67-35.4Z"/></clipPath><clipPath id="clippath-4"><path class="cls-10" d="M2105.04 1816.09s-112.47 95.98-121.93 166.79c-9.46 70.82 0 382.97 0 382.97s72.54 48.45 121.93 0c0 0-20.5-285.13 23.3-333.59 43.8-48.45 121.13-92.25 130.45-164 9.32-71.75-5.59-88.52-5.59-88.52l-74.71-12.11-73.44 48.45Z"/></clipPath><clipPath id="clippath-3"><path class="cls-10" d="m1953.78 1781.92-7.14 5.28s-212.76 68.64-232.64 133.25c-19.88 64.61 11.8 435.15 11.8 435.15s57.77 45.66 109.02-4.66l4.19-346.17 215.05-79.67 62.16 1.86s74.54-53.11 79.2-56.84 63.36-45.66 63.36-45.66l-36.34-59.64-268.67 17.08Z"/></clipPath><linearGradient id="linear-gradient" x1="1267.69" y1="247.33" x2="1281.44" y2="1669.87" gradientUnits="userSpaceOnUse"><stop offset="0" stop-color="#b0d8ff"/><stop offset=".02" stop-color="#b2d9ff"/><stop offset=".15" stop-color="#c4e1ff"/><stop offset=".3" stop-color="#d0e6ff"/><stop offset=".51" stop-color="#d7eaff"/><stop offset="1" stop-color="#daebff"/></linearGradient><linearGradient id="linear-gradient-3" x1="2456.43" y1="418.75" x2="2456.43" y2="1555.2" xlink:href="#linear-gradient"/><linearGradient id="linear-gradient-2" x1="1140.53" y1="1820.28" x2="1140.53" y2="2120.88" gradientTransform="rotate(-2.27 2532.435 1610.44)" gradientUnits="userSpaceOnUse"><stop offset=".37" stop-color="#86cf94"/><stop offset=".99" stop-color="#008166"/></linearGradient><style>.cls-1{fill:#fe8e00}.cls-2{fill:#191e56}.cls-3{fill:#b0d8ff}.cls-4,.cls-5{fill:#d1e3ff}.cls-4{stroke:#b6d4ff;stroke-miterlimit:10}.cls-9{fill:#ffab00}.cls-10{fill:#1e2889}.cls-12{fill:#006dfe}.cls-13{fill:#0542bf}.cls-14{fill:#f5fcff}.cls-15{fill:#d5e1f7}.cls-17{fill:#e3eeff}.cls-26{fill:#78c2ff}.cls-27{fill:#9bb4c9}.cls-29{fill:transparent}.cls-30{fill:#ea756c}.cls-31{fill:#00d967}.cls-32{fill:#859ad0}.cls-35{fill:#daebff}.cls-36{fill:#1a1a7c}.cls-37{fill:#e2eefa}.cls-38{fill:#ffaca6}.cls-39{fill:#4143c5}.cls-42{fill:#ebf5ff}</style></defs><g style="isolation:isolate"><g id="Layer_1"><path class="cls-29" d="M0 0h4680v3120H0z"/><path class="cls-3" d="M3204.25 762.35h164.4v210.48h-164.4z"/><path class="cls-29" d="M3214.2 772.04h144.51v191.11H3214.2z"/><path class="cls-3" d="M3379.73 580.15h276.45v342.42h-276.45z"/><path class="cls-29" d="M3395.74 595.59h244.43v311.53h-244.43z"/><path class="cls-3" d="M798.27 436.64h972.82c31.99 0 57.96 25.97 57.96 57.96v1015.7c0 31.99-25.97 57.96-57.96 57.96H798.27c-31.99 0-57.96-25.97-57.96-57.96V494.59c0-31.99 25.97-57.96 57.96-57.96Z"/><rect x="740.31" y="455.97" width="1069.54" height="1112.27" rx="54.43" ry="54.43" style="fill:url(#linear-gradient)"/><rect class="cls-15" x="786.66" y="503.41" width="983.8" height="208.31" rx="18.77" ry="18.77"/><rect class="cls-29" x="781.21" y="497.97" width="983.8" height="208.31" rx="18.77" ry="18.77"/><rect class="cls-15" x="787.14" y="1324.74" width="983.8" height="208.31" rx="18.77" ry="18.77"/><rect class="cls-29" x="781.21" y="1317.22" width="983.8" height="208.31" rx="18.77" ry="18.77"/><path class="cls-15" d="M1110.24 1375.13h-280.6c-7.98 0-14.45-6.47-14.45-14.45 0-7.98 6.47-14.45 14.45-14.45h280.6c7.98 0 14.45 6.47 14.45 14.45 0 7.98-6.47 14.45-14.45 14.45ZM1728.45 1443.35H829.64c-7.98 0-14.45-6.47-14.45-14.45 0-7.98 6.47-14.45 14.45-14.45h898.81c7.98 0 14.45 6.47 14.45 14.45 0 7.98-6.47 14.45-14.45 14.45Z"/><rect class="cls-42" x="815.19" y="1467.62" width="927.71" height="28.9" rx="14.45" ry="14.45"/><rect class="cls-15" x="618.06" y="915.12" width="545.5" height="208.31" rx="13.97" ry="13.97" transform="rotate(90 890.815 1019.275)"/><rect class="cls-29" x="613.85" y="907.92" width="545.5" height="208.31" rx="13.97" ry="13.97" transform="rotate(90 886.6 1012.08)"/><rect class="cls-15" x="1134.1" y="652.98" width="545.5" height="732.59" rx="26.21" ry="26.21" transform="rotate(90 1406.845 1019.275)"/><rect class="cls-29" x="1125.97" y="645.78" width="545.5" height="732.59" rx="26.21" ry="26.21" transform="rotate(90 1398.715 1012.075)"/><rect class="cls-31" x="1060.83" y="762.04" width="223.8" height="28.9" rx="13.56" ry="13.56"/><path class="cls-15" d="M1074.79 830.26h642.9c7.7 0 13.96 6.25 13.96 13.96v.98c0 7.7-6.25 13.96-13.96 13.96h-642.9c-7.7 0-13.96-6.25-13.96-13.96v-.98c0-7.7 6.25-13.96 13.96-13.96Z"/><path class="cls-42" d="M1074.79 883.44h642.9c7.7 0 13.96 6.25 13.96 13.96v.98c0 7.7-6.25 13.96-13.96 13.96h-642.9c-7.7 0-13.96-6.25-13.96-13.96v-.98c0-7.7 6.25-13.96 13.96-13.96Z"/><rect class="cls-31" x="1060.83" y="936.6" width="223.8" height="28.9" rx="13.56" ry="13.56"/><path class="cls-15" d="M1074.79 1004.82h642.9c7.7 0 13.96 6.25 13.96 13.96v.98c0 7.7-6.25 13.96-13.96 13.96h-642.9c-7.7 0-13.96-6.25-13.96-13.96v-.98c0-7.7 6.25-13.96 13.96-13.96Z"/><path class="cls-42" d="M1074.79 1058h642.9c7.7 0 13.96 6.25 13.96 13.96v.98c0 7.7-6.25 13.96-13.96 13.96h-642.9c-7.7 0-13.96-6.25-13.96-13.96v-.98c0-7.7 6.25-13.96 13.96-13.96Z"/><rect class="cls-31" x="1060.83" y="1111.17" width="223.8" height="28.9" rx="13.56" ry="13.56"/><path class="cls-15" d="M1074.79 1179.39h642.9c7.7 0 13.96 6.25 13.96 13.96v.98c0 7.7-6.25 13.96-13.96 13.96h-642.9c-7.7 0-13.96-6.25-13.96-13.96v-.98c0-7.7 6.25-13.96 13.96-13.96Z"/><path class="cls-42" d="M1074.79 1232.57h642.9c7.7 0 13.96 6.25 13.96 13.96v.98c0 7.7-6.25 13.96-13.96 13.96h-642.9c-7.7 0-13.96-6.25-13.96-13.96v-.98c0-7.7 6.25-13.96 13.96-13.96Z"/><rect class="cls-35" x="795.96" y="762.04" width="179.46" height="166.22" rx="19.91" ry="19.91"/><rect class="cls-35" x="795.96" y="958.69" width="179.46" height="166.22" rx="19.91" ry="19.91"/><rect class="cls-35" x="1042.79" y="624.64" width="215.62" height="61.37" rx="19.76" ry="19.76"/><rect class="cls-35" x="802.69" y="624.64" width="215.62" height="61.37" rx="19.76" ry="19.76"/><rect class="cls-35" x="1285.03" y="624.64" width="215.62" height="61.37" rx="19.76" ry="19.76"/><rect class="cls-35" x="1527.28" y="624.64" width="215.62" height="61.37" rx="19.76" ry="19.76"/><rect class="cls-35" x="796.57" y="518.34" width="946.33" height="85.47" rx="21.83" ry="21.83"/><ellipse class="cls-37" cx="1846.65" cy="2464.01" rx="290" ry="78.02"/><ellipse class="cls-37" cx="1131.16" cy="2342.42" rx="139.04" ry="43.58"/><ellipse class="cls-37" cx="2113.36" cy="2371.87" rx="238.61" ry="58.71"/><ellipse class="cls-37" cx="3460.27" cy="2273.6" rx="375.98" ry="40.93"/><ellipse class="cls-37" cx="2721.97" cy="2480.2" rx="108.55" ry="33.78"/><path style="fill:#d3e2f9" d="M701.31 2145.85H3669.1v19.77H701.31z"/><rect class="cls-5" x="3100.37" y="1072" width="730.3" height="1202.89" rx="37.25" ry="37.25"/><path class="cls-17" d="M3167.08 1954.23h298.44v251.62h-298.44zM3465.52 1954.23h296.1v251.62h-296.1z"/><path class="cls-14" d="M3167.08 1136.29h594.54v217.53h-594.54zM3167.08 1408.94h594.54v217.53h-594.54zM3167.08 1681.58h594.54v217.53h-594.54z"/><ellipse class="cls-5" cx="3400.76" cy="2029.12" rx="21.07" ry="20.05"/><ellipse class="cls-5" cx="3534.04" cy="2029.12" rx="21.07" ry="20.05"/><path class="cls-4" d="M3182.29 1184.81h49.74v165.95h-49.74zM3232.03 1184.81h49.74v165.95h-49.74zM3281.77 1184.81h49.74v165.95h-49.74zM3331.51 1184.81h49.74v165.95h-49.74zM3381.25 1184.81h49.74v165.95h-49.74zM3476.18 1459.63h49.74v165.95h-49.74zM3525.92 1459.63h49.74v165.95h-49.74z"/><path class="cls-4" transform="rotate(90 3314.545 1554.575)" d="M3290.88 1467.38h47.33v174.38h-47.33z"/><path class="cls-4" transform="rotate(90 3331.515 1507.235)" d="M3307.85 1420.05h47.33v174.38h-47.33z"/><path class="cls-4" transform="rotate(90 3334.145 1601.905)" d="M3310.48 1514.72h47.33v174.38h-47.33z"/><path class="cls-4" d="M3575.66 1459.63h49.74v165.95h-49.74zM3625.4 1459.63h49.74v165.95h-49.74zM3675.14 1459.63h49.74v165.95h-49.74zM3217.7 1733.16h49.74v165.95h-49.74zM3267.44 1733.16h49.74v165.95h-49.74zM3317.18 1733.16h49.74v165.95h-49.74zM3366.92 1733.16h49.74v165.95h-49.74zM3416.66 1733.16h49.74v165.95h-49.74zM3539.26 1337.41l-46.66 16.41-60.44-155.66 46.65-16.41 60.45 155.66zM3592.81 1337.41l-46.66 16.41-60.44-155.66 46.65-16.41 60.45 155.66z"/><path class="cls-4" d="m3691.26 1322.23-39.69 28.53-105.1-132.43 39.69-28.52 105.1 132.42z"/><ellipse class="cls-4" cx="3619.58" cy="1781.25" rx="74.6" ry="70.99"/><path d="M3619.58 1866.64c-49.56 0-89.73-38.23-89.73-85.39s40.17-85.39 89.73-85.39" style="fill:none;stroke-width:2.32px;stroke:#b6d4ff;stroke-miterlimit:10"/><path class="cls-4" d="M3562.89 1884.88h107.93v14.22h-107.93z"/><path class="cls-4" d="M3612.55 1847.34h7.03v40.57h-7.03z"/><path class="cls-31" d="M1207.65 2162.89s107.76-5.84 107.88-27.74c.1-17.03-65.82-2.62-65.82-2.62s72.1-20.92 105.43-38.04c7.31-3.75 14.77-7.81 19.89-14.24 5.12-6.43 7.35-15.87 3.2-22.97-5.61-9.61-19.07-10.39-30.12-9.05-44.38 5.36-75.58 29.09-115.54 49.15 29.25-14.69 55.26-33.48 79.64-55.26 22.41-20.02 48.49-38.81 63.43-65.58 9.36-16.78 13.08-41.55-3.5-55.35-16.07-13.38-39.1-7.13-56.75-.93-47.41 16.65-88.95 49.71-116.26 91.84a400.262 400.262 0 0 0 16.39-60.48c1.56-8.28 2.14-18.49-4.71-23.4-8.87-6.36-20.72 2.15-27.62 10.61-16.72 20.5-29.48 44.22-37.36 69.48 5.44-56.57 10.83-114.25-1.48-169.73-2.81-12.67-6.69-25.46-14.6-35.75-7.91-10.29-20.58-17.72-33.48-16.31-12.22 1.33-22.31 10.01-30.5 19.18-26.43 29.56-41.91 68.7-42.87 108.34-.96 39.64 12.61 79.48 37.58 110.29a231.49 231.49 0 0 0-44.08-36.08c-3.62-2.28-8.93-4.24-11.65-.94-1.4 1.7-1.38 4.14-1.18 6.34 2.48 26.9 20.52 49.45 37.79 70.22-35.01-40.87-90.1-63.66-143.76-59.47-6.48.51-13.84 1.95-17.14 7.55-1.91 3.24-1.99 7.24-1.59 10.98 2.86 26.98 26.66 46.54 50.06 60.26 19.69 11.54 40.42 21.19 61.11 30.82a168.328 168.328 0 0 0-35.75-1.26c-2.72.19-5.76.63-7.42 2.79-3.13 4.09 1.28 9.63 5.46 12.65 29.9 21.59 67.57 32.18 104.34 29.33"/><path d="M1330.01 1961.72c1.32-.96 2.63 1.15 1.35 2.12-34.27 25.9-65.96 55.01-94.03 87.54-28.3 32.8-50.88 68.62-72.96 105.72-.8 1.34-2.8.27-2.13-1.14 36.7-76.96 99.17-144.62 167.77-194.24Zm-155.07 27.79c-19.69 50.45-31.51 113.99-27.55 168.28.1 1.37 2.11 1.29 2.13-.08.88-54.65 9.03-115.75 28.28-167.12.61-1.62-2.23-2.7-2.86-1.07Zm-68.23-111.44c-9.28 92.6-1.8 191.33 23.01 281.12.41 1.5 2.55.74 2.26-.72-9.42-47.09-17.94-94.12-21.86-142.04-3.77-46.08-3.39-92.05-1.78-138.2.03-.92-1.54-1.09-1.64-.16ZM1023 2016.43c27.81 39.52 58.64 112.62 95.16 144.49 1.49 1.3 3.36-.8 2.06-2.23-33.01-36.31-65.37-104.37-94.98-143.69-1.02-1.35-3.23.02-2.24 1.43Zm299.77 61.24c-55.17 24.88-112.05 54.16-158.8 93.05-1.45 1.21-.04 3.67 1.63 2.56 51.47-34.18 101.28-67.82 157.89-93.35 1.37-.62.67-2.89-.72-2.26Zm-343.06-6.82c40.17 23.99 83.13 75.22 126.93 91.95 1.38.53 2.52-1.4 1.11-2.09-42.44-20.74-85.82-68.54-126.88-92.04-1.38-.79-2.51 1.37-1.16 2.18Z" style="fill:url(#linear-gradient-2);mix-blend-mode:multiply;opacity:.45"/><path class="cls-3" d="M1030.42 2156.47h235.09v196.61h-235.09z"/><path class="cls-35" d="M1219.32 2156.47h46.19v196.61h-46.19z"/><rect class="cls-3" x="1911.24" y="568.61" width="1110.26" height="875.91" rx="51.49" ry="51.49"/><rect x="1911.24" y="589.72" width="1090.38" height="854.8" rx="50.41" ry="50.41" style="fill:url(#linear-gradient-3)"/><path class="cls-31" d="M2223.83 678.05h-122.49c-4.22 0-7.64-4.03-7.64-8.99 0-4.97 3.42-8.99 7.64-8.99h122.49c4.22 0 7.64 4.03 7.64 8.99 0 4.97-3.42 8.99-7.64 8.99Z"/><path class="cls-12" d="M2343.21 758.64h-207.63c-4.22 0-7.64-4.03-7.64-8.99 0-4.97 3.42-8.99 7.64-8.99h207.63c4.22 0 7.64 4.03 7.64 8.99 0 4.97-3.42 8.99-7.64 8.99Z"/><path class="cls-31" d="M2426.96 758.64h316.85c4.22 0 7.64-4.03 7.64-8.99 0-4.97-3.42-8.99-7.64-8.99h-316.85c-4.22 0-7.64 4.03-7.64 8.99 0 4.97 3.42 8.99 7.64 8.99Z"/><path class="cls-12" d="M2343.21 839.23h-207.63c-4.22 0-7.64-4.03-7.64-8.99 0-4.97 3.42-8.99 7.64-8.99h207.63c4.22 0 7.64 4.03 7.64 8.99 0 4.97-3.42 8.99-7.64 8.99Z"/><path class="cls-31" d="M2308.98 919.82h-207.63c-4.22 0-7.64-4.03-7.64-8.99 0-4.97 3.42-8.99 7.64-8.99h207.63c4.22 0 7.64 4.03 7.64 8.99 0 4.97-3.42 8.99-7.64 8.99Z"/><path class="cls-12" d="M2749.29 919.82h-356.56c-4.22 0-7.64-4.03-7.64-8.99 0-4.97 3.42-8.99 7.64-8.99h356.56c4.22 0 7.64 4.03 7.64 8.99 0 4.97-3.42 8.99-7.64 8.99ZM2522.74 839.23h-104.93c-4.22 0-7.64-4.03-7.64-8.99 0-4.97 3.42-8.99 7.64-8.99h104.93c4.22 0 7.64 4.03 7.64 8.99 0 4.97-3.42 8.99-7.64 8.99ZM2706.95 839.23h-104.93c-4.22 0-7.64-4.03-7.64-8.99 0-4.97 3.42-8.99 7.64-8.99h104.93c4.22 0 7.64 4.03 7.64 8.99 0 4.97-3.42 8.99-7.64 8.99ZM2240.26 1000.41h-136.4c-4.22 0-7.64-4.03-7.64-8.99 0-4.97 3.42-8.99 7.64-8.99h136.4c4.22 0 7.64 4.03 7.64 8.99 0 4.97-3.42 8.99-7.64 8.99Z"/><path class="cls-31" d="M2523.14 1000.41h-207.63c-4.22 0-7.64-4.03-7.64-8.99 0-4.97 3.42-8.99 7.64-8.99h207.63c4.22 0 7.64 4.03 7.64 8.99 0 4.97-3.42 8.99-7.64 8.99Z"/><path class="cls-12" d="M2674.55 1000.41H2597c-4.22 0-7.64-4.03-7.64-8.99 0-4.97 3.42-8.99 7.64-8.99h77.55c4.22 0 7.64 4.03 7.64 8.99 0 4.97-3.42 8.99-7.64 8.99ZM2368.69 1080.99h-121.65c-4.22 0-7.64-4.03-7.64-8.99 0-4.97 3.42-8.99 7.64-8.99h121.65c4.22 0 7.64 4.03 7.64 8.99 0 4.97-3.42 8.99-7.64 8.99ZM2659.68 1080.99h-207.63c-4.22 0-7.64-4.03-7.64-8.99 0-4.97 3.42-8.99 7.64-8.99h207.63c4.22 0 7.64 4.03 7.64 8.99 0 4.97-3.42 8.99-7.64 8.99ZM2593.12 1161.58h-389.07c-4.22 0-7.64-4.03-7.64-8.99 0-4.97 3.42-8.99 7.64-8.99h389.07c4.22 0 7.64 4.03 7.64 8.99 0 4.97-3.42 8.99-7.64 8.99ZM2884.11 1161.58h-235.02c-4.22 0-7.64-4.03-7.64-8.99 0-4.97 3.42-8.99 7.64-8.99h235.02c4.22 0 7.64 4.03 7.64 8.99 0 4.97-3.42 8.99-7.64 8.99ZM2308.98 1242.17h-207.63c-4.22 0-7.64-4.03-7.64-8.99 0-4.97 3.42-8.99 7.64-8.99h207.63c4.22 0 7.64 4.03 7.64 8.99 0 4.97-3.42 8.99-7.64 8.99Z"/><path class="cls-31" d="M2560.24 1242.17h-207.63c-4.22 0-7.64-4.03-7.64-8.99 0-4.97 3.42-8.99 7.64-8.99h207.63c4.22 0 7.64 4.03 7.64 8.99 0 4.97-3.42 8.99-7.64 8.99Z"/><path class="cls-12" d="M2580.23 1322.76h-315.37c-4.22 0-7.64-4.03-7.64-8.99 0-4.97 3.42-8.99 7.64-8.99h315.37c4.22 0 7.64 4.03 7.64 8.99 0 4.97-3.42 8.99-7.64 8.99ZM1992.21 660.07h15.28v17.99h-15.28zM1992.21 740.65h15.28v17.99h-15.28zM1992.21 821.24h15.28v17.99h-15.28zM1992.21 901.83h15.28v17.99h-15.28zM1992.21 982.42h15.28v17.99h-15.28zM1992.21 1063.01h15.28V1081h-15.28zM1992.21 1103.3h15.28v17.99h-15.28zM1992.21 1143.6h15.28v17.99h-15.28zM1992.21 1183.89h15.28v17.99h-15.28zM1992.21 1224.18h15.28v17.99h-15.28zM1992.21 1264.48h15.28v17.99h-15.28zM1992.21 1304.77h15.28v17.99h-15.28zM1992.21 1345.07h15.28v17.99h-15.28zM2803.83 1359.44l-55.69-27.84c-1.72-.86-2.84-2.85-2.84-5.06v-5.98c0-2.2 1.12-4.2 2.84-5.06l55.69-27.84c3.08-1.54 6.49 1.12 6.49 5.06v2.14c0 2.23-1.14 4.23-2.89 5.08l-38.24 18.53c-3.86 1.87-3.86 8.3 0 10.16l38.24 18.53c1.75.85 2.89 2.85 2.89 5.08v2.14c0 3.94-3.42 6.6-6.49 5.06ZM2854.32 1271.94l-25.73 104.69c-.58 2.35-2.41 3.97-4.49 3.97-3.11 0-5.35-3.51-4.49-7.02l25.73-104.69c.58-2.35 2.41-3.97 4.49-3.97 3.11 0 5.35 3.51 4.49 7.02ZM2925.81 1331.6l-55.69 27.84c-3.08 1.54-6.49-1.12-6.49-5.06v-2.14c0-2.23 1.14-4.23 2.89-5.08l38.24-18.53c3.86-1.87 3.86-8.3 0-10.16l-38.24-18.53c-1.75-.85-2.89-2.85-2.89-5.08v-2.14c0-3.94 3.42-6.6 6.49-5.06l55.69 27.84c1.72.86 2.84 2.85 2.84 5.06v5.98c0 2.2-1.12 4.2-2.84 5.06Z"/><path class="cls-3" d="M2093.83 2008.4v133.65h44.05v-120.29c-15.43-11.71-31.71-13.98-44.05-13.37Z"/><g style="clip-path:url(#clippath)"><path d="M2083.6 2033.64s37.96 6.67 59.73 47.11c21.78 40.44 39.76-4.73 35.56-23.23-4.2-18.5-2-37.43-13.19-51.63-11.19-14.2-32.56-34.42-61.73-26.67-29.17 7.74-32.96 3.44-31.37 20.87 1.6 17.42 4.4 36.14 4.4 36.14" style="opacity:.34"/></g><ellipse class="cls-2" cx="1955.4" cy="2352.17" rx="34.07" ry="37.64"/><path class="cls-2" d="M2152.02 2386c0 20.79-15.25 37.64-34.07 37.64s-34.07-16.85-34.07-37.64 15.26-37.65 34.07-37.65 34.07 16.85 34.07 37.65ZM2312.85 2352.17c0 20.79-15.25 37.64-34.07 37.64s-34.06-16.85-34.06-37.64 15.25-37.64 34.06-37.64 34.07 16.85 34.07 37.64Z"/><path class="cls-13" d="M2085.76 2141.39s29.73-12.12 61.3 0l.86 42.57 154.68 127.59v30.31h-45.66l-.61-23.31-118.44-92.55.73 115.86-5.87 27.22h-30.83l-5.69-26.95-1.28-112.9-117.82 88.38-.49 22.63-42.33.27v-32.07l151.71-123.95v-25.53l-.24-17.58Z"/><path class="cls-12" d="M2196.05 1351.59s50.32-17.85 125.17 0c74.86 17.85 119.58 92.4 122.07 152.65s-24.54 430.65-123.62 524.3c-99.08 93.65-349.11 47.52-400.21 27.95s-88.84-96.44-88.84-96.44l256.13-182.17 13.63-390.89 95.67-35.4Z"/><g style="clip-path:url(#clippath-1)"><path d="M2205.67 1333.41s47.52 8.07 72.68 66.93c25.16 58.86 19.79 146.45 13.16 260.13-6.64 113.68 25.98 116.48 29.7 195.68 3.73 79.2-14.91 153.75-119.27 189.16s-191.95 51.34-326.13 29.86l-99.7-113.73 48.45-221.77s90.23-90.55 101.49-158.49c11.26-67.94 98.82-237.36 134.26-262.09 35.44-24.73 145.36 14.31 145.36 14.31Z" style="fill:#004efc"/></g><path class="cls-9" d="m2029.1 1332.48-6.06-.47s-62.43 1.86-82 26.09-33.08 137.91-33.08 137.91l38.67 291.19s23.3 41 141.63 41 164.93-48.45 164.93-48.45l-10.96-136.35s19.81-30.91 23.07-63.98-29.35-209.66-64.76-235.28c-35.41-25.62-113.68-14.51-113.68-14.51l-57.77 2.86Z"/><g style="clip-path:url(#clippath-2)"><path class="cls-1" d="M2165.61 1387.46s-16.31 19.1-10.25 54.04c6.06 34.94 31.68 83.86 21.9 102.5-9.78 18.64-28.58 49.7-24.54 57 4.04 7.3 12.27 11.34 12.27 11.34l53.42 33.85s14.12 3.89 23.83-2.79c9.71-6.68 0 0 0 0l6.61 1.86-156.99 84.64-18.03-26.09s57.07-61.73 62.2-82.7c5.12-20.97 1.4-22.5 13.05-43.4s23.3-34.41 15.84-57.47c-7.45-23.06-21.2-60.57-18.4-82.7s4.43-35.87 19.1-50.08ZM1958.75 1390.14s-9.81 41.16.57 91.45l37.15 179.98 6.39-3.27s-44.11-221.38-44.11-268.16Z"/></g><path class="cls-9" d="M1817.01 2338.92s-3.73 29.97-3.65 54.12c.08 24.15 16.47 43.31 8.1 65.94-8.37 22.63-77.23 23.31-126.29 29.13s-92.45-4.71-86.16-41.54c6.28-36.84 85.91-22.34 117.13-68.15 31.22-45.8 21.84-53.27 21.84-53.27l69.03 13.77ZM2079.79 2362.12s-3.73 29.97-3.65 54.12c.08 24.15 16.47 43.31 8.1 65.94-8.37 22.63-77.23 23.31-126.29 29.13s-92.45-4.71-86.16-41.54c6.28-36.84 85.91-22.34 117.13-68.15 31.22-45.8 21.84-53.27 21.84-53.27l69.03 13.77Z"/><path class="cls-10" d="m1953.78 1781.92-7.14 5.28s-212.76 68.64-232.64 133.25c-19.88 64.61 11.8 435.15 11.8 435.15s57.77 45.66 109.02-4.66l4.19-346.17 215.05-79.67 62.16 1.86s74.54-53.11 79.2-56.84 63.36-45.66 63.36-45.66l-36.34-59.64-268.67 17.08Z"/><path class="cls-36" d="M1707.44 1881.94s86.38 19.47 102.22 126.37c15.84 106.89 34.48 185.77 34.48 185.77l44-157.21 153.54-82.4 95.35-75.01 48.18-110.73-76.44-40.23-232.02 19.57-122.07 63.36-47.24 70.51Z" style="clip-path:url(#clippath-3)"/><path class="cls-10" d="M2105.04 1816.09s-112.47 95.98-121.93 166.79c-9.46 70.82 0 382.97 0 382.97s72.54 48.45 121.93 0c0 0-20.5-285.13 23.3-333.59 43.8-48.45 121.13-92.25 130.45-164 9.32-71.75-5.59-88.52-5.59-88.52l-74.71-12.11-73.44 48.45Z"/><path class="cls-36" d="M1963.4 2126.38c2.8-8.39 41.93-167.55 204.07-130.6 162.13 36.95 0 0 0 0l50.94-24.39s66.69-55.29 71.55-62.12c4.86-6.83.74-63.36 1.56-70.82.82-7.45 0-90.07 0-90.07l-320.97-7.45 4.35 114.92-11.49 175.18v95.35Z" style="clip-path:url(#clippath-4)"/><path class="cls-2" d="M862.66 2143.15h745.07c2.93 0 5.31 2.38 5.31 5.31v14.53c0 2.93-2.38 5.31-5.31 5.31H862.66c-2.93 0-5.31-2.38-5.31-5.31v-14.53c0-2.93 2.38-5.31 5.31-5.31Z" transform="rotate(90 1235.195 2155.735)"/><path class="cls-2" d="M2100.13 2143.15h745.07c2.93 0 5.31 2.38 5.31 5.31v14.53c0 2.93-2.38 5.31-5.31 5.31h-745.07c-2.93 0-5.31-2.38-5.31-5.31v-14.53c0-2.93 2.38-5.31 5.31-5.31Z" transform="rotate(90 2472.665 2155.735)"/><path class="cls-2" d="m1531.9 2436.62-45.91-663.47a5.031 5.031 0 0 1 4.66-5.36l15.08-1.04c2.77-.19 5.16 1.9 5.36 4.66l45.91 663.47c.19 2.77-1.9 5.16-4.66 5.36l-15.08 1.04c-2.77.19-5.16-1.9-5.36-4.66ZM2729.4 2436.62l-45.91-663.47a5.031 5.031 0 0 1 4.66-5.36l15.08-1.04c2.77-.19 5.16 1.9 5.36 4.66l45.91 663.47c.19 2.77-1.9 5.16-4.66 5.36l-15.08 1.04c-2.77.19-5.16-1.9-5.36-4.66Z"/><rect class="cls-13" x="1172.3" y="1752.73" width="1582.21" height="50.32" rx="10.87" ry="10.87"/><path class="cls-9" d="M2312.57 1633.92h326.6v39.6h-326.6z"/><path class="cls-31" d="M2321.22 1673.52h326.6v39.6h-326.6z"/><path style="fill:#de4d30" d="M2305.38 1713.13h326.6v39.6h-326.6z"/><path class="cls-27" d="m1534.96 1263.04 17.8 24.23c8.1-17.29 25.17-25.03 35.93-28.31l-24.56-18.67s-4.21-.19-9.55 1.55c-6.61 2.17-14.96 7.33-19.08 19.51-.19.54-.37 1.1-.53 1.68Z"/><path class="cls-39" d="M1291.65 1468.81c0 11.4 7.95 20.93 18.61 23.36 1.72.41 3.52.62 5.37.62 1.59 0 3.15-.16 4.65-.46 11.01-2.16 19.33-11.86 19.33-23.52 0-4.32-1.15-8.39-3.15-11.89a24 24 0 0 0-6.57-7.39c-3.98-2.95-8.91-4.7-14.25-4.7-13.25 0-23.98 10.74-23.98 23.98ZM1506.97 1237.82c0 4.7 1.35 9.08 3.71 12.79 1.76 2.81 4.1 5.21 6.84 7.08 3.84 2.58 8.45 4.1 13.43 4.1 1.55 0 3.08-.15 4.55-.43 4.12-12.18 12.47-17.33 19.08-19.51.23-1.3.35-2.66.35-4.03 0-13.25-10.74-23.98-23.98-23.98s-23.98 10.73-23.98 23.98Z"/><path class="cls-27" d="M1329.87 1449.53a24 24 0 0 1 6.57 7.39l102.96-113.28 21.51-23.67 31.74-34.92 24.87-27.36a24.044 24.044 0 0 1-6.84-7.08l-29.76 32.74-21 23.1-22.04 24.24-108.01 118.84Z"/><path class="cls-39" d="M1279.14 1732.82v-.48c79.61-29.38 146.94-2.44 152.38-.16-16.13 4.29-75.54 17.32-152.38.64Z"/><path class="cls-27" d="m1310.26 1492.17 35.79 205.13 4.77 27.31.5 2.87 9.68-1.77-.19-1.09-4.88-27.98-35.65-204.31c-1.5.3-3.05.47-4.65.47-1.85 0-3.65-.21-5.37-.63Z"/><path class="cls-39" d="m1549.3 1299.48 24.29 54.53 4.2 9.44 36.73-31.12 33.13-30.7 19.86-18.41-6.72-5.84-.03-.02-.23-.1-.21-.09-61.14-25.99s-3.9.5-9.51 2.2c-10.76 3.27-27.82 11.01-35.93 28.3a43.29 43.29 0 0 0-2.35 6.13c-1.09 3.54-1.82 7.42-2.1 11.66Z"/><path class="cls-32" d="M1641.88 1343.57c24.27-22.82 34.93-50.91 23.81-62.74-11.13-11.84-39.82-2.94-64.1 19.88-24.27 22.82-34.93 50.91-23.81 62.75 11.13 11.83 39.82 2.93 64.1-19.88ZM1279.14 1732.82h152.38v19.91h-152.38z"/><path class="cls-2" d="M2839.39 2233.84c0 1.75-.34 3.47-1.02 5.16-7.65 19.53-58.19 34.61-119.38 34.61s-112.93-15.44-119.64-35.3l-.76-4.46c0-21.96 53.9-39.77 120.4-39.77s120.4 17.81 120.4 39.77Z"/><path class="cls-13" d="m2838.39 2239-41.52 244.48c-75.66 43.08-155.75 0-155.75 0l-41.76-245.18c6.7 19.86 57.72 35.3 119.64 35.3s111.73-15.08 119.38-34.61h.01Z"/><path class="cls-38" d="M2021.25 1269.59s10.17 21.43 1.79 62.43c0 0 6.52 20.03 29.35 19.57 22.83-.47 34.48-21.96 34.48-21.96s-10.87-17.48-6.37-54.6l.31-13.82-28.89-19.57-30.67 27.95Z"/><path class="cls-30" d="M2019.93 1296.61s40.07-7.92 74.86 19.41c0 0 2.34-59.05 3.91-61.04s-64.48-31.52-64.48-31.52-23.3 13.89-23.92 24.96c-.62 11.07 9.63 48.19 9.63 48.19Z" style="clip-path:url(#clippath-5)"/><path class="cls-10" d="M1955.64 1156.99s-59.3-2.1-26.06-121.68c0 0 30.41 22.91 84.46 26.02 54.04 3.11 114.3 1.86 121.76 98.15 3.11 62.12-55.29 115.54-55.29 115.54l-52.82-33.55-72.04-84.48Z"/><g style="clip-path:url(#clippath-6)"><path d="M1912.62 1115.79s.93 6.94 27.02 0 59.17-17.84 102.5 10.21 59.41 86.28 93.77 79.29l-25.74 54.98-56.1 36.34s-89.41-25.87-92.87-35.6c-3.45-9.72-29.01-69.84-32.73-79.09-3.73-9.25-9-32.08-9-32.08l-6.84-34.06Z" style="fill:#172272"/></g><path class="cls-38" d="M1953.15 1141.77s-16.15 135.42 33.55 143.19c49.7 7.76 82.62-49.08 82.62-49.08s24.85-3.11 22.36-29.51c-2.48-26.4-22.05-16.46-22.05-16.46s-22.05-9.63-21.74-32.92c0 0-26.71 6.21-38.83-18.33 0 0-20.19 13.98-40.69-7.45 0 0-5.28 12.73-15.22 10.56Z"/><path class="cls-30" d="M1943.84 1159.39s31.22 2.57 61.27 9.1c30.05 6.52 45.89 50.32 77.81 44.96 31.91-5.36 18.17-22.71 18.17-22.71l-29.82-40.42-69.65-22.6-42.16-6.99-17.24 13.98 1.63 24.68Z" style="clip-path:url(#clippath-7)"/><path class="cls-38" d="M2164.98 1612.34s-51.02 53.72-89.81 67.39c-38.78 13.67-57.42-.15-72.95 31.3l-3.11 6.6s55.91 18.01 96.29-1.86l123-69.57-53.42-33.85Z"/><path class="cls-26" d="M1707.44 1719.18h460.03v33.55h-460.03z"/><path class="cls-3" d="M2045.28 1752.73H1644.6l-57.96-280.79h400.68l57.96 280.79z"/><path class="cls-26" d="M2015.27 1752.73H1614.6l-57.96-280.79h400.68l57.95 280.79z"/><path class="cls-35" d="M2749.67 1605.04h199.69v88.29h-199.69z"/><path class="cls-42" d="M2830.41 1693.32h199.69v88.29h-199.69z"/><ellipse class="cls-29" cx="1769.99" cy="1588.93" rx="37.71" ry="41.48" transform="rotate(-8.07 1769.442 1588.53)"/></g></g></svg>