<svg xmlns="http://www.w3.org/2000/svg" viewBox="0 0 4680 3120"><defs><clipPath id="clippath-4"><path class="cls-40" d="M2557.92 1389.85s-5.99 50.04-17.09 65.04c-11.1 15-101.45-55.72-101.45-55.72s1.78-60.38-35.96-84.35c-37.74-23.97-10.21 70.59 5.33 95.9 0 0 57.27 79.47 111.88 103 54.61 23.53 61.14-2.66 70.08-16.43 8.94-13.76 24.48-94.12 24.48-94.12l-57.27-13.32Z"/></clipPath><clipPath id="clippath"><path class="cls-40" d="M2622.06 1043.71s-2.25 78.79 10.13 100.17c12.38 21.39 30.95 14.07 38.83-9.57v-77.1l-48.96-13.51Z"/></clipPath><clipPath id="clippath-1"><path class="cls-11" d="M2669.34 1781.51v166.58s28.14 123.81 68.66 212.73c40.52 88.92 48.4 95.67 48.4 95.67s52.9 4.5 79.91-33.77c0 0-83.29-211.6-84.42-290.39-1.13-78.79 18.01-200.35 0-263.38-1.88-11.63-7.88-21.76-7.88-21.76l-81.04 8.25-23.64 126.06Z"/></clipPath><clipPath id="clippath-2"><path class="cls-13" d="m2589.8 1655.45-15.01 5.24s-15.76 136.58-21.39 236.76c-5.63 100.17 7.88 368.62 7.88 368.62s47.27 31.52 88.92 0c0 0-5.63-167.15 7.88-240.69 13.51-73.54 93.8-332.44 90.04-364.69l-158.33-5.24Z"/></clipPath><clipPath id="clippath-3"><path class="cls-5" d="M2658.08 1208.99s-67.42 25.83-74.17 60.72-9.12 390.97-9.12 390.97 47.27 36.78 123.81 28.53c76.54-8.25 81.04-36.77 81.04-36.77s.75-239.37-3.75-258.13c0 0 39.02 0 59.28-35.64 0 0-42.68-101.49-58.15-129.44-19.32-34.89-67.37-25.37-67.37-25.37s-15.83 29.49-51.56 5.12Z"/></clipPath><clipPath id="clippath-5"><path class="cls-6" d="m1136.14 1587.99 20.04 2.69s129.84 188.47 161.25 241.42c31.41 52.95-55.64 366.18-55.64 366.18s-32.47 28.95-64.78-5.15c0 0 15.17-227.16 28.45-298.08l-108.17-122.18-53.98-153.47 72.83-31.41Z"/></clipPath><clipPath id="clippath-6"><path class="cls-6" d="m914.01 1597.41-7.18 24.14s18.4 56.49 64.47 130.38c46.07 73.89 98.42 156.46 98.42 156.46s-36.8 81.67-53.85 166.04c-17.05 84.36-31.41 137.32-31.41 137.32s27.32 43.98 63.47 24.23c0 0 114.23-290.79 114.23-332.97s-74.49-280.02-74.49-280.02l-173.66-25.58Z"/></clipPath><clipPath id="clippath-7"><path class="cls-9" d="m1080.49 1143.73-5.38-.6s-83.29 6.88-102.58 48.17c-19.3 41.28-58.52 157.42-72.88 255.24-14.36 97.83 7.18 175.01 7.18 175.01s137.47 81.32 249.35-30.87c0 0-29.92-38.59-10.17-113.98 19.74-75.39 36.48-100.4 44.55-124.18 0 0 32.63 7.51 60-5.51 27.37-13.01 30.07-21.54 30.07-21.54s-39.49-122.78-56.99-150.33c-17.5-27.55-67.46-29.32-67.46-29.32l-75.69-2.09Z"/></clipPath><clipPath id="clippath-8"><path class="cls-40" d="M1079.89 1075.82s9.57 46.67-4.79 67.31c0 0 14.66 21.84 40.69 22.74s40.39-20.04 40.39-20.04-13.46-12.56-6.58-48.76l-55.64-34.7-14.06 13.46Z"/></clipPath><clipPath id="clippath-9"><path class="cls-40" d="M1196.57 960.04c1.8 0 21.54 128.04-30.51 144.2-52.05 16.15-87.36-52.05-87.36-52.05s-28.12 5.09-33.21-26.03c-5.09-31.11 27.82-27.22 27.82-27.22l5.09-34.4 25.43-28.42 85.56 8.68 7.18 15.26Z"/></clipPath><linearGradient id="linear-gradient" x1="2298.82" y1="1153.76" x2="3804.83" y2="1153.76" gradientUnits="userSpaceOnUse"><stop offset="0" stop-color="#b0d8ff"/><stop offset=".02" stop-color="#b2d9ff"/><stop offset=".15" stop-color="#c4e1ff"/><stop offset=".3" stop-color="#d0e6ff"/><stop offset=".51" stop-color="#d7eaff"/><stop offset="1" stop-color="#daebff"/></linearGradient><linearGradient id="linear-gradient-2" x1="3814.03" y1="1771.13" x2="3814.03" y2="2047.21" gradientTransform="rotate(-2.27 2532.435 1610.44)" gradientUnits="userSpaceOnUse"><stop offset=".37" stop-color="#86cf94"/><stop offset=".99" stop-color="#008166"/></linearGradient><style>.cls-1{fill:#fe8e00}.cls-3,.cls-4{fill:#b0d8ff}.cls-5{fill:#ffab00}.cls-6{fill:#1e2889}.cls-7{fill:#d1e3ff}.cls-9{fill:#006dfe}.cls-10{fill:#0542bf}.cls-11{fill:#2976e5}.cls-13{fill:#3d85fb}.cls-14{fill:#9cf}.cls-17{fill:#e3eeff}.cls-4{fill-rule:evenodd}.cls-28{fill:#0e2354}.cls-30{fill:transparent}.cls-31{fill:#ea756c}.cls-34{fill:#004de8}.cls-37{fill:#daebff}.cls-39{fill:#e2eefa}.cls-40{fill:#ffaca6}.cls-41{fill:#f6c33a}.cls-44{fill:#ffb655}</style></defs><g style="isolation:isolate"><g id="Layer_1"><path class="cls-30" d="M0 0h4680v3120H0z"/><path class="cls-7" transform="rotate(180 1013.915 1033.51)" d="M674.6 628.66h678.63v809.7H674.6z"/><path class="cls-17" transform="rotate(180 991.135 1033.51)" d="M643.55 628.66h695.17v809.7H643.55z"/><path class="cls-7" transform="rotate(180 1013.915 1467.205)" d="M674.6 1438.36h678.63v57.7H674.6z"/><path class="cls-17" transform="rotate(180 939.41 1467.205)" d="M591.82 1438.36h695.17v57.7H591.82z"/><path transform="rotate(90 991.135 1033.505)" style="fill:#f5fcff" d="M629.75 729.39h722.77v608.24H629.75z"/><path class="cls-30" d="M1220.58 1394.89 965.46 672.12H845.03l255.12 722.77h120.43z"/><path d="M1275.13 1149.67c1.72 0 3.1-1.39 3.1-3.1V700.41c0-1.71-1.39-3.1-3.1-3.1s-3.1 1.39-3.1 3.1v446.16c0 1.71 1.39 3.1 3.1 3.1Z" style="fill:#e2eeff"/><path class="cls-30" d="M1074.28 1394.89 819.15 672.12H772.2l255.12 722.77h46.96z"/><path class="cls-7" transform="rotate(90 689.775 1033.505)" d="M328.39 1030.75h722.77v5.52H328.39z"/><path class="cls-7" d="M633.27 727.74h678.63l4-38.72H637.27l-4 38.72z"/><path class="cls-7" d="M633.27 756.07h678.63l4-38.71H637.27l-4 38.71z"/><path class="cls-7" d="M633.27 790.08h678.63l4-38.72H637.27l-4 38.72z"/><path class="cls-7" d="M633.27 827.92h678.63l4-38.72H637.27l-4 38.72zM633.27 873.26h678.63l4-38.72H637.27l-4 38.72zM633.27 924.26h678.63l4-38.71H637.27l-4 38.71z"/><path style="fill:#d3e2f9" d="M597.63 1983.45h3457.96v18.15H597.63z"/><ellipse class="cls-39" cx="1162.16" cy="2311.5" rx="227.07" ry="61.09"/><ellipse class="cls-39" cx="2681.33" cy="2360.13" rx="266.34" ry="71.65"/><ellipse class="cls-39" cx="3051.83" cy="2110.21" rx="380.36" ry="53.93"/><ellipse class="cls-39" cx="1808.52" cy="2189.26" rx="426.81" ry="53.93"/><ellipse class="cls-39" cx="3816.32" cy="2152.16" rx="125.92" ry="33.88"/><path d="M2162.84 2026.4s77.18 8.14 111.29 83.8c34.1 75.66 174.11 121.44 123.85-341.22" style="fill:none;stroke:#1e2889;stroke-miterlimit:10;stroke-width:5px"/><path class="cls-4" d="M4039.26 1633.42c-7.89-1.83-15.43-4.01-23.13-5.11-2.65-.38-7.04 1.14-8.25 3.2-2.56 4.33-9.55 7.93-4.42 14.68 3.28 4.31 6.29 8.87 9.98 12.79 4.24 4.5 4.16 8.17-.37 12.23-2.78 2.5-5.21 5.38-8.18 8.47-6.91-4.49-13.24-9.16-20.13-12.76-2.25-1.17-6.7-.53-8.85 1.04-3.86 2.84-10.9 4.16-8.26 11.82 1.86 5.37 3.29 10.91 5.41 16.17 1.77 4.39.84 6.83-3.42 9.05-15.07 7.84-10.56 7.3-20.64-3.89-1.08-1.2-1.92-2.62-2.94-3.89-5.45-6.77-16.14-7.55-22-1.29-1.22 1.3-1.31 3.92-1.41 5.96-.17 3.51.09 7.03.12 10.55.03 3.51 0 7.02 0 11.61-5.17 1-10.35 2.46-15.58 2.76-1.82.1-4.49-2.31-5.57-4.25-1.95-3.51-2.98-7.53-4.43-11.32-4.04-10.54-8.26-12.9-19.28-10.19-1.72.42-3.37 2.34-4.42 3.98-1.13 1.78-1.51 4.04-2.21 6.09q-5.86 17.15-24.97 12.8c-.1-7.21-.57-14.69-.18-22.12.3-5.71-3.29-6.86-7.38-7.72-4.58-.96-9.18-5.78-13.78.49-4.28 5.85-9.12 11.29-13.96 17.22-6-3.06-11.47-5.84-17.53-8.92 2.1-6.4 3.29-12.67 6.13-18.05 4.85-9.18-2.8-11.44-7.32-15.95-5.01-5-8.61-1.7-12.7 1.04-4.9 3.27-9.95 6.32-14.28 9.06-1.33-.36-1.67-.34-1.85-.51q-13.17-11.99-3.14-26.35c5.95-8.51 5.45-14.61-2.34-21.5-1.48-1.31-4.44-1.79-6.51-1.44-6.65 1.14-13.21 2.85-19.69 4.31-.59-.43-1.2-.64-1.42-1.07-10.28-19.28-10.2-14.83 5.89-25.98 5.34-3.7 7.85-6.91 5.68-13.82-2.11-6.7-3.64-12.08-12.5-11.31-5.27.46-10.7-.86-15.71-1.34-.57-1.06-.97-1.48-1.04-1.96-2.39-17.24-2.57-17.99 14.68-22.02 9.44-2.21 8.49-8.29 9.6-14.87 1.18-6.98-2.95-8.92-7.91-11.01-4.98-2.1-9.82-4.52-15.38-7.11 1.44-6.34 2.84-12.57 4.35-19.22 7.12.41 13.85.53 20.52 1.26 4.72.52 7.39-1.36 8.28-5.66 1.08-5.19 8.08-9.9 1.05-15.86-5.13-4.35-9.78-9.26-15.11-14.37 3.33-5.42 6.55-10.67 10.21-16.64 5.98 2.39 12.1 4.4 17.82 7.24 5 2.48 8.5 1.98 11.78-2.63 3.41-4.78 10.18-8.45 4.12-15.65-.17-.2-.26-.48-.39-.71q-8.59-16.16 6.95-28.19c5.06 4.31 10.54 8.53 15.49 13.3 6.61 6.38 10.68-.83 15.72-2.54 4.19-1.42 6.71-3.82 5.43-9.15-1.51-6.27-2.01-12.79-3.07-20 4.79-1.91 9.38-4.14 14.22-5.46 1.6-.44 4.62.89 5.63 2.35a71.44 71.44 0 0 1 7.06 12.79c2.3 5.41 5.6 6.14 11.37 5.82 9.92-.55 14.63-4.37 14.76-14.43.06-4.78 1.44-9.55 2.15-13.91.83-.45 1.06-.67 1.31-.7q17.79-2.07 21.1 15.48c2.11 11.17 7.39 15.17 18.85 13.56 1.89-.26 3.97-2.47 5.08-4.31 3.64-6 6.87-12.25 10.53-18.88 6.08 2.02 11.91 3.96 18.52 6.16-1.02 6.81-1.89 13.99-3.25 21.08-.83 4.27-.15 6.71 4.17 8.98 12.13 6.37 11.97 6.65 22.34-2.51 3.62-3.19 7.28-6.32 11.33-9.83 5 3.87 9.64 7.46 14.91 11.55-3.47 6.92-6.53 13.8-10.27 20.3-4.57 7.94 3.46 10.07 6.2 14.62 2.53 4.19 5.86 4.83 10.35 2.64 6.3-3.08 12.85-5.63 18.88-8.23 1.1.5 1.72.58 2.03.94 11.01 12.87 10.88 12.74-.77 24.45-4.56 4.59-11.26 7.6-7.22 17.3 3.45 8.29 7.04 11.91 15.78 9.62 2.07-.54 4.29-.49 6.45-.63 11.57-.76 11.32-.68 14.43 10.21 1.51 5.3 1.11 8.75-4.72 10.6-3.33 1.06-6.26 3.46-9.61 4.32-8.25 2.11-10.96 6.52-9.88 15.26.82 6.58 2.84 9.84 9.34 10.64 2.92.36 5.73 1.58 8.6 2.39 12.4 3.47 13.04 4.3 10.1 17.25-.45 1.98-2.93 4.4-4.92 4.95-4.12 1.12-8.55 1.13-12.86 1.58-10.9 1.15-16.12 6.73-15.63 17.37.08 1.67 1.9 3.68 3.45 4.79 4.62 3.31 9.29 6.65 14.33 9.23 4.94 2.52 5.89 5.53 3.43 10.28-1.84 3.56-3.28 7.33-5.18 11.64Zm-242.27-32.14c25.03 47.87 85.97 67.05 133.55 42.03 48.86-25.7 67.7-87.26 41.78-136.47-25.03-47.52-86.59-66.15-134.76-40.79-48.36 25.46-66.44 85.74-40.57 135.23Z"/><path class="cls-4" d="M3925.19 1629.67c-42.26 22.96-93.25 7.63-116.5-35.01-22.87-41.93-7.39-93.95 34.72-116.73 41.08-22.22 94.55-6.57 116.77 34.17 22.89 41.99 7.22 94.64-34.98 117.57Zm-6.86-93.7c-10.64-19.38-34.73-26.49-53.84-15.87-18.77 10.43-25.44 34.89-14.8 54.28 10.3 18.77 34.26 25.44 53.4 14.85 19.07-10.55 25.79-34.05 15.25-53.26ZM3443.24 1954.48c1.26-.45 1.98-.18 2.86.76 5.48 5.89 10.99 11.77 16.6 17.53 1.04 1.07 1.04 1.85.56 3.08-4.42 11.42-8.8 22.87-13.19 34.31-.36.95-.73 1.91-1.17 3.05 17.35 10.64 34.63 21.24 52.03 31.92 5.28-5.86 10.46-11.59 15.63-17.33 3.76-4.16 7.55-8.29 11.25-12.51.92-1.05 1.69-1.2 3.04-.78 7.54 2.34 15.11 4.61 22.72 6.74 1.56.44 2.12 1.07 2.35 2.63 1.88 12.34 3.9 24.65 5.78 36.99.27 1.77.76 2.48 2.74 2.53 18.95.41 37.91.95 56.86 1.45.55.01 1.09.02 1.85.03.51-2.32 1.02-4.62 1.51-6.92 2.28-10.67 4.6-21.33 6.78-32.01.35-1.71 1.12-2.18 2.71-2.54 7.54-1.7 15.04-3.63 22.58-5.35.87-.2 2.32-.01 2.8.57 8.21 9.95 16.31 19.99 24.43 30.02l54.22-29.39c-1.06-3.26-2.08-6.41-3.09-9.55-2.89-8.95-5.73-17.91-8.7-26.83-.49-1.48-.1-2.23.96-3.21 5.74-5.31 11.44-10.65 17.01-16.12 1.24-1.22 2.14-1.34 3.65-.75 11.56 4.5 23.16 8.93 34.74 13.37.73.28 1.47.53 2.35.84 10.6-17.28 21.16-34.5 31.84-51.91-.63-.61-1.21-1.22-1.83-1.78-9.2-8.31-18.39-16.64-27.63-24.9-1.22-1.09-1.55-1.93-1.02-3.6 2.35-7.38 4.53-14.81 6.62-22.26.44-1.58 1.02-2.28 2.71-2.54 12.41-1.89 24.81-3.9 37.21-5.85 1.2-.19 2.19-.22 2.23-1.99.45-19.59.99-39.18 1.5-58.76 0-.15-.07-.29-.16-.65-2.91-.63-5.9-1.29-8.9-1.93-9.97-2.13-19.94-4.29-29.93-6.33-1.56-.32-2.12-.96-2.47-2.52-1.71-7.62-3.56-15.22-5.48-22.79-.37-1.45-.14-2.24 1.04-3.19 9.92-7.96 19.77-16 29.64-24.03.49-.4.93-.85 1.4-1.27l-28.94-53.37c-9.63 3.07-19.26 6.13-28.89 9.2-3.16 1.01-6.34 1.95-9.46 3.07-1.25.45-1.98.21-2.86-.74-5.48-5.89-10.98-11.77-16.59-17.53-1.03-1.06-1.07-1.82-.59-3.07 4.42-11.42 8.79-22.86 13.18-34.3.37-.95.73-1.91 1.18-3.09-17.31-10.62-34.58-21.21-52.02-31.91-3.66 4.05-7.25 8.01-10.83 11.98-5.35 5.92-10.71 11.82-16 17.78-.89 1-1.58 1.33-3 .89-7.69-2.4-15.41-4.69-23.17-6.85-1.49-.42-1.76-1.2-1.96-2.44-1.92-12.32-3.92-24.64-5.79-36.97-.28-1.85-.77-2.61-2.87-2.66-18.71-.39-37.42-.93-56.13-1.42-.78-.02-1.55-.02-2.48-.04-1.49 6.96-2.96 13.83-4.42 20.69-1.32 6.18-2.67 12.36-3.91 18.55-.28 1.39-.9 1.86-2.25 2.17-7.69 1.75-15.36 3.6-23.01 5.54-1.46.37-2.25.1-3.18-1.06-7.97-9.91-16-19.76-24.02-29.63-.4-.49-.85-.93-1.27-1.4l-53.38 28.94c3.31 10.38 6.61 20.76 9.92 31.14.74 2.33 1.41 4.7 2.28 6.98.54 1.4.26 2.23-.85 3.24-5.74 5.29-11.45 10.63-17.02 16.1-1.29 1.27-2.22 1.42-3.84.79-11.77-4.61-23.59-9.11-35.39-13.64-.44-.17-.89-.31-1.57-.55l-31.88 51.99c3.34 3.03 6.6 5.98 9.86 8.93 6.62 5.98 13.21 11.99 19.9 17.9 1.16 1.03 1.22 1.85.79 3.24-2.31 7.47-4.58 14.95-6.66 22.49-.46 1.68-1.2 2.2-2.79 2.45-12.25 1.88-24.48 3.88-36.74 5.75-1.86.28-2.61.78-2.65 2.88-.39 18.79-.93 37.58-1.43 56.37-.02.69-.01 1.39-.02 2.23 6.96 1.49 13.82 2.96 20.69 4.42 6.1 1.3 12.2 2.67 18.32 3.86 1.6.31 2.09 1.02 2.44 2.55 1.72 7.62 3.57 15.21 5.49 22.78.37 1.46.11 2.24-1.06 3.18-9.91 7.96-19.77 16-29.63 24.02-.49.4-.93.85-1.4 1.27l28.94 53.37c9.63-3.07 19.27-6.14 28.9-9.21 3.16-1.01 6.34-1.95 9.47-3.07Zm89.77-249.17c67.19-36.4 151.29-11.32 187.71 55.98 36.25 66.99 11.21 151.08-55.8 187.41-67.21 36.44-151.33 11.44-187.76-55.82-36.34-67.08-11.29-151.19 55.86-187.58Z"/><path class="cls-6" d="M2878.84 1768.99h345.98v239.63h-345.98z"/><path class="cls-10" d="M2711.01 2006.32h681.64v103.88h-681.64z"/><rect class="cls-9" x="2245.43" y="518.33" width="1612.79" height="1270.85" rx="82.12" ry="82.12"/><rect x="2298.82" y="568.14" width="1506.01" height="1171.22" rx="76.18" ry="76.18" style="fill:url(#linear-gradient)"/><path class="cls-10" d="M3044.43 1274.1c-21.43-21.36-42.82-42.9-64.53-64.1-3.77-3.68-4.54-6.44-1.56-10.76 4.39-6.4 8.39-13.06 12.92-20.18-1.22-1.3-2.6-2.85-4.06-4.31-89.71-89.74-179.41-179.47-269.18-269.15-2.56-2.56-5.63-4.8-8.81-6.54-16.89-9.23-33.95-18.16-50.82-27.44-2.32-1.28-4.7-3.62-5.65-6.02-8.86-22.21-17.48-44.52-25.9-66.9-.66-1.76-.01-4.99 1.28-6.36a519.23 519.23 0 0 1 23.11-23.11c1.36-1.28 4.63-1.82 6.43-1.14 22.37 8.43 44.67 17.07 66.89 25.9 2.27.9 4.54 3 5.76 5.14 7.62 13.34 15.26 26.69 22.26 40.35 5.4 10.54 12.57 19.39 20.93 27.72 86.83 86.56 173.48 173.3 260.15 260.03 1.37 1.37 2.35 3.12 3.16 4.23 9.61-5.46 18.16-10.33 26.86-15.28 23.37 23.49 46.26 46.5 69.44 69.79 1.77-1.55 2.92-2.8 4.3-3.72 4.02-2.67 7.86-5.85 12.26-7.65 7.85-3.21 15.81-2.78 22.42 3.15 6.71 6.03 7.48 13.98 4.95 22.03-1.23 3.92-.37 5.88 2.56 8.3 24.1 20.02 48.05 40.22 72.11 60.27 2.05 1.71 4.52 3 6.94 4.18 64.5 31.63 120.13 74.59 165.88 130.1 13.31 16.14 24.58 33.6 31.68 53.46 10.05 28.1 7.74 55.13-7.8 80.7-13.16 21.65-30.66 39.2-52.25 52.44-29.67 18.19-60.32 18.16-91.47 3.93-23.84-10.89-44.07-26.96-63.07-44.66-46.35-43.17-83.53-93.15-110.97-150.3-1-2.07-2.32-4.06-3.8-5.83-20.09-24.04-40.25-48.02-60.33-72.07-1.87-2.24-3.26-3.62-6.74-2.43-8.92 3.06-17.65 2.35-23.88-5.53-6.27-7.92-5.35-16.86-.87-25.28 2.34-4.39 5.86-8.15 9.41-12.96Zm377.73 225.88c-1.49-2.1-3.45-5.86-6.31-8.73-47.94-48.12-96-96.12-144.03-144.15-15-15-30.01-30-44.99-45.01-4-4.01-8.47-5.44-13.7-2.59-4.79 2.61-7.8 8.27-6.24 13.26.93 2.98 3.03 5.85 5.28 8.11 27.02 27.21 54.15 54.29 81.27 81.41 35.92 35.92 71.86 71.82 107.76 107.76 3.53 3.54 7.35 5.88 12.47 3.74 5.16-2.16 7.78-6.2 8.5-13.8Zm-49.08 49.02c-1.48-2.08-3.38-5.67-6.11-8.41-41.34-41.51-82.79-82.9-124.21-124.33-21.74-21.74-43.46-43.52-65.26-65.2-5.2-5.17-11.15-5.23-15.99-.58-4.95 4.75-5.45 11.58-1.15 16.8 1.23 1.5 2.68 2.82 4.06 4.19 37.7 37.71 75.41 75.42 113.12 113.13 24.91 24.91 49.83 49.81 74.74 74.72 3.53 3.53 7.48 5.72 12.55 3.45 5.1-2.28 7.6-6.4 8.25-13.77Z"/><path class="cls-10" d="M3021.21 1080.45c16.34-16.26 32.22-32 48.03-47.8 29.74-29.71 59.41-59.49 89.25-89.1 3.04-3.02 3.74-5.25 2.06-9.43-10.62-26.45-18.87-53.51-20.39-82.27-2.47-47.08 15.73-84.07 54.19-111 43.36-30.36 91.29-42.14 143.85-34.45 6.12.9 10.65 3.5 12.65 9.59 1.85 5.65-.86 9.56-4.7 13.39-28.97 28.83-57.48 58.13-86.9 86.49-11.9 11.47-14.54 24.13-10.88 39.21 5.32 21.93 17.18 40.31 31.62 57.16 18.59 21.69 40.08 39.81 66.95 50.36 8.01 3.14 16.83 4.71 25.43 5.72 9.32 1.1 17.29-2.54 24.09-9.41 29.58-29.87 59.43-59.47 89.07-89.28 4.14-4.16 8.39-7.09 14.4-4.96 6.07 2.15 8.33 7.07 9.17 13.07 7.75 55.68-5.63 105.89-39.9 150.25-28.49 36.87-66.92 50.98-112.69 46.75-26.01-2.4-50.7-9.95-74.73-19.75-4.66-1.9-7.16-.96-10.42 2.33-30.03 30.25-60.25 60.3-90.28 90.55-3 3.02-5.43 3.72-9.61 2.44-10.35-3.17-20.86-2.56-30.87 1.53-3.69 1.51-5.76.98-8.5-1.8-19.41-19.67-39.08-39.09-58.49-58.76-2.91-2.95-5.24-3.71-9.04-1.76-6.4 3.28-13.13 5.89-19.59 9.05-2.63 1.29-4.36 1.32-6.53-.97-5.35-5.64-11-10.98-17.24-17.14ZM2939.56 1162.59c6.76 6.74 13.35 13.3 19.74 19.66-3.6 8.05-7.09 16.27-10.97 24.29-1.64 3.39-1.02 5.45 1.59 8.03 19.37 19.15 38.52 38.54 57.92 57.67 3.26 3.21 4.5 5.77 2.56 10.47-4.05 9.8-4.58 20.15-1.1 30.26 1.39 4.04.34 6.28-2.43 9.04-44.52 44.37-88.95 88.84-133.4 133.29-40.46 40.46-82.26 79.67-120.99 121.72-38.29 41.58-97.56 27.3-124.48-12.47-15.3-22.6-20.43-47.18-9.97-73.09 3.39-8.39 9.16-16.43 15.6-22.89 100.64-101.09 201.58-201.89 302.45-302.75 1.22-1.22 2.53-2.37 3.47-3.25Zm-184.57 341.24c.07-23.74-19.17-43.18-42.88-43.34-24.06-.16-43.74 19.19-43.78 43.04-.03 23.89 19.69 43.62 43.47 43.5 23.64-.12 43.12-19.6 43.18-43.2Z"/><path class="cls-30" d="M3422.16 1499.98c-.72 7.6-3.34 11.64-8.5 13.8-5.12 2.14-8.94-.2-12.47-3.74-35.9-35.94-71.84-71.84-107.76-107.76-27.11-27.11-54.25-54.2-81.27-81.41-2.24-2.26-4.34-5.13-5.28-8.11-1.56-4.99 1.45-10.65 6.24-13.26 5.23-2.85 9.7-1.42 13.7 2.59 14.99 15.02 29.99 30.01 44.99 45.01 48.03 48.03 96.09 96.04 144.03 144.15 2.86 2.87 4.82 6.63 6.31 8.73ZM3373.08 1549c-.65 7.37-3.15 11.49-8.25 13.77-5.08 2.27-9.02.09-12.55-3.45-24.91-24.91-49.83-49.81-74.74-74.72-37.71-37.71-75.41-75.42-113.12-113.13-1.38-1.38-2.83-2.69-4.06-4.19-4.3-5.22-3.8-12.05 1.15-16.8 4.84-4.65 10.79-4.59 15.99.58 21.8 21.68 43.52 43.46 65.26 65.2 41.42 41.42 82.87 82.82 124.21 124.33 2.74 2.75 4.63 6.34 6.11 8.41ZM2754.99 1503.83c-.07 23.6-19.54 43.08-43.18 43.2-23.78.12-43.5-19.62-43.47-43.5.03-23.85 19.72-43.21 43.78-43.04 23.71.16 42.94 19.6 42.88 43.34Z"/><path class="cls-28" d="M2753.75 2355.42s6.96 18.57 17.16 28.06c57.02-23.45 109.23-60.23 128.75-74.72-1.12-4.41-3.4-9.21-6.58-14.43-5.92-9.76-22.49-38.14-33.82-57.64-4.71 9.63-17.14 25.67-49.53 35.42 10.52 24.47-22.81 49.02-41.29 61.06-18.95 12.35-14.68 22.25-14.68 22.25Z"/><path class="cls-31" d="M2794.8 2243.87s.91 1.27 14.04 26.35c.32.62.63 1.25.88 1.88 32.39-9.75 44.83-25.79 49.53-35.42-6.55-11.28-11.37-19.57-11.37-19.57l-53.08 26.76Z"/><path class="cls-28" d="M2770.9 2383.48c2.49 2.31 5.19 4.09 8.01 4.92 14.37 4.22 99.56-48.65 112.3-57.79 8.42-6.03 10.62-13.22 8.44-21.85-19.52 14.49-71.73 51.27-128.75 74.72ZM2487.02 2351.08s-1.97 19.73 2.98 32.76c61.51 4.18 124.6-5.72 148.52-10.08.94-4.45 1.02-9.77.49-15.85-.99-11.38-3.3-44.16-4.85-66.65-8.48 6.55-26.73 15.44-60.09 9.86-1.38 26.6-42.13 33.88-64.04 36.51-22.46 2.7-23.01 13.47-23.01 13.47Z"/><path class="cls-40" d="M2573.17 2269.2s.26 1.54.94 29.84c.01.7 0 1.4-.04 2.07 33.37 5.58 51.61-3.31 60.09-9.86-.89-13.02-1.55-22.58-1.55-22.58l-59.44.52Z"/><path class="cls-28" d="M2490 2383.84c1.21 3.18 2.84 5.96 5.01 7.95 11.02 10.14 110.81.4 126.28-2.17 10.22-1.69 15.37-7.16 17.23-15.86-23.91 4.36-87.01 14.26-148.52 10.08Z"/><path class="cls-30" d="m2366.71 1198.83 129.82-49.52 64.93 237.19-118.21 54.7-76.54-242.37z"/><path class="cls-40" d="M2622.06 1043.71s-2.25 78.79 10.13 100.17c12.38 21.39 30.95 14.07 38.83-9.57v-77.1l-48.96-13.51Z"/><path class="cls-31" d="M2615.2 1062.21s27.04 12.57 27.04 26.93 15.84 73.45 15.84 73.45l18.86-8.83s.6-35.43 0-53.62-13.16-43.31-13.16-43.31-17.35-18.9-26.33-21.71c-8.97-2.82-15.55 0-15.55 0l-6.71 27.09Z" style="clip-path:url(#clippath)"/><path class="cls-31" d="M2661.24 1143.32s7.05 37.94-3.16 65.67c0 0 8.27 15.08 25.54 16.05 17.27.97 26.02-12.65 26.02-12.65s-4.62-18 0-47.43l-48.4-21.65ZM2787.45 1383.06s31.89 33.77 18.38 55.15c-13.51 21.39-27.76 48.02-27.76 48.02l2.63 58.9s72.79-78.79 77.66-105.05-12.01-58.9-28.14-83.67l-42.77 26.64Z"/><path class="cls-11" d="M2669.34 1781.51v166.58s28.14 123.81 68.66 212.73c40.52 88.92 48.4 95.67 48.4 95.67s52.9 4.5 79.91-33.77c0 0-83.29-211.6-84.42-290.39-1.13-78.79 18.01-200.35 0-263.38-1.88-11.63-7.88-21.76-7.88-21.76l-81.04 8.25-23.64 126.06Z"/><g style="clip-path:url(#clippath-1)"><path d="M2798.54 1675.41s-49.29 127.23-54.92 207.84c-5.63 80.6-12.48 209.35 13.46 330.13l-106.94-245.61v-212.09l42.83-100.22 93.42-17.6 12.15 37.56Z" style="fill:#266abc"/></g><path class="cls-13" d="m2589.8 1655.45-15.01 5.24s-15.76 136.58-21.39 236.76c-5.63 100.17 7.88 368.62 7.88 368.62s47.27 31.52 88.92 0c0 0-5.63-167.15 7.88-240.69 13.51-73.54 93.8-332.44 90.04-364.69l-158.33-5.24Z"/><path class="cls-11" d="M2659.21 1664.12s10.13 43.56-13.51 140.13-34.89 168.3-36.02 247.58c-1.13 79.28 13.51 253.18 13.51 253.18l36.02-5.88 118.89-611.59-49.11-88.76-69.78 65.34Z" style="clip-path:url(#clippath-2)"/><path class="cls-28" d="M2615.31 1024.39s-2.63 29.26 17.45 37.89c20.07 8.63 25.01 16.6 21.45 30.89-3.56 14.29 1.81 50.82 16.82 63.39s53.22 26.64 77.42 0 63.89-33.81 61.26-96.85c-2.63-63.03-40.57-100.99-77.34-105.49s-60.4 1.5-70.91 10.13c0 0-48.02 3.75-46.15 60.03Z"/><path class="cls-5" d="M2658.08 1208.99s-67.42 25.83-74.17 60.72-9.12 390.97-9.12 390.97 47.27 36.78 123.81 28.53c76.54-8.25 81.04-36.77 81.04-36.77s.75-239.37-3.75-258.13c0 0 39.02 0 59.28-35.64 0 0-42.68-101.49-58.15-129.44-19.32-34.89-67.37-25.37-67.37-25.37s-15.83 29.49-51.56 5.12Z"/><g style="clip-path:url(#clippath-3)"><path class="cls-1" d="M2615.2 1269.76s19.25-10.88 23.37 7.5 29.38 157.59-16.67 214.98c-46.05 57.39-59.49 38.64-71.31 6.38-11.82-32.27 32.98-210.48 64.61-228.86ZM2699.35 1202.68s21.76-4.09 24.76 59.26c3 63.34-3.75 444-10.51 454.02-6.75 10.02 81.18-37.25 81.18-37.25s134.17-346.67 127.42-356.42c-6.75-9.75-208.6-141.82-208.6-141.82l-14.26 22.22Z"/></g><path class="cls-40" d="M2557.92 1389.85s-5.99 50.04-17.09 65.04c-11.1 15-101.45-55.72-101.45-55.72s1.78-60.38-35.96-84.35c-37.74-23.97-10.21 70.59 5.33 95.9 0 0 57.27 79.47 111.88 103 54.61 23.53 61.14-2.66 70.08-16.43 8.94-13.76 24.48-94.12 24.48-94.12l-57.27-13.32Z"/><path class="cls-31" d="M2552.03 1411.92s41.14 3.5 35.76 29.28-2.39 62.46-43.98 62.56c-41.59.1-70.75-22.07-70.75-22.07l37.54 46.82h56.54l38.01-17.24s24.81-60.91 24.81-64.71-8.07-50.47-8.07-50.47l-61.58-13.73-9.74 20.91 1.44 8.66Z" style="clip-path:url(#clippath-4)"/><path class="cls-5" d="M2550.59 1390.38s10.15-84.58 23.07-111.11 43.9-24.39 53.28 0c9.38 24.39 7.87 130.55 7.87 130.55s-51.58 25.59-84.22-19.43Z"/><path class="cls-31" d="M1256.4 1320.23s6.58 50.86 44.28 75.39c37.69 24.53 102.91 53.25 102.91 53.25l-33.51 41.28s-84.36-26.92-130.44-71.8c-25.13-25.73-41.28-81.37-41.28-81.37l58.04-16.75Z"/><path class="cls-1" d="M1015.87 2267.54c11.39 23.6 45.66 64.17 81.39 83.58 1.72-2.41 3.06-5.32 3.95-8.81 6.67-26.27-50.38-40.09-57.61-79.64-7.22-39.55 1.2-41.75 1.2-41.75l-49.82-11.17s-6.35 20.97-13.5 36.96c-.08.17-.17.34-.25.51 9.25-.22 25.88 2.17 34.64 20.33Z"/><path class="cls-5" d="M1015.87 2267.54c-8.77-18.16-25.39-20.55-34.64-20.33-7.28 15.64-23.42 23.55-24.52 40.82-1.11 17.46 44.35 38.18 75.16 56.47 26.71 15.86 54.21 22.3 65.4 6.62-35.73-19.41-70-59.98-81.39-83.58Z"/><path class="cls-1" d="M1252.81 2241.07c18.95 25.12 58.3 43.05 92.39 48.6.12-1.2.19-2.44.15-3.76-.67-27.1-59.33-25-76.97-61.13-17.63-36.13-10.12-40.52-10.12-40.52l-50.98 2.69s-.39 18.75-2.49 35.28c12.93-.94 34.35.73 48.01 18.84Z"/><path class="cls-5" d="M1252.81 2241.07c-13.66-18.11-35.07-19.78-48.01-18.84-.17 1.33-.35 2.66-.54 3.95-2.58 17.32-16.34 29.37-12.69 46.48 3.65 17.11 53 24.79 87.61 34.08 32.93 8.84 63.69 6.51 66.03-17.07-34.1-5.56-73.45-23.49-92.39-48.6Z"/><path class="cls-6" d="m1136.14 1587.99 20.04 2.69s129.84 188.47 161.25 241.42c31.41 52.95-55.64 366.18-55.64 366.18s-32.47 28.95-64.78-5.15c0 0 15.17-227.16 28.45-298.08l-108.17-122.18-53.98-153.47 72.83-31.41Z"/><g style="clip-path:url(#clippath-5)"><path d="M1100.77 1563.7s31.36 85.47 108.75 189.58c77.39 104.11 64.82 129.85 50.46 210.32-14.36 80.47-48.46 277.47-48.46 277.47l-32.31-31.32-55.88-257.82-60.03-116.17-34.08-203.07 8.19-53.45 63.36-15.54Z" style="fill:#162172"/></g><path class="cls-6" d="m914.01 1597.41-7.18 24.14s18.4 56.49 64.47 130.38c46.07 73.89 98.42 156.46 98.42 156.46s-36.8 81.67-53.85 166.04c-17.05 84.36-31.41 137.32-31.41 137.32s27.32 43.98 63.47 24.23c0 0 114.23-290.79 114.23-332.97s-74.49-280.02-74.49-280.02l-173.66-25.58Z"/><g style="clip-path:url(#clippath-6)"><path d="M947.66 1587.99s71.35 163.75 109.05 247.76c37.69 84.02 35 67.86 21.54 121.71-13.46 53.85-75.39 279.23-75.39 279.23l-63.27-36.9s12.67-80.77 17.1-126.55c4.44-45.77 26.53-72.7 0-200.59s-55.7-184.41-61.98-212.69c-6.28-28.28-15.71-80.72-15.71-80.72s33.66-14.87 37.69-14.87 30.96 23.63 30.96 23.63Z" style="fill:#2735a0"/></g><path class="cls-9" d="m1080.49 1143.73-5.38-.6s-83.29 6.88-102.58 48.17c-19.3 41.28-58.52 157.42-72.88 255.24-14.36 97.83 7.18 175.01 7.18 175.01s137.47 81.32 249.35-30.87c0 0-29.92-38.59-10.17-113.98 19.74-75.39 36.48-100.4 44.55-124.18 0 0 32.63 7.51 60-5.51 27.37-13.01 30.07-21.54 30.07-21.54s-39.49-122.78-56.99-150.33c-17.5-27.55-67.46-29.32-67.46-29.32l-75.69-2.09Z"/><g style="clip-path:url(#clippath-7)"><path class="cls-10" d="M1201.72 1149.31s20.58 18.81 4.42 102.28c-16.15 83.47-75.39 153.47-95.13 263.86-19.74 110.39-4.49 144.51-4.49 144.51l113.98-71.97s-29.23-99.59-26.71-110.32 55.43-115.84 55.43-115.84l31.41-15.1 26.03-23.04s-26.92-66.71-26.03-72.99c.9-6.28-27.82-84.79-27.82-84.79l-51.09-16.59Z"/><path class="cls-34" d="M1214.22 1143.13s27.64 35.68-23.66 209.39c-51.29 173.71-4.42 257.17-4.42 257.17l-55.39 30.51s-51.16 9.63-56.54 10.2c-5.38.57-13.46-45.2-7.18-90.07 6.28-44.87 26.03-119.12 26.03-119.12s21.54-43.32 39.49-91.79c17.95-48.46 69.17-213.6 69.17-213.6l12.5 7.32Z"/><path class="cls-34" d="m988.35 1229.15-15.81-.6s-9.92 38.3 11.62 106.5c21.54 68.21 32.31 91.04 32.31 91.04l20.94-3.69s40.69 65.82 68.81 77.78l13.16-32.31-74.79-147.64-56.24-91.09Z"/></g><path class="cls-40" d="M1079.89 1075.82s9.57 46.67-4.79 67.31c0 0 14.66 21.84 40.69 22.74s40.39-20.04 40.39-20.04-13.46-12.56-6.58-48.76l-55.64-34.7-14.06 13.46Z"/><path class="cls-31" d="M1076.47 1114.12s62.06-2.1 79.71 21.68l7.78-52.95-63.19-25.13-25.66 8.08-7.43 23.33 8.79 27.37" style="clip-path:url(#clippath-8)"/><path style="fill:#7a99ce" d="M1461.23 1011.05h714.91v1155.07h-714.91z"/><path class="cls-6" d="M1421.35 988.84h790.24v46.27h-790.24zM1421.35 2142.99h790.24v46.27h-790.24z"/><path class="cls-3" d="M1461.23 1938.16h714.91v204.83h-714.91z"/><path class="cls-6" d="M1515.89 1992.52h34.96v99.62h-34.96z"/><path class="cls-9" d="M1586.29 1992.52h34.96v99.62h-34.96zM1656.7 1992.52h34.96v99.62h-34.96zM1727.11 1992.52h34.96v99.62h-34.96z"/><circle class="cls-10" cx="1939.75" cy="2042.33" r="15.93" transform="rotate(-76.72 1939.658 2042.322)"/><circle class="cls-10" cx="2008.92" cy="2042.33" r="15.93" transform="rotate(-45 2008.924 2042.337)"/><circle class="cls-10" cx="2078.09" cy="2042.33" r="15.93" transform="rotate(-45 2078.093 2042.336)"/><path class="cls-3" d="M1461.23 1733.33h714.91v204.83h-714.91z"/><path class="cls-6" d="M1515.89 1787.7h34.96v99.62h-34.96zM1586.29 1787.7h34.96v99.62h-34.96zM1656.7 1787.7h34.96v99.62h-34.96z"/><path class="cls-9" d="M1727.11 1787.7h34.96v99.62h-34.96z"/><circle class="cls-10" cx="1939.75" cy="1837.51" r="15.93" transform="rotate(-45 1939.76 1837.505)"/><circle class="cls-10" cx="2008.92" cy="1837.51" r="15.93" transform="rotate(-76.72 2008.825 1837.494)"/><circle class="cls-10" cx="2078.09" cy="1837.51" r="15.93" transform="rotate(-76.72 2077.989 1837.5)"/><path class="cls-3" d="M1461.23 1528.51h714.91v204.83h-714.91z"/><path class="cls-6" d="M1515.89 1582.87h34.96v99.62h-34.96zM1586.29 1582.87h34.96v99.62h-34.96zM1656.7 1582.87h34.96v99.62h-34.96z"/><path class="cls-9" d="M1727.11 1582.87h34.96v99.62h-34.96z"/><circle class="cls-10" cx="1939.75" cy="1632.68" r="15.93" transform="rotate(-45 1939.748 1632.68)"/><circle class="cls-10" cx="2008.92" cy="1632.68" r="15.93" transform="rotate(-76.72 2008.83 1632.681)"/><circle class="cls-10" cx="2078.09" cy="1632.68" r="15.93" transform="rotate(-76.72 2077.993 1632.676)"/><path class="cls-3" d="M1280.63 1323.68h714.91v204.83h-714.91z"/><path class="cls-6" d="M1335.28 1378.04h34.96v99.62h-34.96z"/><path class="cls-9" d="M1405.69 1378.04h34.96v99.62h-34.96zM1476.1 1378.04h34.96v99.62h-34.96zM1546.51 1378.04h34.96v99.62h-34.96z"/><circle class="cls-10" cx="1759.15" cy="1427.85" r="15.93" transform="rotate(-76.72 1759.072 1427.848)"/><circle class="cls-10" cx="1828.32" cy="1427.85" r="15.93" transform="rotate(-45 1828.326 1427.853)"/><circle class="cls-10" cx="1897.49" cy="1427.85" r="15.93" transform="rotate(-45 1897.496 1427.852)"/><path class="cls-6" d="m1031.52 975.06-9.85 31.74s12.61 49.58 38.64 70.67c26.03 21.09 22.31 19.33 22.31 19.33l18.17-43.12-21.18-83.67-48.08 5.04Z"/><path class="cls-40" d="M1196.57 960.04c1.8 0 21.54 128.04-30.51 144.2-52.05 16.15-87.36-52.05-87.36-52.05s-28.12 5.09-33.21-26.03c-5.09-31.11 27.82-27.22 27.82-27.22l5.09-34.4 25.43-28.42 85.56 8.68 7.18 15.26Z"/><path class="cls-31" d="M1036.52 1026.61s16.15-13.76 43.08-8.68c26.92 5.09 86.95 19.45 129.93-8.08v-81.8l-121.85 13.61-39.74 13.74-26.27 46.22 14.85 24.98Z" style="clip-path:url(#clippath-9)"/><path class="cls-44" d="M1231.64 966.29c-11.71-2.5-19.13-5.49-23.4-7.64-.32.7-.77 1.34-1.39 1.85-.73.6-18.27 14.69-55.14 14.69-3.19 0-6.49-.11-9.79-.32-5.65-.36-11.35-.55-16.94-.55-14.69 0-27.18 1.27-37.32 2.71 10.14 5.96 19.09 12.52 26.56 15.95 1.71.79 3.42 1.51 5.12 2.18.57.23 1.14.41 1.71.63 1.12.42 2.24.84 3.36 1.21.67.22 1.34.41 2.01.62 1 .31 2 .62 3 .89.71.19 1.41.36 2.11.53.95.24 1.9.47 2.84.67.71.15 1.42.29 2.13.42.92.18 1.84.35 2.76.5.71.11 1.41.21 2.11.31a82.94 82.94 0 0 0 4.77.54c.89.08 1.77.14 2.66.2.67.04 1.34.08 2.01.1.88.03 1.76.05 2.63.06.4 0 .81.03 1.21.03.32 0 .64-.01.96-.02.4 0 .8-.01 1.19-.02 1.02-.02 2.02-.06 3.02-.11.27-.01.54-.02.8-.04 1.23-.07 2.45-.17 3.65-.29.33-.03.64-.07.97-.1.92-.1 1.83-.21 2.72-.33.36-.05.72-.09 1.08-.15 1.06-.15 2.11-.32 3.14-.5.11-.02.23-.04.34-.05 1.13-.2 2.23-.42 3.33-.65.33-.07.66-.14.99-.22.81-.18 1.61-.36 2.4-.56.31-.08.62-.15.92-.23 1.03-.26 2.05-.53 3.04-.81.18-.05.35-.1.52-.15.84-.24 1.66-.49 2.47-.74.31-.1.61-.19.91-.29.73-.24 1.45-.48 2.16-.72l.69-.24c.89-.31 1.77-.63 2.61-.95.23-.09.45-.17.68-.26.64-.25 1.28-.5 1.89-.75.26-.11.52-.21.78-.32.66-.27 1.31-.55 1.94-.82.13-.06.27-.12.4-.17.74-.33 1.45-.65 2.13-.97.22-.1.43-.2.64-.3.5-.24.99-.47 1.46-.7.2-.1.39-.19.59-.29.61-.31 1.21-.61 1.77-.9.09-.05.17-.09.25-.13.49-.26.95-.5 1.4-.75.17-.09.33-.18.49-.27.37-.2.72-.4 1.06-.59.12-.07.25-.14.37-.21.43-.25.83-.48 1.2-.7.1-.06.18-.11.27-.16.28-.17.55-.33.79-.48.1-.06.2-.12.29-.18.23-.15.45-.28.64-.4.05-.03.1-.07.15-.09.23-.15.42-.27.58-.38.05-.03.08-.05.12-.08.11-.08.21-.14.27-.19.03-.02.05-.03.07-.05.06-.04.1-.07.1-.07h-.01c16.17-6.61 31.41-15.5 18.76-18.2Z"/><path d="M1241.47 968.85c-.24-2.68-1.95-6.17-8.74-7.62-10.25-2.19-16.95-4.75-20.99-6.66.14-.34.24-.69.3-1.05.17-.29.41-.69.59-.98 1.16-1.89 2.48-4.02 1.97-6.6-10.37-51.58-52.49-89.02-100.17-89.02-6.15 0-12.34.64-18.4 1.9a90.35 90.35 0 0 0-22.23 7.78s-.02 0-.03.01c-.02 0-.04.02-.06.03a92.122 92.122 0 0 0-7.04 3.95c-.09.06-.19.11-.27.16-.36.22-.66.49-.95.78-37.09 21.97-58.42 72.83-49.59 127.09.18 1.1.38 2.16.59 3.23l.14.72a5.157 5.157 0 0 0 3.16 3.84 5.172 5.172 0 0 0 4.94-.6c12.85-9.23 36.12-24.37 43.85-25.67 1.4-.23 2.91-.5 4.52-.78 1.93-.34 4.04-.7 6.29-1.07 5.91 3.12 11.51 6.68 16.72 10.02 5.7 3.65 11.09 7.09 16 9.35 13.55 6.22 27.87 9.38 42.57 9.38 32.71 0 56.9-15.41 60.73-18 26.9-11.09 26.35-17.24 26.09-20.2Zm-144.4-104.96a84.978 84.978 0 0 1 17.35-1.79c44.42 0 85.05 34.88 95.1 84.86.23 1.14-2.77 4.53-2.58 5.66 0 0-6.47 3.86-16.93 6.6-.02-.07-.01-.13-.03-.2-13.13-48.49-57.79-88.41-102-92.69 2.96-.97 5.99-1.8 9.1-2.45Zm-20.97 7.35c1.37-.08 2.74-.12 4.11-.12 45.04 0 91.77 41.26 104.77 89.27-3.33.66-6.95 1.16-10.82 1.4-.78-2.96-1.65-5.89-2.62-8.78-14.57-43.42-50.59-78.81-90.95-78.81-3.79 0-7.61.31-11.46.96 2.25-1.4 4.58-2.71 6.97-3.92Zm.37 102.31c-3.28.56-6.23 1.08-8.79 1.51-11.8 1.98-46.01 26.57-46.01 26.57-.24-1.27-.49-2.54-.7-3.83-.37-2.26-.67-4.52-.93-6.77-.08-.67-.14-1.34-.2-2.01-.16-1.6-.31-3.19-.42-4.78-.05-.74-.1-1.49-.14-2.23-.09-1.57-.14-3.14-.18-4.7-.01-.66-.03-1.33-.04-1.99-.02-1.9 0-3.8.06-5.68 0-.28 0-.57.02-.85.08-2.26.22-4.5.41-6.72l.06-.59c.18-1.97.4-3.92.65-5.86.06-.46.13-.92.2-1.38.25-1.73.52-3.44.83-5.14l.24-1.3c.36-1.89.76-3.76 1.21-5.62l.12-.52c1.04-4.28 2.28-8.44 3.71-12.48 0-.03.02-.05.03-.08.69-1.95 1.43-3.86 2.21-5.75.06-.16.13-.31.2-.47.78-1.86 1.6-3.69 2.46-5.49.02-.04.04-.09.06-.13 2.74-5.68 5.89-11.02 9.41-15.96.02-.02.03-.04.05-.07 1.14-1.59 2.31-3.13 3.52-4.64.04-.05.07-.1.11-.15 5.9-7.28 12.68-13.52 20.21-18.46.66.99 1.63 1.73 2.75 2.08.06.02.12.02.17.04.44.12.9.2 1.37.2.28 0 .57-.02.86-.07 3.5-.59 7.07-.89 10.6-.89 19.21 0 38.11 8.51 54.67 24.59 15.91 15.45 27.95 36.45 33.9 59.15.6 2.28 2.66 3.86 5 3.86h.31c.09 0 .17-.01.25-.02.98-.06 1.97-.15 2.96-.24.6-.06 1.19-.13 1.77-.2.43-.05.87-.11 1.3-.16.59-.08 1.17-.16 1.75-.25-7.92 2.21-18.13 3.94-30.78 3.94-3.01 0-6.16-.1-9.45-.31-5.84-.38-11.4-.54-16.67-.56v.02c-20.89-.04-37.31 2.38-49.13 4.38Zm136.41 10.94h.01s-.04.03-.1.07c-.02.02-.04.03-.07.05-.07.05-.16.11-.27.19-.04.03-.07.05-.12.08-.16.11-.35.23-.58.38l-.15.09c-.19.12-.41.26-.64.4-.09.06-.19.12-.29.18-.24.15-.51.31-.79.48-.09.06-.17.11-.27.16-.37.22-.77.45-1.2.7-.12.07-.25.14-.37.21-.34.19-.69.39-1.06.59-.16.09-.32.18-.49.27-.45.24-.91.49-1.4.75-.09.05-.17.09-.25.13-.56.29-1.15.59-1.77.9-.19.1-.39.19-.59.29-.47.23-.96.47-1.46.7-.21.1-.42.2-.64.3-.69.32-1.4.64-2.13.97-.13.06-.27.12-.4.17-.63.27-1.27.55-1.94.82-.26.11-.52.21-.78.32-.62.25-1.25.5-1.89.75-.23.09-.45.17-.68.26-.85.32-1.72.64-2.61.95l-.69.24c-.71.24-1.42.48-2.16.72-.3.1-.61.19-.91.29-.81.25-1.63.5-2.47.74-.18.05-.35.1-.52.15-.99.28-2.01.55-3.04.81-.3.08-.61.15-.92.23-.79.19-1.59.38-2.4.56-.33.07-.66.15-.99.22-1.09.23-2.2.45-3.33.65-.11.02-.22.04-.34.05-1.03.18-2.08.34-3.14.5l-1.08.15c-.9.12-1.81.23-2.72.33-.32.03-.64.07-.97.1-1.2.12-2.42.21-3.65.29-.26.02-.53.02-.8.04-1 .05-2 .09-3.02.11-.4 0-.79.02-1.19.02-.32 0-.64.02-.96.02-.4 0-.81-.02-1.21-.03-.87-.01-1.75-.03-2.63-.06-.67-.03-1.34-.06-2.01-.1-.88-.05-1.76-.12-2.66-.2-.69-.06-1.38-.13-2.07-.2-.89-.1-1.79-.21-2.7-.34-.7-.1-1.4-.2-2.11-.31-.91-.15-1.83-.32-2.76-.5-.71-.14-1.41-.27-2.13-.42-.94-.2-1.89-.44-2.84-.67-.7-.18-1.4-.34-2.11-.53-.99-.27-2-.58-3-.89-.67-.21-1.34-.4-2.01-.62a97.39 97.39 0 0 1-3.36-1.21c-.57-.21-1.14-.4-1.71-.63-1.7-.67-3.4-1.39-5.12-2.18-7.47-3.43-16.41-9.99-26.56-15.95 10.14-1.44 22.62-2.71 37.32-2.71 5.59 0 11.29.18 16.94.55 3.3.21 6.59.32 9.79.32 36.87 0 54.41-14.09 55.14-14.69.61-.51 1.07-1.15 1.39-1.85 4.27 2.15 11.69 5.14 23.4 7.64 12.64 2.7-2.6 11.59-18.76 18.2Z" style="fill:#e89400"/><path class="cls-41" d="M1031.52 917.28c2.74-5.68 5.89-11.02 9.41-15.96-3.53 4.94-6.68 10.28-9.41 15.96Z"/><path class="cls-44" d="M1125.59 969.15c5.28.01 10.83.18 16.67.56 3.29.21 6.44.31 9.45.31 12.65 0 22.86-1.72 30.78-3.94-.57.09-1.16.17-1.75.25-.43.06-.87.11-1.3.16-.59.07-1.17.14-1.77.2-.99.1-1.97.18-2.96.24-.09 0-.17.02-.25.02h-.31c-2.34 0-4.4-1.58-5-3.86-5.95-22.7-17.99-43.7-33.9-59.15-16.56-16.08-35.47-24.59-54.67-24.59-3.53 0-7.1.3-10.6.89-.29.05-.58.07-.86.07-.47 0-.93-.07-1.37-.2-.06-.02-.12-.02-.17-.04a5.177 5.177 0 0 1-2.75-2.08c-7.53 4.94-14.31 11.18-20.21 18.46 35.99 10.99 68 37.41 80.98 72.68Z"/><path class="cls-41" d="M1022.85 941.67c1.04-4.27 2.27-8.44 3.71-12.48-1.43 4.04-2.67 8.2-3.71 12.48ZM1076.47 973.55c-3.28.56-6.23 1.08-8.79 1.51 2.57-.43 5.51-.95 8.79-1.51Z"/><path class="cls-5" d="M1125.59 969.15c-12.98-35.28-44.98-61.69-80.98-72.68-.04.05-.07.1-.11.15-1.21 1.5-2.39 3.05-3.52 4.64-.02.02-.03.04-.05.07-3.53 4.94-6.68 10.28-9.41 15.96-.02.04-.04.09-.06.13-.86 1.8-1.68 3.62-2.46 5.49-.07.16-.13.31-.2.47-.78 1.89-1.52 3.8-2.21 5.75 0 .03-.02.05-.03.08-1.43 4.04-2.67 8.2-3.71 12.48l-.12.52c-.44 1.85-.84 3.73-1.21 5.62l-.24 1.3c-.31 1.7-.59 3.41-.83 5.14-.07.46-.14.92-.2 1.38-.26 1.94-.48 3.89-.65 5.86l-.06.59c-.19 2.22-.33 4.46-.41 6.72-.01.28 0 .57-.02.85-.06 1.88-.08 3.77-.06 5.68 0 .66.03 1.33.04 1.99.03 1.56.09 3.13.18 4.7.04.74.08 1.48.14 2.23.11 1.59.26 3.18.42 4.78.07.67.13 1.34.2 2.01.26 2.25.56 4.5.93 6.77.21 1.29.46 2.56.7 3.83 0 0 34.21-24.58 46.01-26.57 2.56-.43 5.51-.96 8.79-1.51 11.82-2 28.24-4.42 49.13-4.38v-.02Z"/><path class="cls-44" d="M1189.97 959.04c.02.07.02.13.03.2 10.46-2.75 16.93-6.6 16.93-6.6-.2-1.14 2.81-4.52 2.58-5.66-10.05-49.98-50.68-84.86-95.1-84.86-5.74 0-11.54.58-17.35 1.79-3.11.65-6.14 1.48-9.1 2.45 44.21 4.28 88.87 44.2 102 92.69Z"/><path class="cls-5" d="M1171.54 953.01c.97 2.9 1.85 5.83 2.62 8.78 3.87-.24 7.49-.74 10.82-1.4-12.99-48-59.73-89.27-104.77-89.27-1.37 0-2.75.04-4.11.12a87.782 87.782 0 0 0-6.97 3.92c3.85-.65 7.67-.96 11.46-.96 40.35 0 76.38 35.39 90.95 78.81Z"/><path class="cls-40" d="M1102.03 1361.82s22.44 54.75 45.77 72.7 149.88 96.03 149.88 96.03 32.76-17.05 71.8-14.36c39.04 2.69 71.35 22.44 8.97 48.91-62.38 26.48-79.88 7.63-79.88 7.63s-133.73-51.16-190.72-87.95c-39.04-26.03-64.98-72.7-70.45-94.24l64.62-28.72Z"/><path class="cls-10" d="M1015.19 1395.74s-15.47-44.69-26.24-80.59c-10.77-35.9-26.48-97.83-7.63-118.02 18.85-20.19 48.02-27.37 74.94-8.97 26.92 18.4 67.08 165.85 67.08 165.85s-61.48 59.23-108.15 41.73Z"/><path class="cls-37" d="M1536.11 759.49h669.7v16.56h-669.7z"/><path class="cls-37" d="M1617.35 773.17h12.13v79.69h-12.13zM2108.65 773.17h12.13v79.69h-12.13z"/><path class="cls-3" d="M1614.97 648.69h38.65v116.04h-38.65zM1659.62 648.69h38.65v116.04h-38.65zM1704.26 648.69h38.65v116.04h-38.65zM1748.91 648.69h38.65v116.04h-38.65zM1793.56 648.69h38.65v116.04h-38.65zM1838.2 648.69h38.65v116.04h-38.65zM1916.64 525.41h260.49v238.08h-260.49z"/><path class="cls-37" d="M1939.02 545.86h215.73v197.17h-215.73z"/><circle cx="2046.21" cy="644.97" r="53.77" transform="rotate(-45 2046.215 644.97)" style="fill:#ebf5ff"/><path d="M3872.36 1984.44s98.96-5.37 99.08-25.48c.09-15.64-60.45-2.41-60.45-2.41s66.22-19.21 96.83-34.94c6.72-3.45 13.57-7.17 18.27-13.08 4.7-5.9 6.75-14.58 2.94-21.1-5.15-8.82-17.52-9.54-27.67-8.32-40.76 4.92-69.42 26.72-106.11 45.14 26.86-13.49 50.75-30.75 73.14-50.75 20.58-18.39 44.54-35.64 58.26-60.23 8.6-15.41 12.01-38.16-3.21-50.84-14.76-12.29-35.91-6.55-52.12-.85-43.54 15.29-81.69 45.65-106.77 84.35 6.46-18.08 11.5-36.68 15.05-55.55 1.43-7.6 1.96-16.98-4.33-21.49-8.15-5.84-19.03 1.97-25.37 9.74a191.468 191.468 0 0 0-34.31 63.81c5-51.95 9.94-104.93-1.36-155.88-2.58-11.64-6.14-23.38-13.41-32.83-7.26-9.45-18.9-16.27-30.75-14.98-11.22 1.22-20.49 9.2-28.01 17.61-24.27 27.15-38.49 63.09-39.38 99.5-.88 36.41 11.58 72.99 34.51 101.29a212.673 212.673 0 0 0-40.48-33.14c-3.32-2.09-8.2-3.89-10.7-.86-1.29 1.57-1.27 3.8-1.08 5.82 2.28 24.7 18.84 45.42 34.71 64.49-32.16-37.54-82.75-58.47-132.03-54.62-5.95.47-12.71 1.79-15.74 6.94-1.75 2.98-1.83 6.65-1.46 10.08 2.63 24.77 24.49 42.74 45.98 55.34 18.08 10.6 37.12 19.46 56.12 28.3a154.802 154.802 0 0 0-32.84-1.16c-2.5.18-5.29.57-6.81 2.56-2.88 3.75 1.18 8.85 5.01 11.62 27.46 19.83 62.06 29.55 95.83 26.93" style="fill:#00d967"/><path d="M3984.74 1799.68c1.21-.88 2.41 1.06 1.24 1.94-31.47 23.78-60.58 50.52-86.36 80.4-26 30.13-46.73 63.02-67.01 97.09-.73 1.23-2.58.25-1.96-1.04 33.71-70.68 91.08-132.82 154.08-178.39Zm-142.42 25.53c-18.08 46.33-28.94 104.69-25.3 154.55.09 1.26 1.94 1.18 1.96-.08.81-50.19 8.3-106.3 25.97-153.49.56-1.49-2.04-2.48-2.63-.99Zm-62.67-102.35c-8.52 85.04-1.65 175.72 21.14 258.18.38 1.38 2.34.68 2.07-.66-8.65-43.25-16.47-86.44-20.07-130.45-3.46-42.32-3.11-84.54-1.63-126.93.03-.85-1.42-1-1.5-.14Zm-76.87 127.07c25.54 36.3 53.85 103.43 87.4 132.7 1.37 1.2 3.08-.73 1.89-2.05-30.32-33.35-60.04-95.85-87.23-131.97-.93-1.24-2.97.02-2.05 1.31Zm275.3 56.24c-50.67 22.85-102.91 49.74-145.84 85.46-1.33 1.11-.04 3.37 1.5 2.35 47.27-31.39 93.02-62.28 145.01-85.73 1.26-.57.62-2.65-.66-2.07Zm-315.07-6.26c36.9 22.03 76.35 69.09 116.57 84.45 1.27.49 2.32-1.29 1.02-1.92-38.98-19.05-78.82-62.95-116.53-84.53-1.27-.73-2.31 1.25-1.06 2Z" style="fill:url(#linear-gradient-2);mix-blend-mode:multiply;opacity:.45"/><path class="cls-3" d="M3709.59 1978.55h215.91v180.57h-215.91z"/><path class="cls-37" d="M3883.08 1978.55h42.42v180.57h-42.42z"/><path class="cls-14" d="M1461.23 1522.18h534.31v6.33h-534.31zM1461.23 1727h714.91v6.33h-714.91zM1461.23 1935h714.91v6.33h-714.91z"/></g></g></svg>