<svg xmlns="http://www.w3.org/2000/svg" viewBox="0 0 4680 3120"><defs><clipPath id="clippath-6"><path class="cls-15" d="m1756.12 1409.7-7.11 223.75h189.07l22.75-223.75h-204.71z"/></clipPath><clipPath id="clippath-14"><path class="cls-57" d="M1751.65 1166.4s-7.42 87.2 38.34 110.09c45.77 22.88 72.36-32.78 76.69-55.04s5.57-58.14 5.57-58.14l-42.67-12.99h-58.14l-19.79 16.08Z"/></clipPath><clipPath id="clippath-1"><path class="cls-10" d="M1841.64 2328.48s-3.65 8.67-8.67 53.85 12.32 60.69 53.39 59.33c41.07-1.37 38.79-33.31 38.33-47.46-.46-14.15-14.15-19.62-13.23-56.59l-69.82-9.13Z"/></clipPath><clipPath id="clippath-2"><path class="cls-11" d="m1723.62 1724.47-6.09 34.27v554.62s41.25 37.81 105.41 10.31l7.03-587.16-106.35-12.04Z"/></clipPath><clipPath id="clippath-3"><path class="cls-11" d="m1947.82 1736.51-5.73 586.02s-30.93 50.41-119.15 1.15l7.03-587.16h117.85Z"/></clipPath><clipPath id="clippath-13"><path class="cls-57" d="M1791.26 1265.05s8.2 30.04-7.51 49.54c0 0 10.49 14.39 33.24 12.76 22.75-1.63 22.7-16.01 22.7-16.01s-13.49-6.75-10.24-46.3h-38.19Z"/></clipPath><clipPath id="clippath-4"><path class="cls-4" d="M1738.71 1485.01c-2.17 1.63-13.98 17.92-13.98 17.92s8.02 90.32 2.61 158.7-7.31 71.93-7.31 71.93 52.09 19.73 112.78 19.79c59.96.06 115.45-19.79 115.45-19.79s-18.29-50.26-11.25-147.78l-5.42-59.05-9.75-62.85-183.12 21.13Z"/></clipPath><clipPath id="clippath-5"><path class="cls-4" d="m1788.28 1314.89-4.53-.3s-87.85-6.74-120.35 59.9c-32.51 66.64-73.14 194.5-50.93 216.71 22.21 22.21 86.45-.54 145.35-34.67l-5.57-46.05s-74.76 31.96-79.1 11.38c-4.33-20.59 44.97-102.94 44.97-102.94l6.6 84.02 186.27-16.84 10.29 68.26s51.47 30.88 83.43 18.42c31.96-12.46 17.88-68.26 6.5-95.89-11.38-27.63-51.96-143.39-102.39-156.57-53.91-14.09-69.13-8.96-69.13-8.96l-51.41 3.54Z"/></clipPath><clipPath id="clippath"><path class="cls-10" d="M1737.59 2315.08c0 2.74.64 32.31-40.89 42.35s-49.39 28.09-45.42 41.67c11.27 38.57 72.8 16.28 94.25 20.39s51.46-3.8 53.75-27.08c2.28-23.27-7.58-75.1-7.58-75.1l-54.11-2.24Z"/></clipPath><clipPath id="clippath-7"><path class="cls-57" d="M1749.23 1522.88s7.82-2.46 31.49-19.93c23.67-17.47 39.39-25.22 50.57-4.57s-22.09 40.54-49.04 46.03c-26.96 5.49-33.02 4.53-33.02 4.53v-26.06Z"/></clipPath><clipPath id="clippath-8"><path class="cls-57" d="M3672.33 1551.78s18.62 89.78 12.5 114.26c-6.12 24.48-57.64 68.86-57.64 68.86v-179.55l45.14-3.57Z"/></clipPath><clipPath id="clippath-9"><path class="cls-57" d="M3326.74 1544.12c0 1.53-28.06 90.8-10.2 134.15 17.85 43.36 77.02 68.86 77.02 68.86l4.59-55.09s-36.73-11.22-35.2-40.81c1.53-29.59 22.44-99.47 22.44-99.47l-58.66-7.65Z"/></clipPath><clipPath id="clippath-10"><path class="cls-11" d="M3503.66 1863.95s-4.33 215.63 27.09 295.81 113.77 299.06 113.77 299.06 56.34 22.75 95.35-23.84c0 0-94.27-222.13-94.27-307.73s11.25-191.46 2.58-238.03c-8.67-46.57-11.34-73.92-11.34-73.92l-133.19 48.66Z"/></clipPath><clipPath id="clippath-11"><path class="cls-11" d="M3387.17 1842.08s-27.63 198.49-24.38 289.5c3.25 91.02 17.88 352.69 17.88 352.69s52.01 26.01 97.52 0c0 0 1.63-208.85 14.63-294.99 13-86.14 60.14-205.6 72.33-259.24 12.19-53.64 6.5-81.27 6.5-81.27l-184.47-6.7Z"/></clipPath><clipPath id="clippath-12"><path class="cls-15" d="M3491.91 1355.57c-28.33.14-45.44-7.75-45.44-7.75s-58.44-1.38-90.57 39.17c-32.14 40.55-53.38 137.49-53.38 137.49s26.78 64.27 91.05 30.61l-8.67 291.35s134.71 98.66 255.61-12.29l-9.63-276.56s32.54 8.58 46.48-8.43c0 0-18.24-133.96-38.92-163.23-30.27-42.85-100.08-42.17-100.08-42.17s-18.69 11.67-46.44 11.81Z"/></clipPath><linearGradient id="linear-gradient" x1="2787.61" y1="1292.54" x2="3908.5" y2="1292.54" gradientUnits="userSpaceOnUse"><stop offset="0" stop-color="#b0d8ff"/><stop offset=".02" stop-color="#b2d9ff"/><stop offset=".15" stop-color="#c4e1ff"/><stop offset=".3" stop-color="#d0e6ff"/><stop offset=".51" stop-color="#d7eaff"/><stop offset="1" stop-color="#daebff"/></linearGradient><style>.cls-1{fill:#fe8e00}.cls-2{fill:#191e56}.cls-4,.cls-5{fill:#b0d8ff}.cls-6{stroke-dasharray:19.25 23.3}.cls-6,.cls-7,.cls-8{fill:none;stroke:#fff;stroke-linecap:round;stroke-linejoin:round;stroke-width:10px}.cls-9{fill:#ffc45c}.cls-10{fill:#ffab00}.cls-11{fill:#1e2889}.cls-12{fill:#5f6dc1}.cls-13{fill:#d1e3ff}.cls-15{fill:#006dfe}.cls-17{fill:#0542bf}.cls-18{fill:#45a7ff}.cls-19{fill:#a6c2d1}.cls-23{fill:#e3eeff}.cls-24{fill:#172272}.cls-30{mix-blend-mode:multiply}.cls-31{fill:#7bc3ff}.cls-32,.cls-5{fill-rule:evenodd}.cls-42{fill:#78c2ff}.cls-44{fill:transparent}.cls-45{fill:#ea756c}.cls-8{stroke-dasharray:18.67 22.6}.cls-51{fill:#d3e2f9}.cls-32,.cls-52{fill:#daebff}.cls-53{fill:#0054fc}.cls-55{fill:#113d8c}.cls-57{fill:#ffaca6}.cls-59{fill:#ebf5ff}</style></defs><g style="isolation:isolate"><g id="Layer_1"><path class="cls-44" d="M0 0h4680v3120H0z"/><ellipse class="cls-51" cx="1159.74" cy="2422.23" rx="376.49" ry="36.6"/><path class="cls-51" d="M640.13 2269.25h3351.81v22.16H640.13z"/><path class="cls-32" d="M2626.29 2151.25c-1.92-4.24-3.56-8.44-5.74-12.33-.75-1.34-2.98-2.81-4.34-2.64-2.87.34-6.95-1.58-8.24 3.11-.82 3-1.85 5.96-2.35 9.02-.57 3.5-2.27 4.75-5.7 4.1-2.11-.4-4.27-.5-6.72-.77-.36-4.72-.44-9.23-1.21-13.63-.25-1.43-2.09-3.24-3.56-3.67-2.64-.77-5.7-3.52-8.27.36-1.8 2.72-3.82 5.31-5.48 8.11-1.38 2.34-2.82 2.77-5.32 1.6-8.83-4.13-7.01-2.26-5.43-10.77.17-.91.53-1.79.75-2.7 1.18-4.85-2.19-9.99-7.09-10.48-1.02-.1-2.24.77-3.21 1.44-1.66 1.15-3.17 2.5-4.77 3.74-1.59 1.24-3.2 2.45-5.29 4.05-2.26-2.01-4.73-3.86-6.7-6.14-.68-.79-.51-2.85 0-4.02.92-2.11 2.39-3.99 3.61-5.97 3.4-5.52 3-8.27-2.08-12.34-.79-.64-2.25-.72-3.36-.62-1.21.11-2.37.72-3.55 1.12q-9.86 3.32-14.55-6.92c3.25-2.56 6.5-5.38 10.02-7.8 2.71-1.86 1.98-3.89.94-6.06-1.16-2.42-.57-6.2-5.04-6.11-4.16.09-8.33-.21-12.72-.35-.7-3.8-1.34-7.26-2.05-11.11 3.65-1.28 6.92-2.92 10.37-3.51 5.88-1 4.24-5.27 4.72-8.9.53-4.03-2.23-4.51-4.91-5.43-3.2-1.09-6.35-2.33-9.11-3.35-.3-.73-.43-.88-.41-1.02q.87-10.19 10.92-10.63c5.96-.26 8.56-2.62 8.99-8.57.08-1.13-.73-2.65-1.62-3.47-2.84-2.64-5.91-5.03-8.84-7.47-.01-.42-.12-.77 0-1.02 5.2-11.41 3.2-9.83 13.9-6.38 3.55 1.14 5.89 1.17 8.28-2.23 2.32-3.3 4.24-5.88.79-9.64-2.05-2.24-3.34-5.17-4.87-7.63.28-.63.34-.96.53-1.16 7.02-7.11 7.31-7.45 15.16-.99 4.3 3.53 6.74.97 10.13-.81 3.59-1.9 3.03-4.46 2.26-7.45-.78-3-1.37-6.05-2.13-9.49 3.39-1.56 6.72-3.09 10.28-4.73 2.3 3.39 4.59 6.5 6.59 9.8 1.41 2.33 3.2 2.89 5.47 1.8 2.74-1.32 7.33.23 7.6-5.06.19-3.86.81-7.69 1.28-11.9 3.63-.38 7.15-.74 11.15-1.15 1 3.56 2.22 7.05 2.92 10.65.61 3.14 2.07 4.56 5.31 4.45 3.37-.11 7.4 1.69 8.57-3.59.03-.15.13-.28.19-.43q4.37-9.56 15.27-6.67c-.2 3.81-.21 7.78-.66 11.7-.6 5.24 4.11 4.58 6.65 6.28 2.11 1.41 4.08 1.72 6.07-.72 2.33-2.88 5.13-5.38 8.05-8.38 2.54 1.51 5.16 2.83 7.45 4.58.76.58 1.21 2.42.9 3.39a40.69 40.69 0 0 1-3.37 7.68c-1.66 2.94-.85 4.69 1.31 7.21 3.71 4.33 7.1 5.14 11.73 1.69 2.2-1.64 4.85-2.68 7.09-3.87.5.22.67.25.78.35q7.15 7.39.31 15.02c-4.35 4.86-4.33 8.66.4 13.33.78.77 2.51.94 3.74.81 4.01-.44 7.98-1.14 12.28-1.79 1.2 3.47 2.35 6.81 3.66 10.59-3.46 1.91-7.04 4.02-10.74 5.87-2.24 1.12-3.11 2.28-2.64 5.04 1.33 7.75 1.15 7.78 8.94 9.31 2.72.53 5.42 1.11 8.44 1.73-.02 3.63-.04 7-.06 10.83-4.36.83-8.57 1.84-12.84 2.4-5.21.69-3.38 5.09-4.5 7.93-1.03 2.62-.16 4.36 2.41 5.64 3.6 1.79 7.05 3.89 10.34 5.73.16.68.34.99.28 1.25-2.02 9.51-2.01 9.4-11.41 8.18-3.68-.48-7.4-2.48-10.41 2.75-2.57 4.47-2.97 7.36 1.12 10.55.97.75 1.72 1.79 2.54 2.72 4.39 5.01 4.26 4.92.38 10.14-1.89 2.54-3.6 3.56-6.48 1.55-1.64-1.15-3.76-1.65-5.32-2.87-3.84-3.02-6.8-2.72-10.4.82-2.72 2.67-3.49 4.73-1.59 7.97.86 1.46 1.28 3.17 1.92 4.76 2.75 6.86 2.59 7.45-4.34 10.63-1.06.49-3.03.2-3.97-.52-1.95-1.49-3.5-3.5-5.21-5.31-4.33-4.57-8.69-5-13.37-1.06-.74.62-1.01 2.15-.98 3.24.1 3.26.21 6.56.8 9.75.57 3.13-.46 4.61-3.49 5.15-2.26.41-4.48 1.06-7.11 1.7Zm-69.91-121.65c-13.09 28.12-.56 62.59 27.45 75.54 28.76 13.3 63.41.4 76.79-28.59 12.92-28-.07-62.56-28.44-75.66-28.48-13.15-62.27-.36-75.8 28.71Z"/><path class="cls-32" d="M2588.19 2097.95c-25.21-11.25-36.03-39.84-24.71-65.32 11.13-25.06 40.25-36.16 65.33-24.91 24.47 10.97 36 40.81 25.18 65.15-11.15 25.09-40.62 36.32-65.8 25.09Zm40.31-35.83c5.12-11.62-.05-25.08-11.56-30.08-11.31-4.92-24.78.58-29.91 12.2-4.96 11.25.36 24.49 11.87 29.52 11.46 5.01 24.52-.13 29.6-11.64ZM2271.92 1991.64c.64.42.77.84.65 1.57-.77 4.56-1.53 9.12-2.2 13.69-.12.85-.48 1.12-1.21 1.33-6.75 1.97-13.49 3.97-20.24 5.96-.56.17-1.12.33-1.8.53 1.2 11.62 2.4 23.2 3.61 34.86 4.51.36 8.93.72 13.35 1.08 3.21.26 6.42.55 9.63.76.8.05 1.14.35 1.42 1.11 1.57 4.26 3.17 8.5 4.86 12.71.35.86.25 1.34-.38 1.99-4.97 5.16-9.87 10.38-14.84 15.55-.72.74-.87 1.21-.2 2.13 6.43 8.78 12.8 17.61 19.18 26.43.18.25.37.5.63.85 1.24-.58 2.46-1.15 3.68-1.73 5.66-2.69 11.33-5.35 16.96-8.09.9-.44 1.39-.25 2.1.35 3.41 2.84 6.9 5.59 10.32 8.42.39.33.82 1.05.72 1.48-1.67 7.22-3.42 14.41-5.16 21.61l32.32 14.45c1.12-1.62 2.19-3.18 3.27-4.74 3.07-4.44 6.16-8.86 9.19-13.33.5-.74.98-.82 1.8-.68 4.42.76 8.85 1.5 13.29 2.13.99.14 1.36.51 1.61 1.4 1.98 6.84 4.01 13.67 6.03 20.51.13.43.27.86.44 1.37 11.58-1.2 23.11-2.4 34.78-3.61.06-.5.13-.98.17-1.46.58-7.1 1.17-14.19 1.71-21.29.07-.93.34-1.38 1.28-1.72 4.18-1.51 8.33-3.1 12.46-4.75.88-.35 1.4-.33 2.1.35 5.19 5 10.44 9.95 15.66 14.92.51.48.86.92 1.69.32 9.09-6.63 18.2-13.22 27.31-19.83.07-.05.11-.13.24-.3-.73-1.55-1.47-3.14-2.23-4.73-2.51-5.29-5-10.58-7.56-15.85-.4-.82-.31-1.3.28-2.01 2.88-3.44 5.69-6.93 8.47-10.45.53-.67.97-.85 1.82-.64 7.09 1.74 14.2 3.43 21.3 5.12.35.08.71.13 1.07.19l14.23-31.82-14.28-9.96c-1.56-1.09-3.1-2.21-4.7-3.24-.64-.41-.78-.83-.66-1.56.77-4.55 1.53-9.11 2.2-13.68.12-.84.46-1.13 1.19-1.34 6.75-1.97 13.49-3.97 20.23-5.96.56-.17 1.13-.33 1.82-.54-1.2-11.6-2.4-23.16-3.61-34.85-3.12-.26-6.18-.51-9.24-.76-4.56-.37-9.12-.76-13.69-1.09-.77-.06-1.16-.26-1.45-1.06-1.59-4.34-3.24-8.66-4.96-12.95-.33-.82-.07-1.22.43-1.74 4.95-5.18 9.86-10.39 14.83-15.54.75-.78.92-1.26.21-2.24-6.35-8.66-12.64-17.38-18.94-26.08-.26-.36-.53-.72-.85-1.15l-10.97 5.2c-3.28 1.56-6.57 3.09-9.82 4.69-.73.36-1.16.24-1.77-.27-3.48-2.89-7-5.75-10.56-8.56-.68-.54-.83-.99-.63-1.82 1.74-7.09 3.42-14.19 5.12-21.29.08-.35.13-.71.19-1.07l-31.82-14.23c-3.58 5.13-7.16 10.26-10.73 15.39-.8 1.15-1.65 2.28-2.39 3.48-.45.73-.92.89-1.78.75-4.42-.77-8.84-1.51-13.28-2.14-1.03-.15-1.42-.52-1.7-1.48-2.01-6.97-4.08-13.93-6.13-20.89-.08-.26-.17-.51-.3-.91-11.57 1.2-23.13 2.4-34.83 3.61-.21 2.58-.42 5.1-.63 7.61-.41 5.11-.85 10.21-1.21 15.32-.06.89-.42 1.2-1.2 1.49-4.21 1.55-8.41 3.13-12.58 4.81-.93.37-1.42.22-2.09-.42-5.13-4.93-10.32-9.8-15.44-14.74-.78-.75-1.27-.92-2.24-.2-8.7 6.38-17.46 12.69-26.19 19.03-.32.23-.64.48-1.03.77 1.75 3.69 3.48 7.33 5.2 10.97 1.54 3.24 3.04 6.49 4.64 9.7.42.84.27 1.31-.31 2-2.87 3.44-5.69 6.93-8.47 10.45-.54.68-.98.83-1.82.63-7.09-1.74-14.19-3.43-21.29-5.12-.35-.08-.71-.13-1.07-.19l-14.23 31.82 14.28 9.96c1.56 1.09 3.1 2.21 4.7 3.24Zm144.91-46.05c40.04 17.92 57.97 65.01 40 105.1-17.88 39.9-64.95 57.84-104.9 39.98-40.07-17.92-58.03-64.99-40.09-105.07 17.89-39.98 64.98-57.92 105-40.01Z"/><path class="cls-5" d="M2620.63 2150c-1.92-4.24-3.56-8.44-5.74-12.33-.75-1.34-2.98-2.81-4.34-2.64-2.87.34-6.95-1.58-8.24 3.11-.82 3-1.85 5.96-2.35 9.02-.57 3.5-2.27 4.75-5.7 4.1-2.11-.4-4.27-.5-6.72-.77-.36-4.72-.44-9.23-1.21-13.63-.25-1.43-2.09-3.24-3.56-3.67-2.64-.77-5.7-3.52-8.27.36-1.8 2.72-3.82 5.31-5.48 8.11-1.38 2.34-2.82 2.77-5.32 1.6-8.83-4.13-7.01-2.26-5.43-10.77.17-.91.53-1.79.75-2.7 1.18-4.85-2.19-9.99-7.09-10.48-1.02-.1-2.24.77-3.21 1.44-1.66 1.15-3.17 2.5-4.77 3.74-1.59 1.24-3.2 2.45-5.29 4.05-2.26-2.01-4.73-3.86-6.7-6.14-.68-.79-.51-2.85 0-4.02.92-2.11 2.39-3.99 3.61-5.97 3.4-5.52 3-8.27-2.08-12.34-.79-.64-2.25-.72-3.36-.62-1.21.11-2.37.72-3.55 1.12q-9.86 3.32-14.55-6.92c3.25-2.56 6.5-5.38 10.02-7.8 2.71-1.86 1.98-3.89.94-6.06-1.16-2.42-.57-6.2-5.04-6.11-4.16.09-8.33-.21-12.72-.35-.7-3.8-1.34-7.27-2.05-11.11 3.65-1.28 6.92-2.92 10.37-3.51 5.88-1 4.24-5.27 4.72-8.9.53-4.03-2.23-4.51-4.91-5.43-3.2-1.09-6.35-2.33-9.11-3.35-.3-.73-.43-.88-.41-1.02q.86-10.19 10.92-10.63c5.96-.26 8.56-2.62 8.99-8.57.08-1.13-.73-2.65-1.62-3.47-2.84-2.64-5.91-5.03-8.84-7.47-.01-.42-.12-.77 0-1.02 5.2-11.41 3.2-9.83 13.9-6.38 3.55 1.14 5.89 1.17 8.28-2.23 2.32-3.3 4.24-5.88.79-9.64-2.05-2.24-3.34-5.17-4.87-7.63.28-.63.34-.96.53-1.16 7.02-7.11 7.31-7.45 15.16-.99 4.3 3.53 6.74.97 10.13-.81 3.59-1.9 3.03-4.46 2.26-7.45-.78-3-1.37-6.05-2.13-9.49 3.39-1.56 6.72-3.09 10.28-4.73 2.3 3.39 4.59 6.5 6.59 9.8 1.41 2.33 3.2 2.89 5.47 1.8 2.74-1.32 7.33.23 7.6-5.06.19-3.86.81-7.69 1.28-11.9 3.63-.38 7.15-.74 11.15-1.15 1 3.56 2.22 7.05 2.92 10.65.61 3.14 2.07 4.56 5.31 4.45 3.37-.11 7.4 1.69 8.57-3.59.03-.15.13-.28.19-.43q4.37-9.56 15.27-6.67c-.2 3.81-.21 7.78-.66 11.7-.6 5.24 4.11 4.58 6.65 6.28 2.11 1.41 4.08 1.72 6.07-.72 2.33-2.88 5.13-5.38 8.05-8.38 2.54 1.51 5.16 2.83 7.45 4.58.76.58 1.21 2.42.9 3.39a40.69 40.69 0 0 1-3.37 7.68c-1.66 2.94-.85 4.69 1.31 7.21 3.71 4.33 7.1 5.14 11.73 1.69 2.2-1.64 4.85-2.68 7.09-3.87.5.22.67.25.78.35q7.15 7.39.31 15.02c-4.35 4.86-4.33 8.66.4 13.33.78.77 2.51.94 3.74.81 4.01-.44 7.98-1.14 12.28-1.79 1.2 3.47 2.35 6.81 3.66 10.59-3.46 1.91-7.04 4.02-10.74 5.87-2.24 1.12-3.11 2.28-2.64 5.04 1.33 7.75 1.15 7.78 8.94 9.31 2.72.53 5.42 1.11 8.44 1.73-.02 3.63-.04 7-.06 10.83-4.36.83-8.57 1.84-12.84 2.4-5.21.69-3.38 5.09-4.5 7.93-1.03 2.62-.16 4.36 2.41 5.64 3.6 1.79 7.05 3.89 10.34 5.73.16.68.34.99.28 1.25-2.02 9.51-2.01 9.4-11.41 8.18-3.68-.48-7.4-2.48-10.41 2.75-2.57 4.47-2.97 7.36 1.12 10.55.97.75 1.72 1.79 2.54 2.72 4.39 5.01 4.26 4.92.38 10.14-1.89 2.54-3.6 3.56-6.48 1.55-1.64-1.15-3.76-1.65-5.32-2.87-3.84-3.02-6.8-2.72-10.4.82-2.72 2.67-3.49 4.73-1.59 7.97.86 1.46 1.28 3.17 1.92 4.76 2.75 6.86 2.59 7.45-4.34 10.63-1.06.49-3.03.2-3.97-.52-1.95-1.49-3.5-3.5-5.21-5.31-4.33-4.57-8.69-5-13.37-1.06-.74.62-1.01 2.15-.98 3.24.1 3.26.21 6.56.8 9.75.57 3.13-.46 4.61-3.49 5.15-2.26.41-4.48 1.06-7.11 1.7Zm-69.91-121.65c-13.09 28.12-.56 62.59 27.45 75.54 28.77 13.3 63.41.4 76.79-28.59 12.92-28-.07-62.56-28.44-75.66-28.48-13.15-62.27-.36-75.8 28.71Z"/><path class="cls-5" d="M2582.52 2096.7c-25.21-11.25-36.03-39.84-24.71-65.32 11.13-25.06 40.25-36.16 65.33-24.91 24.47 10.97 36 40.81 25.18 65.15-11.15 25.09-40.62 36.32-65.8 25.09Zm40.32-35.83c5.12-11.62-.05-25.08-11.56-30.08-11.31-4.92-24.78.58-29.91 12.2-4.96 11.25.36 24.49 11.87 29.52 11.46 5.01 24.52-.13 29.6-11.64ZM2266.26 1990.39c.64.42.77.84.65 1.57-.77 4.56-1.53 9.12-2.2 13.69-.12.85-.48 1.12-1.21 1.33-6.75 1.97-13.49 3.97-20.24 5.96-.56.17-1.12.33-1.8.53 1.2 11.62 2.4 23.2 3.61 34.86 4.51.36 8.93.72 13.35 1.08 3.21.26 6.42.55 9.63.76.8.05 1.14.35 1.42 1.11 1.57 4.26 3.18 8.5 4.86 12.71.34.86.25 1.34-.38 1.99-4.97 5.16-9.87 10.38-14.84 15.55-.72.74-.87 1.21-.2 2.13 6.43 8.78 12.8 17.61 19.18 26.43.18.25.37.5.63.85 1.24-.58 2.46-1.15 3.68-1.73 5.66-2.69 11.33-5.35 16.96-8.09.9-.44 1.39-.25 2.1.35 3.41 2.84 6.9 5.59 10.32 8.42.39.33.82 1.05.72 1.48-1.67 7.22-3.42 14.41-5.16 21.61l32.32 14.45c1.12-1.62 2.19-3.18 3.27-4.74 3.07-4.44 6.16-8.86 9.19-13.33.5-.74.98-.82 1.8-.68 4.42.76 8.85 1.5 13.29 2.13.99.14 1.36.51 1.62 1.4 1.98 6.84 4.01 13.67 6.03 20.51.13.43.27.86.44 1.37 11.58-1.2 23.11-2.4 34.78-3.61.06-.5.13-.98.17-1.46.58-7.09 1.17-14.19 1.71-21.29.07-.93.34-1.38 1.28-1.72 4.18-1.51 8.33-3.1 12.46-4.75.88-.35 1.4-.33 2.1.35 5.19 5 10.44 9.95 15.66 14.92.51.48.86.92 1.69.32 9.09-6.63 18.2-13.22 27.31-19.83.07-.05.11-.13.24-.3-.73-1.55-1.47-3.14-2.23-4.73-2.51-5.29-5-10.58-7.56-15.85-.4-.82-.31-1.3.28-2.01 2.88-3.44 5.69-6.93 8.47-10.45.53-.67.97-.85 1.82-.64 7.09 1.74 14.2 3.43 21.3 5.12.35.08.71.13 1.07.19l14.23-31.82-14.28-9.96c-1.56-1.09-3.1-2.21-4.7-3.24-.64-.41-.78-.83-.66-1.56.77-4.55 1.53-9.11 2.2-13.68.12-.84.46-1.13 1.19-1.34 6.75-1.97 13.49-3.97 20.23-5.96.56-.17 1.13-.33 1.82-.54-1.2-11.6-2.4-23.16-3.61-34.85-3.12-.26-6.18-.51-9.24-.76-4.56-.37-9.12-.76-13.69-1.09-.77-.06-1.16-.26-1.45-1.06-1.59-4.34-3.24-8.66-4.96-12.95-.33-.82-.07-1.22.43-1.74 4.95-5.18 9.86-10.39 14.83-15.55.75-.78.92-1.26.21-2.24-6.35-8.66-12.64-17.38-18.94-26.08-.26-.36-.53-.72-.85-1.15l-10.97 5.2c-3.28 1.56-6.57 3.09-9.82 4.69-.73.36-1.16.24-1.77-.27-3.48-2.89-7-5.75-10.56-8.56-.68-.54-.83-.99-.63-1.82 1.74-7.09 3.42-14.19 5.12-21.29.08-.35.13-.71.19-1.07l-31.82-14.23c-3.58 5.13-7.16 10.26-10.73 15.39-.8 1.15-1.65 2.28-2.39 3.48-.45.73-.93.89-1.78.75-4.42-.77-8.84-1.51-13.28-2.14-1.03-.15-1.42-.52-1.7-1.48-2.01-6.97-4.08-13.93-6.13-20.89-.08-.26-.17-.51-.3-.91-11.57 1.2-23.14 2.4-34.83 3.61-.21 2.58-.42 5.1-.63 7.61-.41 5.11-.85 10.21-1.21 15.32-.06.89-.42 1.2-1.2 1.49-4.21 1.55-8.41 3.13-12.58 4.81-.93.37-1.42.22-2.09-.42-5.13-4.93-10.32-9.8-15.44-14.74-.78-.75-1.27-.92-2.24-.2-8.7 6.38-17.46 12.69-26.19 19.02-.32.23-.64.48-1.03.77 1.75 3.69 3.48 7.33 5.2 10.97 1.54 3.24 3.04 6.49 4.64 9.7.42.84.27 1.31-.31 2-2.87 3.44-5.69 6.93-8.47 10.45-.54.68-.98.83-1.82.63-7.09-1.74-14.19-3.43-21.29-5.12-.35-.08-.71-.13-1.07-.19l-14.23 31.82 14.28 9.96c1.56 1.09 3.1 2.21 4.7 3.24Zm144.91-46.05c40.04 17.92 57.97 65.01 40 105.1-17.88 39.9-64.95 57.84-104.9 39.98-40.07-17.92-58.03-64.99-40.09-105.07 17.89-39.98 64.98-57.92 105-40.01Z"/><ellipse class="cls-51" cx="1791.85" cy="2412.55" rx="166.27" ry="57.12"/><ellipse class="cls-51" cx="3520.17" cy="2534.14" rx="240.97" ry="57.12"/><path class="cls-10" d="M1737.59 2315.08c0 2.74.64 32.31-40.89 42.35s-49.39 28.09-45.42 41.67c11.27 38.57 72.8 16.28 94.25 20.39s51.46-3.8 53.75-27.08c2.28-23.27-7.58-75.1-7.58-75.1l-54.11-2.24Z"/><path class="cls-1" d="M1724.99 2333.7s50.75 6.02 48.76 48.79c-1.99 42.77-16.5 44.3-16.5 44.3 2.21-.86 49.65-.38 49.65-.38s-1.35-83.25-.86-85.93c.48-2.67-9.06-38.19-10.21-38.19s-70.84 9.51-70.84 9.51v21.9Z" style="clip-path:url(#clippath)"/><path class="cls-10" d="M1841.64 2328.48s-3.65 8.67-8.67 53.85 12.32 60.69 53.39 59.33c41.07-1.37 38.79-33.31 38.33-47.46-.46-14.15-14.15-19.62-13.23-56.59l-69.82-9.13Z"/><path class="cls-1" d="M1832.12 2372.56s3.8-16.04 26.33-15.66c22.53.38 25.59-1.69 35.9 11.76 10.31 13.45 12.98 14.21 11.84 31.4-1.15 17.19.76 37.54-9.93 41.68-10.69 4.15 25.59 0 25.59 0l12.22-33.28 1.53-63.18-18.71-25.04s-100.85 1.55-97.39 1.53 12.62 50.79 12.62 50.79Z" style="clip-path:url(#clippath-1)"/><path class="cls-11" d="m1723.62 1724.47-6.09 34.27v554.62s41.25 37.81 105.41 10.31l7.03-587.16-106.35-12.04Z"/><path class="cls-24" d="M1705.51 2029.08s70.94-17.61 80.87 41.68c9.93 59.29 4.77 274.52 4.77 274.52l45.31-14.6 7.97-289.78 18.83-312.99-171.25-11.34-5.68 209.83 19.19 102.68Z" style="clip-path:url(#clippath-2)"/><path class="cls-11" d="m1947.82 1736.51-5.73 586.02s-30.93 50.41-119.15 1.15l7.03-587.16h117.85Z"/><path class="cls-24" d="M1818.65 2023.5s87.65-23.2 91.08 51.56c3.44 74.76-1.72 275.83-1.72 275.83l39.81-12.03 18.9-36.09-8.02-293.01 11.91-171-3.89-114.28-160.11 7.73 12.03 291.3Z" style="clip-path:url(#clippath-3)"/><rect class="cls-15" x="2732.35" y="742.01" width="1231.41" height="1101.07" rx="96.88" ry="96.88"/><rect x="2787.61" y="791.42" width="1120.89" height="1002.25" rx="88.19" ry="88.19" style="fill:url(#linear-gradient)"/><path class="cls-7" d="M2999.41 843.29v9.5"/><path class="cls-6" d="M2999.41 876.08v839.28"/><path class="cls-7" d="M2999.41 1727.01v9.5M3230.01 843.29v9.5"/><path class="cls-6" d="M3230.01 876.08v839.28"/><path class="cls-7" d="M3230.01 1727.01v9.5M3460.6 843.29v9.5"/><path class="cls-6" d="M3460.6 876.08v839.28"/><path class="cls-7" d="M3460.6 1727.01v9.5M3691.2 843.29v9.5"/><path class="cls-6" d="M3691.2 876.08v839.28"/><path class="cls-7" d="M3691.2 1727.01v9.5M3861.37 944h-9.5"/><path class="cls-8" d="M3829.27 944h-979.23"/><path class="cls-7" d="M2838.74 944h-9.5M3861.37 1174.6h-9.5"/><path class="cls-8" d="M3829.27 1174.6h-979.23"/><path class="cls-7" d="M2838.74 1174.6h-9.5M3861.37 1405.2h-9.5"/><path class="cls-8" d="M3829.27 1405.2h-979.23"/><path class="cls-7" d="M2838.74 1405.2h-9.5M3861.37 1635.8h-9.5"/><path class="cls-8" d="M3829.27 1635.8h-979.23"/><path class="cls-7" d="M2838.74 1635.8h-9.5"/><path class="cls-52" d="m3033.68 1670.37-26.08-11.05v783.86h709.86v-394.09l-683.78-378.72z"/><path class="cls-4" d="m3214.86 2030.94-8.05 22.86v389.38H3007.6v-783.86l207.26 371.62z"/><path class="cls-59" d="m3717.46 2049.09-510.65 4.71-199.21-394.48 510.65-4.7 199.21 394.47z"/><path class="cls-44" d="m3214.86 1786.9-110.7 1.02-49.61-98.23 110.7-1.02 49.61 98.23z"/><path class="cls-4" d="m3428.55 1999.17-77.68.71-148.95-294.93 77.69-.72 148.94 294.94z"/><path class="cls-2" d="m3394.85 1978.83-31.03.29-128.19-253.84 31.03-.29 128.19 253.84z"/><path class="cls-4" d="m3540.98 1998.13-77.69.72-148.94-294.94 77.68-.71 148.95 294.93zM3653.4 1997.1l-77.69.71-148.94-294.93 77.69-.72 148.94 294.94z"/><path class="cls-2" d="m3507.27 1977.8-31.03.28-128.19-253.84 31.03-.28 128.19 253.84zM3619.7 1976.76l-31.04.29-128.18-253.84 31.03-.29 128.19 253.84z"/><path class="cls-15" d="m3187.18 1898.95-24.39.23-31.68-62.75 24.38-.22 31.69 62.74zM3230.01 1898.56l-24.39.22-31.69-62.74 24.39-.23 31.69 62.75z"/><path class="cls-4" d="m3272.84 1898.16-24.39.23-31.69-62.75 24.39-.22 31.69 62.74z"/><path class="cls-15" d="m3238.67 2000.91-24.39.23-31.68-62.74 24.39-.23 31.68 62.74z"/><path class="cls-4" d="m3281.5 2000.52-24.39.22-31.68-62.74 24.38-.22 31.69 62.74zM3324.33 2000.13l-24.39.22-31.69-62.74 24.39-.23 31.69 62.75z"/><circle class="cls-10" cx="3271.46" cy="1767.5" r="26.66"/><circle class="cls-10" cx="3421.46" cy="1840.87" r="26.66"/><circle class="cls-10" cx="3547.22" cy="1864.12" r="26.66" transform="rotate(-80.78 3547.355 1864.09)"/><path d="M3162.71 1742.8c1.63-3.46 1.41-7.97-1.07-12.87-5.45-10.8-19.74-19.47-31.92-19.35-6.57.06-11.18 2.67-13.17 6.76l-3.48 5.99c-.8.93-1.41 1.99-1.83 3.15v.02c-1.22 3.33-.85 7.5 1.43 12.01 5.45 10.8 19.74 19.47 31.92 19.35 6.48-.06 11.05-2.6 13.09-6.58l4-6.71c.41-.55.75-1.14 1.05-1.75Z" style="fill:#00b77b"/><path d="M3161.65 1729.93c5.45 10.8 0 19.65-12.16 19.76-12.17.11-26.46-8.55-31.92-19.35-5.45-10.8 0-19.65 12.16-19.76 12.17-.11 26.46 8.55 31.92 19.35Z" style="fill:#00d967"/><path class="cls-4" d="M1738.71 1485.01c-2.17 1.63-13.98 17.92-13.98 17.92s8.02 90.32 2.61 158.7-7.31 71.93-7.31 71.93 52.09 19.73 112.78 19.79c59.96.06 115.45-19.79 115.45-19.79s-18.29-50.26-11.25-147.78l-5.42-59.05-9.75-62.85-183.12 21.13Z"/><g style="clip-path:url(#clippath-4)"><path class="cls-4" d="M1725.16 1585.71s78.18 36.91 199.19 11.99"/><path class="cls-31" d="m1956.77 1587.39 23.03 158.75-133.82 15.17s-76.39-10.84-117.56-16.25c-41.17-5.42-33.05 23.84-40.63-15.17-7.58-39.01-9.21-85.6-9.21-85.6l43.34-44.27s144.65 50.74 234.86-12.63Z"/></g><path class="cls-2" d="M3401.83 2478.08s-5.18 24.74-18.12 25.32c-12.95.58-45.17-20.42-52.93 8.92-7.77 29.34 7.48 41.71 16.97 45.17 9.49 3.45 60.41 31.64 94.65 21 34.23-10.64 17.55-38.84 18.7-62.43s-2.01-35.67-2.01-35.67l-57.25-2.3ZM3662.02 2452.15s3.55 25.03-8.42 29.97c-11.98 4.95-49.42-3.83-46.74 26.4 2.68 30.23 21.23 36.68 31.33 36.69s67.58 9.19 96.14-12.47c28.57-21.66 3.28-42.49-3.67-65.06-6.95-22.57-14.04-32.86-14.04-32.86l-54.61 17.32Z"/><path class="cls-13" transform="rotate(180 1736.145 1176.68)" d="M1448.12 833.03h576.05v687.3h-576.05z"/><path class="cls-23" transform="rotate(180 1716.81 1176.68)" d="M1421.76 833.03h590.09v687.3h-590.09z"/><path class="cls-13" transform="rotate(180 1736.145 1544.82)" d="M1448.12 1520.33h576.05v48.97h-576.05z"/><path class="cls-23" transform="rotate(180 1672.9 1544.82)" d="M1377.86 1520.33h590.09v48.97h-590.09z"/><path transform="rotate(90 1716.81 1176.68)" style="fill:#f5fcff" d="M1410.05 918.54h613.51v516.29h-613.51z"/><path class="cls-44" d="m1911.57 1483.44-216.56-613.51h-102.22l216.55 613.51h102.23z"/><path d="M1957.87 1275.29c1.46 0 2.63-1.18 2.63-2.64V893.93c0-1.45-1.18-2.64-2.63-2.64s-2.64 1.18-2.64 2.64v378.72c0 1.45 1.18 2.64 2.64 2.64Z" style="fill:#e2eeff"/><path class="cls-44" d="m1787.38 1483.44-216.56-613.51h-39.85l216.56 613.51h39.85z"/><path class="cls-13" transform="rotate(90 1461.005 1176.685)" d="M1154.25 1174.34h613.51v4.69h-613.51z"/><path class="cls-13" d="M1413.04 917.13h576.05l3.39-32.86h-576.05l-3.39 32.86z"/><path class="cls-13" d="M1413.04 941.19h576.05l3.39-32.87h-576.05l-3.39 32.87z"/><path class="cls-13" d="M1413.04 970.05h576.05l3.39-32.86h-576.05l-3.39 32.86z"/><path class="cls-13" d="M1413.04 1002.17h576.05l3.39-32.86h-576.05l-3.39 32.86zM1413.04 1040.65h576.05l3.39-32.86h-576.05l-3.39 32.86zM1413.04 1083.95h576.05l3.39-32.86h-576.05l-3.39 32.86z"/><g class="cls-30"><path class="cls-19" d="M1229.19 2168.83h-40.46l73.25 126.24H969.44l-20.02 34.5h373.03l-93.26-160.74z"/></g><path class="cls-2" d="M778.56 793.36c-1.34 0-2.65-.62-3.5-1.78-1.4-1.93-.98-4.63.95-6.03l296.91-215.96c1.93-1.4 4.63-.98 6.03.95 1.4 1.93.98 4.63-.95 6.03L781.09 792.53c-.77.56-1.66.83-2.54.83ZM2263.84 793.36c-.28 0-.57-.03-.86-.09L1195.57 577.31a4.32 4.32 0 1 1 1.71-8.47L2264.69 784.8a4.32 4.32 0 0 1 3.38 5.09c-.41 2.05-2.22 3.46-4.23 3.46Z"/><path class="cls-2" d="M2263.84 793.36c-.14 0-.29 0-.43-.02L1196 686.77a4.322 4.322 0 0 1-3.87-4.73c.24-2.38 2.35-4.12 4.73-3.87l1067.41 106.57c2.37.24 4.11 2.35 3.87 4.73a4.315 4.315 0 0 1-4.29 3.89ZM838.12 863.49c-1.27 0-2.47-.56-3.29-1.52l-59.57-70.13a4.312 4.312 0 0 1-.63-4.61 4.326 4.326 0 0 1 3.92-2.51h119.14c1.68 0 3.21.98 3.92 2.51.71 1.53.46 3.33-.63 4.61l-59.57 70.13a4.31 4.31 0 0 1-3.29 1.52Zm-50.23-70.13 50.23 59.14 50.23-59.14H787.89Z"/><path class="cls-2" d="M957.24 863.49c-1.27 0-2.47-.56-3.29-1.52l-59.55-70.13a4.312 4.312 0 0 1-.63-4.61 4.326 4.326 0 0 1 3.92-2.51h119.13c1.68 0 3.21.98 3.92 2.51.71 1.53.46 3.33-.63 4.61l-59.58 70.13a4.31 4.31 0 0 1-3.29 1.52Zm-50.22-70.13 50.22 59.14 50.24-59.14H907.02Z"/><path class="cls-2" d="M1076.38 863.49c-1.27 0-2.47-.56-3.29-1.52l-59.56-70.13a4.312 4.312 0 0 1-.63-4.61 4.326 4.326 0 0 1 3.92-2.51h119.12c1.68 0 3.21.98 3.92 2.51.71 1.53.46 3.33-.63 4.61l-59.56 70.13a4.31 4.31 0 0 1-3.29 1.52Zm-50.22-70.13 50.22 59.14 50.23-59.14h-100.45Z"/><path class="cls-2" d="M1195.51 863.49c-1.27 0-2.47-.56-3.29-1.52l-59.57-70.13a4.312 4.312 0 0 1-.63-4.61 4.326 4.326 0 0 1 3.92-2.51h119.14c1.68 0 3.21.98 3.92 2.51.71 1.53.46 3.33-.63 4.61l-59.57 70.13a4.31 4.31 0 0 1-3.29 1.52Zm-50.23-70.13 50.23 59.14 50.23-59.14h-100.46Z"/><path class="cls-2" d="M1314.63 863.49c-1.27 0-2.47-.56-3.29-1.52l-59.55-70.13a4.312 4.312 0 0 1-.63-4.61 4.326 4.326 0 0 1 3.92-2.51h119.12c1.68 0 3.21.98 3.92 2.51.71 1.53.46 3.33-.63 4.61l-59.57 70.13a4.31 4.31 0 0 1-3.29 1.52Zm-50.22-70.13 50.22 59.14 50.23-59.14h-100.45Z"/><path class="cls-2" d="M1433.77 863.49c-1.27 0-2.47-.56-3.29-1.52l-59.57-70.13a4.312 4.312 0 0 1-.63-4.61 4.326 4.326 0 0 1 3.92-2.51h119.12c1.68 0 3.21.98 3.92 2.51.71 1.53.46 3.33-.63 4.61l-59.55 70.13c-.82.97-2.02 1.52-3.29 1.52Zm-50.23-70.13 50.23 59.14 50.22-59.14h-100.45Z"/><path class="cls-2" d="M1552.9 863.49c-1.27 0-2.47-.56-3.29-1.52l-59.58-70.13a4.312 4.312 0 0 1-.63-4.61 4.326 4.326 0 0 1 3.92-2.51h119.14c1.68 0 3.21.98 3.92 2.51.71 1.53.46 3.33-.63 4.61l-59.56 70.13a4.31 4.31 0 0 1-3.29 1.52Zm-50.24-70.13 50.24 59.14 50.22-59.14h-100.46Z"/><path class="cls-2" d="M1672.02 863.49c-1.27 0-2.47-.56-3.29-1.52l-59.56-70.13a4.312 4.312 0 0 1-.63-4.61 4.326 4.326 0 0 1 3.92-2.51h119.13c1.68 0 3.21.98 3.92 2.51.71 1.53.46 3.33-.63 4.61l-59.57 70.13a4.31 4.31 0 0 1-3.29 1.52Zm-50.22-70.13 50.22 59.14 50.23-59.14H1621.8Z"/><path class="cls-2" d="M1791.15 863.49c-1.27 0-2.47-.56-3.29-1.52l-59.56-70.13a4.312 4.312 0 0 1-.63-4.61 4.326 4.326 0 0 1 3.92-2.51h119.12c1.68 0 3.21.98 3.92 2.51.71 1.53.46 3.33-.63 4.61l-59.56 70.13a4.31 4.31 0 0 1-3.29 1.52Zm-50.23-70.13 50.22 59.14 50.22-59.14h-100.45ZM838.12 863.49c-2.39 0-4.32-1.93-4.32-4.32v-70.13c0-2.39 1.93-4.32 4.32-4.32s4.32 1.93 4.32 4.32v70.13c0 2.39-1.93 4.32-4.32 4.32ZM957.24 863.49c-2.39 0-4.32-1.93-4.32-4.32v-70.13c0-2.39 1.93-4.32 4.32-4.32s4.32 1.93 4.32 4.32v70.13c0 2.39-1.93 4.32-4.32 4.32ZM1076.37 863.49c-2.39 0-4.32-1.93-4.32-4.32v-70.13c0-2.39 1.93-4.32 4.32-4.32s4.32 1.93 4.32 4.32v70.13c0 2.39-1.93 4.32-4.32 4.32ZM1195.5 863.49c-2.39 0-4.32-1.93-4.32-4.32v-70.13c0-2.39 1.93-4.32 4.32-4.32s4.32 1.93 4.32 4.32v70.13c0 2.39-1.93 4.32-4.32 4.32ZM1314.63 863.49c-2.39 0-4.32-1.93-4.32-4.32v-70.13c0-2.39 1.93-4.32 4.32-4.32s4.32 1.93 4.32 4.32v70.13c0 2.39-1.93 4.32-4.32 4.32ZM1433.76 863.49c-2.39 0-4.32-1.93-4.32-4.32v-70.13c0-2.39 1.93-4.32 4.32-4.32s4.32 1.93 4.32 4.32v70.13c0 2.39-1.93 4.32-4.32 4.32ZM1552.88 863.49c-2.39 0-4.32-1.93-4.32-4.32v-70.13c0-2.39 1.93-4.32 4.32-4.32s4.32 1.93 4.32 4.32v70.13c0 2.39-1.93 4.32-4.32 4.32ZM1672.01 863.49c-2.39 0-4.32-1.93-4.32-4.32v-70.13c0-2.39 1.93-4.32 4.32-4.32s4.32 1.93 4.32 4.32v70.13c0 2.39-1.93 4.32-4.32 4.32Z"/><path class="cls-2" d="M1791.14 863.49c-2.39 0-4.32-1.93-4.32-4.32v-70.13c0-2.39 1.93-4.32 4.32-4.32s4.32 1.93 4.32 4.32v70.13c0 2.39-1.93 4.32-4.32 4.32ZM1908.37 863.49c-1.27 0-2.47-.56-3.29-1.52l-59.56-70.13a4.312 4.312 0 0 1-.63-4.61 4.326 4.326 0 0 1 3.92-2.51h119.13c1.68 0 3.21.98 3.92 2.51.71 1.53.46 3.33-.63 4.61l-59.57 70.13a4.31 4.31 0 0 1-3.29 1.52Zm-50.23-70.13 50.23 59.14 50.23-59.14h-100.46Z"/><path class="cls-2" d="M1908.36 863.49c-2.39 0-4.32-1.93-4.32-4.32v-70.13c0-2.39 1.93-4.32 4.32-4.32s4.32 1.93 4.32 4.32v70.13c0 2.39-1.93 4.32-4.32 4.32ZM2025.6 863.49c-1.27 0-2.47-.56-3.29-1.52l-59.56-70.13a4.312 4.312 0 0 1-.63-4.61 4.326 4.326 0 0 1 3.92-2.51h119.12c1.68 0 3.21.98 3.92 2.51.71 1.53.46 3.33-.63 4.61l-59.56 70.13a4.31 4.31 0 0 1-3.29 1.52Zm-50.23-70.13 50.23 59.14 50.22-59.14h-100.45Z"/><path class="cls-2" d="M2025.58 863.49c-2.39 0-4.32-1.93-4.32-4.32v-70.13c0-2.39 1.93-4.32 4.32-4.32s4.32 1.93 4.32 4.32v70.13c0 2.39-1.93 4.32-4.32 4.32ZM2144.72 863.49c-1.27 0-2.47-.56-3.29-1.52l-59.57-70.13a4.312 4.312 0 0 1-.63-4.61 4.326 4.326 0 0 1 3.92-2.51h119.13c1.68 0 3.21.98 3.92 2.51.71 1.53.46 3.33-.63 4.61l-59.56 70.13a4.31 4.31 0 0 1-3.29 1.52Zm-50.23-70.13 50.23 59.14 50.22-59.14h-100.45Z"/><path class="cls-2" d="M2144.71 863.49c-2.39 0-4.32-1.93-4.32-4.32v-70.13c0-2.39 1.93-4.32 4.32-4.32s4.32 1.93 4.32 4.32v70.13c0 2.39-1.93 4.32-4.32 4.32ZM2263.84 863.49c-1.27 0-2.47-.56-3.29-1.52l-59.56-70.13a4.312 4.312 0 0 1-.63-4.61 4.326 4.326 0 0 1 3.92-2.51h119.13c1.68 0 3.21.98 3.92 2.51.71 1.53.46 3.33-.63 4.61l-59.57 70.13a4.31 4.31 0 0 1-3.29 1.52Zm-50.22-70.13 50.22 59.14 50.23-59.14h-100.45Z"/><path class="cls-2" d="M2263.83 863.49c-2.39 0-4.32-1.93-4.32-4.32v-70.13c0-2.39 1.93-4.32 4.32-4.32s4.32 1.93 4.32 4.32v70.13c0 2.39-1.93 4.32-4.32 4.32ZM2382.98 863.49c-1.27 0-2.47-.56-3.29-1.52l-59.57-70.13a4.312 4.312 0 0 1-.63-4.61 4.326 4.326 0 0 1 3.92-2.51h119.13c1.68 0 3.21.98 3.92 2.51.71 1.53.46 3.33-.63 4.61l-59.56 70.13a4.31 4.31 0 0 1-3.29 1.52Zm-50.23-70.13 50.23 59.14 50.22-59.14h-100.45Z"/><path class="cls-2" d="M2382.96 863.49c-2.39 0-4.32-1.93-4.32-4.32v-70.13c0-2.39 1.93-4.32 4.32-4.32s4.32 1.93 4.32 4.32v70.13c0 2.39-1.93 4.32-4.32 4.32Z"/><path class="cls-2" d="M2442.54 864.4H778.55c-2.39 0-4.32-1.93-4.32-4.32v-71.04c0-2.39 1.93-4.32 4.32-4.32h1663.98c2.39 0 4.32 1.93 4.32 4.32v71.04c0 2.39-1.93 4.32-4.32 4.32Zm-1659.67-8.64h1655.34v-62.4H782.87v62.4ZM1196.42 615.6c-.77 0-1.53-.2-2.21-.61l-119.42-71.19a4.318 4.318 0 0 1 0-7.42l119.42-71.17a4.328 4.328 0 0 1 6.54 3.72v142.36c0 1.55-.84 2.99-2.19 3.76-.66.38-1.4.56-2.13.56Zm-110.98-75.51 106.66 63.59V476.53l-106.66 63.57Z"/><path class="cls-2" d="M1196.42 757.97c-.77 0-1.53-.2-2.21-.61l-119.42-71.18a4.318 4.318 0 0 1 0-7.42l119.42-71.19c1.34-.8 2.99-.81 4.35-.05 1.35.77 2.19 2.2 2.19 3.76v142.37c0 1.55-.84 2.99-2.19 3.76-.66.38-1.4.56-2.13.56Zm-110.98-75.5 106.66 63.58V618.89l-106.66 63.59ZM1196.42 1042.7c-.77 0-1.53-.2-2.21-.61l-119.42-71.18a4.318 4.318 0 0 1 0-7.42l119.42-71.2c1.34-.8 3-.81 4.35-.05 1.35.77 2.19 2.2 2.19 3.76v142.37a4.32 4.32 0 0 1-4.32 4.32Zm-110.98-75.5 106.66 63.57V903.61l-106.66 63.59Z"/><path class="cls-2" d="M1196.42 1185.07c-.77 0-1.53-.2-2.21-.61l-119.42-71.19a4.318 4.318 0 0 1 0-7.42l119.42-71.18c1.34-.8 2.99-.81 4.35-.05 1.35.77 2.19 2.2 2.19 3.76v142.37c0 1.55-.84 2.99-2.19 3.76-.66.38-1.4.56-2.13.56Zm-110.98-75.51 106.66 63.59v-127.16l-106.66 63.58Z"/><path class="cls-2" d="M1196.42 1327.44c-.77 0-1.53-.2-2.21-.61l-119.42-71.19a4.318 4.318 0 0 1 0-7.42l119.42-71.18c1.34-.8 2.99-.81 4.35-.05 1.35.77 2.19 2.2 2.19 3.76v142.37c0 1.55-.84 2.99-2.19 3.76-.66.38-1.4.56-2.13.56Zm-110.98-75.51 106.66 63.58v-127.16l-106.66 63.58Z"/><path class="cls-2" d="M1196.42 1469.81c-.77 0-1.53-.2-2.21-.61l-119.42-71.19a4.318 4.318 0 0 1 0-7.42l119.42-71.17a4.328 4.328 0 0 1 6.54 3.72v142.36c0 1.55-.84 2.99-2.19 3.76-.66.38-1.4.56-2.13.56Zm-110.98-75.52 106.66 63.59v-127.16l-106.66 63.57Z"/><path class="cls-2" d="M1196.42 1612.17c-.77 0-1.53-.2-2.21-.61l-119.42-71.18a4.318 4.318 0 0 1 0-7.42l119.42-71.18c1.34-.8 2.99-.81 4.35-.05 1.35.77 2.19 2.2 2.19 3.76v142.36c0 1.55-.84 2.99-2.19 3.76-.66.38-1.4.56-2.13.56Zm-110.98-75.5 106.66 63.58V1473.1l-106.66 63.58Z"/><path class="cls-2" d="M1196.42 1754.53c-.77 0-1.53-.2-2.21-.61l-119.42-71.18a4.318 4.318 0 0 1 0-7.42l119.42-71.18c1.34-.8 2.99-.81 4.35-.05 1.35.77 2.19 2.2 2.19 3.76v142.36c0 1.55-.84 2.99-2.19 3.76-.66.38-1.4.56-2.13.56Zm-110.98-75.5 106.66 63.58v-127.16l-106.66 63.58ZM1196.42 544.41H1077c-2.39 0-4.32-1.93-4.32-4.32s1.93-4.32 4.32-4.32h119.42c2.39 0 4.32 1.93 4.32 4.32s-1.93 4.32-4.32 4.32ZM1196.42 686.79H1077c-2.39 0-4.32-1.93-4.32-4.32s1.93-4.32 4.32-4.32h119.42c2.39 0 4.32 1.93 4.32 4.32s-1.93 4.32-4.32 4.32ZM1196.42 971.51H1077c-2.39 0-4.32-1.93-4.32-4.32s1.93-4.32 4.32-4.32h119.42c2.39 0 4.32 1.93 4.32 4.32s-1.93 4.32-4.32 4.32ZM1196.42 1113.88H1077c-2.39 0-4.32-1.93-4.32-4.32s1.93-4.32 4.32-4.32h119.42c2.39 0 4.32 1.93 4.32 4.32s-1.93 4.32-4.32 4.32ZM1196.42 1256.25H1077c-2.39 0-4.32-1.93-4.32-4.32s1.93-4.32 4.32-4.32h119.42c2.39 0 4.32 1.93 4.32 4.32s-1.93 4.32-4.32 4.32ZM1196.42 1398.6H1077c-2.39 0-4.32-1.93-4.32-4.32s1.93-4.32 4.32-4.32h119.42c2.39 0 4.32 1.93 4.32 4.32s-1.93 4.32-4.32 4.32ZM1196.42 1540.98H1077c-2.39 0-4.32-1.93-4.32-4.32s1.93-4.32 4.32-4.32h119.42c2.39 0 4.32 1.93 4.32 4.32s-1.93 4.32-4.32 4.32Z"/><path class="cls-2" d="M1196.42 1683.34H1077c-2.39 0-4.32-1.93-4.32-4.32s1.93-4.32 4.32-4.32h119.42c2.39 0 4.32 1.93 4.32 4.32s-1.93 4.32-4.32 4.32ZM1196.42 1895.63c-.77 0-1.53-.2-2.21-.61l-119.42-71.19a4.318 4.318 0 0 1 0-7.42l119.42-71.18c1.34-.8 2.99-.81 4.35-.05 1.35.77 2.19 2.2 2.19 3.76v142.37c0 1.55-.84 2.99-2.19 3.76-.66.38-1.4.56-2.13.56Zm-110.98-75.52 106.66 63.59v-127.16l-106.66 63.58Z"/><path class="cls-2" d="M1196.42 1824.43H1077c-2.39 0-4.32-1.93-4.32-4.32s1.93-4.32 4.32-4.32h119.42c2.39 0 4.32 1.93 4.32 4.32s-1.93 4.32-4.32 4.32ZM1196.42 2036.69c-.77 0-1.53-.2-2.21-.61l-119.42-71.19a4.318 4.318 0 0 1 0-7.42l119.42-71.17a4.328 4.328 0 0 1 6.54 3.72v142.36c0 1.55-.84 2.99-2.19 3.76-.66.38-1.4.56-2.13.56Zm-110.98-75.51 106.66 63.59v-127.15l-106.66 63.57Z"/><path class="cls-2" d="M1196.42 1965.5H1077c-2.39 0-4.32-1.93-4.32-4.32s1.93-4.32 4.32-4.32h119.42c2.39 0 4.32 1.93 4.32 4.32s-1.93 4.32-4.32 4.32ZM1196.42 2177.77c-.77 0-1.53-.2-2.21-.61l-119.42-71.19a4.318 4.318 0 0 1 0-7.42l119.42-71.17c1.34-.8 3-.81 4.35-.05 1.35.77 2.19 2.2 2.19 3.76v142.36c0 1.55-.84 2.99-2.19 3.76-.66.38-1.4.56-2.13.56Zm-110.98-75.51 106.66 63.58v-127.15l-106.66 63.57Z"/><path class="cls-2" d="M1196.42 2106.56H1077c-2.39 0-4.32-1.93-4.32-4.32s1.93-4.32 4.32-4.32h119.42c2.39 0 4.32 1.93 4.32 4.32s-1.93 4.32-4.32 4.32Z"/><path class="cls-2" d="M1196.42 2177.77h-120.96c-2.39 0-4.32-1.93-4.32-4.32V468.92c0-2.39 1.93-4.32 4.32-4.32h120.96c2.39 0 4.32 1.93 4.32 4.32v1704.53c0 2.39-1.93 4.32-4.32 4.32Zm-116.64-8.64h112.32V473.24h-112.32v1695.89Z"/><path class="cls-18" d="M1322.45 2338.14c3.08 0 5.92-1.64 7.46-4.29s1.54-5.92 0-8.57l-93.26-160.74a8.64 8.64 0 0 0-7.46-4.29h-186.51c-3.08 0-5.92 1.64-7.46 4.29l-93.26 160.74c-1.54 2.65-1.54 5.92 0 8.57s4.39 4.29 7.46 4.29h373.03Z"/><path class="cls-2" d="M1042.68 2168.83h186.51l93.26 160.74H949.42l93.26-160.74m0-17.16c-6.16 0-11.84 3.27-14.92 8.58l-93.26 160.74a17.07 17.07 0 0 0 0 17.15c3.08 5.31 8.77 8.58 14.92 8.58h373.03c6.16 0 11.85-3.27 14.92-8.58a17.07 17.07 0 0 0 0-17.15l-93.26-160.74a17.248 17.248 0 0 0-14.92-8.58h-186.51Z"/><path class="cls-18" d="M956.52 1002.16c4.76 0 8.62-3.84 8.62-8.58V859.16c0-4.74-3.86-8.58-8.62-8.58H784.26c-4.76 0-8.62 3.84-8.62 8.58v134.42c0 4.74 3.86 8.58 8.62 8.58h172.26Z"/><path class="cls-2" d="M784.25 859.17h172.26v134.42H784.25V859.17m0-17.15c-9.51 0-17.23 7.68-17.23 17.15v134.42c0 9.47 7.72 17.15 17.23 17.15h172.26c9.52 0 17.23-7.68 17.23-17.15V859.17c0-9.47-7.71-17.15-17.23-17.15H784.25ZM1031.17 735.76h207.38l98.27 186.9v186.91h-305.64v-373.8m-.01-17.16c-9.52 0-17.23 7.68-17.23 17.15v373.8c0 9.47 7.71 17.15 17.23 17.15h305.64c9.52 0 17.23-7.68 17.23-17.15V922.65c0-2.77-.67-5.5-1.96-7.95l-98.27-186.9c-2.97-5.65-8.86-9.2-15.27-9.2h-207.38Z"/><path d="M1124.11 764.19h97.11l84.79 162.19v36.6h-181.9V764.2m0-11.71c-6.5 0-11.76 5.24-11.76 11.71v198.78c0 6.46 5.26 11.71 11.76 11.71h181.9c6.49 0 11.76-5.24 11.76-11.71v-36.6c0-1.88-.45-3.74-1.33-5.41l-84.78-162.19c-2.03-3.87-6.05-6.3-10.44-6.3h-97.11Z" style="fill:#404041"/><path class="cls-10" d="M1505.15 2413.65c4.76 0 8.62-3.84 8.62-8.57v-110c0-4.73-3.86-8.57-8.62-8.57H814.32c-4.76 0-8.62 3.84-8.62 8.57v110c0 4.73 3.86 8.57 8.62 8.57h690.83Z"/><path class="cls-2" d="M814.33 2295.07h690.83v110H814.33v-110m0-17.15c-9.52 0-17.23 7.68-17.23 17.15v110c0 9.47 7.71 17.15 17.23 17.15h690.83c9.52 0 17.23-7.68 17.23-17.15v-110c0-9.47-7.71-17.15-17.23-17.15H814.33Z"/><path class="cls-42" d="m1002.73 2277.82 51.73-89.39h103.45l51.73 89.39h-206.91z"/><path style="fill:#96bae2" d="m2244.29 902.45 24.25 491.87 59.58-.03 14.34-491.84h-98.17z"/><path class="cls-55" d="m2244.29 1394.32-65.08 71.53 51.84 103.17-9.93-95.48 42.73-39.53-19.56-39.69zM2353.49 1394.32l65.08 71.53-51.85 103.17 9.93-95.48-42.72-39.53 19.56-39.69z"/><circle class="cls-17" cx="2298.34" cy="1394.3" r="59.28" transform="rotate(-80.78 2298.425 1394.292)"/><circle class="cls-2" cx="2298.34" cy="1394.3" r="35.59" transform="rotate(-22.5 2298.334 1394.312)"/><path class="cls-17" d="M2392.27 836.35c0 55.55-45.28 100.59-101.09 100.59S2190.1 891.9 2190.1 836.35s45.26-100.59 101.08-100.59 101.09 45.04 101.09 100.59Z"/><path class="cls-2" d="M2357.62 836.35c0 36.53-29.75 66.1-66.44 66.1s-66.42-29.57-66.42-66.1 29.73-66.1 66.42-66.1 66.44 29.58 66.44 66.1Z"/><path class="cls-17" d="M2332.96 836.35c0 22.97-18.71 41.58-41.78 41.58s-41.79-18.61-41.79-41.58 18.71-41.6 41.79-41.6 41.78 18.62 41.78 41.6Z"/><g class="cls-30"><path class="cls-19" d="M915.35 859.17h41.17v134.42h-41.17z"/></g><path class="cls-10" d="M1336.81 1118.14c4.76 0 8.62-3.84 8.62-8.58V922.65c0-1.39-.34-2.75-.98-3.98l-98.27-186.89a8.622 8.622 0 0 0-7.63-4.6h-207.38c-4.76 0-8.62 3.84-8.62 8.58v373.8c0 4.74 3.86 8.58 8.62 8.58h305.64Z"/><path class="cls-1" d="M1238.54 735.76h-6.05l89.96 171.09v186.92h-291.28v15.79h305.64V922.65l-98.27-186.89z"/><path class="cls-4" d="M1306.01 968.83c3.25 0 5.88-2.62 5.88-5.86v-36.6c0-.94-.23-1.87-.67-2.7l-84.79-162.19a5.871 5.871 0 0 0-5.22-3.15h-97.11c-3.25 0-5.88 2.62-5.88 5.86v198.78c0 3.23 2.64 5.86 5.88 5.86H1306Z"/><path class="cls-9" d="M1043.69 753.65H1077v312.86h-33.31z"/><path class="cls-42" d="M790.31 867.71h50.43v99.49h-50.43z"/><path class="cls-9" d="M840.74 2313.49h473.89v36.59H840.74z"/><path class="cls-1" d="M1452.26 2295.07h53.56v109.51h-53.56z"/><path class="cls-4" d="m1788.28 1314.89-4.53-.3s-87.85-6.74-120.35 59.9c-32.51 66.64-73.14 194.5-50.93 216.71 22.21 22.21 86.45-.54 145.35-34.67l-5.57-46.05s-74.76 31.96-79.1 11.38c-4.33-20.59 44.97-102.94 44.97-102.94l6.6 84.02 186.27-16.84 10.29 68.26s51.47 30.88 83.43 18.42c31.96-12.46 17.88-68.26 6.5-95.89-11.38-27.63-51.96-143.39-102.39-156.57-53.91-14.09-69.13-8.96-69.13-8.96l-51.41 3.54Z"/><g style="clip-path:url(#clippath-5)"><path class="cls-31" d="M1625.48 1460.63c-2.17 3.79-29.26 101.31-3.79 112.15 25.46 10.84 127.57-22.75 127.57-22.75l-.25 26.55-39.55 15.17-47.13 15.71-59.05-1.63-5.42-36.3-8.13-39.55 35.76-69.35ZM1713.79 1441.67l4.33-22.75s10.84-39.01-1.08-67.72c0 0 10.84 13.54 11.38 35.76.54 22.21-7.27 70.49-7.27 70.49l-7.36 1.57M1909.91 1354.44s-2.17 33.05 1.08 75.85l7.58 1.63s-7.58-43.34-8.67-77.47ZM1927.79 1533.77s91.02 67.72 101.85-12.19l-7.58 52.82-34.67 13.54-59.59-1.08-15.17-22.75 15.17-30.34Z"/></g><path class="cls-15" d="m1756.12 1409.7-7.11 223.75h189.07l22.75-223.75h-204.71z"/><g style="clip-path:url(#clippath-6)"><path d="M1744.13 1540.81c1.63 0 89.39-39.01 89.39-39.01s10.29 16.79-27.09 43.34c-37.38 26.55 79.79 43.1 114.39 6.11 34.6-36.99 43.7-65.24 43.7-65.24l-11.26 147.44-17.34 17.88-207.43-8.62 15.64-101.91Z" style="fill:#005bfc"/></g><path class="cls-57" d="M1749.23 1522.88s7.82-2.46 31.49-19.93c23.67-17.47 39.39-25.22 50.57-4.57s-22.09 40.54-49.04 46.03c-26.96 5.49-33.02 4.53-33.02 4.53v-26.06Z"/><path class="cls-45" d="M1752.69 1517.51s-3.96 21.13 14.19 18.69c18.15-2.44 54.18-4.88 66.64-44.43l4.33 25.73-10.29 24.65-38.47 6.85-31.69 3.44-10.56.27-4.33-23.57 4.88-11.65h5.31Z" style="clip-path:url(#clippath-7)"/><path d="M2659.47 1753.34H1454.04c-47.46 0-85.93 55.65-85.93 124.3s38.47 124.32 85.93 124.32h1205.43c47.46 0 85.93-55.65 85.93-124.32s-38.47-124.3-85.93-124.3Z" style="fill:#739ad8"/><path class="cls-12" d="M1476.11 1816.27c-33.84 0-61.37 27.54-61.37 61.37s27.53 61.38 61.37 61.38 61.38-27.55 61.38-61.38-27.53-61.37-61.38-61.37Z"/><path class="cls-11" d="M1476.11 1846.18c-17.35 0-31.47 14.13-31.47 31.47s14.12 31.47 31.47 31.47 31.47-14.11 31.47-31.47-14.11-31.47-31.47-31.47Z"/><path class="cls-12" d="M1669.54 1816.27c-33.84 0-61.37 27.54-61.37 61.37s27.53 61.38 61.37 61.38 61.38-27.55 61.38-61.38-27.53-61.37-61.38-61.37Z"/><path class="cls-11" d="M1669.54 1846.18c-17.35 0-31.47 14.13-31.47 31.47s14.12 31.47 31.47 31.47 31.47-14.11 31.47-31.47-14.11-31.47-31.47-31.47Z"/><path class="cls-12" d="M1862.97 1816.27c-33.84 0-61.37 27.54-61.37 61.37s27.53 61.38 61.37 61.38 61.38-27.55 61.38-61.38-27.53-61.37-61.38-61.37Z"/><path class="cls-11" d="M1862.97 1846.18c-17.35 0-31.47 14.13-31.47 31.47s14.12 31.47 31.47 31.47 31.47-14.11 31.47-31.47-14.11-31.47-31.47-31.47Z"/><path class="cls-12" d="M2056.4 1816.27c-33.84 0-61.37 27.54-61.37 61.37s27.53 61.38 61.37 61.38 61.38-27.55 61.38-61.38-27.53-61.37-61.38-61.37Z"/><path class="cls-11" d="M2056.4 1846.18c-17.35 0-31.47 14.13-31.47 31.47s14.12 31.47 31.47 31.47 31.47-14.11 31.47-31.47-14.11-31.47-31.47-31.47Z"/><path class="cls-12" d="M2249.83 1816.27c-33.84 0-61.37 27.54-61.37 61.37s27.53 61.38 61.37 61.38 61.38-27.55 61.38-61.38-27.53-61.37-61.38-61.37Z"/><path class="cls-11" d="M2249.83 1846.18c-17.35 0-31.47 14.13-31.47 31.47s14.12 31.47 31.47 31.47 31.47-14.11 31.47-31.47-14.11-31.47-31.47-31.47Z"/><path class="cls-12" d="M2443.26 1816.27c-33.84 0-61.37 27.54-61.37 61.37s27.53 61.38 61.37 61.38 61.38-27.55 61.38-61.38-27.53-61.37-61.38-61.37Z"/><path class="cls-11" d="M2443.26 1846.18c-17.35 0-31.47 14.13-31.47 31.47s14.12 31.47 31.47 31.47 31.47-14.11 31.47-31.47-14.11-31.47-31.47-31.47Z"/><path class="cls-12" d="M2636.69 1816.27c-33.84 0-61.37 27.54-61.37 61.37s27.53 61.38 61.37 61.38 61.38-27.55 61.38-61.38-27.53-61.37-61.38-61.37Z"/><path class="cls-11" d="M2636.69 1846.18c-17.35 0-31.47 14.13-31.47 31.47s14.12 31.47 31.47 31.47 31.47-14.11 31.47-31.47-14.11-31.47-31.47-31.47Z"/><path class="cls-11" d="M2745.41 1877.64c0-14.58-1.75-28.57-4.94-41.58l10.27-5.27c-6.7-27.26-18.88-50.57-35.25-67.39l-6.32 12.85c-13.99-14.38-31.06-22.87-49.53-22.92l-.17-15.75h-52.68v15.75h-52.7v-15.75h-52.7v15.75h-52.69v-15.75h-52.68v15.75h-52.69v-15.75h-52.7v15.75h-52.69v-15.75h-52.69v15.75h-52.69v-15.75h-52.69v15.75h-52.69v-15.75h-52.69v15.75h-52.69v-15.75h-52.69v15.75h-52.69v-15.75h-52.69v15.75h-52.69v-15.75h-52.69v15.75h-52.69v-15.75h-52.69v15.75h-52.69v-15.75h-46.26c-2.43 0-4.83.13-7.21.38l.79 15.74c-18.21 1.95-34.84 12.07-48.13 27.88l-6.91-12.16c-15.52 18.47-26.53 42.97-31.86 70.87l10.51 4.18a177.414 177.414 0 0 0-3.12 33.16c0 14.69 1.77 28.74 5 41.82l-10.25 5.3c6.73 27.25 18.95 50.52 35.34 67.3l6.3-12.88c13.98 14.3 31.04 22.76 49.47 22.79l.08 15.74h52.52v-15.74h52.69v15.74h52.69v-15.74h52.69v15.74h52.69v-15.74H1770v15.74h52.69v-15.74h52.69v15.74h52.68v-15.74h52.7v15.74h52.69v-15.74h52.69v15.74h52.69v-15.74h52.69v15.74h52.69v-15.74h52.7v15.74h52.69v-15.74h52.69v15.74h52.69v-15.74h52.69v15.74h52.7v-15.74h52.69v15.74h46.42c2.36 0 4.7-.12 7.02-.36l-.76-15.75c18.21-1.89 34.85-11.97 48.15-27.74l6.91 12.18c15.54-18.42 26.6-42.89 31.95-70.75l-10.51-4.22c2.05-10.65 3.16-21.84 3.16-33.42Zm-85.94 105.44H1454.04c-40.18 0-72.87-47.28-72.87-105.43s32.69-105.44 72.87-105.44h1205.43c40.19 0 72.88 47.31 72.88 105.44s-32.69 105.43-72.88 105.43Z"/><path class="cls-2" d="M1476.12 1644.6h174.25v92.99h-174.25zM1790.27 1644.6h174.25v92.99h-174.25zM2104.42 1644.6h174.25v92.99h-174.25zM2418.57 1644.6h174.25v92.99h-174.25z"/><path class="cls-57" d="M3672.33 1551.78s18.62 89.78 12.5 114.26c-6.12 24.48-57.64 68.86-57.64 68.86v-179.55l45.14-3.57Z"/><path class="cls-45" d="M3683.85 1575.17s-36.12 1.81-34.31 11.92c1.81 10.11 8.76 65.74 7.09 74.4-1.67 8.67-25.15 38.29-25.15 38.29l-7.22-141.58 46.59-9.39 8.31 9.39 4.7 16.98Z" style="clip-path:url(#clippath-8)"/><path class="cls-57" d="M3326.74 1544.12c0 1.53-28.06 90.8-10.2 134.15 17.85 43.36 77.02 68.86 77.02 68.86l4.59-55.09s-36.73-11.22-35.2-40.81c1.53-29.59 22.44-99.47 22.44-99.47l-58.66-7.65Z"/><path class="cls-45" d="M3302.51 1574.72s57.66-.81 51.86 27.63c-5.79 28.44-21.23 72.43 20.21 102.45 41.45 30.02 41.45 18.13 41.45 18.13s1.63-76.79-.81-79.59c-2.44-2.8-3.25-90.8-5.69-99.21s-94.29-35.23-94.29-35.23l-12.72 65.83Z" style="clip-path:url(#clippath-9)"/><path class="cls-11" d="M3503.66 1863.95s-4.33 215.63 27.09 295.81 113.77 299.06 113.77 299.06 56.34 22.75 95.35-23.84c0 0-94.27-222.13-94.27-307.73s11.25-191.46 2.58-238.03c-8.67-46.57-11.34-73.92-11.34-73.92l-133.19 48.66Z"/><g style="clip-path:url(#clippath-10)"><path d="M3664.71 1997.81s-105.45-48.46-91.73 110.82c13.72 159.28 27.8 234.32 27.8 234.32l-87.77-109.72-23.08-160.36-22.18-119.19 22.18-80.18 17.34-57.63s111.84-9.55 112.42-9.55 45.01 34.55 45.01 34.55v156.94Z" style="fill:#191977"/></g><path class="cls-11" d="M3387.17 1842.08s-27.63 198.49-24.38 289.5c3.25 91.02 17.88 352.69 17.88 352.69s52.01 26.01 97.52 0c0 0 1.63-208.85 14.63-294.99 13-86.14 60.14-205.6 72.33-259.24 12.19-53.64 6.5-81.27 6.5-81.27l-184.47-6.7Z"/><g style="clip-path:url(#clippath-11)"><path d="M3368.9 1909.12s86.14 3.88 84.52 88.69-15.46 190.46-5.29 279.85c10.17 89.39 41.81 157.16 41.81 157.16s57.75-206.57 64.25-214.37c6.5-7.8 67.63-151.61 65.51-166.66-2.12-15.05-18.38-186.1-18.38-186.1l-54.1-30.23-160.05 4.62-18.28 67.04Z" style="fill:#212182"/></g><path class="cls-45" d="M3527.11 1327.73c-2.64-8.35-4.86-21.03-5.43-40.31l-57.79-1.81s.72 8.18.03 18.8c13.58-.38 39.19 2.27 63.19 23.32Z"/><path class="cls-57" d="M3527.11 1327.73c-24-21.05-49.61-23.7-63.19-23.32-1 15.4-4.98 35.92-18.45 44.05l31.06 20.23s31.78-10.47 35.4-11.2c3.61-.72 22.03-8.67 22.03-8.67l4.39-5.06s-6.34-.58-11.23-16.03Z"/><path class="cls-15" d="M3491.91 1355.57c-28.33.14-45.44-7.75-45.44-7.75s-58.44-1.38-90.57 39.17c-32.14 40.55-53.38 137.49-53.38 137.49s26.78 64.27 91.05 30.61l-8.67 291.35s134.71 98.66 255.61-12.29l-9.63-276.56s32.54 8.58 46.48-8.43c0 0-18.24-133.96-38.92-163.23-30.27-42.85-100.08-42.17-100.08-42.17s-18.69 11.67-46.44 11.81Z"/><g style="clip-path:url(#clippath-12)"><path class="cls-53" d="M3398.16 1426.81s11.14 37.95-4.59 128.28l-31.04 18.63-17.47-2.89s49.12-93 53.09-144.02Z"/><path d="M3630.87 1557.59s9.46-153.04-7.88-188.91c-17.34-35.87 0 0 0 0l30.41 16.68 12.39 47.13 11.56 69.89 8.72 41.73-11.57 18.63-28.48 3.3-15.15-8.46" style="fill:#0041f9"/><path class="cls-53" d="M3421.46 1873.77s73.64 6.5 118.63-73.14c44.98-79.64 92.51-258.43 93.13-351.88l-1.21 141.39 12.79 267.21-83.38 53.81-139.95-37.38Z"/></g><path class="cls-57" d="M1791.26 1265.05s8.2 30.04-7.51 49.54c0 0 10.49 14.39 33.24 12.76 22.75-1.63 22.7-16.01 22.7-16.01s-13.49-6.75-10.24-46.3h-38.19Z"/><path class="cls-45" d="M1788.73 1288.89s34.67.72 47.68 13.72c0 0-1.81-40.45-.72-40.45s-51.93-5.42-51.93-5.42l4.98 32.15Z" style="clip-path:url(#clippath-13)"/><path class="cls-11" d="M1741.14 1163.54s5.36 73.08 20.88 80.25h96.74s28.99-32.62 26.44-76.47l-87.79-34.82-56.26 31.04Z"/><path class="cls-45" d="M1753.19 1192.99s-16.39 2.16-14.53 16.7c1.86 14.53 13.3 24.12 21.34 19.17l-6.8-35.87ZM1868.84 1192.99s16.39 2.16 14.53 16.7c-1.86 14.53-13.3 24.12-21.34 19.17l6.8-35.87Z"/><path class="cls-57" d="M1751.65 1166.4s-7.42 87.2 38.34 110.09c45.77 22.88 72.36-32.78 76.69-55.04s5.57-58.14 5.57-58.14l-42.67-12.99h-58.14l-19.79 16.08Z"/><path class="cls-45" d="M1749.25 1204.37s20.7 13 60.43 11.74c39.73-1.26 63.1-10.65 63.1-10.65l4.8-29.26s-1.08-20.95-2.17-21.31-115.42-7.22-115.42-7.22l-13.52 16.57 4.73 26.05-1.95 14.09Z" style="clip-path:url(#clippath-14)"/><path class="cls-10" d="M1790.79 1163.13c-5.43-28.49-13.46-56.03-23-83.41-.93.61-1.88 1.19-2.78 1.83-20.83 14.89-34.44 39.48-34.44 67.29 0 2.75.18 5.45.44 8.14h.06c19.8 3.27 39.74 5.31 59.72 6.16Z"/><path d="M1812.16 1163.57h-.96.96Z" style="fill:#ffca00"/><path class="cls-10" d="M1832.36 1163.14c20.07-.84 40.11-2.89 60.01-6.17h.06c.26-2.68.44-5.39.44-8.14 0-27.78-13.58-52.35-34.38-67.25-.91-.65-1.86-1.24-2.8-1.85-.04.2-.08.41-.15.61-9.87 27.17-18.15 54.31-23.19 82.79Z"/><path class="cls-1" d="M1892.43 1156.97h-.06c-19.9 3.28-39.94 5.34-60.01 6.17 5.04-28.48 13.32-55.62 23.19-82.79.07-.2.11-.41.15-.61.45-2.19-.58-4.46-2.55-5.52-25.45-13.65-56.96-13.79-82.82-.87-2.23 1.11-3.39 3.78-2.59 6.18l.06.18c9.54 27.38 17.57 54.92 23 83.41-19.98-.84-39.92-2.89-59.72-6.16h-.06c-1.78-.26-3.21.93-3.21 2.73v8.41c.05 1.87 1.43 3.49 3.27 3.85.97.16 1.94.3 2.9.45-.13-.9-.22-1.79-.22-2.68v-1.98c13.68 1.16 27.19 3.62 40.86 4.89 12.31 1.14 24.76 1.03 37.11 1.03 11.66 0 23.43.11 35.06-.85 14.36-1.18 28.55-3.84 42.91-5.07v1.98c0 .89-.09 1.79-.22 2.68.97-.15 1.94-.29 2.9-.45 1.84-.36 3.22-1.98 3.27-3.85v-8.41c0-1.8-1.43-2.99-3.21-2.73Zm-80.27 6.6h-.96.96Z"/><path class="cls-10" d="M1889.69 1167.74c-14.36 1.22-28.55 3.88-42.91 5.07-11.63.96-23.4.85-35.06.85-12.35 0-24.8.11-37.11-1.03-13.66-1.26-27.18-3.72-40.86-4.89v1.98c0 .89.09 1.79.22 2.68 1.24 8.64 8.04 17.2 16.17 19.69 39.51 12.09 83.65 12.09 123.16 0 8.13-2.49 14.92-11.05 16.17-19.69.13-.9.22-1.79.22-2.68v-1.98ZM1779.41 1073.59c-1.51.44-7.06 2.28-6.72 5.18.34 2.9 9.39 30.91 13.15 45.09s7 38.78 9.91 39.71 27.16 1.11 30.57 0 3.42-3.33 4.78-10.51c1.37-7.17 10.08-48.33 19.81-70.19 1.2-3.16 1.02-5.29-5.47-7.51-6.49-2.22-15.88-5.98-27.16-6.49-11.27-.51-22.89.11-38.88 4.73Z"/><path class="cls-2" d="M3423.8 1229.43s18.78 40.29 36.12 60.88h66.46s29.98-35.03 35.03-64.65l-41.54 17.34-81.27-11.2-14.81-2.37Z"/><path class="cls-1" d="M3393.82 1164.44h-2.71s-8.94-2.17-11.65 4.88c-2.71 7.04 2.98 28.71 15.71 43.61 12.73 14.9 39.01 28.98 60.95 33.86 21.94 4.88 62.03 7.58 92.1-4.33 30.07-11.92 41.45-29.8 47.4-40.63 5.96-10.84 9.75-23.57-10.02-22.75l-34.4 28.46-108.35-4.62-49.03-38.47Z"/><path class="cls-10" d="M3391.11 1164.44s4.33-40.09 29.26-67.72c24.92-27.63 50.38-34.13 85.06-33.05s60.68 28.71 72.06 64.47c11.38 35.76 8.13 50.93 8.13 50.93s-20.59 56.34-89.93 49.84c-69.35-6.5-95.89-40.09-104.56-64.47Z"/><path class="cls-1" d="M3481.86 1229.43s1.08-43.05 0-67.16-12.99-88.02-21.67-93.17c-8.67-5.16 3.52-9.49 15.71-11.39 12.19-1.9 42.8-1.35 60.14 7.04 5.96 2.98-1.49 6.79-1.49 6.79s-18.56 53.62-17.74 91c.81 37.38 3.25 69.89 3.25 69.89s-28.44 4.3-38.19-3Z"/><path class="cls-52" d="M3808.92 1962.76h200.15v88.49h-200.15z"/><path class="cls-59" d="M3889.86 2051.25h200.15v88.49h-200.15z"/></g></g></svg>