<svg id="Layer_1" xmlns="http://www.w3.org/2000/svg" xmlns:xlink="http://www.w3.org/1999/xlink" viewBox="0 0 4680 3120"><defs><clipPath id="clippath"><path class="cls-9" d="M1191.73 2358.4s4.99 28.56 11.84 50.7c6.85 22.14 27.27 35.13 25.94 58.24-1.33 23.12-64.34 43.07-107.73 62.17-43.39 19.11-86.17 21.62-90.74-13.95-4.57-35.57 72.57-44.62 88.38-95.41 15.8-50.79 5.09-55.02 5.09-55.02l67.22-6.73Z"/></clipPath><clipPath id="clippath-5"><path class="cls-34" d="M1380.84 1206.15s-19.86 80.99-4.72 128.3c15.14 47.31 59.16 31.25 94.82 5.41l7.5-27.26s18.63 3.94 29.95-18.54c11.32-22.49-12.97-26.66-12.97-26.66s-9.37-6.67-10.28-20.1c0 0-15.17 6.94-32.18-17.17 0 0-8.9-15-22.4-9.64-13.5 5.36-28.31 1.17-35.06-10.73-6.75-11.9-14.66-3.62-14.66-3.62Z"/></clipPath><clipPath id="clippath-4"><path class="cls-2" d="M1383.23 1229.33s-27.56 3.95-39-39.39c-8.86-33.58 10.9-46.01 24.88-54.5 13.98-8.49 15.04-15.7 33-25.62 23.79-13.13 33.33 1.9 46.46-6.64 13.12-8.54 38.05-9.04 50.82 8.1 12.77 17.14 21.23 9.2 40.39 18.47 19.17 9.27 11.08 33.7 19.96 40.9 8.88 7.2 23.18 10.61 21.23 31.68-1.95 21.07-16.34 25.82-7.53 40.82 8.81 14.99 4.25 49.29-18.66 53.56-22.91 4.27-34.58 19.95-37.3 35.03-2.72 15.08-27.61 21.46-41.39 15.47-13.78-5.99-92.86-117.89-92.86-117.89Z"/></clipPath><clipPath id="clippath-3"><path class="cls-9" d="M1695.86 1595.17c-16.41-49.43-48.79-139.53-93.88-156.97-45.08-17.44-110.69-18.77-110.69-18.77l-18.8 2.46-57.11-1.96c-100.53-.91-116.42 24.66-135.98 59.77-17.63 31.64-35.54 80.74-35.54 80.74l-67.67 204.04c147.37 112.92 406.09 62.48 406.09 62.48s95.29-43.05 125.09-67.27c29.81-24.22 4.9-115.1-11.51-164.53Zm-369.63 26.97-4.54 79.59-45.24-12.57s28.05-82.06 53.57-133.27l-3.78 66.25Zm300.76 71.1c-6.6 18.02-55.76 49.21-55.76 49.21l13.74-162.53s48.63 95.3 42.02 113.32Z"/></clipPath><clipPath id="clippath-2"><path class="cls-10" d="M1570.36 1816.26s110.65 38.92 129.44 75.95c18.79 37.02 7.93 95.49-105.25 144.76-113.18 49.28-215.05 95.86-215.05 95.86s-53.04-35.36-52.11-96.62l146.65-84.99s-36.41-21.31-80.17-16.28c-43.76 5.03-211.46 28.06-211.46 28.06s19.66 173.08 33.8 413.56c0 0-52.48 40.48-111.08 12.61 0 0-79.9-396.96-75.04-462.46s47.55-90.93 108.44-103.06c60.89-12.13 185.72-50.71 185.72-50.71l246.12 43.31Z"/></clipPath><clipPath id="clippath-1"><path class="cls-9" d="M1364.99 2031.55s-24.62 15.3-45.69 24.95c-21.07 9.64-44.37 3.07-60.72 19.46s10.75 76.67 25.41 121.76 41.28 78.66 70.86 58.37c29.57-20.29-15.08-83.85 12.27-129.47 27.35-45.62 37.64-40.46 37.64-40.46l-39.77-54.61Z"/></clipPath><linearGradient id="linear-gradient" x1="1446.37" y1="1184.94" x2="3222.45" y2="1184.94" gradientUnits="userSpaceOnUse"><stop offset="0" stop-color="#b0d8ff"/><stop offset=".02" stop-color="#b2d9ff"/><stop offset=".15" stop-color="#c4e1ff"/><stop offset=".3" stop-color="#d0e6ff"/><stop offset=".51" stop-color="#d7eaff"/><stop offset="1" stop-color="#daebff"/></linearGradient><linearGradient id="linear-gradient-4" x1="2609.8" y1="1525.56" x2="2606.47" y2="1919.55" xlink:href="#linear-gradient"/><linearGradient id="linear-gradient-3" x1="3227.24" y1="733.72" x2="3217.22" y2="1261.26" xlink:href="#linear-gradient"/><linearGradient id="linear-gradient-2" x1="1246.72" y1="692.2" x2="1250.05" y2="1086.19" xlink:href="#linear-gradient"/><style>.cls-1{fill:#fe8e00}.cls-2{fill:#191e56}.cls-3{fill:#b0d8ff}.cls-9{fill:#ffab00}.cls-10{fill:#1e2889}.cls-12{fill:#d1e3ff}.cls-15{fill:#006dfe}.cls-16{fill:#0542bf}.cls-17{fill:#00b77b}.cls-18{fill:#f5fcff}.cls-27{fill:transparent}.cls-28{fill:#ea756c}.cls-29{fill:#00d967}.cls-31{fill:#daebff}.cls-33{fill:#3998ff}.cls-34{fill:#ffaca6}.cls-38{fill:#ebf5ff}</style></defs><path class="cls-27" d="M0 0h4680v3120H0z"/><ellipse class="cls-31" cx="1360.22" cy="2218.55" rx="535.79" ry="241.82"/><ellipse class="cls-31" cx="1141.08" cy="2493.22" rx="166.5" ry="75.15"/><ellipse class="cls-31" cx="2334.39" cy="2162.26" rx="463.63" ry="75.15"/><path style="fill:#d3e2f9" d="M686.08 2000.72h3035.97v19.33H686.08z"/><path class="cls-17" d="M1055.42 1996.66s-35.06 73.29-97.42 100.52c-62.37 27.23-149.81-7.08-198.84-47.53s-96.61-97.99-101.34-140.88c-4.73-42.9 77.5-25.98 77.5-25.98s-36.34-52.13-51.46-89.36 2.59-76.08 52.28-52.95l49.69 23.13s-38.1-81.03-37.42-131.63c.69-50.6 29.09-126.5 82.64-72.9 53.55 53.6 59.03 166 59.03 166s11.91-47.9 28.87-82.94 52.18-30.5 68.42 18.34c16.24 48.83 22.47 118.74 22.47 118.74s15.52-53.94 40.87-45.37c25.34 8.58 40.13 71.78 35.87 133.83-4.26 62.05-31.16 128.99-31.16 128.99Z"/><path class="cls-29" d="M1044.32 1865.44s-1.86-266.93-196.6-362.01c0 0-89.13 224.19 46.2 416.41 135.33 192.22 107.62 147.54 107.62 147.54l42.78-201.94Z"/><path style="fill:none;stroke:#fff;stroke-linecap:round;stroke-linejoin:round;stroke-width:2px" d="m895.8 1628.3 110.79 396.42"/><path class="cls-10" d="M2130.4 1813.81h408.03v244.94H2130.4z"/><path class="cls-16" d="M1932.47 2056.41h803.88v106.19h-803.88z"/><rect class="cls-15" x="1383.4" y="535.43" width="1902.01" height="1299.02" rx="90.16" ry="90.16"/><rect x="1446.37" y="586.35" width="1776.08" height="1197.19" rx="83.64" ry="83.64" style="fill:url(#linear-gradient)"/><path class="cls-27" d="M2073.43 716.57h-527.35c-11.53 0-20.88-9.35-20.88-20.88s9.35-20.88 20.88-20.88h527.35c11.53 0 20.88 9.35 20.88 20.88s-9.35 20.88-20.88 20.88ZM2073.43 807.2h-527.35c-11.53 0-20.88-9.35-20.88-20.88s9.35-20.88 20.88-20.88h527.35c11.53 0 20.88 9.35 20.88 20.88s-9.35 20.88-20.88 20.88ZM1546.08 856.08h527.35c11.52 0 20.88 9.35 20.88 20.88 0 11.52-9.35 20.88-20.88 20.88h-527.35c-11.52 0-20.88-9.35-20.88-20.88 0-11.52 9.35-20.88 20.88-20.88ZM2073.43 988.46h-527.35c-11.53 0-20.88-9.35-20.88-20.88s9.35-20.88 20.88-20.88h527.35c11.53 0 20.88 9.35 20.88 20.88s-9.35 20.88-20.88 20.88ZM2073.43 1079.09h-527.35c-11.53 0-20.88-9.35-20.88-20.88s9.35-20.88 20.88-20.88h527.35c11.53 0 20.88 9.35 20.88 20.88s-9.35 20.88-20.88 20.88ZM2073.43 1267.22h-527.35c-11.53 0-20.88-9.35-20.88-20.88s9.35-20.88 20.88-20.88h527.35c11.53 0 20.88 9.35 20.88 20.88s-9.35 20.88-20.88 20.88Z"/><path class="cls-29" d="M2073.43 1357.85h-527.35c-11.53 0-20.88-9.35-20.88-20.88s9.35-20.88 20.88-20.88h527.35c11.53 0 20.88 9.35 20.88 20.88s-9.35 20.88-20.88 20.88Z"/><path class="cls-27" d="M1546.08 1406.73h527.35c11.52 0 20.88 9.35 20.88 20.88 0 11.52-9.35 20.88-20.88 20.88h-527.35c-11.52 0-20.88-9.35-20.88-20.88 0-11.52 9.35-20.88 20.88-20.88ZM2073.43 1539.11h-527.35c-11.53 0-20.88-9.35-20.88-20.88s9.35-20.88 20.88-20.88h527.35c11.53 0 20.88 9.35 20.88 20.88s-9.35 20.88-20.88 20.88ZM1546.08 1587.99h527.35c11.52 0 20.88 9.35 20.88 20.88 0 11.52-9.35 20.88-20.88 20.88h-527.35c-11.52 0-20.88-9.35-20.88-20.88 0-11.52 9.35-20.88 20.88-20.88ZM3084.93 1267.22h-876.48c-11.53 0-20.88-9.35-20.88-20.88s9.35-20.88 20.88-20.88h876.48c11.53 0 20.88 9.35 20.88 20.88s-9.35 20.88-20.88 20.88ZM3084.93 1357.85h-876.48c-11.53 0-20.88-9.35-20.88-20.88s9.35-20.88 20.88-20.88h876.48c11.53 0 20.88 9.35 20.88 20.88s-9.35 20.88-20.88 20.88ZM2208.44 1406.73h876.48c11.52 0 20.88 9.35 20.88 20.88 0 11.52-9.35 20.88-20.88 20.88h-876.48c-11.52 0-20.88-9.35-20.88-20.88 0-11.52 9.35-20.88 20.88-20.88ZM3084.93 1539.11h-876.48c-11.53 0-20.88-9.35-20.88-20.88s9.35-20.88 20.88-20.88h876.48c11.53 0 20.88 9.35 20.88 20.88s-9.35 20.88-20.88 20.88ZM2208.44 1587.99h876.48c11.52 0 20.88 9.35 20.88 20.88 0 11.52-9.35 20.88-20.88 20.88h-876.48c-11.52 0-20.88-9.35-20.88-20.88 0-11.52 9.35-20.88 20.88-20.88ZM2195.74 671.42h929.41c10.19 0 18.45 8.27 18.45 18.45v375.73c0 10.19-8.27 18.46-18.46 18.46h-929.4c-10.19 0-18.46-8.27-18.46-18.46V689.87c0-10.18 8.27-18.45 18.45-18.45Z"/><path class="cls-31" d="M3117.69 892.35v156.83c0 6.98-5.68 12.65-12.7 12.65h-892.62c-7.03 0-12.71-5.68-12.71-12.65v-344.5c82.44 0 123.49 30.82 147.56 71.31 1.57 2.59 3.04 5.23 4.39 7.93 40.72 77.05 28.46 182.65 117.99 182.65 3.32 0 6.46-.39 9.45-1.18a26.5 26.5 0 0 0 5.51-1.79c60.22-25.37 50.84-205.37 157.97-204.08 22.89.29 39.98 9.06 53.48 23.06 1.29 1.41 2.59 2.81 3.82 4.33 47.97 56.29 48.64 181.75 122.31 204.52 26.55 8.21 50-2.92 73.17-21.31 1.46-1.19 2.98-2.37 4.44-3.66 48.98-40.66 97.68-110.16 173.26-93.13 2.19.51 4.39 1.07 6.64 1.7 11.98 3.48 24.63 9.1 38.07 17.32Z"/><path class="cls-17" d="M3117.75 860.68c-16.03.23-28.29 5.63-38.13 14.35-18.22 16.13-28 43.69-37.57 70.63-14.33 40.32-29.12 81.93-72.37 81.93-2.3 0-4.72-.12-7.19-.34-28.18-2.76-48.92-25.69-67.2-57.13-11.36-19.46-21.76-42.24-32.34-65.57-29.92-65.63-60.9-133.5-117.93-135.08-.67 0-1.29-.06-1.91-.06-17.26 0-31.38 6.58-43.3 17.49-24.12 21.99-39.48 61.63-54.49 100.43-22.22 57.42-45.16 116.8-96.95 117.98-37.23.79-54.15-13.28-69.34-39.93-5.85-10.35-11.47-22.61-17.89-36.61-11.7-25.64-26.31-57.53-50.5-94.64-16.25-24.85-36.89-40.66-59.05-50.22-59.72-26.03-130.01-6.97-151.94.17v-5.91c23.5-7.42 89.19-24.24 147.56-2.2 25.48 9.62 49.54 26.65 68.1 55.11 24.47 37.4 39.14 69.51 50.95 95.32 6.63 14.51 12.31 26.94 18.27 37.17 14.29 24.68 29.98 36.88 63.71 36.1 48.03-1.12 69.28-56.12 91.84-114.38 15.29-39.53 30.87-79.92 55.9-102.75 13.27-12.09 29.18-19.29 49.15-18.73 60.62 1.63 92.28 71.14 122.93 138.4 10.45 22.83 20.58 45.15 31.65 64.22 17.55 30.48 37.23 52.58 63.32 55.16 44.54 4.39 58.71-35.54 73.73-77.89 9.33-26.37 18.89-53.25 36.21-70.41 11.02-11.02 25.25-17.99 44.66-18.28l.11 5.62Z"/><rect class="cls-3" x="899.06" y="644.83" width="685.9" height="438.82" rx="36.12" ry="36.12"/><path class="cls-33" d="M1584.96 678.77c0-19.51-15.81-35.32-35.32-35.32H946.93c-19.51 0-35.32 15.81-35.32 35.32v40.35h673.35v-40.35Z"/><path d="M911.61 719.12v316.5c0 19.51 15.81 35.32 35.32 35.32h602.71c19.51 0 35.32-15.81 35.32-35.32v-316.5H911.61Z" style="fill:url(#linear-gradient-2)"/><circle class="cls-27" cx="1422.61" cy="682.72" r="13.71" transform="rotate(-22.5 1422.612 682.731)"/><circle class="cls-27" cx="1477.98" cy="682.72" r="13.71" transform="rotate(-22.5 1477.987 682.719)"/><circle class="cls-27" cx="1533.35" cy="682.72" r="13.71" transform="rotate(-76.72 1533.295 682.739)"/><rect class="cls-27" x="1252.63" y="770.55" width="296.51" height="273.83" rx="53.35" ry="53.35"/><path d="M1199.92 880.79c-12.15-53.81-60.21-94.01-117.69-94.01v120.68l117.69-26.68Z" style="fill:#0ace68"/><path class="cls-27" d="M1082.24 907.46V786.78c-66.65 0-120.68 54.03-120.68 120.68s54.03 120.68 120.68 120.68 120.68-54.03 120.68-120.68c0-9.17-1.06-18.09-3-26.68l-117.69 26.68Z"/><circle class="cls-31" cx="1082.24" cy="909.49" r="92.24"/><path class="cls-38" d="M3436.3 1329.21h565.78v754.56H3436.3z"/><path class="cls-12" d="M3465.78 1359.77h505.98v175.87h-505.98zM3465.78 1566.44h505.98v175.87h-505.98zM3465.78 1779.33h505.98v175.87h-505.98z"/><path class="cls-18" d="M3736.74 1397.53c0 10.3-7.85 18.65-17.54 18.65s-17.54-8.35-17.54-18.65 7.86-18.65 17.54-18.65 17.54 8.35 17.54 18.65ZM3736.74 1603.43c0 10.3-7.85 18.65-17.54 18.65s-17.54-8.35-17.54-18.65 7.86-18.65 17.54-18.65 17.54 8.35 17.54 18.65ZM3736.74 1814.76c0 10.3-7.85 18.65-17.54 18.65s-17.54-8.35-17.54-18.65 7.86-18.65 17.54-18.65 17.54 8.35 17.54 18.65Z"/><path class="cls-12" d="M3312.14 1329.21h135.64v754.56h-135.64z"/><path class="cls-31" d="M754.7 1241.12h205.59v90.9H754.7z"/><path class="cls-38" d="M837.83 1332.01h205.59v90.9H837.83z"/><path class="cls-31" d="M3736.74 992.75h205.59v90.9h-205.59z"/><path class="cls-38" d="M3819.87 1083.65h205.59v90.9h-205.59z"/><rect class="cls-3" x="2742.77" y="666.21" width="942.11" height="602.73" rx="49.61" ry="49.61"/><path class="cls-33" d="M3684.88 712.83c0-26.79-21.72-48.51-48.51-48.51h-827.84c-26.79 0-48.51 21.72-48.51 48.51v55.42h924.87v-55.42Z"/><path d="M2760.01 768.25v434.73c0 26.79 21.72 48.51 48.51 48.51h827.84c26.79 0 48.51-21.72 48.51-48.51V768.25H2760Z" style="fill:url(#linear-gradient-3)"/><path class="cls-15" d="M3127.37 816.89h-168.42c-3.42 0-6.2-3-6.2-6.7s2.77-6.7 6.2-6.7h168.42c3.42 0 6.2 3 6.2 6.7s-2.77 6.7-6.2 6.7Z"/><path class="cls-29" d="M3099.6 876.95h-168.42c-3.42 0-6.2-3-6.2-6.7s2.77-6.7 6.2-6.7h168.42c3.42 0 6.2 3 6.2 6.7s-2.77 6.7-6.2 6.7Z"/><path class="cls-15" d="M3456.74 876.95h-289.21c-3.42 0-6.2-3-6.2-6.7s2.77-6.7 6.2-6.7h289.21c3.42 0 6.2 3 6.2 6.7s-2.77 6.7-6.2 6.7ZM3272.99 816.89h-85.11c-3.42 0-6.2-3-6.2-6.7s2.77-6.7 6.2-6.7h85.11c3.42 0 6.2 3 6.2 6.7s-2.77 6.7-6.2 6.7ZM3422.4 816.89h-85.11c-3.42 0-6.2-3-6.2-6.7s2.77-6.7 6.2-6.7h85.11c3.42 0 6.2 3 6.2 6.7s-2.77 6.7-6.2 6.7ZM3043.87 937.02h-110.64c-3.42 0-6.2-3-6.2-6.7s2.77-6.7 6.2-6.7h110.64c3.42 0 6.2 3 6.2 6.7s-2.77 6.7-6.2 6.7Z"/><path class="cls-29" d="M3273.31 937.02h-168.42c-3.42 0-6.2-3-6.2-6.7s2.77-6.7 6.2-6.7h168.42c3.42 0 6.2 3 6.2 6.7s-2.77 6.7-6.2 6.7Z"/><path class="cls-15" d="M3396.13 937.02h-62.9c-3.42 0-6.2-3-6.2-6.7s2.77-6.7 6.2-6.7h62.9c3.42 0 6.2 3 6.2 6.7s-2.77 6.7-6.2 6.7ZM3148.04 997.08h-98.67c-3.42 0-6.2-3-6.2-6.7s2.77-6.7 6.2-6.7h98.67c3.42 0 6.2 3 6.2 6.7s-2.77 6.7-6.2 6.7ZM3384.06 997.08h-168.42c-3.42 0-6.2-3-6.2-6.7s2.77-6.7 6.2-6.7h168.42c3.42 0 6.2 3 6.2 6.7s-2.77 6.7-6.2 6.7ZM3330.07 1057.15h-315.58c-3.42 0-6.2-3-6.2-6.7s2.77-6.7 6.2-6.7h315.58c3.42 0 6.2 3 6.2 6.7s-2.77 6.7-6.2 6.7ZM3566.1 1057.15h-190.63c-3.42 0-6.2-3-6.2-6.7s2.77-6.7 6.2-6.7h190.63c3.42 0 6.2 3 6.2 6.7s-2.77 6.7-6.2 6.7ZM3099.6 1117.21h-168.42c-3.42 0-6.2-3-6.2-6.7s2.77-6.7 6.2-6.7h168.42c3.42 0 6.2 3 6.2 6.7s-2.77 6.7-6.2 6.7Z"/><path class="cls-29" d="M3303.41 1117.21h-168.42c-3.42 0-6.2-3-6.2-6.7s2.77-6.7 6.2-6.7h168.42c3.42 0 6.2 3 6.2 6.7s-2.77 6.7-6.2 6.7Z"/><path class="cls-15" d="M3319.62 1177.28h-255.8c-3.42 0-6.2-3-6.2-6.7s2.77-6.7 6.2-6.7h255.8c3.42 0 6.2 3 6.2 6.7s-2.77 6.7-6.2 6.7ZM2842.67 803.48h12.4v13.41h-12.4zM2842.67 863.55h12.4v13.41h-12.4zM2842.67 923.61h12.4v13.41h-12.4zM2842.67 983.68h12.4v13.41h-12.4zM2842.67 1043.74h12.4v13.41h-12.4zM2842.67 1103.81h12.4v13.41h-12.4zM2842.67 1163.87h12.4v13.41h-12.4zM3500.98 1204.62l-45.17-20.75c-1.4-.64-2.31-2.13-2.31-3.77v-4.46c0-1.64.91-3.13 2.31-3.77l45.17-20.75c2.5-1.15 5.27.84 5.27 3.77v1.59c0 1.66-.93 3.16-2.35 3.79l-31.02 13.81c-3.13 1.39-3.13 6.18 0 7.58l31.02 13.81c1.42.63 2.35 2.13 2.35 3.79v1.59c0 2.93-2.77 4.92-5.27 3.77ZM3541.94 1139.4l-20.87 78.03c-.47 1.75-1.95 2.96-3.64 2.96-2.52 0-4.34-2.61-3.64-5.23l20.87-78.03c.47-1.75 1.95-2.96 3.64-2.96 2.52 0 4.34 2.61 3.64 5.23ZM3599.92 1183.87l-45.17 20.75c-2.5 1.15-5.27-.84-5.27-3.77v-1.59c0-1.66.93-3.16 2.35-3.79l31.02-13.81c3.13-1.39 3.13-6.18 0-7.58l-31.02-13.81c-1.42-.63-2.35-2.13-2.35-3.79v-1.59c0-2.93 2.77-4.92 5.27-3.77l45.17 20.75c1.4.64 2.31 2.13 2.31 3.77v4.46c0 1.64-.91 3.13-2.31 3.77Z"/><circle class="cls-27" cx="3461.9" cy="718.26" r="18.83"/><circle class="cls-27" cx="3537.95" cy="718.26" r="18.83"/><circle class="cls-27" cx="3614" cy="718.26" r="18.83"/><rect class="cls-3" x="2228.21" y="1451.74" width="746.49" height="477.58" rx="39.31" ry="39.31"/><path class="cls-33" d="M2974.7 1488.68c0-21.23-17.21-38.44-38.44-38.44h-655.95c-21.23 0-38.44 17.21-38.44 38.44v43.91h732.83v-43.91Z"/><path d="M2241.87 1532.6v344.46c0 21.23 17.21 38.44 38.44 38.44h655.95c21.23 0 38.44-17.21 38.44-38.44V1532.6h-732.83Z" style="fill:url(#linear-gradient-4)"/><circle class="cls-27" cx="2798.01" cy="1492.98" r="14.92" transform="rotate(-76.72 2797.904 1493.002)"/><circle class="cls-27" cx="2858.27" cy="1492.98" r="14.92" transform="rotate(-76.72 2858.161 1493.007)"/><circle class="cls-27" cx="2918.54" cy="1492.98" r="14.92" transform="rotate(-76.72 2918.423 1493.007)"/><path class="cls-29" d="M2306.04 1596.92h60.26v226.33h-60.26zM2411.86 1626.31h60.26v196.94h-60.26zM2517.68 1685.1h60.26v138.15h-60.26zM2623.5 1641.01h60.26v182.24h-60.26zM2729.32 1685.1h60.26v138.15h-60.26zM2835.14 1641.01h60.26v182.24h-60.26zM2284 1842.36h634.91v8.82H2284z"/><path d="M1068.6 1688.73s16.62-237.75 144.08-364.63c127.46-126.88 374.66-141.31 470.22-85.65s153.84 133.47 179.97 316.6c26.13 183.13 18.3 434.88-30.93 541.83-49.23 106.95-152.31 222.09-292.68 254.58-140.37 32.49-292.47 55.84-449.67 16.81-157.19-39.03-222.38-81.11-259.12-238.7-36.74-157.6 87.96-258.94 135.48-290.2 47.52-31.26 102.65-150.65 102.65-150.65Z" style="fill:#9fd4ff"/><path d="M1721.37 1263.75c20.24 41.35 43.78 105.68 54.35 194.74 20.41 171.95 62.91 383.98 4.33 502.14-58.57 118.15-109.74 233.4-237.11 277.41-127.37 44.01-255.24 59-255.24 59s-260.9 1.87-415.24-54.56c41.65 69.46 106.68 98.39 217.14 125.81 157.19 39.03 309.3 15.68 449.67-16.81 140.37-32.49 243.45-147.63 292.68-254.59 49.23-106.95 57.07-358.7 30.93-541.83-22.42-157.12-68.51-236.71-141.51-291.31Z" style="fill:#78cfff"/><path d="m1444.79 1384.88-7.15-81.51-21.34-82.71c-75.59 16.77-150.14 50.2-203.62 103.43-127.46 126.88-144.08 364.63-144.08 364.63s-55.13 119.39-102.65 150.65c-45.22 29.75-160.32 122.96-139.7 267.73 64.27 13.01 155.97 18.93 214.32-32.24 97.54-85.54 315.89-465.25 315.89-465.25l88.32-224.73Z" style="fill:#b6e2ff"/><path d="M1619.37 1366.54c55.89-52.63 44.19-117.53 37.81-140.07-39.16-14.65-92.6-21.21-150.44-18.15l-21.61 39-4.48 54.65s-36.5 176.84-36.72 194.3c-.22 17.46-33.11 97.69-39.17 109.45-6.06 11.76-111.19 185.82-111.19 185.82s-156.98 183.07-155.69 189.83c1.29 6.76-1.16 382.55-1.16 382.55l24 18c33.24 4.56 66.2 6.64 98.81 6.76-3.64-20.5-9.43-46.77-18.44-80.37-34.63-129.06 6.34-283.47 6.34-283.47s18.61 201.28 66.47 247.49c47.87 46.21 98.43 27.36 81.46-21.75-16.97-49.1 16.54-105.42 16.54-105.42s305.9-129.03 325.85-214.93c19.95-85.9-86.48-96.21-86.48-96.21s78.99-36.23 103.53-85.36c24.54-49.13-30.7-223.79-64.61-274.22-33.91-50.43-85.25-88.47-70.84-107.91Z" style="fill:#64c8ff"/><path class="cls-9" d="M1191.73 2358.4s4.99 28.56 11.84 50.7c6.85 22.14 27.27 35.13 25.94 58.24-1.33 23.12-64.34 43.07-107.73 62.17-43.39 19.11-86.17 21.62-90.74-13.95-4.57-35.57 72.57-44.62 88.38-95.41 15.8-50.79 5.09-55.02 5.09-55.02l67.22-6.73Z"/><path class="cls-1" d="M1090.62 2428.47s50.33-12.73 69.02 1.71c18.68 14.44 28.18 62.92 21.64 79.83l43.29-6.45 31.08-36.69-21.83-74.82-49.26-46.85-99.74 21.88 5.81 61.38Z" style="clip-path:url(#clippath)"/><path class="cls-9" d="M1364.99 2031.55s-24.62 15.3-45.69 24.95c-21.07 9.64-44.37 3.07-60.72 19.46s10.75 76.67 25.41 121.76 41.28 78.66 70.86 58.37c29.57-20.29-15.08-83.85 12.27-129.47 27.35-45.62 37.64-40.46 37.64-40.46l-39.77-54.61Z"/><path class="cls-1" d="M1302.1 2056.69s24.11 15.5 25.33 61.64c1.22 46.15 33.95 143.14 33.95 143.14s13.5-28.21 14.74-30.37c1.24-2.16-10.43-71.2-10.43-71.2s22.73-33.63 23.9-34.68 16.95-36.56 16.95-36.56l-65.18-68.94-39.27 36.96Z" style="clip-path:url(#clippath-1)"/><path class="cls-10" d="M1570.36 1816.26s110.65 38.92 129.44 75.95c18.79 37.02 7.93 95.49-105.25 144.76-113.18 49.28-215.05 95.86-215.05 95.86s-53.04-35.36-52.11-96.62l146.65-84.99s-36.41-21.31-80.17-16.28c-43.76 5.03-211.46 28.06-211.46 28.06s19.66 173.08 33.8 413.56c0 0-52.48 40.48-111.08 12.61 0 0-79.9-396.96-75.04-462.46s47.55-90.93 108.44-103.06c60.89-12.13 185.72-50.71 185.72-50.71l246.12 43.31Z"/><g style="clip-path:url(#clippath-2)"><path d="M1028.08 1864.17s60.96-13.42 95.22 30.99c34.25 44.4 89.15 156.79 89.15 156.79l155.37-36.58s68.35-35.37 132.1-58.49c63.75-23.12 135.37-66.96 178.58-23.25 43.21 43.71-11.61 105.77-11.61 105.77l83.84-101.65-19.83-140.84-329.27-70.83-291.31 25.72-82.22 112.37Z" style="fill:#17216b"/></g><path class="cls-9" d="M1695.86 1595.17c-16.41-49.43-48.79-139.53-93.88-156.97-45.08-17.44-110.69-18.77-110.69-18.77l-18.8 2.46-57.11-1.96c-100.53-.91-116.42 24.66-135.98 59.77-17.63 31.64-35.54 80.74-35.54 80.74l-67.67 204.04c147.37 112.92 406.09 62.48 406.09 62.48s95.29-43.05 125.09-67.27c29.81-24.22 4.9-115.1-11.51-164.53Zm-369.63 26.97-4.54 79.59-45.24-12.57s28.05-82.06 53.57-133.27l-3.78 66.25Zm300.76 71.1c-6.6 18.02-55.76 49.21-55.76 49.21l13.74-162.53s48.63 95.3 42.02 113.32Z"/><g style="clip-path:url(#clippath-3)"><path class="cls-1" d="m1587.29 1597.89-2.32-17.97s-3.18-41.99 3.42-79.51c0 0-31.16 67.34-45.52 152.91-14.36 85.58-169.84 104.57-169.84 104.57l-2.38 61.18 118.16-9.57 19.96-17.66 62.46-49.39 24.56-98.23-8.5-46.33ZM1693.4 1564.93c-.13 2.22 19.02 96.4 14.71 132.94-4.32 36.54-14.46 48.22-65.68 76.51-51.22 28.29-123 55.41-123 55.41l2.89 17.7 60.78-.38 49.91-24.77 81.78-30.45s22.72-32.7 23.73-50.48c1.01-17.78 11.05-17.76-.19-55.19-11.24-37.43-44.91-121.29-44.91-121.29ZM1318.44 1586.16l9.99-27.06s-6.46-17.61 4.34-76.08l-52.35 136.49-16.02 78.94 30.18-37.57 23.86-74.72Z"/></g><path class="cls-34" d="M1380.1 1800.1s17.43-22.14 37.06-29.1c19.63-6.96 91.62 20.84 91.62 20.84l16.79 42.76s-25.44 16.1-55.68 8.8c-30.24-7.3-77.93-6.68-77.93-6.68l-11.84-36.63Z"/><path transform="rotate(3.27 1311.533 1837.346)" style="fill:#78c2ff" d="M1110.95 1824.07h403.01v29.39h-403.01z"/><path class="cls-16" d="m1405.92 1858.82-350.44-20.01-36.66-248.47 350.44 20 36.66 248.48z"/><path class="cls-15" d="m1379.69 1857.32-350.45-20.01-36.66-248.47 350.44 20.01 36.67 248.47z"/><ellipse class="cls-27" cx="1175.44" cy="1697" rx="31.3" ry="40.07" transform="rotate(-8.5 1175.552 1697.202)"/><path class="cls-34" d="M1423.69 1388.49c-.87 8.96-3.28 19.5-8.32 31.44 0 0 9.23 22.08 34.28 19.42 25.05-2.66 41.64-19.92 41.64-19.92s-5.03-9.66-7.6-26.7c-21.88-11.35-44.79-8.52-60-4.24Z"/><path class="cls-28" d="M1483.69 1392.73c-1.92-12.77-2.46-29.68 1.56-49.82l-15.4-10.17-51.36 20.85s7.37 12.54 5.2 34.89c15.21-4.28 38.12-7.11 60 4.24Z"/><path class="cls-2" d="M1383.23 1229.33s-27.56 3.95-39-39.39c-8.86-33.58 10.9-46.01 24.88-54.5 13.98-8.49 15.04-15.7 33-25.62 23.79-13.13 33.33 1.9 46.46-6.64 13.12-8.54 38.05-9.04 50.82 8.1 12.77 17.14 21.23 9.2 40.39 18.47 19.17 9.27 11.08 33.7 19.96 40.9 8.88 7.2 23.18 10.61 21.23 31.68-1.95 21.07-16.34 25.82-7.53 40.82 8.81 14.99 4.25 49.29-18.66 53.56-22.91 4.27-34.58 19.95-37.3 35.03-2.72 15.08-27.61 21.46-41.39 15.47-13.78-5.99-92.86-117.89-92.86-117.89Z"/><g style="clip-path:url(#clippath-4)"><path d="M1334.76 1159.79s6.44 11.49 87.84 10c81.4-1.49 81.57 68.75 108.36 82.82 26.79 14.07 53.73 31.49 53.73 31.49l-51.77 65.91-45.11 34.7-149.95-74.57-3.1-150.35Z" style="fill:#10163d"/></g><path class="cls-34" d="M1380.84 1206.15s-19.86 80.99-4.72 128.3c15.14 47.31 59.16 31.25 94.82 5.41l7.5-27.26s18.63 3.94 29.95-18.54c11.32-22.49-12.97-26.66-12.97-26.66s-9.37-6.67-10.28-20.1c0 0-15.17 6.94-32.18-17.17 0 0-8.9-15-22.4-9.64-13.5 5.36-28.31 1.17-35.06-10.73-6.75-11.9-14.66-3.62-14.66-3.62Z"/><path class="cls-28" d="M1360.55 1224.87s4.57 12.41 30.34 15.19c25.77 2.78 31.78 7.31 51.39 19.02s30.25 25.42 53.45 24.23c23.2-1.18 21.5-10.48 21.5-10.48l-18.84-26.44-56.8-30.28-45.84-12.29-17.35-3.58-17.85 24.62Z" style="clip-path:url(#clippath-5)"/><path d="M1604.86 2841.69c1.93 0 1.93-3 0-3s-1.93 3 0 3Z" style="fill:#d3e2ff"/></svg>