<svg  viewBox="0 0 1024 1024" version="1.1" xmlns="http://www.w3.org/2000/svg" p-id="1210" width="1em" height="1em">
<path d="M541.93664 411.67872l2.01216-2.01728c20.0192-37.9392 20.0192-79.82592 0-117.77024-20.0192-35.93728-59.9808-57.9584-101.86752-57.9584-20.00896 0-39.94112 6.03136-57.9584 16-29.97248 16-49.90976 41.96352-57.9584 73.9584-7.95136 29.98784-2.00192 59.97056 13.98784 85.85728l2.01216 4.02432h-49.90976v-2.01728c-16.01024-41.9584-16.01024-83.84 0-121.78944C318.27456 229.9904 376.1664 190.12096 442.07616 190.12096c20.02944 0 41.96864 4.0192 61.92128 11.97056 39.95136 16 71.94112 45.98784 87.86944 85.8624 18.00192 39.9616 18.00192 83.85024 0 123.8016v2.01728h-49.93024v-2.09408z" fill="currentcolor" p-id="1211"></path>
<path d="M663.49568 828.26752a228.736 228.736 0 0 1-19.77856-12.6208c-17.84832-12.62592-36.41856-28.6208-52.17792-45.10208-18.00192-18.72896-32.72192-38.26688-42.69056-56.51968-9.8816-18.16576-15.10912-35.29216-15.10912-49.60256v-149.76l11.65824 3.77856c11.89888 3.85536 23.56224 5.7856 34.57024 5.7856 18.41152 0 36.6592-3.21536 53.62176-9.3184-2.17088-21.632-19.05152-37.30944-37.69856-37.30944-20.0192 0-37.94944 20.0192-37.94944 41.96864v-21.86752c0-23.95136-18.00192-41.9584-37.94944-41.9584-20.0192 0-37.94944 20.01408-37.94944 41.9584V359.82336c0-23.9616-18.00192-41.96864-37.9392-41.96864-20.0192 0-35.93216 20.0192-35.93216 41.96864v243.58912c0 11.9808-7.9616 21.94944-20.0192 21.94944h-6.03136l-53.9392-23.9616c-6.03136-4.0192-11.99104-2.01728-18.01216-4.0192-20.0192-6.03136-37.94944 20.01408-37.94944 41.96352 0 13.98272 16 31.99488 23.9616 39.95648l145.75104 149.77024h223.49824c-0.73728-0.15872-1.29536-0.47616-1.93536-0.80384z" fill="currentcolor" p-id="1212"></path>
<path d="M673.45408 609.1264c-10.35776 0-18.81088 7.87968-18.81088 17.60256s8.448 17.60256 18.81088 17.60256c10.368 0 18.89792-7.87968 18.89792-17.60256-0.0768-9.72288-8.5248-17.60256-18.89792-17.60256z m78.86848-55.71584c-29.17888 0-56.76032-8.84736-78.86848-24.20224-22.10816 15.35488-49.67936 24.20224-78.85824 24.20224-10.13248 0-20.6592-1.77152-31.43168-5.22752v116.00384c0 10.77248 4.10112 23.95648 11.82208 38.19008 8.02816 14.78656 20.09088 30.70976 34.81088 46.06464 13.10208 13.66528 28.29824 26.77248 42.9312 37.13536a180.32128 180.32128 0 0 0 16 10.20928 6.7072 6.7072 0 0 0 6.73792-0.08192 213.70368 213.70368 0 0 0 16.16896-10.60864 334.70976 334.70976 0 0 0 44.05248-37.69856c15.26784-15.51872 27.65824-31.51872 36.0192-46.15168 7.95136-13.98272 12.12928-26.84928 12.12928-37.22752v-115.84c-10.84928 3.54304-21.38112 5.23264-31.5136 5.23264z m-66.9696 120.26368v50.65216c-0.08192 6.10816-5.46816 11.09504-12.05248 11.01312-6.43072-0.08704-11.65824-4.90496-11.7504-11.01312v-50.65216c-22.67136-4.98176-39.6288-24.19712-39.6288-46.94528 0-26.60864 23.14752-48.23552 51.52768-48.23552 28.46208 0 51.53792 21.62688 51.53792 48.23552 0.01024 22.75328-16.96256 41.8816-39.63392 46.94528z" fill="currentcolor" p-id="1213"></path>
</svg>