<svg viewBox="0 0 1024 1024" width="1em" height="1em">
  <path d="M964.16 588.08a31.584 31.584 0 0 1-45.12 0l-23.36-23.2v336.64a32 32 0 0 1-64 0v-400.64l-320-320-320 320v400.64a32 32 0 0 1-64 0v-336.64l-23.36 23.2a31.904 31.904 0 0 1-45.12-45.12l68.48-68.64v-4.8h4.8l333.92-333.92 45.28-45.28 45.28 45.28 333.92 333.92h4.8v4.8l68.48 68.64a31.584 31.584 0 0 1 0 45.12z m-196.48 217.44H606.56l-94.88 80-110.88-80h-145.12v-320h512v320z m-64-256h-384v192h128l64 64 64-64h128v-192z m-112 64h64v64h-64v-64z m-112 0h64v64h-64v-64z m-112 0h64v64h-64v-64z" fill="currentcolor" p-id="2436"></path>
</svg>