<svg viewBox="0 0 1024 1024"  width="1em" height="1em">
  <path d="M185 842h719a8 8 0 0 1 8 8v56a8 8 0 0 1-8 8H144c-17.673 0-32-14.327-32-32v-32c0-1.406 0.363-2.728 1-3.876V120a8 8 0 0 1 8-8h56a8 8 0 0 1 8 8v722z m215.848-423.471l9.192-9.192a8 8 0 0 1 11.314 0l130.108 130.107 251.022-251.023a8 8 0 0 1 11.314 0l42.427 42.427a8 8 0 0 1 0 11.313L605.202 593.184l-48.084 48.084a8 8 0 0 1-11.313 0L415.697 511.16l-139.3 139.3a8 8 0 0 1-11.314 0l-42.426-42.426a8 8 0 0 1 0-11.314l178.19-178.191z" fill="currentcolor" p-id="2289"></path>
</svg>