<svg viewBox="0 0 1024 1024" width="1em" height="1em">
  <path fill="currentcolor" d="M578.526 480.167h242.476v-10.171a264.793 264.793 0 0 0-71.147-181.317l97.71-97.676-7.189-7.195C763.863 107.411 662.153 65.311 553.998 65.311h-10.172v67.147A335.524 335.524 0 0 0 322.3 224.147l-99.765-99.69a10.172 10.172 0 0 0-14.37 0C115.8 216.76 64.936 339.477 64.936 470.002a10.158 10.158 0 0 0 10.157 10.158h74.001c2.547 104.298 44.408 202.001 118.498 276.003l7.181 7.174 47.514-47.48a335.544 335.544 0 0 0 221.525 91.683v151.15h10.192c130.629 0 253.427-50.832 345.812-143.129l7.189-7.181-328.48-328.213z m221.907-20.316h-221.9l43-42.94 113.91-113.848a244.374 244.374 0 0 1 64.997 156.788h-0.007zM564.143 85.757a382.007 382.007 0 0 1 254.572 105.362L564.15 445.488V85.757z m-20.317 67.003v292.728L379.563 281.36l-42.892-42.865a315.337 315.337 0 0 1 207.155-85.715v-0.02z m-328.39-6.69l92.378 92.31 193.769 193.611 27.852 27.833H85.361A464.732 464.732 0 0 1 215.436 146.07v-0.007zM169.43 480.16h360.004l-45.554 45.507-176.08 175.95-32.925 32.912a381.372 381.372 0 0 1-105.452-254.362l0.007-0.007z m167.24 221.362l207.155-207.005v292.72a315.324 315.324 0 0 1-207.155-85.715z m227.471 236.735V494.524l314 313.774a465.456 465.456 0 0 1-314 129.96z"></path>
  <path fill="currentcolor" d="M552.653 471.45l182.92 179.998 50.19 50.149 47.398 47.404c71.454-71.407 115.746-168.591 115.746-277.545H552.653z"></path>
  <path fill="currentcolor" d="M833.174 759.153a10.308 10.308 0 0 1-3.891-0.785 10.254 10.254 0 0 1-3.29-2.22l-97.594-97.484L545.526 478.66a10.158 10.158 0 0 1 7.12-17.402h396.26a10.151 10.151 0 0 1 10.159 10.165c0 107.118-42.162 208.24-118.71 284.727a10.254 10.254 0 0 1-3.29 2.219 10.288 10.288 0 0 1-3.89 0.785zM577.468 481.608l165.24 162.625 90.377 90.31c65.85-69.25 103.001-158.366 105.527-252.928H577.468z"></path>
</svg>