<svg viewBox="0 0 1024 1024"  width="1em" height="1em">
  <path d="M258.891283 145.963971C251.706088 141.272113 242.715832 140.28298 234.682435 143.300447L26.182435 221.616236C15.671884 225.56416 8.710526 235.615191 8.710526 246.842737L8.710526 931.57958C8.710526 950.400572 27.514276 963.424075 45.133354 956.806079L253.633355 878.490289 236.366722 879.060268 495.669354 957.376058C501.545119 959.150682 507.850656 958.866231 513.542767 956.569759L779.89803 849.109233 758.156728 848.41364 982.077781 955.874166C999.966293 964.458928 1020.684211 951.421379 1020.684211 931.57958L1020.684211 198.750632C1020.684211 183.868011 1008.619462 171.803263 993.736842 171.803263 978.854221 171.803263 966.789473 183.868011 966.789473 198.750632L966.789473 931.57958 1005.395903 907.284992 781.47485 799.824466C774.647434 796.547963 766.756444 796.295499 759.733548 799.128873L493.378285 906.589399 511.251698 905.783101 251.949068 827.467312C246.286942 825.75721 240.219455 825.957501 234.682435 828.037289L26.182435 906.353079 62.605263 931.57958 62.605263 246.842737 45.133354 272.069238 253.633355 193.753448 229.424507 191.089924 349.358717 269.405713C361.819904 277.54274 378.518057 274.037313 386.655082 261.576125 394.792108 249.114938 391.286682 232.416787 378.825494 224.27976L258.891283 145.963971ZM215.578947 687.184841C215.578947 702.067463 227.643696 714.13221 242.526316 714.13221 257.408937 714.13221 269.473684 702.067463 269.473684 687.184841L269.473684 309.921684C269.473684 295.039063 257.408937 282.974316 242.526316 282.974316 227.643696 282.974316 215.578947 295.039063 215.578947 309.921684L215.578947 687.184841ZM431.157895 741.079579C431.157895 755.962199 443.222642 768.026947 458.105264 768.026947 472.987884 768.026947 485.052631 755.962199 485.052631 741.079579L485.052631 552.448C485.052631 537.565379 472.987884 525.500631 458.105264 525.500631 443.222642 525.500631 431.157895 537.565379 431.157895 552.448L431.157895 741.079579Z" fill="currentcolor" p-id="1989"></path>
  <path d="M709.814844 616.15105C717.070326 608.715493 725.139099 600.243106 733.81986 590.872885 758.614726 564.108706 783.410966 535.44745 806.609507 505.972746 830.811001 475.223747 851.896332 445.30523 868.987569 416.746936 899.318521 366.06598 916.210526 321.392135 916.210526 282.974316 916.210526 149.03073 807.627796 40.448 673.68421 40.448 539.740624 40.448 431.157895 149.03073 431.157895 282.974316 431.157895 321.80386 449.414019 366.663074 482.160007 417.500993 500.559217 446.065638 523.250789 475.981063 549.293718 506.724297 574.252254 536.187423 600.927957 564.835546 627.601033 591.586307 636.938196 600.950666 645.616541 609.417206 653.419431 616.846949 658.13924 621.341046 661.546399 624.516125 663.423725 626.23224L682.286722 643.47542 700.504337 625.551737C702.253754 623.830545 705.424521 620.650337 709.814844 616.15105ZM699.786801 586.453234C698.17194 584.977044 695.031248 582.050284 690.584064 577.815772 683.108635 570.697832 674.762564 562.555455 665.765743 553.532431 640.056006 527.747813 614.348897 500.139904 590.416807 471.88848 565.785996 442.812227 544.469625 414.709798 527.468947 388.316361 499.837049 345.418033 485.052631 309.089548 485.052631 282.974316 485.052631 178.795971 569.505865 94.342737 673.68421 94.342737 777.862555 94.342737 862.31579 178.795971 862.31579 282.974316 862.31579 309.501274 848.509228 346.015128 822.741996 389.07042 806.942556 415.470206 787.139309 443.569541 764.258913 472.640031 742.03229 500.879875 718.158711 528.474653 694.283759 554.245854 685.930081 563.263015 678.181164 571.399545 671.241283 578.511669 667.114387 582.740992 664.201428 585.662624 662.70619 587.133737L699.786801 586.453234Z" fill="currentcolor" p-id="1990"></path>
  <path d="M808.421053 282.974316C808.421053 208.561213 748.097314 148.237474 673.68421 148.237474 599.271107 148.237474 538.947369 208.561213 538.947369 282.974316 538.947369 357.387419 599.271107 417.711159 673.68421 417.711159 748.097314 417.711159 808.421053 357.387419 808.421053 282.974316ZM592.842105 282.974316C592.842105 238.326455 629.036349 202.132211 673.68421 202.132211 718.332073 202.132211 754.526316 238.326455 754.526316 282.974316 754.526316 327.622178 718.332073 363.816421 673.68421 363.816421 629.036349 363.816421 592.842105 327.622178 592.842105 282.974316Z" fill="currentcolor" p-id="1991"></path>
</svg>