<svg viewBox="0 0 1024 1024"  width="1em" height="1em">
  <path d="M789.333333 85.333333A149.333333 149.333333 0 0 0 640 234.666667c0 112 130.688 167.552 130.688 298.666666 0 10.282667 8.362667 19.328 18.645333 19.328s20.181333-7.594667 20.181334-17.834666C809.472 403.669333 938.666667 341.333333 938.666667 234.666667A149.333333 149.333333 0 0 0 789.333333 85.333333zM213.333333 128a85.333333 85.333333 0 0 0-85.333333 85.333333v597.333334a85.333333 85.333333 0 0 0 85.333333 85.333333h597.333334a85.333333 85.333333 0 0 0 85.333333-85.333333v-298.666667s-5.333333 101.333333-85.333333 128v110.336L572.330667 512l73.813333-73.813333-52.309333-68.352L213.333333 750.336V213.333333h341.333334c5.333333-53.333333 26.666667-85.333333 26.666666-85.333333H213.333333z m577.408 55.424a49.792 49.792 0 1 1 0.085334 99.584 49.792 49.792 0 0 1-0.085334-99.584zM362.752 256a106.666667 106.666667 0 1 0 0 213.333333c89.557333 0 109.226667-83.754667 100.48-125.354666l-100.48-0.042667v40.746667h58.026667c-7.637333 24.704-28.16 42.325333-58.026667 42.325333A64.426667 64.426667 0 0 1 298.325333 362.666667 64.426667 64.426667 0 0 1 404.48 313.813333l30.122667-29.994666A106.368 106.368 0 0 0 362.752 256zM512 572.330667L750.336 810.666667H273.664L512 572.330667z" fill="currentcolor" p-id="2885"></path>
</svg>