<svg viewBox="0 0 1024 1024" version="1.1" xmlns="http://www.w3.org/2000/svg" width="1em" height="1em">
  <path fill="currentcolor" d="M128 512h320v64H128zM128 320h576v64H128z"></path>
  <path fill="currentcolor" d="M832 464.18V64H640V0h-64v64H256V0h-64v64H0v896h554.23c49.45 40.07 112.62 64 181.77 64 160 0 288-128 288-288 0-126.28-79.74-232.6-192-271.82zM64 128h128v64h64v-64h320v64h64v-64h128v321.75c-10.5-1.14-21.17-1.75-32-1.75-160 0-288 128-288 288 0 59.38 17.64 114.35 48 160H64V128z m672 832c-121.6 0-224-102.4-224-224s102.4-224 224-224 224 102.4 224 224-102.4 224-224 224z"></path>
  <path fill="currentcolor" d="M128 704h256v64H128zM768 768V576h-64v256h192v-64z"></path>
</svg>