<svg  viewBox="0 0 1024 1024" version="1.1" xmlns="http://www.w3.org/2000/svg"  width="1em" height="1em">
  <path fill="currentcolor" d="M85.312 768H384v85.312H85.312V768z m0-298.688h384v85.376h-384V469.312z m0-298.624h853.376V256H85.312V170.688z m796.8 385.024l49.28-16.64 42.688 73.856-39.04 34.368a171.328 171.328 0 0 1 0 70.72l39.04 34.368-42.688 73.92-49.28-16.704a170.56 170.56 0 0 1-61.248 35.392l-10.24 51.008h-85.312l-10.24-51.008a170.56 170.56 0 0 1-61.184-35.392l-49.28 16.64-42.688-73.856 39.04-34.368a171.2 171.2 0 0 1 0-70.72l-39.04-34.368 42.688-73.856 49.28 16.64c17.536-15.744 38.336-27.904 61.248-35.392l10.24-51.008h85.312l10.24 51.008c22.848 7.488 43.648 19.648 61.184 35.392zM768 768a85.312 85.312 0 1 0 0-170.688A85.312 85.312 0 0 0 768 768z" p-id="1277"></path>
</svg>