<svg  viewBox="0 0 1024 1024" version="1.1" xmlns="http://www.w3.org/2000/svg" p-id="1510" width="1em" height="1em">
  <path d="M527.872 848H222.208c-6.912 0-14.528-8.32-14.528-20.224V203.008c0-11.904 7.68-20.224 14.528-20.224h536.384c6.912 0 14.528 8.32 14.528 20.224v331.2a29.952 29.952 0 1 0 59.968 0V203.008c0-44.16-33.408-80.192-74.496-80.192H222.208c-41.088 0-74.496 35.968-74.496 80.192v624.896c0 44.16 33.408 80.192 74.496 80.192H528a30.08 30.08 0 0 0-0.128-60.16z m143.808-537.216H309.12a29.952 29.952 0 1 0 0 60.032h362.56a29.952 29.952 0 1 0 0-60.032z m30.08 183.616c0-16.64-13.44-30.016-30.08-30.016H309.12a29.952 29.952 0 1 0 0 60.032h362.56a30.08 30.08 0 0 0 30.08-30.016zM316.8 618.112a29.952 29.952 0 1 0 0 59.968H480a29.952 29.952 0 1 0 0-59.968H316.8z m561.28 138.88a105.856 105.856 0 0 0-125.44-2.816l-46.656-36.096 29.632-38.4a30.08 30.08 0 0 0-47.488-36.672l-29.632 38.4-38.208-29.504 29.632-38.272a30.08 30.08 0 0 0-47.488-36.736l-66.304 85.76 179.264 138.56a105.984 105.984 0 0 0 33.536 123.2c19.2 14.784 41.856 21.952 64.448 21.952a105.792 105.792 0 0 0 64.64-189.44z m-28.352 111.616a45.248 45.248 0 0 1-30.4 17.408 45.696 45.696 0 1 1-5.76-91.2 45.696 45.696 0 0 1 36.16 73.792z" fill="currentcolor" p-id="1511"></path>
</svg>