<svg viewBox="0 0 1024 1024" version="1.1" xmlns="http://www.w3.org/2000/svg" p-id="1359" width="1em" height="1em">
  <path d="M520.062 66c143.317 67.291 258.119 104.66 344.405 112.11C882.305 179.648 896 194.577 896 212.48v333.564C865.667 746.94 740 884.258 519 958c-223.854-74.019-349.521-211.337-377-411.955V213.16c0-18.16 14.077-33.21 32.195-34.423 89.313-5.98 204.602-43.558 345.867-112.736z m-0.166 69.589c-132.617 65.006-238.082 96.951-316.394 95.834l-2.365-0.044v309.354C224.306 710.05 330.26 825.942 519 888.411c184.47-61.614 290.161-175.816 317.071-342.607l0.792-5.07V231.378c-75.11 0.153-180.766-31.777-316.967-95.79zM519 245.319c81.32 0 147.122 66.46 147.122 148.295 0 71.888-50.777 131.91-118.244 145.44l0.116 24.597 53.685-0.138c16.505-0.042 29.919 13.304 29.961 29.81 0.042 16.27-12.924 29.537-29.101 29.954l-0.706 0.01-53.551 0.137 0.133 27.694 53.264-0.137c16.505-0.042 29.919 13.304 29.961 29.81 0.042 16.27-12.924 29.537-29.101 29.953l-0.706 0.01-53.131 0.137 0.182 37.76c0.08 16.505-13.236 29.95-29.74 30.03-16.269 0.077-29.564-12.86-30.016-29.038l-0.012-0.706-1.012-210.302c-66.46-14.312-116.226-73.852-116.226-145.02 0-81.836 65.803-148.295 147.122-148.295z m0 59.774c-48.178 0-87.354 39.567-87.354 88.521 0 45.199 33.394 82.394 76.436 87.837a29.76 29.76 0 0 1 9.625-1.637 29.819 29.819 0 0 1 10.476 1.835c43.876-4.645 78.17-42.23 78.17-88.035 0-48.954-39.175-88.521-87.353-88.521z" fill="currentcolor" p-id="1360"></path>
</svg>