<svg viewBox="0 0 1024 1024" version="1.1" xmlns="http://www.w3.org/2000/svg" width="1em" height="1em">
  <path d="M885.76 296.448H138.24c-5.632 0-10.24 4.608-10.24 10.24v408.064c0 5.632 4.608 10.24 10.24 10.24h747.52c5.632 0 10.24-4.608 10.24-10.24V306.688c0-5.632-4.608-10.24-10.24-10.24zM184.32 693.76c-14.336 0-25.6-11.264-25.6-25.6s11.264-25.6 25.6-25.6 25.6 11.264 25.6 25.6-11.264 25.6-25.6 25.6z m0-315.392c-14.336 0-25.6-11.264-25.6-25.6s11.264-25.6 25.6-25.6 25.6 11.264 25.6 25.6-11.264 25.6-25.6 25.6zM299.52 599.04c0 16.384-10.752 27.136-27.136 27.136s-27.136-13.824-27.136-27.136V421.376c0-16.384 13.824-27.136 27.136-27.136s27.136 13.824 27.136 27.136V599.04z m105.984 0c0 16.384-10.752 27.136-27.136 27.136s-27.136-13.824-27.136-27.136V421.376c0-16.384 13.824-27.136 27.136-27.136 16.384 0 27.136 13.824 27.136 27.136V599.04z m177.152 0c0 16.384-13.824 27.136-27.136 27.136-16.384 0-27.136-13.824-27.136-27.136V421.376c0-16.384 13.824-27.136 27.136-27.136 16.384 0 27.136 13.824 27.136 27.136V599.04z m95.744 0c0 16.384-10.752 27.136-27.136 27.136s-27.136-13.824-27.136-27.136V421.376c0-16.384 13.824-27.136 27.136-27.136 16.384 0 27.136 13.824 27.136 27.136V599.04z m95.744 0c0 16.384-10.752 27.136-27.136 27.136s-27.136-13.824-27.136-27.136V421.376c0-16.384 13.824-27.136 27.136-27.136 13.824 0 27.136 13.824 27.136 27.136V599.04z m65.024 94.72c-14.336 0-25.6-11.264-25.6-25.6s11.264-25.6 25.6-25.6 25.6 11.264 25.6 25.6-11.776 25.6-25.6 25.6z m0-315.392c-14.336 0-25.6-11.264-25.6-25.6s11.264-25.6 25.6-25.6 25.6 11.264 25.6 25.6-11.776 25.6-25.6 25.6z" fill="currentcolor"></path>
  <path d="M885.76 245.248H138.24c-33.792 0-61.44 27.648-61.44 61.44v408.064c0 33.792 27.648 61.44 61.44 61.44h747.52c33.792 0 61.44-27.648 61.44-61.44V306.688c0-33.792-27.648-61.44-61.44-61.44z m10.24 469.504c0 5.632-4.608 10.24-10.24 10.24H138.24c-5.632 0-10.24-4.608-10.24-10.24V306.688c0-5.632 4.608-10.24 10.24-10.24h747.52c5.632 0 10.24 4.608 10.24 10.24v408.064z"></path>
  <path d="M184.32 352.768m-25.6 0a25.6 25.6 0 1 0 51.2 0 25.6 25.6 0 1 0-51.2 0Z"></path>
  <path d="M184.32 668.16m-25.6 0a25.6 25.6 0 1 0 51.2 0 25.6 25.6 0 1 0-51.2 0Z"></path>
  <path d="M839.168 352.768m-25.6 0a25.6 25.6 0 1 0 51.2 0 25.6 25.6 0 1 0-51.2 0Z"></path>
  <path d="M839.168 668.16m-25.6 0a25.6 25.6 0 1 0 51.2 0 25.6 25.6 0 1 0-51.2 0Z"></path>
  <path d="M271.872 394.24c-13.824 0-27.136 10.752-27.136 27.136V599.04c0 13.824 10.752 27.136 27.136 27.136s27.136-10.752 27.136-27.136V421.376c0.512-13.312-13.312-27.136-27.136-27.136zM378.368 394.24c-13.824 0-27.136 10.752-27.136 27.136V599.04c0 13.824 10.752 27.136 27.136 27.136s27.136-10.752 27.136-27.136V421.376c0-13.312-10.752-27.136-27.136-27.136zM555.008 394.24c-13.824 0-27.136 10.752-27.136 27.136V599.04c0 13.824 10.752 27.136 27.136 27.136 13.824 0 27.136-10.752 27.136-27.136V421.376c0.512-13.312-10.752-27.136-27.136-27.136zM650.752 394.24c-13.824 0-27.136 10.752-27.136 27.136V599.04c0 13.824 10.752 27.136 27.136 27.136s27.136-10.752 27.136-27.136V421.376c0.512-13.312-10.752-27.136-27.136-27.136zM747.008 394.24c-13.824 0-27.136 10.752-27.136 27.136V599.04c0 13.824 10.752 27.136 27.136 27.136s27.136-10.752 27.136-27.136V421.376c0-13.312-13.824-27.136-27.136-27.136z"></path>
</svg>