<svg viewBox="0 0 1024 1024" version="1.1" xmlns="http://www.w3.org/2000/svg" p-id="1336" width="1em" height="1em">
  <path fill="currentcolor" d="M52.736 406.016v211.456c0 14.336 14.848 29.184 29.184 29.184 20.992 0 29.184-8.704 29.184-29.184V406.016c0-14.336-14.848-29.184-29.184-29.184-13.824 0-29.184 15.36-29.184 29.184z" p-id="1337"></path>
  <path fill="currentcolor" d="M952.32 416.256l-7.68-2.048V148.48c0-80.896-60.928-141.824-141.824-141.824H194.56C113.664 6.656 52.736 67.584 52.736 148.48v19.968c0 14.336 14.848 29.184 29.184 29.184 14.336 0 29.184-14.848 29.184-29.184V148.48c0-45.056 37.888-82.944 82.944-82.944H808.96c45.056 0 82.944 37.888 82.944 82.944v265.216l-7.168 2.56c-34.304 11.264-72.192 53.76-72.192 95.744 0 45.568 28.16 83.456 71.68 95.744l7.68 2.048V875.52c0 45.056-37.888 82.944-82.944 82.944H194.56c-45.056 0-82.944-37.888-82.944-82.944v-19.968c0-14.336-14.848-29.184-29.184-29.184-14.336 0-29.184 14.848-29.184 29.184v19.968c0 80.896 60.928 141.824 141.824 141.824h614.912c80.896 0 141.824-60.928 141.824-141.824v-258.048l6.144-2.56c43.008-18.432 66.56-54.784 66.56-102.912-0.512-45.568-28.672-83.456-72.192-95.744z m33.28 102.4l-0.512 1.024c-7.168 29.184-30.208 55.808-62.976 55.808-31.232 0-63.488-23.552-63.488-63.488 0-31.232 23.552-63.488 63.488-63.488 38.912 0 63.488 29.696 63.488 68.608v1.536z" p-id="1338"></path>
  <path fill="currentcolor" d="M693.248 287.232c0-13.824-15.36-29.184-29.184-29.184H339.968c-14.336 0-29.184 14.848-29.184 29.184 0 19.968 14.848 29.184 29.184 29.184h324.096c14.848 0 29.184-9.216 29.184-29.184zM339.968 541.184h324.096c14.336 0 29.184-9.216 29.184-29.184 0-13.824-15.36-29.184-29.184-29.184H339.968c-14.336 0-29.184 14.848-29.184 29.184 0 19.968 14.848 29.184 29.184 29.184zM339.968 765.952h324.096c14.336 0 29.184-9.216 29.184-29.184 0-14.336-14.848-29.184-29.184-29.184H339.968c-14.336 0-29.184 14.848-29.184 29.184 0 13.824 15.36 29.184 29.184 29.184zM171.008 736.768c0-14.336-14.848-29.184-29.184-29.184h-112.64c-14.336 0-29.184 14.848-29.184 29.184 0 13.824 15.36 29.184 29.184 29.184h112.64c14.336 0 29.184-8.704 29.184-29.184zM29.184 316.416h112.64c14.336 0 29.184-9.216 29.184-29.184 0-14.336-14.848-29.184-29.184-29.184h-112.64c-19.968 0-29.184 14.848-29.184 29.184 0 20.48 8.704 29.184 29.184 29.184z" p-id="1339"></path>
</svg>